<svg width="40" height="40" viewBox="0 0 40 40" fill="none" xmlns="http://www.w3.org/2000/svg">
<path fill-rule="evenodd" clip-rule="evenodd" d="M7.87868 27.4425C6.70711 28.6141 6.70711 30.5136 7.87868 31.6851C9.05025 32.8567 10.9497 32.8567 12.1213 31.6851L19.6836 24.1229L27.4425 31.8818C28.6141 33.0534 30.5136 33.0534 31.6851 31.8818C32.8567 30.7103 32.8567 28.8108 31.6851 27.6392L23.9262 19.8803L31.6851 12.1213C32.8567 10.9497 32.8567 9.05025 31.6851 7.87868C30.5136 6.70711 28.6141 6.70711 27.4425 7.87868L19.6836 15.6376L12.1213 8.07538C10.9497 6.90381 9.05025 6.90381 7.87868 8.07538C6.70711 9.24695 6.70711 11.1464 7.87868 12.318L15.4409 19.8803L7.87868 27.4425Z" fill="url(#paint0_linear_11864_366932)"/>
<defs>
<linearGradient id="paint0_linear_11864_366932" x1="7" y1="19.8803" x2="32.5638" y2="19.8803" gradientUnits="userSpaceOnUse">
<stop stop-color="#3B71FE"/>
<stop offset="1" stop-color="#07BBA9"/>
</linearGradient>
</defs>
</svg>
