<svg width="34" height="34" viewBox="0 0 34 34" fill="none" xmlns="http://www.w3.org/2000/svg">
<path fill-rule="evenodd" clip-rule="evenodd" d="M27.6487 1.81632C26.2068 0.37438 23.8689 0.374379 22.427 1.81631L0.918636 23.3247C0.594516 23.6488 0.402563 24.0819 0.380124 24.5397L0.0198435 31.8905C-0.0335627 32.9802 0.864513 33.8783 1.95416 33.8248L9.30497 33.4646C9.7628 33.4421 10.1959 33.2502 10.52 32.9261L32.0284 11.4177C33.4703 9.97577 33.4703 7.63793 32.0284 6.19599L27.6487 1.81632ZM5.45864 23.6103C5.10273 23.2453 4.51831 23.2379 4.15332 23.5939C3.78832 23.9498 3.78096 24.5342 4.13688 24.8992L8.85884 29.7416C9.21475 30.1066 9.79917 30.114 10.1642 29.758C10.5292 29.4021 10.5365 28.8177 10.1806 28.4527L5.45864 23.6103Z" fill="url(#paint0_linear_5675_238323)"/>
<defs>
<linearGradient id="paint0_linear_5675_238323" x1="0.0175781" y1="17.281" x2="33.1098" y2="17.281" gradientUnits="userSpaceOnUse">
<stop stop-color="#3B71FE"/>
<stop offset="1" stop-color="#07BBA9"/>
</linearGradient>
</defs>
</svg>
