<svg width="39" height="30" viewBox="0 0 39 30" fill="none" xmlns="http://www.w3.org/2000/svg">
<path fill-rule="evenodd" clip-rule="evenodd" d="M3.9926 0.601074C1.9534 0.601074 0.300293 2.25418 0.300293 4.29338V25.7088C0.300293 27.748 1.95339 29.4011 3.9926 29.4011H35.008C37.0472 29.4011 38.7003 27.748 38.7003 25.7088V4.29338C38.7003 2.25418 37.0472 0.601074 35.008 0.601074H3.9926ZM14.343 22.6287C13.8332 22.6287 13.4199 23.042 13.4199 23.5518C13.4199 24.0616 13.8332 24.4749 14.343 24.4749H24.6577C25.1675 24.4749 25.5807 24.0616 25.5807 23.5518C25.5807 23.042 25.1675 22.6287 24.6577 22.6287H14.343ZM10.5007 8.06213C10.5007 9.05624 9.69477 9.86213 8.70065 9.86213C7.70654 9.86213 6.90065 9.05624 6.90065 8.06213C6.90065 7.06802 7.70654 6.26213 8.70065 6.26213C9.69477 6.26213 10.5007 7.06802 10.5007 8.06213ZM15.9005 9.86213C16.8946 9.86213 17.7005 9.05624 17.7005 8.06213C17.7005 7.06802 16.8946 6.26213 15.9005 6.26213C14.9064 6.26213 14.1005 7.06802 14.1005 8.06213C14.1005 9.05624 14.9064 9.86213 15.9005 9.86213ZM24.9007 8.06213C24.9007 9.05624 24.0949 9.86213 23.1007 9.86213C22.1066 9.86213 21.3007 9.05624 21.3007 8.06213C21.3007 7.06802 22.1066 6.26213 23.1007 6.26213C24.0949 6.26213 24.9007 7.06802 24.9007 8.06213ZM8.70065 17.0629C9.69477 17.0629 10.5007 16.257 10.5007 15.2629C10.5007 14.2687 9.69477 13.4629 8.70065 13.4629C7.70654 13.4629 6.90065 14.2687 6.90065 15.2629C6.90065 16.257 7.70654 17.0629 8.70065 17.0629ZM17.7005 15.2629C17.7005 16.257 16.8946 17.0629 15.9005 17.0629C14.9064 17.0629 14.1005 16.257 14.1005 15.2629C14.1005 14.2687 14.9064 13.4629 15.9005 13.4629C16.8946 13.4629 17.7005 14.2687 17.7005 15.2629ZM23.1007 17.0629C24.0949 17.0629 24.9007 16.257 24.9007 15.2629C24.9007 14.2687 24.0949 13.4629 23.1007 13.4629C22.1066 13.4629 21.3007 14.2687 21.3007 15.2629C21.3007 16.257 22.1066 17.0629 23.1007 17.0629ZM32.1006 8.06213C32.1006 9.05624 31.2947 9.86213 30.3006 9.86213C29.3064 9.86213 28.5006 9.05624 28.5006 8.06213C28.5006 7.06802 29.3064 6.26213 30.3006 6.26213C31.2947 6.26213 32.1006 7.06802 32.1006 8.06213ZM30.3006 17.0629C31.2947 17.0629 32.1006 16.257 32.1006 15.2629C32.1006 14.2687 31.2947 13.4629 30.3006 13.4629C29.3064 13.4629 28.5006 14.2687 28.5006 15.2629C28.5006 16.257 29.3064 17.0629 30.3006 17.0629Z" fill="url(#paint0_linear_4650_48512)"/>
<defs>
<linearGradient id="paint0_linear_4650_48512" x1="0.300293" y1="15.0011" x2="38.7003" y2="15.0011" gradientUnits="userSpaceOnUse">
<stop stop-color="#3B71FE"/>
<stop offset="1" stop-color="#07BBA9"/>
</linearGradient>
</defs>
</svg>
