<svg width="37" height="36" viewBox="0 0 37 36" fill="none" xmlns="http://www.w3.org/2000/svg">
<path fill-rule="evenodd" clip-rule="evenodd" d="M31.078 5.83278C30.502 5.23741 29.5524 5.22174 28.957 5.79778C28.3616 6.37382 28.3459 7.32344 28.922 7.91881C31.448 10.5296 33 14.0821 33 18.0001C33 21.9182 31.448 25.4706 28.922 28.0814C28.3459 28.6768 28.3616 29.6264 28.957 30.2024C29.5524 30.7785 30.502 30.7628 31.078 30.1674C34.1235 27.0197 36 22.7275 36 18.0001C36 13.2727 34.1235 8.98049 31.078 5.83278ZM21.5 7.75441C21.5 6.06137 19.5276 5.13418 18.224 6.21437L12.0551 11.3257C11.6963 11.623 11.245 11.7857 10.7791 11.7857H5.5C4.39543 11.7857 3.5 12.6811 3.5 13.7857V22.2142C3.5 23.3188 4.39543 24.2142 5.5 24.2142H10.7791C11.245 24.2142 11.6963 24.3769 12.0551 24.6742L18.224 29.7855C19.5276 30.8657 21.5 29.9385 21.5 28.2455V7.75441ZM24.5903 9.92939C25.1818 9.34937 26.1315 9.35868 26.7115 9.95018C28.7441 12.0231 30 14.867 30 18.0014C30 21.2181 28.6774 24.1285 26.5501 26.214C25.9585 26.7939 25.0088 26.7845 24.4289 26.1929C23.8489 25.6013 23.8584 24.6516 24.4499 24.0717C26.0254 22.5272 27 20.3795 27 18.0014C27 15.6838 26.0745 13.5854 24.5695 12.0506C23.9895 11.4591 23.9988 10.5094 24.5903 9.92939Z" fill="url(#paint0_linear_7524_6982)"/>
<defs>
<linearGradient id="paint0_linear_7524_6982" x1="3.5" y1="18.0001" x2="36" y2="18.0001" gradientUnits="userSpaceOnUse">
<stop stop-color="#3B71FE"/>
<stop offset="1" stop-color="#07BBA9"/>
</linearGradient>
</defs>
</svg>
