<svg width="20" height="20" viewBox="0 0 20 20" fill="none" xmlns="http://www.w3.org/2000/svg">
<path d="M10.5555 18.3333C11.6501 18.3347 12.7341 18.1197 13.7453 17.7009C14.7565 17.282 15.675 16.6674 16.448 15.8925C17.2229 15.1195 17.8375 14.201 18.2564 13.1898C18.6753 12.1786 18.8902 11.0945 18.8888 10C18.8902 8.90545 18.6753 7.82142 18.2564 6.8102C17.8375 5.79898 17.2229 4.88048 16.448 4.1075C15.675 3.33256 14.7565 2.718 13.7453 2.29913C12.7341 1.88025 11.6501 1.66531 10.5555 1.66666C9.46096 1.66531 8.37694 1.88025 7.36571 2.29913C6.35449 2.718 5.436 3.33256 4.66301 4.1075C3.88807 4.88048 3.27352 5.79898 2.85464 6.8102C2.43576 7.82142 2.22082 8.90545 2.22217 10C2.22082 11.0945 2.43576 12.1786 2.85464 13.1898C3.27352 14.201 3.88807 15.1195 4.66301 15.8925C5.436 16.6674 6.35449 17.282 7.36571 17.7009C8.37694 18.1197 9.46096 18.3347 10.5555 18.3333Z" stroke="#0D8199" stroke-width="1.5" stroke-linejoin="round"/>
<path d="M7.22217 10L9.72217 12.5L14.7222 7.5" stroke="#0D8199" stroke-width="1.5" stroke-linecap="round" stroke-linejoin="round"/>
</svg>
