<svg width="20" height="20" viewBox="0 0 20 20" fill="none" xmlns="http://www.w3.org/2000/svg">
<path d="M13.6166 7.76834C13.6966 7.69371 13.7612 7.60404 13.8066 7.50445C13.852 7.40486 13.8773 7.29731 13.8811 7.18793C13.885 7.07855 13.8672 6.96949 13.8289 6.86697C13.7906 6.76445 13.7324 6.67048 13.6578 6.59043C13.5832 6.51038 13.4935 6.44581 13.3939 6.40041C13.2943 6.35502 13.1868 6.32968 13.0774 6.32585C12.968 6.32202 12.8589 6.33977 12.7564 6.37809C12.6539 6.41641 12.5599 6.47454 12.4799 6.54918L10.0416 8.82251L7.76822 6.38334C7.61611 6.22755 7.40906 6.13747 7.19138 6.1324C6.9737 6.12732 6.76268 6.20765 6.60347 6.35618C6.44427 6.50472 6.34952 6.70967 6.3395 6.92718C6.32949 7.14468 6.405 7.35747 6.54989 7.52001L8.82322 9.95834L6.38405 12.2317C6.30117 12.3056 6.23389 12.3952 6.18616 12.4955C6.13843 12.5957 6.11121 12.7045 6.10611 12.8154C6.101 12.9263 6.11811 13.0371 6.15642 13.1413C6.19474 13.2455 6.25349 13.341 6.32923 13.4222C6.40497 13.5034 6.49617 13.5686 6.59747 13.6141C6.69877 13.6595 6.80813 13.6843 6.91913 13.6869C7.03013 13.6894 7.14052 13.6698 7.24383 13.6291C7.34714 13.5885 7.44128 13.5276 7.52072 13.45L9.95905 11.1775L12.2324 13.6158C12.3058 13.7003 12.3954 13.769 12.496 13.818C12.5965 13.8671 12.7059 13.8954 12.8176 13.9012C12.9293 13.9071 13.0411 13.8904 13.1462 13.8521C13.2513 13.8139 13.3476 13.7548 13.4295 13.6785C13.5113 13.6023 13.5769 13.5103 13.6224 13.4081C13.6679 13.3059 13.6924 13.1956 13.6944 13.0838C13.6964 12.9719 13.6758 12.8608 13.634 12.7571C13.5921 12.6534 13.5298 12.5591 13.4507 12.48L11.1782 10.0417L13.6166 7.76834Z" fill="#F2674A"/>
<path fill-rule="evenodd" clip-rule="evenodd" d="M0.833252 10C0.833252 4.93751 4.93742 0.833344 9.99992 0.833344C15.0624 0.833344 19.1666 4.93751 19.1666 10C19.1666 15.0625 15.0624 19.1667 9.99992 19.1667C4.93742 19.1667 0.833252 15.0625 0.833252 10ZM9.99992 17.5C9.01501 17.5 8.03974 17.306 7.12979 16.9291C6.21985 16.5522 5.39306 15.9998 4.69662 15.3033C4.00018 14.6069 3.44773 13.7801 3.07082 12.8701C2.69391 11.9602 2.49992 10.9849 2.49992 10C2.49992 9.0151 2.69391 8.03983 3.07082 7.12988C3.44773 6.21994 4.00018 5.39315 4.69662 4.69671C5.39306 4.00027 6.21985 3.44782 7.12979 3.07091C8.03974 2.694 9.01501 2.50001 9.99992 2.50001C11.989 2.50001 13.8967 3.29019 15.3032 4.69671C16.7097 6.10323 17.4999 8.01089 17.4999 10C17.4999 11.9891 16.7097 13.8968 15.3032 15.3033C13.8967 16.7098 11.989 17.5 9.99992 17.5Z" fill="#F2674A"/>
</svg>
