<svg width="16" height="16" viewBox="0 0 16 16" fill="none" xmlns="http://www.w3.org/2000/svg">
<path d="M8 1.14286C4.21896 1.14286 1.14286 4.21896 1.14286 8C1.14286 11.781 4.21896 14.8571 8 14.8571C11.781 14.8571 14.8571 11.781 14.8571 8C14.8571 4.21896 11.781 1.14286 8 1.14286ZM8 0C12.4183 0 16 3.58173 16 8C16 12.4183 12.4183 16 8 16C3.58173 16 0 12.4183 0 8C0 3.58173 3.58173 0 8 0Z" fill="#A6A6A6"/>
<path d="M8.5665 9.86283L8.79507 3.35541H7.19507L7.42364 9.86283H8.5665Z" fill="#A6A6A6"/>
<path d="M7.99959 10.9634C7.78202 10.9715 7.57604 11.0635 7.42496 11.2203C7.27387 11.3771 7.18945 11.5863 7.18945 11.804C7.18945 12.0217 7.27387 12.231 7.42496 12.3877C7.57604 12.5445 7.78202 12.6366 7.99959 12.6446C8.21716 12.6366 8.42315 12.5445 8.57423 12.3877C8.72532 12.231 8.80974 12.0217 8.80974 11.804C8.80974 11.5863 8.72532 11.3771 8.57423 11.2203C8.42315 11.0635 8.21716 10.9715 7.99959 10.9634Z" fill="#A6A6A6"/>
</svg>
