<svg width="28" height="50" viewBox="0 0 28 50" fill="none" xmlns="http://www.w3.org/2000/svg">
<mask id="mask0_210_792" style="mask-type:luminance" maskUnits="userSpaceOnUse" x="3" y="0" width="25" height="50">
<path d="M28 0H3V50H28V0Z" fill="white"/>
</mask>
<g mask="url(#mask0_210_792)">
<path d="M25.7499 5.975C25.9792 5.58158 26.3076 5.25515 26.7024 5.02828C27.0972 4.8014 27.5446 4.68201 27.9999 4.68201C28.4553 4.68201 28.9026 4.8014 29.2974 5.02828C29.6922 5.25515 30.0206 5.58158 30.2499 5.975L36.0728 15.9708L47.3812 18.4208C47.826 18.5175 48.2377 18.7291 48.5752 19.0344C48.9128 19.3398 49.1644 19.7284 49.305 20.1613C49.4456 20.5942 49.4703 21.0565 49.3765 21.5019C49.2828 21.9474 49.0739 22.3604 48.7707 22.7L41.0624 31.3271L42.2291 42.8375C42.2751 43.2907 42.2014 43.7481 42.0154 44.164C41.8294 44.5798 41.5375 44.9396 41.1689 45.2074C40.8004 45.4752 40.368 45.6416 39.915 45.69C39.462 45.7384 39.0042 45.6672 38.5874 45.4833L27.9999 40.8167L17.4124 45.4833C16.9956 45.6672 16.5378 45.7384 16.0848 45.69C15.6318 45.6416 15.1995 45.4752 14.8309 45.2074C14.4623 44.9396 14.1705 44.5798 13.9844 44.164C13.7984 43.7481 13.7247 43.2907 13.7707 42.8375L14.9374 31.3271L7.22907 22.7021C6.92538 22.3625 6.71607 21.9493 6.62202 21.5036C6.52797 21.0579 6.55249 20.5953 6.69312 20.162C6.83376 19.7287 7.08558 19.3399 7.42346 19.0344C7.76134 18.7288 8.17346 18.5173 8.61866 18.4208L19.927 15.9708L25.7499 5.975Z" fill="#FBA500"/>
</g>
</svg>
