<svg width="20" height="20" viewBox="0 0 20 20" fill="none" xmlns="http://www.w3.org/2000/svg">
<path d="M11.1667 9.5V5.33333C11.1667 5.11232 11.0789 4.90036 10.9226 4.74408C10.7663 4.5878 10.5543 4.5 10.3333 4.5C10.1123 4.5 9.90036 4.5878 9.74408 4.74408C9.5878 4.90036 9.5 5.11232 9.5 5.33333V9.5H5.33333C5.11232 9.5 4.90036 9.5878 4.74408 9.74408C4.5878 9.90036 4.5 10.1123 4.5 10.3333C4.5 10.5543 4.5878 10.7663 4.74408 10.9226C4.90036 11.0789 5.11232 11.1667 5.33333 11.1667H9.5V15.3333C9.5 15.5543 9.5878 15.7663 9.74408 15.9226C9.90036 16.0789 10.1123 16.1667 10.3333 16.1667C10.5543 16.1667 10.7663 16.0789 10.9226 15.9226C11.0789 15.7663 11.1667 15.5543 11.1667 15.3333V11.1667H15.3333C15.5543 11.1667 15.7663 11.0789 15.9226 10.9226C16.0789 10.7663 16.1667 10.5543 16.1667 10.3333C16.1667 10.1123 16.0789 9.90036 15.9226 9.74408C15.7663 9.5878 15.5543 9.5 15.3333 9.5H11.1667Z" fill="#333333"/>
</svg>
