<svg width="24" height="24" viewBox="0 0 24 24" fill="none" xmlns="http://www.w3.org/2000/svg">
<path d="M20 21.9H18V20.1C18 18.6088 16.6569 17.4 15 17.4H9C7.34315 17.4 6 18.6088 6 20.1V21.9H4V20.1C4 17.6147 6.23858 15.6 9 15.6H15C17.7614 15.6 20 17.6147 20 20.1V21.9ZM12 13.8C8.68629 13.8 6 11.3823 6 8.4C6 5.41766 8.68629 3 12 3C15.3137 3 18 5.41766 18 8.4C18 11.3823 15.3137 13.8 12 13.8ZM12 12C14.2091 12 16 10.3882 16 8.4C16 6.41177 14.2091 4.8 12 4.8C9.79086 4.8 8 6.41177 8 8.4C8 10.3882 9.79086 12 12 12Z" fill="#333333"/>
</svg>
