<svg width="21" height="20" viewBox="0 0 21 20" fill="none" xmlns="http://www.w3.org/2000/svg">
<path d="M14.6667 11.6667C14.8877 11.6667 15.0996 11.5789 15.2559 11.4226C15.4122 11.2663 15.5 11.0543 15.5 10.8333C15.5 10.6123 15.4122 10.4004 15.2559 10.2441C15.0996 10.0878 14.8877 10 14.6667 10C14.4457 10 14.2337 10.0878 14.0774 10.2441C13.9211 10.4004 13.8333 10.6123 13.8333 10.8333C13.8333 11.0543 13.9211 11.2663 14.0774 11.4226C14.2337 11.5789 14.4457 11.6667 14.6667 11.6667ZM14.6667 15C14.8877 15 15.0996 14.9122 15.2559 14.7559C15.4122 14.5996 15.5 14.3877 15.5 14.1667C15.5 13.9457 15.4122 13.7337 15.2559 13.5774C15.0996 13.4211 14.8877 13.3333 14.6667 13.3333C14.4457 13.3333 14.2337 13.4211 14.0774 13.5774C13.9211 13.7337 13.8333 13.9457 13.8333 14.1667C13.8333 14.3877 13.9211 14.5996 14.0774 14.7559C14.2337 14.9122 14.4457 15 14.6667 15ZM11.3333 10.8333C11.3333 11.0543 11.2455 11.2663 11.0893 11.4226C10.933 11.5789 10.721 11.6667 10.5 11.6667C10.279 11.6667 10.067 11.5789 9.91074 11.4226C9.75446 11.2663 9.66667 11.0543 9.66667 10.8333C9.66667 10.6123 9.75446 10.4004 9.91074 10.2441C10.067 10.0878 10.279 10 10.5 10C10.721 10 10.933 10.0878 11.0893 10.2441C11.2455 10.4004 11.3333 10.6123 11.3333 10.8333ZM11.3333 14.1667C11.3333 14.3877 11.2455 14.5996 11.0893 14.7559C10.933 14.9122 10.721 15 10.5 15C10.279 15 10.067 14.9122 9.91074 14.7559C9.75446 14.5996 9.66667 14.3877 9.66667 14.1667C9.66667 13.9457 9.75446 13.7337 9.91074 13.5774C10.067 13.4211 10.279 13.3333 10.5 13.3333C10.721 13.3333 10.933 13.4211 11.0893 13.5774C11.2455 13.7337 11.3333 13.9457 11.3333 14.1667ZM6.33333 11.6667C6.55435 11.6667 6.76631 11.5789 6.92259 11.4226C7.07887 11.2663 7.16667 11.0543 7.16667 10.8333C7.16667 10.6123 7.07887 10.4004 6.92259 10.2441C6.76631 10.0878 6.55435 10 6.33333 10C6.11232 10 5.90036 10.0878 5.74408 10.2441C5.5878 10.4004 5.5 10.6123 5.5 10.8333C5.5 11.0543 5.5878 11.2663 5.74408 11.4226C5.90036 11.5789 6.11232 11.6667 6.33333 11.6667ZM6.33333 15C6.55435 15 6.76631 14.9122 6.92259 14.7559C7.07887 14.5996 7.16667 14.3877 7.16667 14.1667C7.16667 13.9457 7.07887 13.7337 6.92259 13.5774C6.76631 13.4211 6.55435 13.3333 6.33333 13.3333C6.11232 13.3333 5.90036 13.4211 5.74408 13.5774C5.5878 13.7337 5.5 13.9457 5.5 14.1667C5.5 14.3877 5.5878 14.5996 5.74408 14.7559C5.90036 14.9122 6.11232 15 6.33333 15Z" fill="#3E72A4"/>
<path fill-rule="evenodd" clip-rule="evenodd" d="M6.33331 1.45837C6.49907 1.45837 6.65805 1.52422 6.77526 1.64143C6.89247 1.75864 6.95831 1.91761 6.95831 2.08337V2.71921C7.50998 2.70837 8.11748 2.70837 8.78581 2.70837H12.2133C12.8825 2.70837 13.49 2.70837 14.0416 2.71921V2.08337C14.0416 1.91761 14.1075 1.75864 14.2247 1.64143C14.3419 1.52422 14.5009 1.45837 14.6666 1.45837C14.8324 1.45837 14.9914 1.52422 15.1086 1.64143C15.2258 1.75864 15.2916 1.91761 15.2916 2.08337V2.77254C15.5083 2.78921 15.7136 2.81032 15.9075 2.83587C16.8841 2.96754 17.675 3.24421 18.2991 3.86754C18.9225 4.49171 19.1991 5.28254 19.3308 6.25921C19.4583 7.20921 19.4583 8.42171 19.4583 9.95337V11.7134C19.4583 13.245 19.4583 14.4584 19.3308 15.4075C19.1991 16.3842 18.9225 17.175 18.2991 17.7992C17.675 18.4225 16.8841 18.6992 15.9075 18.8309C14.9575 18.9584 13.745 18.9584 12.2133 18.9584H8.78748C7.25581 18.9584 6.04248 18.9584 5.09331 18.8309C4.11665 18.6992 3.32581 18.4225 2.70165 17.7992C2.07831 17.175 1.80165 16.3842 1.66998 15.4075C1.54248 14.4575 1.54248 13.245 1.54248 11.7134V9.95337C1.54248 8.42171 1.54248 7.20837 1.66998 6.25921C1.80165 5.28254 2.07831 4.49171 2.70165 3.86754C3.32581 3.24421 4.11665 2.96754 5.09331 2.83587C5.28776 2.81032 5.49304 2.78921 5.70915 2.77254V2.08337C5.70915 1.91776 5.77488 1.75891 5.89191 1.64173C6.00894 1.52454 6.1677 1.45859 6.33331 1.45837ZM5.25831 4.07504C4.42081 4.18754 3.93748 4.39921 3.58498 4.75171C3.23248 5.10421 3.02081 5.58754 2.90831 6.42504C2.88943 6.56671 2.87331 6.71643 2.85998 6.87421H18.14C18.1266 6.71643 18.1105 6.56643 18.0916 6.42421C17.9791 5.58671 17.7675 5.10337 17.415 4.75087C17.0625 4.39837 16.5791 4.18671 15.7408 4.07421C14.885 3.95921 13.7558 3.95754 12.1666 3.95754H8.83331C7.24415 3.95754 6.11581 3.96004 5.25831 4.07504ZM2.79165 10C2.79165 9.28837 2.79165 8.66921 2.80248 8.12504H18.1975C18.2083 8.66921 18.2083 9.28837 18.2083 10V11.6667C18.2083 13.2559 18.2066 14.385 18.0916 15.2417C17.9791 16.0792 17.7675 16.5625 17.415 16.915C17.0625 17.2675 16.5791 17.4792 15.7408 17.5917C14.885 17.7067 13.7558 17.7084 12.1666 17.7084H8.83331C7.24415 17.7084 6.11581 17.7067 5.25831 17.5917C4.42081 17.4792 3.93748 17.2675 3.58498 16.915C3.23248 16.5625 3.02081 16.0792 2.90831 15.2409C2.79331 14.385 2.79165 13.2559 2.79165 11.6667V10Z" fill="black"/>
</svg>
