<svg width="20" height="20" viewBox="0 0 20 20" fill="none" xmlns="http://www.w3.org/2000/svg">
<path d="M16.8864 9.65192V7.74016C16.8864 7.33453 16.7267 6.94552 16.4426 6.6587C16.1584 6.37188 15.7731 6.21074 15.3712 6.21074H10.8788C10.6294 6.21078 10.3839 6.14868 10.164 6.02996C9.94406 5.91124 9.75659 5.73956 9.61818 5.53016L9.00303 4.59721C8.86462 4.38781 8.67715 4.21613 8.45725 4.09741C8.23734 3.97869 7.99181 3.91659 7.74242 3.91663H4.76515C4.36331 3.91663 3.97792 4.07776 3.69378 4.36458C3.40963 4.6514 3.25 5.04041 3.25 5.44604V14.6225C3.25 15.0281 3.40963 15.4171 3.69378 15.704C3.97792 15.9908 4.36331 16.1519 4.76515 16.1519H10.0682M12.7955 14.6225L14.6136 16.9166C14.6136 16.9166 17.0666 14.2731 18.25 12.78" stroke="#333333" stroke-width="2" stroke-linecap="round" stroke-linejoin="round"/>
</svg>
