<svg width="24" height="24" viewBox="0 0 24 24" fill="none" xmlns="http://www.w3.org/2000/svg">
<path d="M12.075 14.401C12.579 14.401 12.8311 14.041 12.9061 13.4604C12.9661 12.6594 13.2031 12.2378 14.1767 11.5703C15.1863 10.8577 15.7503 9.93509 15.7503 8.59096C15.7503 6.60326 14.3702 5.25012 12.357 5.25012C10.8269 5.25012 9.66874 5.9882 9.20669 7.18532C9.06625 7.51214 8.99573 7.86472 8.99967 8.22042C8.99967 8.80998 9.3042 9.18052 9.81725 9.18052C10.2253 9.18052 10.4998 8.96 10.6633 8.41544C10.9004 7.52735 11.4509 7.0428 12.2745 7.0428C13.1896 7.0428 13.8197 7.71187 13.8197 8.66897C13.8197 9.51355 13.5076 9.9966 12.5865 10.6567C11.6579 11.3062 11.1974 12.0278 11.1974 13.1169V13.2834C11.1974 13.9255 11.5094 14.401 12.075 14.401Z" fill="#333333"/>
<path d="M15.4098 3.76947L14.0282 2.35332L15.1008 1.30622L16.0339 2.26181L17.369 2.24531C17.947 2.23847 18.5204 2.34726 19.0557 2.56528C19.591 2.78329 20.0773 3.10614 20.486 3.51483C20.8947 3.92352 21.2175 4.4098 21.4355 4.94508C21.6535 5.48035 21.7623 6.05382 21.7555 6.63175L21.7405 7.96689L22.6946 8.89998C23.1078 9.30378 23.4362 9.7861 23.6603 10.3186C23.8845 10.8511 24 11.423 24 12.0008C24 12.5786 23.8845 13.1505 23.6603 13.683C23.4362 14.2155 23.1078 14.6978 22.6946 15.1016L21.739 16.0347L21.7555 17.3698C21.7623 17.9478 21.6535 18.5212 21.4355 19.0565C21.2175 19.5918 20.8947 20.0781 20.486 20.4868C20.0773 20.8954 19.591 21.2183 19.0557 21.4363C18.5204 21.6543 17.947 21.7631 17.369 21.7563L16.0339 21.7413L15.1008 22.6954C14.697 23.1086 14.2147 23.437 13.6822 23.6611C13.1497 23.8853 12.5778 24.0008 12 24.0008C11.4222 24.0008 10.8503 23.8853 10.3178 23.6611C9.7853 23.437 9.30298 23.1086 8.89919 22.6954L7.96609 21.7398L6.63096 21.7563C6.05303 21.7631 5.47956 21.6543 4.94428 21.4363C4.40901 21.2183 3.92272 20.8954 3.51404 20.4868C3.10535 20.0781 2.7825 19.5918 2.56448 19.0565C2.34647 18.5212 2.23768 17.9478 2.24452 17.3698L2.25952 16.0347L1.30542 15.1016C0.892193 14.6978 0.56384 14.2155 0.339662 13.683C0.115483 13.1505 0 12.5786 0 12.0008C0 11.423 0.115483 10.8511 0.339662 10.3186C0.56384 9.7861 0.892193 9.30378 1.30542 8.89998L2.26102 7.96689L2.24452 6.63175C2.23768 6.05382 2.34647 5.48035 2.56448 4.94508C2.7825 4.4098 3.10535 3.92352 3.51404 3.51483C3.92272 3.10614 4.40901 2.78329 4.94428 2.56528C5.47956 2.34726 6.05303 2.23847 6.63096 2.24531L7.96609 2.26031L8.89919 1.30622C9.30298 0.892987 9.7853 0.564634 10.3178 0.340455C10.8503 0.116276 11.4222 0.000793457 12 0.000793457C12.5778 0.000793457 13.1497 0.116276 13.6822 0.340455C14.2147 0.564634 14.697 0.892987 15.1008 1.30622L14.0282 2.35332C13.7641 2.08298 13.4487 1.86815 13.1003 1.72148C12.752 1.57481 12.3779 1.49926 12 1.49926C11.6221 1.49926 11.248 1.57481 10.8997 1.72148C10.5513 1.86815 10.2359 2.08298 9.9718 2.35332L8.59166 3.76947L6.61146 3.74546C6.23369 3.74124 5.85888 3.81256 5.50906 3.95523C5.15924 4.09789 4.84146 4.30904 4.57439 4.57625C4.30732 4.84346 4.09634 5.16135 3.95385 5.51124C3.81137 5.86114 3.74025 6.23598 3.74467 6.61375L3.76867 8.59095L2.35253 9.97259C2.08218 10.2367 1.86736 10.5521 1.72069 10.9004C1.57402 11.2488 1.49846 11.6229 1.49846 12.0008C1.49846 12.3787 1.57402 12.7528 1.72069 13.1011C1.86736 13.4494 2.08218 13.7649 2.35253 14.029L3.76867 15.4091L3.74467 17.3893C3.74045 17.7671 3.81176 18.1419 3.95443 18.4917C4.0971 18.8416 4.30824 19.1593 4.57545 19.4264C4.84266 19.6935 5.16056 19.9045 5.51045 20.0469C5.86035 20.1894 6.23519 20.2605 6.61296 20.2561L8.59016 20.2321L9.9718 21.6483C10.2359 21.9186 10.5513 22.1334 10.8997 22.2801C11.248 22.4268 11.6221 22.5023 12 22.5023C12.3779 22.5023 12.752 22.4268 13.1003 22.2801C13.4487 22.1334 13.7641 21.9186 14.0282 21.6483L15.4083 20.2321L17.3885 20.2561C17.7663 20.2603 18.1411 20.189 18.4909 20.0464C18.8408 19.9037 19.1585 19.6926 19.4256 19.4253C19.6927 19.1581 19.9037 18.8402 20.0461 18.4903C20.1886 18.1404 20.2598 17.7656 20.2553 17.3878L20.2313 15.4106L21.6475 14.029C21.9178 13.7649 22.1326 13.4494 22.2793 13.1011C22.426 12.7528 22.5015 12.3787 22.5015 12.0008C22.5015 11.6229 22.426 11.2488 22.2793 10.9004C22.1326 10.5521 21.9178 10.2367 21.6475 9.97259L20.2313 8.59245L20.2553 6.61225C20.2596 6.23448 20.1882 5.85967 20.0456 5.50985C19.9029 5.16003 19.6918 4.84225 19.4245 4.57518C19.1573 4.30811 18.8394 4.09713 18.4896 3.95465C18.1397 3.81216 17.7648 3.74104 17.387 3.74546L15.4098 3.76947Z" fill="#333333"/>
<path d="M10.5015 16.5013C10.5015 16.1034 10.6595 15.7219 10.9408 15.4405C11.2222 15.1592 11.6038 15.0012 12.0016 15.0012C12.3995 15.0012 12.7811 15.1592 13.0624 15.4405C13.3437 15.7219 13.5018 16.1034 13.5018 16.5013C13.5018 16.8992 13.3437 17.2807 13.0624 17.5621C12.7811 17.8434 12.3995 18.0015 12.0016 18.0015C11.6038 18.0015 11.2222 17.8434 10.9408 17.5621C10.6595 17.2807 10.5015 16.8992 10.5015 16.5013Z" fill="#333333"/>
</svg>
