<svg width="20" height="20" viewBox="0 0 20 20" fill="none" xmlns="http://www.w3.org/2000/svg">
<path d="M5.49745 7.45461C5.49736 6.71635 5.68277 5.98964 6.03703 5.33985C6.39128 4.69005 6.90325 4.13756 7.5269 3.73205C8.15055 3.32654 8.86632 3.08074 9.60982 3.01676C10.3533 2.95278 11.1012 3.07261 11.7863 3.3655C12.4714 3.65838 13.0721 4.11512 13.5345 4.69463C13.9968 5.27415 14.3063 5.95827 14.4351 6.68546C14.5639 7.41265 14.5079 8.1601 14.2723 8.86059C14.0366 9.56107 13.6286 10.1926 13.085 10.6984C14.1099 11.1907 14.9998 11.92 15.6792 12.8248C16.3587 13.7295 16.8076 14.7829 16.9881 15.8957C17.0079 16.0195 17.0029 16.146 16.9734 16.2679C16.9438 16.3899 16.8903 16.5048 16.8158 16.6063C16.7413 16.7077 16.6473 16.7937 16.5393 16.8592C16.4312 16.9247 16.3112 16.9686 16.186 16.9882C16.0608 17.0079 15.9329 17.0029 15.8097 16.9737C15.6864 16.9444 15.5702 16.8914 15.4676 16.8178C15.3651 16.7441 15.2782 16.6511 15.212 16.5442C15.1457 16.4373 15.1014 16.3186 15.0816 16.1948C14.8886 14.9989 14.271 13.9103 13.3397 13.1244C12.4083 12.3385 11.2242 11.9067 10.0001 11.9067C8.77587 11.9067 7.5918 12.3385 6.66045 13.1244C5.7291 13.9103 5.1115 14.9989 4.91854 16.1948C4.89861 16.3186 4.85421 16.4373 4.78789 16.5442C4.72156 16.6511 4.63461 16.7439 4.532 16.8176C4.42938 16.8912 4.31311 16.9441 4.18983 16.9733C4.06654 17.0024 3.93866 17.0073 3.81347 16.9876C3.68829 16.9679 3.56826 16.9239 3.46023 16.8583C3.3522 16.7927 3.2583 16.7067 3.18388 16.6052C3.10945 16.5037 3.05597 16.3887 3.02648 16.2667C2.99699 16.1448 2.99208 16.0183 3.01201 15.8944C3.19182 14.7817 3.64057 13.7284 4.3201 12.824C4.99963 11.9196 5.88987 11.1908 6.91512 10.6997C6.46744 10.2832 6.1107 9.78035 5.86689 9.22226C5.62308 8.66416 5.49735 8.06259 5.49745 7.45461ZM10.0001 4.90943C9.65742 4.90177 9.31669 4.9619 8.99787 5.08629C8.67905 5.21068 8.38856 5.39682 8.14347 5.6338C7.89837 5.87077 7.70361 6.15379 7.57061 6.46625C7.43761 6.77871 7.36905 7.1143 7.36897 7.45333C7.36888 7.79235 7.43727 8.12798 7.57011 8.4405C7.70295 8.75303 7.89757 9.03615 8.14255 9.27324C8.38752 9.51033 8.67791 9.69662 8.99667 9.82117C9.31543 9.94572 9.65613 10.006 9.99876 9.99852C10.671 9.98381 11.3107 9.70936 11.781 9.2339C12.2512 8.75844 12.5146 8.11977 12.5148 7.4546C12.515 6.78943 12.2519 6.15063 11.7819 5.67494C11.3119 5.19925 10.6723 4.92447 10.0001 4.90943Z" fill="#333333"/>
</svg>
