<svg width="16" height="20" viewBox="0 0 16 20" fill="none" xmlns="http://www.w3.org/2000/svg">
<path d="M2.04332 5.4832L2.92749 4.59987L7.74332 9.41404C7.82095 9.49118 7.88256 9.58291 7.9246 9.68395C7.96664 9.78499 7.98828 9.89335 7.98828 10.0028C7.98828 10.1122 7.96664 10.2206 7.9246 10.3216C7.88256 10.4227 7.82095 10.5144 7.74332 10.5915L2.92749 15.4082L2.04416 14.5249L6.56416 10.004L2.04332 5.4832Z" fill="#333333"/>
<path d="M8.04332 5.4832L8.92749 4.59987L13.7433 9.41404C13.821 9.49118 13.8826 9.58291 13.9246 9.68395C13.9666 9.78499 13.9883 9.89335 13.9883 10.0028C13.9883 10.1122 13.9666 10.2206 13.9246 10.3216C13.8826 10.4227 13.821 10.5144 13.7433 10.5915L8.92749 15.4082L8.04416 14.5249L12.5642 10.004L8.04332 5.4832Z" fill="#333333"/>
</svg>
