<svg width="20" height="20" viewBox="0 0 20 20" fill="none" xmlns="http://www.w3.org/2000/svg">
<circle cx="10" cy="10" r="8" stroke="#333333" stroke-width="2"/>
<path d="M9.25 8.49998C9.25 7.94841 9.69844 7.49998 10.25 7.49998H10.75C11.3016 7.49998 11.75 7.94841 11.75 8.49998V8.55623C11.75 8.89685 11.5766 9.21404 11.2906 9.39685L10.6312 9.82029C10.4376 9.94476 10.2784 10.1159 10.1681 10.3179C10.0578 10.5199 10 10.7464 10 10.9765V10.9984C10 11.275 10.2234 11.4984 10.5 11.4984C10.7766 11.4984 11 11.275 11 10.9984V10.9765C11 10.8484 11.0656 10.7297 11.1719 10.6609L11.8312 10.2375C12.4031 9.86873 12.75 9.23591 12.75 8.55466V8.49841C12.75 7.39373 11.8547 6.49841 10.75 6.49841H10.25C9.14531 6.49998 8.25 7.39529 8.25 8.49998C8.25 8.77654 8.47344 8.99998 8.75 8.99998C9.02656 8.99998 9.25 8.77654 9.25 8.49998ZM10.5 13.5C10.6658 13.5 10.8247 13.4341 10.9419 13.3169C11.0592 13.1997 11.125 13.0407 11.125 12.875C11.125 12.7092 11.0592 12.5502 10.9419 12.433C10.8247 12.3158 10.6658 12.25 10.5 12.25C10.3342 12.25 10.1753 12.3158 10.0581 12.433C9.94085 12.5502 9.875 12.7092 9.875 12.875C9.875 13.0407 9.94085 13.1997 10.0581 13.3169C10.1753 13.4341 10.3342 13.5 10.5 13.5Z" fill="#333333" stroke="#333333"/>
</svg>
