<svg width="21" height="20" viewBox="0 0 21 20" fill="none" xmlns="http://www.w3.org/2000/svg">
<mask id="mask0_277_1981" style="mask-type:alpha" maskUnits="userSpaceOnUse" x="0" y="0" width="21" height="20">
<rect x="0.0703125" width="20" height="20" fill="#D9D9D9"/>
</mask>
<g mask="url(#mask0_277_1981)">
<path d="M3.99858 17.2471C3.45973 17.2471 3.00365 17.0997 2.63031 16.805C2.25698 16.5102 2.07031 16.1502 2.07031 15.7248V2.76939C2.07031 2.34398 2.25698 1.98391 2.63031 1.68918C3.00365 1.39444 3.45973 1.24707 3.99858 1.24707H12.4703L18.0703 5.66812V15.7248C18.0703 16.1502 17.8836 16.5102 17.5103 16.805C17.137 17.0997 16.6809 17.2471 16.142 17.2471H3.99858ZM13.5703 4.24707L11.6703 2.51023H3.99858C3.91645 2.51023 3.84125 2.53725 3.77298 2.59128C3.70454 2.64518 3.67031 2.70454 3.67031 2.76939V15.7248C3.67031 15.7896 3.70454 15.849 3.77298 15.9029C3.84125 15.9569 3.91645 15.9839 3.99858 15.9839H16.142C16.2242 15.9839 16.2994 15.9569 16.3676 15.9029C16.4361 15.849 16.4703 15.7896 16.4703 15.7248V6.2997L13.5703 4.24707Z" fill="white"/>
<path d="M7.07031 13.2471H13.0703M10.0703 6.24707V11.2471M10.0703 11.2471L11.8203 9.49707M10.0703 11.2471L8.32031 9.49707" stroke="white" stroke-linecap="round" stroke-linejoin="round"/>
</g>
</svg>
