<svg width="20" height="20" viewBox="0 0 20 20" fill="none" xmlns="http://www.w3.org/2000/svg">
<path d="M7.74219 2.91699C8.15785 2.91693 8.56704 3.0204 8.93262 3.21777C9.29786 3.41504 9.60819 3.69998 9.83691 4.0459L9.83789 4.04688L10.4521 4.97949L10.4912 5.03125C10.5329 5.07999 10.5832 5.1204 10.6387 5.15039C10.7129 5.19041 10.7959 5.21095 10.8789 5.21094H15.3711C16.0412 5.21094 16.6824 5.4797 17.1533 5.95508C17.6237 6.43005 17.8866 7.07262 17.8867 7.74023V9.65234C17.8865 10.2043 17.4387 10.6522 16.8867 10.6523C16.3346 10.6523 15.8869 10.2044 15.8867 9.65234V7.74023C15.8866 7.59718 15.8297 7.46175 15.7324 7.36328C15.6351 7.26502 15.5047 7.21094 15.3711 7.21094H10.8789C10.4633 7.21099 10.054 7.10747 9.68848 6.91016C9.32326 6.7129 9.0129 6.42791 8.78418 6.08203L8.7832 6.08105L8.16797 5.14844V5.14746C8.12014 5.0756 8.0561 5.01737 7.98242 4.97754C7.90819 4.93746 7.82529 4.91698 7.74219 4.91699H4.76562C4.63215 4.91699 4.50162 4.97025 4.4043 5.06836C4.30678 5.1669 4.25003 5.30301 4.25 5.44629V14.623C4.25014 14.7663 4.30676 14.9025 4.4043 15.001C4.50159 15.0989 4.63224 15.1523 4.76562 15.1523H10.0684C10.6206 15.1524 11.0684 15.6001 11.0684 16.1523C11.0681 16.7044 10.6204 17.1522 10.0684 17.1523H4.76562C4.09564 17.1523 3.45432 16.8834 2.9834 16.4082C2.51289 15.9333 2.25014 15.2907 2.25 14.623V5.44629C2.25003 4.77858 2.51291 4.13615 2.9834 3.66113C3.45434 3.18577 4.09554 2.91699 4.76562 2.91699H7.74219Z" fill="#333333"/>
<path d="M17 16L15.5523 14.5523M15.5523 14.5523C15.8 14.3047 15.9964 14.0107 16.1304 13.6872C16.2644 13.3637 16.3334 13.0169 16.3334 12.6667C16.3334 12.3165 16.2644 11.9697 16.1304 11.6462C15.9964 11.3227 15.8 11.0287 15.5523 10.7811C15.3047 10.5334 15.0107 10.337 14.6872 10.203C14.3637 10.069 14.0169 10 13.6667 10C13.3165 10 12.9697 10.069 12.6462 10.203C12.3227 10.337 12.0287 10.5334 11.7811 10.7811C11.281 11.2812 11 11.9595 11 12.6667C11 13.374 11.281 14.0522 11.7811 14.5523C12.2812 15.0525 12.9595 15.3334 13.6667 15.3334C14.374 15.3334 15.0522 15.0525 15.5523 14.5523Z" stroke="#333333" stroke-width="1.5" stroke-linecap="round" stroke-linejoin="round"/>
</svg>
