<svg width="20" height="20" viewBox="0 0 20 20" fill="none" xmlns="http://www.w3.org/2000/svg">
<circle cx="10" cy="10" r="9" stroke="#4A84BD" stroke-width="2"/>
<path d="M9.375 11.2037C9.3796 11.3784 9.44747 11.5442 9.56418 11.666C9.68089 11.7878 9.83723 11.856 10 11.856C10.1628 11.856 10.3191 11.7878 10.4358 11.666C10.5525 11.5442 10.6204 11.3784 10.625 11.2037V6.90229C10.6204 6.72761 10.5525 6.56175 10.4358 6.43995C10.3191 6.31814 10.1628 6.25 10 6.25C9.83723 6.25 9.68089 6.31814 9.56418 6.43995C9.44747 6.56175 9.3796 6.72761 9.375 6.90229V11.2037ZM9.375 14.329C9.375 14.698 9.65625 15 10 15C10.3438 15 10.625 14.698 10.625 14.329C10.625 13.9599 10.3438 13.658 10 13.658C9.83444 13.6587 9.67585 13.7296 9.55879 13.8553C9.44172 13.981 9.37566 14.1513 9.375 14.329Z" fill="#4A84BD" stroke="#4A84BD"/>
</svg>
