<svg width="20" height="20" viewBox="0 0 20 20" fill="none" xmlns="http://www.w3.org/2000/svg">
<path d="M9.99902 8C10.5777 8 11.1326 8.21071 11.5418 8.58579C11.951 8.96086 12.1808 9.46957 12.1808 10C12.1808 10.5304 11.951 11.0391 11.5418 11.4142C11.1326 11.7893 10.5777 12 9.99902 12C9.42037 12 8.86542 11.7893 8.45624 11.4142C8.04707 11.0391 7.81721 10.5304 7.81721 10C7.81721 9.46957 8.04707 8.96086 8.45624 8.58579C8.86542 8.21071 9.42037 8 9.99902 8ZM9.99902 5C13.6354 5 16.7408 7.07333 17.999 10C16.7408 12.9267 13.6354 15 9.99902 15C6.36266 15 3.25721 12.9267 1.99902 10C3.25721 7.07333 6.36266 5 9.99902 5ZM3.58448 10C4.1723 11.1002 5.08506 12.0272 6.21901 12.6755C7.35295 13.3238 8.66258 13.6675 9.99902 13.6675C11.3355 13.6675 12.6451 13.3238 13.779 12.6755C14.913 12.0272 15.8257 11.1002 16.4136 10C15.8257 8.8998 14.913 7.97283 13.779 7.3245C12.6451 6.67616 11.3355 6.33245 9.99902 6.33245C8.66258 6.33245 7.35295 6.67616 6.21901 7.3245C5.08506 7.97283 4.1723 8.8998 3.58448 10Z" fill="#333333"/>
</svg>
