<svg width="20" height="20" viewBox="0 0 20 20" fill="none" xmlns="http://www.w3.org/2000/svg">
<path d="M8.33342 3.33335C7.44936 3.33335 6.60151 3.68454 5.97639 4.30966C5.35127 4.93479 5.00008 5.78263 5.00008 6.66669C5.00008 7.55074 5.35127 8.39859 5.97639 9.02371C6.60151 9.64883 7.44936 10 8.33342 10C9.21747 10 10.0653 9.64883 10.6904 9.02371C11.3156 8.39859 11.6667 7.55074 11.6667 6.66669C11.6667 5.78263 11.3156 4.93479 10.6904 4.30966C10.0653 3.68454 9.21747 3.33335 8.33342 3.33335ZM3.33341 6.66669C3.33341 5.3406 3.8602 4.06884 4.79788 3.13115C5.73556 2.19347 7.00733 1.66669 8.33342 1.66669C9.6595 1.66669 10.9313 2.19347 11.8689 3.13115C12.8066 4.06884 13.3334 5.3406 13.3334 6.66669C13.3334 7.99277 12.8066 9.26454 11.8689 10.2022C10.9313 11.1399 9.6595 11.6667 8.33342 11.6667C7.00733 11.6667 5.73556 11.1399 4.79788 10.2022C3.8602 9.26454 3.33341 7.99277 3.33341 6.66669ZM18.0534 9.37752C18.2184 9.52434 18.3184 9.73065 18.3313 9.95112C18.3443 10.1716 18.2692 10.3882 18.1226 10.5534L15.9009 13.0534C15.8227 13.1413 15.7268 13.2118 15.6194 13.26C15.5121 13.3082 15.3957 13.3331 15.278 13.3331C15.1603 13.3331 15.0439 13.3082 14.9366 13.26C14.8292 13.2118 14.7333 13.1413 14.6551 13.0534L13.5442 11.8034C13.406 11.6371 13.3378 11.4236 13.3541 11.2079C13.3704 10.9923 13.4698 10.7915 13.6314 10.6478C13.7931 10.5041 14.0042 10.4289 14.2202 10.438C14.4363 10.4472 14.6403 10.5399 14.7892 10.6967L15.2776 11.2459L16.8776 9.44585C17.0245 9.28098 17.2309 9.18118 17.4514 9.16837C17.6718 9.15555 17.8884 9.23078 18.0534 9.37752ZM5.41675 15C4.36675 15 3.33341 16.0109 3.33341 17.5C3.33341 17.721 3.24562 17.933 3.08934 18.0893C2.93306 18.2456 2.7211 18.3334 2.50008 18.3334C2.27907 18.3334 2.06711 18.2456 1.91083 18.0893C1.75455 17.933 1.66675 17.721 1.66675 17.5C1.66675 15.3067 3.24425 13.3334 5.41675 13.3334H11.2501C13.4226 13.3334 15.0001 15.3067 15.0001 17.5C15.0001 17.721 14.9123 17.933 14.756 18.0893C14.5997 18.2456 14.3878 18.3334 14.1667 18.3334C13.9457 18.3334 13.7338 18.2456 13.5775 18.0893C13.4212 17.933 13.3334 17.721 13.3334 17.5C13.3334 16.0109 12.3001 15 11.2501 15H5.41675Z" fill="#333333"/>
</svg>
