<svg width="20" height="20" viewBox="0 0 20 20" fill="none" xmlns="http://www.w3.org/2000/svg">
<path d="M15.3296 14.6636V9.00065C15.3296 8.89722 15.3055 8.79521 15.2593 8.7027C15.213 8.61019 15.1459 8.52972 15.0631 8.46766L10.3995 4.96995C10.2842 4.88346 10.1439 4.8367 9.99977 4.8367C9.85562 4.8367 9.71536 4.88346 9.60003 4.96995L4.93641 8.46766C4.85367 8.52972 4.78651 8.61019 4.74026 8.7027C4.694 8.79521 4.66992 8.89722 4.66992 9.00065V14.6636C4.66992 14.8403 4.74011 15.0098 4.86506 15.1347C4.99 15.2597 5.15946 15.3298 5.33615 15.3298H8.00108C8.17777 15.3298 8.34723 15.2597 8.47218 15.1347C8.59712 15.0098 8.66731 14.8403 8.66731 14.6636V12.6649C8.66731 12.4882 8.7375 12.3188 8.86244 12.1938C8.98739 12.0689 9.15685 11.9987 9.33354 11.9987H10.666C10.8427 11.9987 11.0122 12.0689 11.1371 12.1938C11.262 12.3188 11.3322 12.4882 11.3322 12.6649V14.6636C11.3322 14.8403 11.4024 15.0098 11.5274 15.1347C11.6523 15.2597 11.8218 15.3298 11.9985 15.3298H14.6634C14.8401 15.3298 15.0095 15.2597 15.1345 15.1347C15.2594 15.0098 15.3296 14.8403 15.3296 14.6636Z" fill="#333333" stroke="#333333" stroke-linecap="round" stroke-linejoin="round"/>
</svg>
