<svg width="20" height="20" viewBox="0 0 20 20" fill="none" xmlns="http://www.w3.org/2000/svg">
<path d="M4.16667 14.9444V4.05556H10V9.5H15.8333V9.96667C17 10.6958 16.975 11.1956 17.5 11.3667V7.16667L12.5 2.5H4.16667C3.24167 2.5 2.5 3.19222 2.5 4.05556V14.9444C2.5 15.357 2.67559 15.7527 2.98816 16.0444C3.30072 16.3361 3.72464 16.5 4.16667 16.5H12.6667C12.4833 16.01 11.5 15.4889 11.5 14.9444H4.16667ZM11.6667 3.66667L16.25 7.94444H11.6667V3.66667Z" fill="#333333"/>
<path d="M17 16L15.7936 14.7936M15.7936 14.7936C16 14.5873 16.1637 14.3423 16.2753 14.0727C16.387 13.8031 16.4445 13.5141 16.4445 13.2223C16.4445 12.9304 16.387 12.6415 16.2753 12.3718C16.1637 12.1022 16 11.8572 15.7936 11.6509C15.5873 11.4445 15.3423 11.2808 15.0727 11.1692C14.8031 11.0575 14.5141 11 14.2223 11C13.9304 11 13.6415 11.0575 13.3718 11.1692C13.1022 11.2808 12.8572 11.4445 12.6509 11.6509C12.2341 12.0676 12 12.6329 12 13.2223C12 13.8116 12.2341 14.3769 12.6509 14.7936C13.0676 15.2104 13.6329 15.4445 14.2223 15.4445C14.8116 15.4445 15.3769 15.2104 15.7936 14.7936Z" stroke="#333333" stroke-width="1.5" stroke-linecap="round" stroke-linejoin="round"/>
</svg>
