<svg width="21" height="20" viewBox="0 0 21 20" fill="none" xmlns="http://www.w3.org/2000/svg">
<mask id="mask0_277_1974" style="mask-type:alpha" maskUnits="userSpaceOnUse" x="0" y="0" width="21" height="20">
<rect x="0.0703125" width="20" height="20" fill="#D9D9D9"/>
</mask>
<g mask="url(#mask0_277_1974)">
<path d="M3.99858 17.2471C3.45973 17.2471 3.00365 17.0997 2.63031 16.805C2.25698 16.5102 2.07031 16.1502 2.07031 15.7248V2.76939C2.07031 2.34398 2.25698 1.98391 2.63031 1.68918C3.00365 1.39444 3.45973 1.24707 3.99858 1.24707H12.4703L18.0703 5.66812V15.7248C18.0703 16.1502 17.8836 16.5102 17.5103 16.805C17.137 17.0997 16.6809 17.2471 16.142 17.2471H3.99858ZM13.5703 4.24707L11.6703 2.51023H3.99858C3.91645 2.51023 3.84125 2.53725 3.77298 2.59128C3.70454 2.64518 3.67031 2.70454 3.67031 2.76939V15.7248C3.67031 15.7896 3.70454 15.849 3.77298 15.9029C3.84125 15.9569 3.91645 15.9839 3.99858 15.9839H16.142C16.2242 15.9839 16.2994 15.9569 16.3676 15.9029C16.4361 15.849 16.4703 15.7896 16.4703 15.7248V6.2997L13.5703 4.24707Z" fill="white"/>
<path fill-rule="evenodd" clip-rule="evenodd" d="M13.252 7.95073C13.3457 8.04449 13.3984 8.17165 13.3984 8.30423C13.3984 8.43681 13.3457 8.56396 13.252 8.65773L9.50433 12.4054C9.4548 12.4549 9.396 12.4942 9.33129 12.521C9.26657 12.5478 9.19721 12.5616 9.12716 12.5616C9.05711 12.5616 8.98775 12.5478 8.92304 12.521C8.85832 12.4942 8.79952 12.4549 8.75 12.4054L6.888 10.5437C6.84024 10.4976 6.80215 10.4424 6.77594 10.3814C6.74974 10.3204 6.73595 10.2548 6.73537 10.1884C6.73479 10.122 6.74744 10.0562 6.77258 9.99475C6.79773 9.9333 6.83485 9.87748 6.8818 9.83053C6.92874 9.78358 6.98457 9.74646 7.04602 9.72132C7.10747 9.69618 7.17331 9.68353 7.2397 9.6841C7.30609 9.68468 7.3717 9.69847 7.4327 9.72468C7.4937 9.75088 7.54887 9.78897 7.595 9.83673L9.127 11.3687L12.5447 7.95073C12.5911 7.90427 12.6462 7.86741 12.7069 7.84226C12.7676 7.81711 12.8326 7.80417 12.8983 7.80417C12.964 7.80417 13.0291 7.81711 13.0897 7.84226C13.1504 7.86741 13.2056 7.90427 13.252 7.95073Z" fill="white"/>
</g>
</svg>
