<svg width="20" height="20" viewBox="0 0 20 20" fill="none" xmlns="http://www.w3.org/2000/svg">
<path d="M16.1085 15V17.2222C16.1085 17.5169 15.783 18.0079 15.783 18.0079C15.783 18.0079 15.2921 18.3333 14.9974 18.3333H3.88626C3.59157 18.3333 3.30896 18.2163 3.10058 18.0079C2.89221 17.7995 2.77515 17.5169 2.77515 17.2222V4.25927C2.77515 3.96459 2.89221 3.68197 3.10058 3.4736C3.30896 3.26523 3.59157 3.14816 3.88626 3.14816H5.73811" stroke="#333333" stroke-width="2" stroke-linecap="round" stroke-linejoin="round"/>
<path d="M13.1454 3.14817H14.9973C15.292 3.14817 15.5746 3.26523 15.783 3.47361C15.9913 3.68198 16.1084 3.96459 16.1084 4.25928M6.29359 1.66669H12.5899C12.5899 1.66669 13.1454 1.66669 13.1454 2.22224V4.07409C13.1454 4.07409 13.1454 4.62965 12.5899 4.62965H6.29359C6.29359 4.62965 5.73804 4.62965 5.73804 4.07409V2.22224C5.73804 2.22224 5.73804 1.66669 6.29359 1.66669Z" stroke="#333333" stroke-width="2" stroke-linecap="round" stroke-linejoin="round"/>
<line x1="6.55566" y1="9" x2="11.2223" y2="9" stroke="#333333" stroke-width="2" stroke-linecap="round"/>
<path d="M6.11108 12.7778H10.2778" stroke="#333333" stroke-width="2" stroke-linecap="round"/>
<path d="M17.7569 9.34443L18.0144 9.08693C18.2192 8.88209 18.3343 8.60427 18.3343 8.31457C18.3343 8.02488 18.2192 7.74706 18.0144 7.54221C17.8096 7.33737 17.5317 7.22229 17.242 7.22229C16.9523 7.22229 16.6745 7.33737 16.4697 7.54221L16.2122 7.79971L13.845 10.1664C13.6847 10.3269 13.6044 10.4072 13.5355 10.4955C13.4542 10.5998 13.3845 10.7126 13.3275 10.8319C13.2794 10.933 13.2436 11.0408 13.1719 11.2558L12.868 12.1672M17.7569 9.34443C17.7569 9.34443 17.21 9.31221 16.7272 8.82943C16.2444 8.34693 16.2125 7.79971 16.2125 7.79971M17.7569 9.34443L15.39 11.7111C15.2297 11.8714 15.1494 11.9517 15.0611 12.0205C14.9568 12.1018 14.844 12.1716 14.7247 12.2286C14.6236 12.2767 14.5161 12.3125 14.3008 12.3842L13.3894 12.688M13.3894 12.688L13.1666 12.7625C13.1147 12.7799 13.0589 12.7825 13.0056 12.77C12.9523 12.7574 12.9035 12.7303 12.8648 12.6915C12.8261 12.6528 12.7989 12.604 12.7864 12.5507C12.7738 12.4974 12.7764 12.4416 12.7938 12.3897L12.8683 12.1669L13.3894 12.688Z" stroke="#333333" stroke-width="1.5"/>
</svg>
