<svg width="20" height="20" viewBox="0 0 20 20" fill="none" xmlns="http://www.w3.org/2000/svg">
<path d="M15.2254 5.35703C13.9457 3.91328 12.0836 3 10 3C6.13359 3 3 6.13359 3 10H4.75C4.75 7.09883 7.09883 4.75 10 4.75C11.5996 4.75 13.0188 5.47461 13.9785 6.60391L12.3324 8.25H17V3.58242L15.2254 5.35703ZM10 15.25C8.40039 15.25 6.98125 14.5254 6.02148 13.3961L7.66758 11.75H3V16.4176L4.77461 14.643C6.0543 16.0867 7.91914 17 10 17C13.8664 17 17 13.8664 17 10H15.25C15.25 12.9012 12.9012 15.25 10 15.25Z" fill="#333333"/>
</svg>
