<svg width="21" height="20" viewBox="0 0 21 20" fill="none" xmlns="http://www.w3.org/2000/svg">
<mask id="mask0_277_1965" style="mask-type:alpha" maskUnits="userSpaceOnUse" x="0" y="0" width="21" height="20">
<rect x="0.0703125" width="20" height="20" fill="#D9D9D9"/>
</mask>
<g mask="url(#mask0_277_1965)">
<path d="M3.99858 18.2471C3.45973 18.2471 3.00365 18.0997 2.63031 17.805C2.25698 17.5102 2.07031 17.1502 2.07031 16.7248V3.76939C2.07031 3.34398 2.25698 2.98391 2.63031 2.68918C3.00365 2.39444 3.45973 2.24707 3.99858 2.24707H12.4703L18.0703 6.66812V16.7248C18.0703 17.1502 17.8836 17.5102 17.5103 17.805C17.137 18.0997 16.6809 18.2471 16.142 18.2471H3.99858ZM13.5703 5.24707L11.6703 3.51023H3.99858C3.91645 3.51023 3.84125 3.53725 3.77298 3.59128C3.70454 3.64518 3.67031 3.70454 3.67031 3.76939V16.7248C3.67031 16.7896 3.70454 16.849 3.77298 16.9029C3.84125 16.9569 3.91645 16.9839 3.99858 16.9839H16.142C16.2242 16.9839 16.2994 16.9569 16.3676 16.9029C16.4361 16.849 16.4703 16.7896 16.4703 16.7248V7.2997L13.5703 5.24707Z" fill="white"/>
<path d="M7.57031 10.7471L12.5703 10.7471M12.5703 10.7471L10.8203 8.99707M12.5703 10.7471L10.8203 12.4971" stroke="white" stroke-linecap="round" stroke-linejoin="round"/>
</g>
</svg>
