<svg width="20" height="20" viewBox="0 0 20 20" fill="none" xmlns="http://www.w3.org/2000/svg">
<path d="M5.75 15.5C5.40625 15.5 5.11208 15.3804 4.8675 15.1413C4.62292 14.9021 4.50042 14.6143 4.5 14.2778V5.72222C4.5 5.38611 4.6225 5.09848 4.8675 4.85933C5.1125 4.62019 5.40667 4.50041 5.75 4.5H9.5C9.67708 4.5 9.82563 4.55867 9.94563 4.676C10.0656 4.79333 10.1254 4.93837 10.125 5.11111C10.1246 5.28385 10.0646 5.42909 9.945 5.54683C9.82542 5.66457 9.67708 5.72304 9.5 5.72222H5.75V14.2778H9.5C9.67708 14.2778 9.82563 14.3364 9.94563 14.4538C10.0656 14.5711 10.1254 14.7161 10.125 14.8889C10.1246 15.0616 10.0646 15.2069 9.945 15.3246C9.82542 15.4423 9.67708 15.5008 9.5 15.5H5.75ZM13.3594 10.6111H8.875C8.69792 10.6111 8.54958 10.5524 8.43 10.4351C8.31042 10.3178 8.25042 10.1727 8.25 10C8.24958 9.82726 8.30958 9.68222 8.43 9.56489C8.55042 9.44755 8.69875 9.38889 8.875 9.38889H13.3594L12.1875 8.24305C12.0729 8.13102 12.0156 7.99352 12.0156 7.83055C12.0156 7.66759 12.0729 7.525 12.1875 7.40278C12.3021 7.28055 12.4479 7.21679 12.625 7.2115C12.8021 7.2062 12.9531 7.26487 13.0781 7.3875L15.3125 9.57222C15.4375 9.69444 15.5 9.83703 15.5 10C15.5 10.163 15.4375 10.3056 15.3125 10.4278L13.0781 12.6125C12.9531 12.7347 12.8048 12.7934 12.6331 12.7885C12.4615 12.7836 12.3129 12.7198 12.1875 12.5972C12.0729 12.475 12.0183 12.33 12.0238 12.1621C12.0292 11.9943 12.089 11.8541 12.2031 11.7417L13.3594 10.6111Z" fill="#333333"/>
</svg>
