<svg width="20" height="20" viewBox="0 0 20 20" fill="none" xmlns="http://www.w3.org/2000/svg">
<path fill-rule="evenodd" clip-rule="evenodd" d="M4.43816 4.00125C3.52653 4.00125 2.65223 4.34067 2.00748 4.94488C1.36274 5.54909 1.00035 6.36862 1 7.22327V15.778C1.00035 16.6326 1.36274 17.4522 2.00748 18.0564C2.65223 18.6606 3.52653 19 4.43816 19H13.5618C14.0133 19.0002 14.4603 18.9169 14.8775 18.7551C15.2946 18.5932 15.6736 18.3559 15.9929 18.0567C16.3122 17.7575 16.5655 17.4023 16.7383 17.0113C16.9111 16.6203 17 16.2012 17 15.778V12.4338C17 12.2273 16.9125 12.0292 16.7567 11.8832C16.6009 11.7372 16.3897 11.6551 16.1694 11.6551C15.9491 11.6551 15.7378 11.7372 15.582 11.8832C15.4262 12.0292 15.3387 12.2273 15.3387 12.4338V15.7755C15.3387 16.6962 14.544 17.4413 13.5618 17.4413H4.43816C3.96713 17.4413 3.51537 17.266 3.18218 16.9538C2.84898 16.6417 2.66162 16.2183 2.66127 15.7767V7.22203C2.66127 6.30252 3.45735 5.55744 4.43816 5.55744H13.5618C13.7821 5.55744 13.9934 5.47539 14.1492 5.32936C14.305 5.18332 14.3925 4.98525 14.3925 4.77872C14.3925 4.57219 14.305 4.37412 14.1492 4.22808C13.9934 4.08204 13.7821 4 13.5618 4L4.43816 4.00125Z" fill="#333333"/>
<line x1="6.5" y1="9.5" x2="10.5" y2="9.5" stroke="#333333" stroke-linecap="round"/>
<line x1="6.5" y1="13.5" x2="10.5" y2="13.5" stroke="#333333" stroke-linecap="round"/>
<path d="M17.136 7.78332C17.1665 7.67148 17.1514 7.55209 17.094 7.45137C17.0365 7.35066 16.9415 7.27686 16.8297 7.24618L14.5792 6.62976C14.5237 6.61459 14.4659 6.61048 14.4089 6.61768C14.3518 6.62488 14.2968 6.64323 14.2469 6.6717C14.1969 6.70017 14.1531 6.73819 14.1179 6.7836C14.0826 6.82901 14.0567 6.88091 14.0415 6.93634C14.0264 6.99177 14.0223 7.04965 14.0294 7.10667C14.0366 7.16369 14.055 7.21873 14.0835 7.26866C14.1119 7.31858 14.15 7.36241 14.1954 7.39764C14.2408 7.43288 14.2927 7.45882 14.3481 7.47399L15.5798 7.81113L12.6572 9.47765C12.5564 9.53513 12.4826 9.63029 12.4519 9.7422C12.4213 9.85412 12.4364 9.97362 12.4939 10.0744C12.5513 10.1752 12.6465 10.2491 12.7584 10.2797C12.8703 10.3103 12.9898 10.2952 13.0906 10.2378L16.0133 8.57124L15.6761 9.80297C15.6455 9.9149 15.6606 10.0344 15.7181 10.1352C15.7756 10.236 15.8708 10.3098 15.9828 10.3404C16.0947 10.371 16.2142 10.3559 16.315 10.2984C16.4158 10.2409 16.4896 10.1457 16.5202 10.0338L17.136 7.78332Z" fill="#333333"/>
</svg>
