<svg width="200" height="23" viewBox="0 0 200 23" fill="none" xmlns="http://www.w3.org/2000/svg">
<path d="M19.92 21.9067H16.7733V1.42667H19.92V21.9067ZM14.96 1.50667V21.56H11.8133V12.2H9.14667V8.86667H11.8133V1.50667H14.96ZM7.44 5.18667C7.40444 7.17778 7.29778 8.97333 7.12 10.5733L11.6533 19L8.98667 20.5733L6.16 15.2133C5.62667 16.9911 4.90667 18.36 4 19.32C3.11111 20.2622 2.04444 20.7778 0.8 20.8667V17.4C1.84889 17.1867 2.67556 16.0044 3.28 13.8533C3.88444 11.6844 4.20444 8.79556 4.24 5.18667H1.17333V1.98667H10.3733V5.18667H7.44ZM31.1172 7.29333C30.0861 7.91556 28.8061 8.40444 27.2772 8.76C25.7661 9.09778 24.1927 9.28444 22.5572 9.32V6.78667C24.1572 6.73333 25.6327 6.52889 26.9839 6.17333C28.3527 5.8 29.3039 5.29333 29.8372 4.65333H22.9039V2.17333H29.9705V0.599999H33.3839V2.17333H40.4239V4.65333H33.5972C33.5616 4.83111 33.4816 5.02667 33.3572 5.24L40.8239 6.92L40.1572 9.4L31.1172 7.29333ZM33.3839 13.72H40.2905V18.7067H26.3972V19.6667H40.5305V21.8267H23.0905V16.8133H36.9839V15.88H23.0372V13.72H29.9705V12.6H21.8639V10.0667H41.4905V12.6H33.3839V13.72ZM61.7277 21.9067H58.3677V11.5867H53.9944V8.28H58.3677V1.42667H61.7277V21.9067ZM51.621 1.96C51.621 4.66222 51.4433 7.16 51.0877 9.45333L56.8744 18.9467L53.9677 20.8667L49.941 13.88C49.1944 16.0844 48.2255 17.7911 47.0344 19C45.861 20.1911 44.5277 20.8133 43.0344 20.8667V17.1867C44.0833 17.0444 44.9899 16.3067 45.7544 14.9733C46.5366 13.6222 47.141 11.8178 47.5677 9.56C47.9944 7.28444 48.2077 4.71556 48.2077 1.85333L51.621 1.96ZM65.2716 4.65333V1.77333H82.5249V8.92H68.6316V10.52H82.7649V13.4267H65.3249V6.25333H79.2182V4.65333H65.2716ZM79.4049 18.2V22.3867H76.0449V18.2H71.7782V22.3867H68.4182V18.2H64.0982V15.0267H83.7249V18.2H79.4049ZM90.4622 4.89333V2.41333H95.2355V0.813333H98.6755V2.41333H103.476V4.89333H90.4622ZM108.622 9.48V15.5067H105.262V1.42667H108.622V6.2H110.996V9.48H108.622ZM103.982 14.5733C102.898 15.0711 101.058 15.32 98.4622 15.32H90.4889V12.7333H95.2889V11.72C94.0444 11.5778 93.0577 11.24 92.3289 10.7067C91.6177 10.1733 91.2622 9.49778 91.2622 8.68C91.2622 7.66667 91.7777 6.88444 92.8089 6.33333C93.8577 5.76444 95.2533 5.48 96.9955 5.48C98.72 5.48 100.098 5.76444 101.129 6.33333C102.178 6.88444 102.702 7.66667 102.702 8.68C102.702 9.49778 102.338 10.1733 101.609 10.7067C100.88 11.24 99.8844 11.5867 98.6222 11.7467V12.7333C99.6889 12.7333 100.702 12.6711 101.662 12.5467C102.622 12.4044 103.396 12.2089 103.982 11.96V14.5733ZM94.3822 8.68C94.3822 8.94667 94.6133 9.15111 95.0755 9.29333C95.5377 9.43556 96.1777 9.50667 96.9955 9.50667C97.7955 9.50667 98.4266 9.43556 98.8889 9.29333C99.3511 9.15111 99.5822 8.94667 99.5822 8.68C99.5822 8.39556 99.3511 8.18222 98.8889 8.04C98.4266 7.88 97.7955 7.8 96.9955 7.8C96.1955 7.8 95.5555 7.88 95.0755 8.04C94.6133 8.18222 94.3822 8.39556 94.3822 8.68ZM108.622 16.36V22.0667H105.236V19H91.6089V16.36H108.622ZM126.859 16.6V1.42667H130.246V16.6H126.859ZM117.953 1.50667C119.215 1.50667 120.317 1.76444 121.259 2.28C122.219 2.77778 122.957 3.48889 123.473 4.41333C124.006 5.33778 124.273 6.39556 124.273 7.58667C124.273 8.79556 124.006 9.86222 123.473 10.7867C122.957 11.6933 122.219 12.4044 121.259 12.92C120.317 13.4178 119.215 13.6667 117.953 13.6667C116.69 13.6667 115.579 13.4178 114.619 12.92C113.659 12.4044 112.913 11.6933 112.379 10.7867C111.864 9.86222 111.606 8.79556 111.606 7.58667C111.606 6.39556 111.864 5.33778 112.379 4.41333C112.913 3.48889 113.659 2.77778 114.619 2.28C115.579 1.76444 116.69 1.50667 117.953 1.50667ZM117.953 4.46667C117.064 4.46667 116.344 4.74222 115.793 5.29333C115.259 5.84444 114.993 6.60889 114.993 7.58667C114.993 8.56444 115.259 9.32889 115.793 9.88C116.344 10.4311 117.064 10.7067 117.953 10.7067C118.842 10.7067 119.562 10.4311 120.113 9.88C120.664 9.31111 120.939 8.54667 120.939 7.58667C120.939 6.62667 120.664 5.87111 120.113 5.32C119.562 4.75111 118.842 4.46667 117.953 4.46667ZM130.593 18.6533V21.8267H113.313V14.7867H116.753V18.6533H130.593ZM156.743 21.9067H153.383V11.5867H149.01V8.28H153.383V1.42667H156.743V21.9067ZM146.637 1.96C146.637 4.66222 146.459 7.16 146.103 9.45333L151.89 18.9467L148.983 20.8667L144.957 13.88C144.21 16.0844 143.241 17.7911 142.05 19C140.877 20.1911 139.543 20.8133 138.05 20.8667V17.1867C139.099 17.0444 140.006 16.3067 140.77 14.9733C141.552 13.6222 142.157 11.8178 142.583 9.56C143.01 7.28444 143.223 4.71556 143.223 1.85333L146.637 1.96ZM177.727 21.9067H174.367V1.42667H177.727V21.9067ZM171.461 1.93333V20.8667H160.047V1.93333H163.381V8.28H168.127V1.93333H171.461ZM168.127 11.5067H163.381V17.6133H168.127V11.5067ZM189.884 8.92C188.729 10.6267 187.342 11.9689 185.724 12.9467C184.107 13.9244 182.4 14.4222 180.604 14.44V11.08C181.92 11.08 183.182 10.6622 184.391 9.82667C185.6 8.97333 186.622 7.81778 187.458 6.36C188.293 4.88444 188.835 3.23111 189.084 1.4L192.524 1.96C192.311 3.4 191.92 4.79555 191.351 6.14667L199.751 11.6667L197.964 14.52L189.884 8.92ZM199.858 17.8V21.1067H180.231V17.8H199.858Z" fill="#333333"/>
</svg>
