<svg width="24" height="24" viewBox="0 0 24 24" fill="none" xmlns="http://www.w3.org/2000/svg">
<path fill-rule="evenodd" clip-rule="evenodd" d="M12.2409 2.88C5.33078 2.88 2.88086 5.32993 2.88086 12.24C2.88086 19.1501 5.33078 21.6 12.2409 21.6C19.1509 21.6 21.6009 19.1501 21.6009 12.24C21.6009 5.32993 19.1509 2.88 12.2409 2.88Z" fill="#1A4269"/>
<path d="M9.59938 7.66149L10.456 6.71999L15.122 11.8511C15.1973 11.9334 15.2569 12.0311 15.2977 12.1388C15.3384 12.2465 15.3594 12.362 15.3594 12.4787C15.3594 12.5953 15.3384 12.7108 15.2977 12.8185C15.2569 12.9262 15.1973 13.024 15.122 13.1062L10.456 18.24L9.60018 17.2985L13.9796 12.48L9.59938 7.66149Z" fill="white"/>
</svg>
