<svg width="24" height="24" viewBox="0 0 24 24" fill="none" xmlns="http://www.w3.org/2000/svg">
<path d="M12.0769 19C10.1227 19 8.46749 18.3222 7.11115 16.9665C5.75499 15.6108 5.0769 13.9563 5.0769 12.003C5.0769 10.0497 5.75499 8.39417 7.11115 7.0365C8.46749 5.67883 10.1227 5 12.0769 5C13.2652 5 14.3781 5.28233 15.4154 5.847C16.4526 6.41183 17.2884 7.2 17.9229 8.2115V5H18.9229V10.2307H13.6922V9.23075H17.3922C16.8717 8.23325 16.1393 7.44542 15.1952 6.86725C14.2508 6.28908 13.2114 6 12.0769 6C10.4102 6 8.99357 6.58333 7.8269 7.75C6.66024 8.91667 6.0769 10.3333 6.0769 12C6.0769 13.6667 6.66024 15.0833 7.8269 16.25C8.99357 17.4167 10.4102 18 12.0769 18C13.3602 18 14.5186 17.6333 15.5519 16.9C16.5852 16.1667 17.3102 15.2 17.7269 14H18.7884C18.3474 15.4975 17.5096 16.7052 16.2749 17.623C15.0402 18.541 13.6409 19 12.0769 19Z" fill="#0D1012"/>
</svg>
