<svg width="24" height="24" viewBox="0 0 24 24" fill="none" xmlns="http://www.w3.org/2000/svg">
<path d="M17.3458 15.5385C17.3458 17.0538 16.824 18.3429 15.7803 19.4057C14.7368 20.4686 13.4638 21 11.9611 21C10.4458 21 9.16309 20.4686 8.11309 19.4057C7.06309 18.3429 6.53809 17.0538 6.53809 15.5385V6.80775C6.53809 5.75008 6.90184 4.851 7.62934 4.1105C8.357 3.37017 9.24967 3 10.3073 3C11.365 3 12.2576 3.37017 12.9851 4.1105C13.7128 4.851 14.0766 5.75008 14.0766 6.80775V15.077C14.0766 15.6642 13.8708 16.1699 13.4591 16.5943C13.0476 17.0186 12.5483 17.2307 11.9611 17.2307C11.3739 17.2307 10.8682 17.0218 10.4438 16.6038C10.0195 16.1859 9.80734 15.677 9.80734 15.077V6.76925H10.8073V15.077C10.8073 15.3962 10.9166 15.6682 11.1351 15.8932C11.3538 16.1182 11.6227 16.2307 11.9418 16.2307C12.2612 16.2307 12.5301 16.1182 12.7486 15.8932C12.9673 15.6682 13.0766 15.3962 13.0766 15.077V6.7885C13.0728 6.0115 12.8044 5.3525 12.2716 4.8115C11.7389 4.2705 11.0842 4 10.3073 4C9.53034 4 8.87459 4.27375 8.34009 4.82125C7.80542 5.36858 7.53809 6.03075 7.53809 6.80775V15.5385C7.53425 16.7732 7.96184 17.8254 8.82084 18.6953C9.67967 19.5651 10.7264 20 11.9611 20C13.1791 20 14.2124 19.5651 15.0611 18.6953C15.9098 17.8254 16.338 16.7732 16.3458 15.5385V6.76925H17.3458V15.5385Z" fill="#0D1012"/>
</svg>
