<svg width="36" height="36" viewBox="0 0 36 36" fill="none" xmlns="http://www.w3.org/2000/svg">
<path d="M7.93125 28.0688C7.64375 27.7813 7.5 27.425 7.5 27C7.5 26.575 7.64375 26.2188 7.93125 25.9313C8.21875 25.6438 8.575 25.5 9 25.5C9.425 25.5 9.78125 25.6438 10.0688 25.9313C10.3563 26.2188 10.5 26.575 10.5 27C10.5 27.425 10.3563 27.7813 10.0688 28.0688C9.78125 28.3563 9.425 28.5 9 28.5C8.575 28.5 8.21875 28.3563 7.93125 28.0688ZM16.9313 28.0688C16.6438 27.7813 16.5 27.425 16.5 27C16.5 26.575 16.6438 26.2188 16.9313 25.9313C17.2188 25.6438 17.575 25.5 18 25.5C18.425 25.5 18.7813 25.6438 19.0688 25.9313C19.3563 26.2188 19.5 26.575 19.5 27C19.5 27.425 19.3563 27.7813 19.0688 28.0688C18.7813 28.3563 18.425 28.5 18 28.5C17.575 28.5 17.2188 28.3563 16.9313 28.0688ZM25.9313 28.0688C25.6438 27.7813 25.5 27.425 25.5 27C25.5 26.575 25.6438 26.2188 25.9313 25.9313C26.2188 25.6438 26.575 25.5 27 25.5C27.425 25.5 27.7813 25.6438 28.0688 25.9313C28.3563 26.2188 28.5 26.575 28.5 27C28.5 27.425 28.3563 27.7813 28.0688 28.0688C27.7813 28.3563 27.425 28.5 27 28.5C26.575 28.5 26.2188 28.3563 25.9313 28.0688ZM7.93125 19.0688C7.64375 18.7813 7.5 18.425 7.5 18C7.5 17.575 7.64375 17.2188 7.93125 16.9313C8.21875 16.6438 8.575 16.5 9 16.5C9.425 16.5 9.78125 16.6438 10.0688 16.9313C10.3563 17.2188 10.5 17.575 10.5 18C10.5 18.425 10.3563 18.7813 10.0688 19.0688C9.78125 19.3563 9.425 19.5 9 19.5C8.575 19.5 8.21875 19.3563 7.93125 19.0688ZM16.9313 19.0688C16.6438 18.7813 16.5 18.425 16.5 18C16.5 17.575 16.6438 17.2188 16.9313 16.9313C17.2188 16.6438 17.575 16.5 18 16.5C18.425 16.5 18.7813 16.6438 19.0688 16.9313C19.3563 17.2188 19.5 17.575 19.5 18C19.5 18.425 19.3563 18.7813 19.0688 19.0688C18.7813 19.3563 18.425 19.5 18 19.5C17.575 19.5 17.2188 19.3563 16.9313 19.0688ZM25.9313 19.0688C25.6438 18.7813 25.5 18.425 25.5 18C25.5 17.575 25.6438 17.2188 25.9313 16.9313C26.2188 16.6438 26.575 16.5 27 16.5C27.425 16.5 27.7813 16.6438 28.0688 16.9313C28.3563 17.2188 28.5 17.575 28.5 18C28.5 18.425 28.3563 18.7813 28.0688 19.0688C27.7813 19.3563 27.425 19.5 27 19.5C26.575 19.5 26.2188 19.3563 25.9313 19.0688ZM7.93125 10.0688C7.64375 9.78125 7.5 9.425 7.5 9C7.5 8.575 7.64375 8.21875 7.93125 7.93125C8.21875 7.64375 8.575 7.5 9 7.5C9.425 7.5 9.78125 7.64375 10.0688 7.93125C10.3563 8.21875 10.5 8.575 10.5 9C10.5 9.425 10.3563 9.78125 10.0688 10.0688C9.78125 10.3563 9.425 10.5 9 10.5C8.575 10.5 8.21875 10.3563 7.93125 10.0688ZM16.9313 10.0688C16.6438 9.78125 16.5 9.425 16.5 9C16.5 8.575 16.6438 8.21875 16.9313 7.93125C17.2188 7.64375 17.575 7.5 18 7.5C18.425 7.5 18.7813 7.64375 19.0688 7.93125C19.3563 8.21875 19.5 8.575 19.5 9C19.5 9.425 19.3563 9.78125 19.0688 10.0688C18.7813 10.3563 18.425 10.5 18 10.5C17.575 10.5 17.2188 10.3563 16.9313 10.0688ZM25.9313 10.0688C25.6438 9.78125 25.5 9.425 25.5 9C25.5 8.575 25.6438 8.21875 25.9313 7.93125C26.2188 7.64375 26.575 7.5 27 7.5C27.425 7.5 27.7813 7.64375 28.0688 7.93125C28.3563 8.21875 28.5 8.575 28.5 9C28.5 9.425 28.3563 9.78125 28.0688 10.0688C27.7813 10.3563 27.425 10.5 27 10.5C26.575 10.5 26.2188 10.3563 25.9313 10.0688Z" fill="#0D1012"/>
</svg>
