<svg width="24" height="24" viewBox="0 0 24 24" fill="none" xmlns="http://www.w3.org/2000/svg">
<path d="M6.43034 19.4616C5.9035 19.4616 5.45642 19.2779 5.08909 18.9106C4.72175 18.5432 4.53809 18.0961 4.53809 17.5693V7.52305C4.53809 7.15522 4.69575 6.90105 5.01109 6.76055C5.32642 6.62022 5.60592 6.6718 5.84959 6.9153L7.33034 8.3963L6.55734 9.16931L7.02659 9.63855L7.79959 8.8653L9.93809 11.0038L9.16509 11.7771L9.63409 12.2463L10.4073 11.4731L12.6226 13.6886L11.8496 14.4616L12.3188 14.9308L13.0918 14.1578L15.2303 16.2963L14.4573 17.0693L14.9266 17.5386L15.6996 16.7656L17.1226 18.1886C17.3534 18.4192 17.3987 18.6891 17.2583 18.9981C17.1178 19.3071 16.8701 19.4616 16.5151 19.4616H6.43034ZM6.61509 18.0001H14.2996L5.99959 9.70006V17.3846C5.99959 17.5641 6.05725 17.7116 6.17259 17.8271C6.28809 17.9424 6.43559 18.0001 6.61509 18.0001Z" fill="#0D1012"/>
</svg>
