<svg width="24" height="24" viewBox="0 0 24 24" fill="none" xmlns="http://www.w3.org/2000/svg">
<path d="M9.877 10.5061C9.29233 9.9214 9 9.21365 9 8.38281C9 7.55215 9.29233 6.84448 9.877 6.25981C10.4615 5.67515 11.1692 5.38281 12 5.38281C12.8308 5.38281 13.5385 5.67515 14.123 6.25981C14.7077 6.84448 15 7.55215 15 8.38281C15 9.21365 14.7077 9.9214 14.123 10.5061C13.5385 11.0906 12.8308 11.3828 12 11.3828C11.1692 11.3828 10.4615 11.0906 9.877 10.5061ZM5 18.6138V16.9676C5 16.5547 5.12017 16.1685 5.3605 15.8088C5.601 15.4493 5.92442 15.1701 6.33075 14.9713C7.27442 14.5188 8.21867 14.1794 9.1635 13.9531C10.1083 13.7269 11.0538 13.6138 12 13.6138C12.9462 13.6138 13.8917 13.7269 14.8365 13.9531C15.7813 14.1794 16.7256 14.5188 17.6693 14.9713C18.0756 15.1701 18.399 15.4493 18.6395 15.8088C18.8798 16.1685 19 16.5547 19 16.9676V18.6138H5ZM6 17.6138H18V16.9676C18 16.7457 17.9285 16.5374 17.7855 16.3426C17.6427 16.1477 17.4449 15.983 17.1923 15.8483C16.3693 15.4496 15.5207 15.1442 14.6465 14.9321C13.7723 14.7199 12.8902 14.6138 12 14.6138C11.1098 14.6138 10.2277 14.7199 9.3535 14.9321C8.47933 15.1442 7.63075 15.4496 6.80775 15.8483C6.55508 15.983 6.35733 16.1477 6.2145 16.3426C6.0715 16.5374 6 16.7457 6 16.9676V17.6138ZM13.4125 9.79531C13.8042 9.40365 14 8.93281 14 8.38281C14 7.83281 13.8042 7.36198 13.4125 6.97031C13.0208 6.57865 12.55 6.38281 12 6.38281C11.45 6.38281 10.9792 6.57865 10.5875 6.97031C10.1958 7.36198 10 7.83281 10 8.38281C10 8.93281 10.1958 9.40365 10.5875 9.79531C10.9792 10.187 11.45 10.3828 12 10.3828C12.55 10.3828 13.0208 10.187 13.4125 9.79531Z" fill="#0D1012"/>
</svg>
