<svg width="24" height="24" viewBox="0 0 24 24" fill="none" xmlns="http://www.w3.org/2000/svg">
<path d="M5.2345 15.2039C4.99617 14.7117 4.81417 14.1995 4.6885 13.6674C4.56283 13.1354 4.5 12.5963 4.5 12.0501C4.5 9.9578 5.23017 8.17638 6.6905 6.70588C8.15067 5.23538 9.9205 4.50013 12 4.50013H13.3865L11.2865 2.40013L11.9942 1.69238L15.302 5.00013L11.9942 8.30788L11.2865 7.60013L13.3865 5.50013H12C10.1923 5.50013 8.65708 6.13572 7.39425 7.40688C6.13142 8.67805 5.5 10.2258 5.5 12.0501C5.5 12.445 5.54042 12.8475 5.62125 13.2579C5.70192 13.668 5.823 14.0667 5.9845 14.4539L5.2345 15.2039ZM12.0058 22.3079L8.698 19.0001L12.0058 15.6924L12.7135 16.4001L10.6135 18.5001H12C13.8077 18.5001 15.3429 17.8646 16.6058 16.5934C17.8686 15.3222 18.5 13.7745 18.5 11.9501C18.5 11.5553 18.4596 11.1527 18.3788 10.7424C18.2981 10.3322 18.177 9.93355 18.0155 9.54638L18.7655 8.79638C19.0038 9.28855 19.1858 9.80072 19.3115 10.3329C19.4372 10.8649 19.5 11.404 19.5 11.9501C19.5 14.0425 18.7698 15.8239 17.3095 17.2944C15.8493 18.7649 14.0795 19.5001 12 19.5001H10.6135L12.7135 21.6001L12.0058 22.3079Z" fill="#0D1012"/>
</svg>
