<svg width="24" height="24" viewBox="0 0 24 24" fill="none" xmlns="http://www.w3.org/2000/svg">
<path d="M9.877 10.508C9.29233 9.92335 9 9.2156 9 8.38477C9 7.5541 9.29233 6.84643 9.877 6.26177C10.4615 5.6771 11.1692 5.38477 12 5.38477C12.8308 5.38477 13.5385 5.6771 14.123 6.26177C14.7077 6.84643 15 7.5541 15 8.38477C15 9.2156 14.7077 9.92335 14.123 10.508C13.5385 11.0925 12.8308 11.3848 12 11.3848C11.1692 11.3848 10.4615 11.0925 9.877 10.508ZM5 18.6158V16.9695C5 16.5567 5.12017 16.1704 5.3605 15.8108C5.601 15.4513 5.92442 15.1721 6.33075 14.9733C7.27442 14.5208 8.21867 14.1813 9.1635 13.955C10.1083 13.7288 11.0538 13.6158 12 13.6158C12.9462 13.6158 13.8917 13.7288 14.8365 13.955C15.7813 14.1813 16.7256 14.5208 17.6693 14.9733C18.0756 15.1721 18.399 15.4513 18.6395 15.8108C18.8798 16.1704 19 16.5567 19 16.9695V18.6158H5ZM6 17.6158H18V16.9695C18 16.7477 17.9285 16.5393 17.7855 16.3445C17.6427 16.1497 17.4449 15.9849 17.1923 15.8503C16.3693 15.4516 15.5207 15.1462 14.6465 14.934C13.7723 14.7218 12.8902 14.6158 12 14.6158C11.1098 14.6158 10.2277 14.7218 9.3535 14.934C8.47933 15.1462 7.63075 15.4516 6.80775 15.8503C6.55508 15.9849 6.35733 16.1497 6.2145 16.3445C6.0715 16.5393 6 16.7477 6 16.9695V17.6158ZM13.4125 9.79727C13.8042 9.4056 14 8.93477 14 8.38477C14 7.83477 13.8042 7.36393 13.4125 6.97227C13.0208 6.5806 12.55 6.38477 12 6.38477C11.45 6.38477 10.9792 6.5806 10.5875 6.97227C10.1958 7.36393 10 7.83477 10 8.38477C10 8.93477 10.1958 9.4056 10.5875 9.79727C10.9792 10.1889 11.45 10.3848 12 10.3848C12.55 10.3848 13.0208 10.1889 13.4125 9.79727Z" fill="#0D1012"/>
</svg>
