<svg width="24" height="24" viewBox="0 0 24 24" fill="none" xmlns="http://www.w3.org/2000/svg">
<g clip-path="url(#clip0_1407_11460)">
<path d="M11.961 20C9.93036 20 8.16019 19.3368 6.65052 18.0105C5.14086 16.6843 4.26744 15.0142 4.03027 13H5.04177C5.31361 14.7205 6.09727 16.1507 7.39277 17.2905C8.68827 18.4302 10.211 19 11.961 19C13.911 19 15.5652 18.3208 16.9235 16.9625C18.2819 15.6042 18.961 13.95 18.961 12C18.961 10.05 18.2819 8.39583 16.9235 7.0375C15.5652 5.67917 13.911 5 11.961 5C10.9264 5 9.95394 5.21858 9.04377 5.65575C8.13344 6.09292 7.33019 6.69483 6.63402 7.4615H9.11502V8.4615H4.96102V4.30775H5.96102V6.69625C6.73419 5.84742 7.64027 5.18583 8.67927 4.7115C9.71844 4.23717 10.8124 4 11.961 4C13.07 4 14.1094 4.20867 15.0793 4.626C16.0491 5.04333 16.8965 5.6145 17.6215 6.3395C18.3465 7.0645 18.9177 7.91192 19.335 8.88175C19.7524 9.85158 19.961 10.891 19.961 12C19.961 13.109 19.7524 14.1484 19.335 15.1183C18.9177 16.0881 18.3465 16.9355 17.6215 17.6605C16.8965 18.3855 16.0491 18.9567 15.0793 19.374C14.1094 19.7913 13.07 20 11.961 20ZM15.165 15.8538L11.5188 12.2078V7H12.5188V11.7923L15.8725 15.1463L15.165 15.8538Z" fill="#0D1012"/>
</g>
<defs>
<clipPath id="clip0_1407_11460">
<rect width="24" height="24" fill="white"/>
</clipPath>
</defs>
</svg>
