<svg width="24" height="24" viewBox="0 0 24 24" fill="none" xmlns="http://www.w3.org/2000/svg">
<path d="M12.0833 23.1667C10.5581 23.1667 9.12126 22.8757 7.77279 22.2937C6.42432 21.7119 5.24939 20.9203 4.248 19.9187C3.24642 18.9173 2.45474 17.7423 1.87296 16.3939C1.29099 15.0454 1 13.6086 1 12.0833H2.46592C2.46592 14.5328 3.27957 16.668 4.90688 18.4892C6.53418 20.3102 8.57235 21.3593 11.0214 21.6366L9.22646 19.8341L10.2272 18.8337L14.3029 22.9094C13.9399 23.0218 13.5718 23.0928 13.1987 23.1223C12.8255 23.1519 12.4538 23.1667 12.0833 23.1667ZM12.9764 15.5145V8.63263H16.4283C16.7709 8.63263 17.0602 8.75065 17.2963 8.98671C17.5323 9.22276 17.6504 9.5121 17.6504 9.85471V14.2924C17.6504 14.635 17.5323 14.9244 17.2963 15.1604C17.0602 15.3965 16.7709 15.5145 16.4283 15.5145H12.9764ZM6.53554 15.5145V14.2851H9.96088V12.5873H7.74567V11.5674H9.96088V9.88154H6.53554V8.63263H10.158C10.4559 8.63263 10.7057 8.73344 10.9073 8.93508C11.109 9.13672 11.2098 9.38347 11.2098 9.67533V14.4695C11.2098 14.7679 11.109 15.0167 10.9073 15.2158C10.7057 15.4149 10.4559 15.5145 10.158 15.5145H6.53554ZM14.2058 14.2851H16.267C16.3117 14.2851 16.3454 14.2738 16.3679 14.2513C16.3903 14.2289 16.4015 14.1953 16.4015 14.1504V10.0163C16.4015 9.97138 16.3903 9.93774 16.3679 9.91538C16.3454 9.89282 16.3117 9.88154 16.267 9.88154H14.2058V14.2851ZM21.7008 12.0833C21.7008 9.62633 20.8903 7.48919 19.2694 5.67192C17.6485 3.85464 15.6111 2.80736 13.1573 2.53008L14.9475 4.32062L13.9395 5.32104L9.86375 1.23771C10.2272 1.13213 10.5953 1.06611 10.9683 1.03967C11.3414 1.01322 11.7131 1 12.0833 1C13.6136 1 15.0517 1.29099 16.3977 1.87296C17.7436 2.45474 18.9173 3.24642 19.9187 4.248C20.9203 5.24939 21.7119 6.42306 22.2937 7.769C22.8757 9.11495 23.1667 10.5531 23.1667 12.0833H21.7008Z" fill="#1F1F1F"/>
</svg>
