<svg width="24" height="24" viewBox="0 0 24 24" fill="none" xmlns="http://www.w3.org/2000/svg">
<path d="M9.10775 11.7575L11.3923 9.46698L9.3385 7.40748L8.18075 8.56523L7.473 7.85748L8.625 6.69973L6.673 4.74773L4.38275 7.03823L9.10775 11.7575ZM16.9423 19.5977L19.2328 17.3075L17.2807 15.3555L16.123 16.5075L15.4155 15.7997L16.5673 14.642L14.527 12.6075L12.2423 14.892L16.9423 19.5977ZM15.5328 6.75173L17.2595 8.47849L19.0057 6.73248L17.273 4.99973L15.5328 6.75173ZM7.15375 19.9997H4V16.846L8.39425 12.4517L3 7.03823L6.673 3.36523L12.1115 8.78423L16.5788 4.31124C16.6891 4.20107 16.8052 4.12157 16.927 4.07273C17.0487 4.02407 17.1788 3.99973 17.3173 3.99973C17.4558 3.99973 17.5859 4.02407 17.7078 4.07273C17.8296 4.12157 17.9456 4.20107 18.0557 4.31124L19.6885 6.00748C19.7987 6.11765 19.8749 6.23365 19.9173 6.35548C19.9596 6.47732 19.9807 6.60748 19.9807 6.74598C19.9807 6.88432 19.9596 7.01024 19.9173 7.12374C19.8749 7.23724 19.7987 7.34907 19.6885 7.45923L15.2595 11.9132L20.6345 17.3267L16.9615 20.9997L11.548 15.6055L7.15375 19.9997Z" fill="#EBF0F2"/>
</svg>
