<svg width="24" height="24" viewBox="0 0 24 24" fill="none" xmlns="http://www.w3.org/2000/svg">
<path d="M4.6155 20C4.15517 20 3.77083 19.8458 3.4625 19.5375C3.15417 19.2292 3 18.8448 3 18.3845V5.6155C3 5.15517 3.15417 4.77083 3.4625 4.4625C3.77083 4.15417 4.15517 4 4.6155 4H19.3845C19.8448 4 20.2292 4.15417 20.5375 4.4625C20.8458 4.77083 21 5.15517 21 5.6155V18.3845C21 18.8448 20.8458 19.2292 20.5375 19.5375C20.2292 19.8458 19.8448 20 19.3845 20H4.6155ZM5.5 16.5H9.5V15.5H5.5V16.5ZM14.55 14.2885L18.7885 10.05L18.075 9.3365L14.55 12.8865L13.125 11.4615L12.4365 12.175L14.55 14.2885ZM5.5 12.5H9.5V11.5H5.5V12.5ZM5.5 8.5H9.5V7.5H5.5V8.5Z" fill="#EBF0F2"/>
</svg>
