<svg width="24" height="24" viewBox="0 0 24 24" fill="none" xmlns="http://www.w3.org/2000/svg">
<path d="M7.2885 20.0004C6.7705 20.0004 6.28042 19.8844 5.81825 19.6524C5.35608 19.4202 4.96542 19.0991 4.64625 18.6889C4.32692 18.2786 4.12817 17.8154 4.05 17.2994C3.97183 16.7834 3.98592 16.2702 4.09225 15.7599L4.6345 13.4024L4 4.0734L5 4.0004C5.94617 3.9299 6.77725 4.19398 7.49325 4.79265C8.20925 5.39148 8.6025 6.15115 8.673 7.07165L8.87875 9.89265C8.94925 10.8003 8.66692 11.5971 8.03175 12.2831C7.39642 12.969 6.59933 13.3471 5.6405 13.4176L5.075 16.0409C4.99167 16.4177 4.98233 16.7837 5.047 17.1389C5.11183 17.4941 5.24875 17.8094 5.45775 18.0849C5.61792 18.2876 5.80575 18.4594 6.02125 18.6004C6.23658 18.7414 6.48783 18.8536 6.775 18.9369C6.93533 17.9896 7.32733 17.212 7.951 16.6041C8.57467 15.9965 9.29617 15.6926 10.1155 15.6926H16.6923C17.5999 15.6926 18.3782 16.0171 19.027 16.6659C19.6757 17.3146 20 18.0927 20 19.0004V20.0004H7.2885Z" fill="#EBF0F2"/>
</svg>
