<svg width="24" height="24" viewBox="0 0 24 24" fill="none" xmlns="http://www.w3.org/2000/svg">
<g clip-path="url(#clip0_154_9560)">
<path d="M4 20.769V3.23047L5.26925 4.19197L6.6155 3.23047L7.9615 4.19197L9.30775 3.23047L10.6537 4.19197L12 3.23047L13.3462 4.19197L14.6923 3.23047L16.0385 4.19197L17.3845 3.23047L18.7307 4.19197L20 3.23047V20.769L18.7307 19.8075L17.3845 20.769L16.0385 19.8075L14.6923 20.769L13.3462 19.8075L12 20.769L10.6537 19.8075L9.30775 20.769L7.9615 19.8075L6.6155 20.769L5.26925 19.8075L4 20.769ZM6.5 15.8842H17.5V14.8842H6.5V15.8842ZM6.5 12.4997H17.5V11.4997H6.5V12.4997ZM6.5 9.11522H17.5V8.11522H6.5V9.11522ZM5 19.0997H19V4.89972H5V19.0997Z" fill="#0D1012"/>
</g>
<defs>
<clipPath id="clip0_154_9560">
<rect width="24" height="24" fill="white"/>
</clipPath>
</defs>
</svg>
