<svg width="24" height="24" viewBox="0 0 24 24" fill="none" xmlns="http://www.w3.org/2000/svg">
<path d="M21 6.6155V17.3845C21 17.8448 20.8458 18.2292 20.5375 18.5375C20.2292 18.8458 19.8448 19 19.3845 19H4.6155C4.15517 19 3.77083 18.8458 3.4625 18.5375C3.15417 18.2292 3 17.8448 3 17.3845V6.6155C3 6.15517 3.15417 5.77083 3.4625 5.4625C3.77083 5.15417 4.15517 5 4.6155 5H19.3845C19.8448 5 20.2292 5.15417 20.5375 5.4625C20.8458 5.77083 21 6.15517 21 6.6155ZM4 8.80775H20V6.6155C20 6.4615 19.9359 6.32042 19.8078 6.19225C19.6796 6.06408 19.5385 6 19.3845 6H4.6155C4.4615 6 4.32042 6.06408 4.19225 6.19225C4.06408 6.32042 4 6.4615 4 6.6155V8.80775ZM4 11.1923V17.3845C4 17.5385 4.06408 17.6796 4.19225 17.8077C4.32042 17.9359 4.4615 18 4.6155 18H19.3845C19.5385 18 19.6796 17.9359 19.8078 17.8077C19.9359 17.6796 20 17.5385 20 17.3845V11.1923H4Z" fill="#0D1012"/>
</svg>
