<svg xmlns="http://www.w3.org/2000/svg" width="40" height="40" viewBox="0 0 40 40">
    <g transform="translate(-744 -410)">
        <rect data-name="사각형 4155" width="40" height="40" rx="12" transform="translate(744 410)" style="fill:#ff3a4a"/>
        <g data-name="그룹 5454">
            <path data-name="패스 66709" d="M79 211.41c-2.141 0-3.01.016-3.01.016v11.087h1.726v-3.386h1.549a2.371 2.371 0 0 0 2.4-2.4v-2.91s.256-2.407-2.665-2.407zm1.007 4.94a.9.9 0 0 1-.985.985h-1.306v-4.227s.332.016 1.311.016a.959.959 0 0 1 .979.979z" transform="translate(674.01 212.685)" style="fill:#fff"/>
            <path data-name="패스 66710" d="M186.636 211.41H184l-1.948 11.1h1.859l.354-1.969h2.108l.354 1.969h1.859zm-2.2 7.474.877-5.18.877 5.18h-1.754z" transform="translate(574.565 212.685)" style="fill:#fff"/>
            <path data-name="패스 66711" d="M312.058 213.29h1.82c-.1-.735.517-3.175-2.656-3.408-3.731-.078-3.9 3.575-2.28 5.223.752.863 3.054 1.792 3.076 3.1a1.092 1.092 0 1 1-2.147.319v-.74h-1.859a4.045 4.045 0 0 0 .237 1.915 2.508 2.508 0 0 0 2.131 1.449c2.058.261 3.6-.892 3.5-2.809-.077-.783.3-1.022-1.262-2.591-1.284-1.129-2.766-1.726-2.766-3.009a1.1 1.1 0 1 1 2.191-.243l.017.8z" transform="translate(456.502 214.119)" style="fill:#fff"/>
            <path data-name="패스 66712" d="M434.108 213.29h1.82c-.1-.735.517-3.175-2.656-3.408-3.731-.078-3.9 3.575-2.28 5.223.752.863 3.054 1.792 3.076 3.1a1.092 1.092 0 1 1-2.147.319v-.74h-1.859a4.045 4.045 0 0 0 .237 1.915 2.508 2.508 0 0 0 2.131 1.449c2.058.261 3.6-.892 3.5-2.809-.077-.783.3-1.022-1.262-2.591-1.284-1.129-2.766-1.726-2.766-3.009a1.1 1.1 0 1 1 2.191-.243l.017.8z" transform="translate(342.066 214.119)" style="fill:#fff"/>
        </g>
    </g>
</svg>
