<svg xmlns="http://www.w3.org/2000/svg" xmlns:xlink="http://www.w3.org/1999/xlink" width="375" height="760" viewBox="0 0 375 760">
  <defs>
    <clipPath id="clip-path">
      <rect id="사각형_3526" data-name="사각형 3526" width="41.162" height="31.198" transform="translate(0 -0.001)" fill="none"/>
    </clipPath>
    <clipPath id="clip-path-2">
      <rect id="사각형_3538" data-name="사각형 3538" width="28" height="39.328" fill="none"/>
    </clipPath>
    <clipPath id="clip-path-5">
      <rect id="사각형_3529" data-name="사각형 3529" width="35" height="42.354" fill="none"/>
    </clipPath>
    <clipPath id="clip-path-7">
      <rect id="사각형_3550" data-name="사각형 3550" width="50" height="41.814" fill="none"/>
    </clipPath>
    <clipPath id="clip-path-8">
      <rect id="사각형_3483" data-name="사각형 3483" width="38.182" height="46.056" fill="none"/>
    </clipPath>
    <clipPath id="clip-path-9">
      <rect id="사각형_3485" data-name="사각형 3485" width="55.499" height="36.979" fill="none"/>
    </clipPath>
    <clipPath id="clip-고교학점제_img_m">
      <rect width="375" height="760"/>
    </clipPath>
  </defs>
  <g id="고교학점제_img_m" clip-path="url(#clip-고교학점제_img_m)">
    <rect width="375" height="760" fill="#fff"/>
    <g id="그룹_5820" data-name="그룹 5820" transform="translate(0 -2304)">
      <g id="그룹_5836" data-name="그룹 5836" transform="translate(2 -86)">
        <g id="_1" data-name="1" transform="translate(106 2346)">
          <g id="사각형_3524" data-name="사각형 3524" transform="translate(-88 44)" fill="#f3fafa" stroke="#b0e0e2" stroke-width="1">
            <rect width="150" height="220" rx="70" stroke="none"/>
            <rect x="0.5" y="0.5" width="149" height="219" rx="69.5" fill="none"/>
          </g>
          <text id="학생_수요를_반영한_교육과정" data-name="학생 수요를
반영한 교육과정" transform="translate(-13 200)" fill="#111" font-size="14" font-family="NotoSansCJKkr-Regular, Noto Sans CJK KR" letter-spacing="-0.025em"><tspan x="-32.893" y="0">학생 수요를</tspan><tspan x="-45.423" y="20">반영한 교육과정</tspan></text>
          <text id="교육과정" transform="translate(-13 113)" fill="#16a1a9" font-size="18" font-family="NotoSansCJKkr-Bold, Noto Sans CJK KR" font-weight="700" letter-spacing="-0.025em"><tspan x="-32.445" y="0">교육과정</tspan></text>
          <g id="그룹_5819" data-name="그룹 5819" transform="translate(-3 -1)">
            <g id="타원_400" data-name="타원 400" transform="translate(-22 64)" fill="#fff" stroke="#b0e0e2" stroke-width="1">
              <circle cx="12.5" cy="12.5" r="12.5" stroke="none"/>
              <circle cx="12.5" cy="12.5" r="12" fill="none"/>
            </g>
            <text id="_1-2" data-name="1" transform="translate(-9 82)" fill="#16a1a9" font-size="12" font-family="NotoSansCJKkr-Bold, Noto Sans CJK KR" font-weight="700" letter-spacing="-0.025em"><tspan x="-3.534" y="0">1</tspan></text>
          </g>
          <g id="그룹_5823" data-name="그룹 5823" transform="translate(-33.999 138.001)">
            <g id="그룹_5822" data-name="그룹 5822" clip-path="url(#clip-path)">
              <path id="패스_66493" data-name="패스 66493" d="M10.616,3.266C5.112,3.266.65,4.274.65,5.517V31.2c0-1.244,4.462-2.253,9.966-2.253s9.965,1.009,9.965,2.253V5.517c0-1.243-4.462-2.251-9.965-2.251" fill="#4defe3"/>
              <path id="패스_66494" data-name="패스 66494" d="M10.616,3.266C5.112,3.266.65,4.274.65,5.517V31.2c0-1.244,4.462-2.253,9.966-2.253s9.965,1.009,9.965,2.253V5.517C20.581,4.274,16.119,3.266,10.616,3.266Z" fill="none" stroke="#231f20" stroke-miterlimit="10" stroke-width="1.3"/>
              <path id="패스_66495" data-name="패스 66495" d="M30.546,3.266c-5.5,0-9.965,1.008-9.965,2.251V31.2c0-1.244,4.462-2.253,9.965-2.253s9.966,1.009,9.966,2.253V5.517c0-1.243-4.461-2.251-9.966-2.251" fill="#4defe3"/>
              <path id="패스_66496" data-name="패스 66496" d="M30.546,3.266c-5.5,0-9.965,1.008-9.965,2.251V31.2c0-1.244,4.462-2.253,9.965-2.253s9.966,1.009,9.966,2.253V5.517C40.512,4.274,36.051,3.266,30.546,3.266Z" fill="none" stroke="#231f20" stroke-miterlimit="10" stroke-width="1.3"/>
              <path id="패스_66497" data-name="패스 66497" d="M30.546,3.266c-5.5,0-9.965,1.008-9.965,2.251V31.2c0-1.244,4.462-2.253,9.965-2.253s5.271-1.229,7.379-1.1V2.164c0-1.244-1.874,1.1-7.379,1.1" fill="#fff"/>
              <path id="패스_66498" data-name="패스 66498" d="M30.546,3.266c-5.5,0-9.965,1.008-9.965,2.251V31.2c0-1.244,4.462-2.253,9.965-2.253s5.271-1.229,7.379-1.1V2.164C37.925.92,36.051,3.266,30.546,3.266Z" fill="none" stroke="#231f20" stroke-miterlimit="10" stroke-width="1.3"/>
              <path id="패스_66499" data-name="패스 66499" d="M26.858,2.116c-5.5,0-6.276,2.158-6.276,3.4V31.2c0-1.244.772-3.4,6.276-3.4s5.27-1.229,7.378-1.1V1.014c0-1.244-1.874,1.1-7.378,1.1" fill="#fff"/>
              <path id="패스_66500" data-name="패스 66500" d="M26.858,2.116c-5.5,0-6.276,2.158-6.276,3.4V31.2c0-1.244.772-3.4,6.276-3.4s5.27-1.229,7.378-1.1V1.014C34.236-.23,32.362,2.116,26.858,2.116Z" fill="none" stroke="#231f20" stroke-miterlimit="10" stroke-width="1.3"/>
              <path id="패스_66501" data-name="패스 66501" d="M10.616,3.266c5.5,0,9.965,1.008,9.965,2.251V31.2c0-1.244-4.462-2.253-9.965-2.253s-5.27-1.229-7.378-1.1V2.164c0-1.244,1.874,1.1,7.378,1.1" fill="#fff"/>
              <path id="패스_66502" data-name="패스 66502" d="M10.616,3.266c5.5,0,9.965,1.008,9.965,2.251V31.2c0-1.244-4.462-2.253-9.965-2.253s-5.27-1.229-7.378-1.1V2.164C3.238.92,5.112,3.266,10.616,3.266Z" fill="none" stroke="#231f20" stroke-miterlimit="10" stroke-width="1.3"/>
              <path id="패스_66503" data-name="패스 66503" d="M14.305,2.116c5.5,0,6.276,2.158,6.276,3.4V31.2c0-1.244-.772-3.4-6.276-3.4s-5.271-1.229-7.378-1.1V1.014c0-1.244,1.873,1.1,7.378,1.1" fill="#fff"/>
              <path id="패스_66504" data-name="패스 66504" d="M14.305,2.116c5.5,0,6.276,2.158,6.276,3.4V31.2c0-1.244-.772-3.4-6.276-3.4s-5.271-1.229-7.378-1.1V1.014C6.927-.23,8.8,2.116,14.305,2.116Z" fill="none" stroke="#231f20" stroke-miterlimit="10" stroke-width="1.3"/>
            </g>
          </g>
        </g>
        <g id="_1-3" data-name="1" transform="translate(291 2346)">
          <g id="사각형_3524-2" data-name="사각형 3524" transform="translate(-88 44)" fill="#f3fafa" stroke="#b0e0e2" stroke-width="1">
            <rect width="150" height="220" rx="70" stroke="none"/>
            <rect x="0.5" y="0.5" width="149" height="219" rx="69.5" fill="none"/>
          </g>
          <text id="진로_학업설계_지도를_통한_학생의_과목_선택" data-name="진로 학업설계
지도를 통한
학생의 과목 선택" transform="translate(-13 190)" fill="#111" font-size="14" font-family="NotoSansCJKkr-Regular, Noto Sans CJK KR" letter-spacing="-0.025em"><tspan x="-39.158" y="0">진로 학업설계</tspan><tspan x="-32.893" y="20">지도를 통한</tspan><tspan x="-46.816" y="40">학생의 과목 선택</tspan></text>
          <text id="수강신청" transform="translate(-13 113)" fill="#16a1a9" font-size="18" font-family="NotoSansCJKkr-Bold, Noto Sans CJK KR" font-weight="700" letter-spacing="-0.025em"><tspan x="-32.445" y="0">수강신청</tspan></text>
          <g id="그룹_5819-2" data-name="그룹 5819" transform="translate(-3 -1)">
            <g id="타원_400-2" data-name="타원 400" transform="translate(-22 64)" fill="#fff" stroke="#b0e0e2" stroke-width="1">
              <circle cx="12.5" cy="12.5" r="12.5" stroke="none"/>
              <circle cx="12.5" cy="12.5" r="12" fill="none"/>
            </g>
            <text id="_2" data-name="2" transform="translate(-9 82)" fill="#16a1a9" font-size="12" font-family="NotoSansCJKkr-Bold, Noto Sans CJK KR" font-weight="700" letter-spacing="-0.025em"><tspan x="-3.534" y="0">2</tspan></text>
          </g>
          <g id="그룹_5835" data-name="그룹 5835" transform="translate(-25.001 127)">
            <rect id="사각형_3536" data-name="사각형 3536" width="23.114" height="38.598" transform="translate(0.418 0.365)" fill="#6de2d1"/>
            <g id="그룹_5830" data-name="그룹 5830" transform="translate(0 0)">
              <g id="그룹_5829" data-name="그룹 5829" clip-path="url(#clip-path-2)">
                <rect id="사각형_3537" data-name="사각형 3537" width="23.114" height="38.598" transform="translate(0.418 0.365)" fill="none" stroke="#231f20" stroke-miterlimit="10" stroke-width="1.5"/>
              </g>
            </g>
            <rect id="사각형_3539" data-name="사각형 3539" width="23.115" height="25.445" transform="translate(0.365 5.742)" fill="#fff"/>
            <g id="그룹_5832" data-name="그룹 5832" transform="translate(0 0)">
              <g id="그룹_5831" data-name="그룹 5831" clip-path="url(#clip-path-2)">
                <rect id="사각형_3540" data-name="사각형 3540" width="23.114" height="25.445" transform="translate(0.365 5.742)" fill="none" stroke="#231f20" stroke-miterlimit="10" stroke-width="1.5"/>
              </g>
            </g>
            <line id="선_625" data-name="선 625" x2="3.73" transform="translate(10.11 34.755)" fill="none" stroke="#231f20" stroke-miterlimit="10" stroke-width="1.5"/>
            <line id="선_626" data-name="선 626" x2="1.865" transform="translate(11.043 2.804)" fill="none" stroke="#231f20" stroke-miterlimit="10" stroke-width="1.5"/>
            <rect id="사각형_3542" data-name="사각형 3542" width="19.29" height="14.287" transform="translate(2.277 11.547)" fill="#eaeaea"/>
            <line id="선_627" data-name="선 627" x2="7.6" transform="translate(4.269 14.986)" fill="none" stroke="#231f20" stroke-miterlimit="10" stroke-width="1.5"/>
            <line id="선_628" data-name="선 628" x2="15.369" transform="translate(4.269 18.69)" fill="none" stroke="#231f20" stroke-miterlimit="10" stroke-width="1.5"/>
            <line id="선_629" data-name="선 629" x2="11.948" transform="translate(4.269 22.197)" fill="none" stroke="#231f20" stroke-miterlimit="10" stroke-width="1.5"/>
            <line id="선_630" data-name="선 630" x2="1.886" transform="translate(17.752 22.197)" fill="none" stroke="#231f20" stroke-miterlimit="10" stroke-width="1.5"/>
            <g id="그룹_5834" data-name="그룹 5834" transform="translate(0 0)">
              <g id="그룹_5833" data-name="그룹 5833" clip-path="url(#clip-path-2)">
                <path id="패스_66508" data-name="패스 66508" d="M44.749,39.23a1.389,1.389,0,0,0-2.777,0v-.308a1.389,1.389,0,1,0-2.777,0v-.309a1.389,1.389,0,1,0-2.777,0v-5.3a1.543,1.543,0,0,0-3.086,0V45.047a5.705,5.705,0,0,0,3.086,5.068v2.127h5.555v-2.3a5.7,5.7,0,0,0,2.777-4.892c0-.082-.009-.162-.012-.243,0-.041.012-.08.012-.122Z" transform="translate(-17.114 -16.313)" fill="#fff"/>
                <path id="패스_66509" data-name="패스 66509" d="M44.749,39.23a1.389,1.389,0,0,0-2.777,0v-.308a1.389,1.389,0,1,0-2.777,0v-.309a1.389,1.389,0,1,0-2.777,0v-5.3a1.543,1.543,0,0,0-3.086,0V45.047a5.705,5.705,0,0,0,3.086,5.068v2.127h5.555v-2.3a5.7,5.7,0,0,0,2.777-4.892c0-.082-.009-.162-.012-.243,0-.041.012-.08.012-.122Z" transform="translate(-17.114 -16.313)" fill="none" stroke="#231f20" stroke-miterlimit="10" stroke-width="1.5"/>
                <line id="선_631" data-name="선 631" y2="2.932" transform="translate(19.303 21.528)" fill="#fff"/>
                <line id="선_632" data-name="선 632" y2="2.932" transform="translate(19.303 21.528)" fill="none" stroke="#231f20" stroke-miterlimit="10" stroke-width="1.5"/>
                <line id="선_633" data-name="선 633" y2="2.006" transform="translate(22.08 22.454)" fill="#fff"/>
                <line id="선_634" data-name="선 634" y2="2.006" transform="translate(22.08 22.454)" fill="none" stroke="#231f20" stroke-miterlimit="10" stroke-width="1.5"/>
                <line id="선_635" data-name="선 635" y2="1.671" transform="translate(24.858 22.789)" fill="#fff"/>
                <line id="선_636" data-name="선 636" y2="1.671" transform="translate(24.858 22.789)" fill="none" stroke="#231f20" stroke-miterlimit="10" stroke-width="1.5"/>
                <rect id="사각형_3543" data-name="사각형 3543" width="8.486" height="3.035" transform="translate(17.683 35.928)" fill="#fff"/>
                <rect id="사각형_3544" data-name="사각형 3544" width="8.486" height="3.035" transform="translate(17.683 35.928)" fill="none" stroke="#231f20" stroke-miterlimit="10" stroke-width="1.5"/>
              </g>
            </g>
          </g>
        </g>
        <g id="_" data-name="&gt;" transform="translate(168.16 2485.031)">
          <circle id="타원_402" data-name="타원 402" cx="2.1" cy="2.1" r="2.1" transform="translate(3 13.311)" fill="#1681a9"/>
          <path id="패스_66492" data-name="패스 66492" d="M9.1,17.511H22.974l-2.758,2.758a2.113,2.113,0,0,0,0,2.968,2.087,2.087,0,0,0,2.968,0l5.082-5.068a3.921,3.921,0,0,0,0-5.516L23.184,7.585A2.087,2.087,0,0,0,21.7,6.969a2.136,2.136,0,0,0-1.484.616,2.113,2.113,0,0,0,0,2.968l2.758,2.758H9.1a2.1,2.1,0,1,0,0,4.2Z" transform="translate(1.6 0)" fill="#1681a9"/>
        </g>
      </g>
      <g id="그룹_5838" data-name="그룹 5838" transform="translate(0 57)">
        <g id="_1-4" data-name="1" transform="translate(293 2433)">
          <g id="사각형_3524-3" data-name="사각형 3524" transform="translate(-88 44)" fill="#f3fafa" stroke="#b0e0e2" stroke-width="1">
            <rect width="150" height="220" rx="70" stroke="none"/>
            <rect x="0.5" y="0.5" width="149" height="219" rx="69.5" fill="none"/>
          </g>
          <text id="학생_참여형_수업_미이수_예방_지도" data-name="학생 참여형 수업,
미이수 예방 지도" transform="translate(-13 200)" fill="#111" font-size="14" font-family="NotoSansCJKkr-Regular, Noto Sans CJK KR" letter-spacing="-0.025em"><tspan x="-48.587" y="0">학생 참여형 수업,</tspan><tspan x="-46.816" y="20">미이수 예방 지도</tspan></text>
          <text id="수업운영" transform="translate(-13 113)" fill="#16a1a9" font-size="18" font-family="NotoSansCJKkr-Bold, Noto Sans CJK KR" font-weight="700" letter-spacing="-0.025em"><tspan x="-32.445" y="0">수업운영</tspan></text>
          <g id="그룹_5819-3" data-name="그룹 5819" transform="translate(-3 -1)">
            <g id="타원_400-3" data-name="타원 400" transform="translate(-22 64)" fill="#fff" stroke="#b0e0e2" stroke-width="1">
              <circle cx="12.5" cy="12.5" r="12.5" stroke="none"/>
              <circle cx="12.5" cy="12.5" r="12" fill="none"/>
            </g>
            <text id="_3" data-name="3" transform="translate(-9 82)" fill="#16a1a9" font-size="12" font-family="NotoSansCJKkr-Bold, Noto Sans CJK KR" font-weight="700" letter-spacing="-0.025em"><tspan x="-3.534" y="0">3</tspan></text>
          </g>
          <g id="그룹_5828" data-name="그룹 5828" transform="translate(-30 132)">
            <rect id="사각형_3527" data-name="사각형 3527" width="31.663" height="38.847" transform="translate(2.988 3.158)" fill="#fff"/>
            <g id="그룹_5825" data-name="그룹 5825" transform="translate(0 0.001)">
              <g id="그룹_5824" data-name="그룹 5824" clip-path="url(#clip-path-5)">
                <rect id="사각형_3528" data-name="사각형 3528" width="31.663" height="38.847" transform="translate(2.988 3.158)" fill="none" stroke="#231f20" stroke-miterlimit="10" stroke-width="1.5"/>
              </g>
            </g>
            <rect id="사각형_3530" data-name="사각형 3530" width="31.663" height="38.847" transform="translate(0.349 0.35)" fill="#fff"/>
            <g id="그룹_5827" data-name="그룹 5827" transform="translate(0 0.001)">
              <g id="그룹_5826" data-name="그룹 5826" clip-path="url(#clip-path-5)">
                <rect id="사각형_3531" data-name="사각형 3531" width="31.663" height="38.847" transform="translate(0.349 0.349)" fill="none" stroke="#231f20" stroke-miterlimit="10" stroke-width="1.5"/>
              </g>
            </g>
            <rect id="사각형_3533" data-name="사각형 3533" width="6.331" height="6.331" transform="translate(4.922 6.797)" fill="#fce435"/>
            <rect id="사각형_3534" data-name="사각형 3534" width="6.331" height="6.331" transform="translate(4.922 16.179)" fill="#fce435"/>
            <rect id="사각형_3535" data-name="사각형 3535" width="6.331" height="6.331" transform="translate(4.922 26.026)" fill="#fce435"/>
            <path id="패스_66505" data-name="패스 66505" d="M10.188,15.922l2.1,3.448L16.876,12.9" transform="translate(-5.444 -6.891)" fill="none" stroke="#f04a37" stroke-miterlimit="10" stroke-width="1.5"/>
            <path id="패스_66506" data-name="패스 66506" d="M10.188,36.618l2.1,3.448,4.593-6.475" transform="translate(-5.444 -17.95)" fill="none" stroke="#f04a37" stroke-miterlimit="10" stroke-width="1.5"/>
            <path id="패스_66507" data-name="패스 66507" d="M10.188,57.315l2.1,3.448,4.593-6.475" transform="translate(-5.444 -29.01)" fill="none" stroke="#f04a37" stroke-miterlimit="10" stroke-width="1.5"/>
            <line id="선_622" data-name="선 622" x2="11.485" transform="translate(15.531 9.963)" fill="none" stroke="#231f20" stroke-miterlimit="10" stroke-width="1.5"/>
            <line id="선_623" data-name="선 623" x2="11.485" transform="translate(15.531 19.586)" fill="none" stroke="#231f20" stroke-miterlimit="10" stroke-width="1.5"/>
            <line id="선_624" data-name="선 624" x2="11.485" transform="translate(15.531 29.209)" fill="none" stroke="#231f20" stroke-miterlimit="10" stroke-width="1.5"/>
          </g>
        </g>
        <g id="_1-5" data-name="1" transform="translate(108 2433)">
          <g id="사각형_3524-4" data-name="사각형 3524" transform="translate(-88 44)" fill="#f3fafa" stroke="#b0e0e2" stroke-width="1">
            <rect width="150" height="220" rx="70" stroke="none"/>
            <rect x="0.5" y="0.5" width="149" height="219" rx="69.5" fill="none"/>
          </g>
          <text id="수업연계_과정중심평가_성취평가_실시" data-name="수업연계 과정중심평가
성취평가 실시" transform="translate(-13 200)" fill="#111" font-size="14" font-family="NotoSansCJKkr-Regular, Noto Sans CJK KR" letter-spacing="-0.025em"><tspan x="-64.218" y="0">수업연계 과정중심평가</tspan><tspan x="-39.158" y="20">성취평가 실시</tspan></text>
          <text id="평가" transform="translate(-13 113)" fill="#16a1a9" font-size="18" font-family="NotoSansCJKkr-Bold, Noto Sans CJK KR" font-weight="700" letter-spacing="-0.025em"><tspan x="-16.335" y="0">평가</tspan></text>
          <g id="그룹_5819-4" data-name="그룹 5819" transform="translate(-3 -1)">
            <g id="타원_400-4" data-name="타원 400" transform="translate(-22 64)" fill="#fff" stroke="#b0e0e2" stroke-width="1">
              <circle cx="12.5" cy="12.5" r="12.5" stroke="none"/>
              <circle cx="12.5" cy="12.5" r="12" fill="none"/>
            </g>
            <text id="_4" data-name="4" transform="translate(-9 82)" fill="#16a1a9" font-size="12" font-family="NotoSansCJKkr-Bold, Noto Sans CJK KR" font-weight="700" letter-spacing="-0.025em"><tspan x="-3.534" y="0">4</tspan></text>
          </g>
          <g id="그룹_5837" data-name="그룹 5837" transform="translate(-37 130)">
            <g id="그룹_5836-2" data-name="그룹 5836" transform="translate(0 0)" clip-path="url(#clip-path-7)">
              <path id="패스_66510" data-name="패스 66510" d="M51.54,16.051a17.4,17.4,0,0,0-13.483.146l6.916,15.957Z" transform="translate(-20.804 -8.071)" fill="none" stroke="#231f20" stroke-linejoin="round" stroke-width="1.5"/>
              <path id="패스_66511" data-name="패스 66511" d="M70.58,35.754A17.364,17.364,0,0,0,59.879,17.6l-6.567,16.1Z" transform="translate(-29.144 -9.623)" fill="#fce435"/>
              <path id="패스_66512" data-name="패스 66512" d="M70.58,35.754A17.364,17.364,0,0,0,59.879,17.6l-6.567,16.1Z" transform="translate(-29.144 -9.623)" fill="none" stroke="#231f20" stroke-miterlimit="10" stroke-width="1.5"/>
              <path id="패스_66513" data-name="패스 66513" d="M30.406,17.925a17.428,17.428,0,0,0-6.345,4.713L37.322,33.882Z" transform="translate(-13.153 -9.799)" fill="#f04a37"/>
              <path id="패스_66514" data-name="패스 66514" d="M30.406,17.925a17.428,17.428,0,0,0-6.345,4.713L37.322,33.882Z" transform="translate(-13.153 -9.799)" fill="none" stroke="#231f20" stroke-linejoin="round" stroke-width="1.5"/>
              <path id="패스_66515" data-name="패스 66515" d="M32.342,39.566,19.081,28.322A17.388,17.388,0,1,0,49.61,41.613Z" transform="translate(-8.174 -15.483)" fill="#629fd4"/>
              <path id="패스_66516" data-name="패스 66516" d="M32.342,39.566,19.081,28.322A17.388,17.388,0,1,0,49.61,41.613Z" transform="translate(-8.174 -15.483)" fill="none" stroke="#231f20" stroke-miterlimit="10" stroke-width="1.5"/>
              <path id="패스_66517" data-name="패스 66517" d="M78.186,30.788l4.867-7.03h6.3" transform="translate(-42.741 -12.987)" fill="none" stroke="#231f20" stroke-linejoin="round" stroke-width="1.5"/>
              <path id="패스_66518" data-name="패스 66518" d="M44.369,12.7,42.778,5.825l-5.04-1.253" transform="translate(-20.63 -2.5)" fill="none" stroke="#231f20" stroke-linejoin="round" stroke-width="1.5"/>
              <path id="패스_66519" data-name="패스 66519" d="M24.611,22.07l-3.636-4.464H16.847" transform="translate(-9.209 -9.625)" fill="none" stroke="#231f20" stroke-linejoin="round" stroke-width="1.5"/>
              <path id="패스_66520" data-name="패스 66520" d="M23.547,75.853l-5.5,5.014H13.057" transform="translate(-7.138 -41.466)" fill="none" stroke="#231f20" stroke-linejoin="round" stroke-width="1.5"/>
              <rect id="사각형_3546" data-name="사각형 3546" width="6.778" height="4.145" transform="translate(0 37.329)" fill="#a7d3f0"/>
              <rect id="사각형_3547" data-name="사각형 3547" width="6.778" height="4.146" transform="translate(0.859 5.907)" fill="#a7d3f0"/>
              <rect id="사각형_3548" data-name="사각형 3548" width="6.779" height="4.146" transform="translate(12.013 0)" fill="#a7d3f0"/>
              <rect id="사각형_3549" data-name="사각형 3549" width="6.778" height="4.146" transform="translate(43.222 8.697)" fill="#a7d3f0"/>
            </g>
          </g>
        </g>
        <g id="_2-2" data-name="&gt;" transform="translate(202.16 2595.887) rotate(180)">
          <ellipse id="타원_402-2" data-name="타원 402" cx="2.1" cy="2.1" rx="2.1" ry="2.1" transform="translate(0 6.346)" fill="#1681a9"/>
          <path id="패스_66492-2" data-name="패스 66492" d="M2.1,6.346H15.974L13.216,3.587a2.113,2.113,0,0,1,0-2.968,2.087,2.087,0,0,1,2.968,0l5.082,5.068a3.921,3.921,0,0,1,0,5.516l-5.082,5.068a2.087,2.087,0,0,1-1.484.616,2.136,2.136,0,0,1-1.484-.616,2.113,2.113,0,0,1,0-2.968l2.758-2.758H2.1a2.1,2.1,0,1,1,0-4.2Z" transform="translate(5.6)" fill="#1681a9"/>
        </g>
      </g>
      <g id="_3-2" data-name="&gt;" transform="translate(295.856 2509.444) rotate(90)">
        <circle id="타원_402-3" data-name="타원 402" cx="2.1" cy="2.1" r="2.1" transform="translate(3 13.311)" fill="#1681a9"/>
        <path id="패스_66492-3" data-name="패스 66492" d="M9.1,17.511H22.974l-2.758,2.758a2.113,2.113,0,0,0,0,2.968,2.087,2.087,0,0,0,2.968,0l5.082-5.068a3.921,3.921,0,0,0,0-5.516L23.184,7.585A2.087,2.087,0,0,0,21.7,6.969a2.136,2.136,0,0,0-1.484.616,2.113,2.113,0,0,0,0,2.968l2.758,2.758H9.1a2.1,2.1,0,1,0,0,4.2Z" transform="translate(1.6 0)" fill="#1681a9"/>
      </g>
      <g id="_5" data-name="5" transform="translate(423 2712)">
        <rect id="사각형_3525" data-name="사각형 3525" width="335" height="50" rx="25" transform="translate(-403 62)" fill="#f5f5f5"/>
        <g id="그룹_5820-2" data-name="그룹 5820" transform="translate(-197 -7)">
          <text id="_보충이수_지원" data-name="※보충이수 지원" transform="translate(-33 100)" fill="#111" font-size="14" font-family="NotoSansCJKkr-Regular, Noto Sans CJK KR" letter-spacing="-0.025em"><tspan x="0" y="0">※보충이수 지원</tspan></text>
          <text id="이수_미이수" data-name="이수 / 미이수" transform="translate(-135 102)" fill="#333" font-size="18" font-family="NotoSansCJKkr-Bold, Noto Sans CJK KR" font-weight="700" letter-spacing="-0.025em"><tspan x="0" y="0">이수 / 미이수</tspan></text>
        </g>
      </g>
      <g id="_4-2" data-name="&gt;" transform="translate(202.856 2731) rotate(90)">
        <circle id="타원_402-4" data-name="타원 402" cx="2.1" cy="2.1" r="2.1" transform="translate(3 13.311)" fill="#e5e5e5"/>
        <path id="패스_66492-4" data-name="패스 66492" d="M9.1,17.511H22.974l-2.758,2.758a2.113,2.113,0,0,0,0,2.968,2.087,2.087,0,0,0,2.968,0l5.082-5.068a3.921,3.921,0,0,0,0-5.516L23.184,7.585A2.087,2.087,0,0,0,21.7,6.969a2.136,2.136,0,0,0-1.484.616,2.113,2.113,0,0,0,0,2.968l2.758,2.758H9.1a2.1,2.1,0,1,0,0,4.2Z" transform="translate(1.6 0)" fill="#e5e5e5"/>
      </g>
      <g id="_5-2" data-name="&gt;" transform="translate(202.856 2826) rotate(90)">
        <circle id="타원_402-5" data-name="타원 402" cx="2.1" cy="2.1" r="2.1" transform="translate(3 13.311)" fill="#e5e5e5"/>
        <path id="패스_66492-5" data-name="패스 66492" d="M9.1,17.511H22.974l-2.758,2.758a2.113,2.113,0,0,0,0,2.968,2.087,2.087,0,0,0,2.968,0l5.082-5.068a3.921,3.921,0,0,0,0-5.516L23.184,7.585A2.087,2.087,0,0,0,21.7,6.969a2.136,2.136,0,0,0-1.484.616,2.113,2.113,0,0,0,0,2.968l2.758,2.758H9.1a2.1,2.1,0,1,0,0,4.2Z" transform="translate(1.6 0)" fill="#e5e5e5"/>
      </g>
      <g id="그룹_5821" data-name="그룹 5821" transform="translate(-1059 1400)">
        <g id="_1-6" data-name="1" transform="translate(1167 1400)">
          <g id="사각형_3524-5" data-name="사각형 3524" transform="translate(-88 44)" fill="#f3fafa" stroke="#b0e0e2" stroke-width="1">
            <rect width="150" height="220" rx="70" stroke="none"/>
            <rect x="0.5" y="0.5" width="149" height="219" rx="69.5" fill="none"/>
          </g>
          <text id="이수기준_도달_시_학점_취득" data-name="이수기준 도달 시
학점 취득" transform="translate(-13 200)" fill="#111" font-size="14" font-family="NotoSansCJKkr-Regular, Noto Sans CJK KR" letter-spacing="-0.025em"><tspan x="-46.816" y="0">이수기준 도달 시</tspan><tspan x="-26.628" y="20">학점 취득</tspan></text>
          <text id="학점취득" transform="translate(-13 113)" fill="#16a1a9" font-size="18" font-family="NotoSansCJKkr-Bold, Noto Sans CJK KR" font-weight="700" letter-spacing="-0.025em"><tspan x="-32.445" y="0">학점취득</tspan></text>
          <g id="그룹_5819-5" data-name="그룹 5819" transform="translate(-3 -1)">
            <g id="타원_400-5" data-name="타원 400" transform="translate(-22 64)" fill="#fff" stroke="#b0e0e2" stroke-width="1">
              <circle cx="12.5" cy="12.5" r="12.5" stroke="none"/>
              <circle cx="12.5" cy="12.5" r="12" fill="none"/>
            </g>
            <text id="_5-3" data-name="5" transform="translate(-9 82)" fill="#16a1a9" font-size="12" font-family="NotoSansCJKkr-Bold, Noto Sans CJK KR" font-weight="700" letter-spacing="-0.025em"><tspan x="-3.534" y="0">5</tspan></text>
          </g>
          <g id="그룹_5841" data-name="그룹 5841" transform="translate(-32.001 128.763)">
            <g id="그룹_5798" data-name="그룹 5798" transform="translate(0 0)" clip-path="url(#clip-path-8)">
              <path id="패스_66437" data-name="패스 66437" d="M38.11,44.848V5.707a2.2,2.2,0,0,0-2.2-2.2H3.449a2.2,2.2,0,0,0-2.2,2.2v39.14a2.2,2.2,0,0,0,2.2,2.2H35.91a2.2,2.2,0,0,0,2.2-2.2" transform="translate(-0.589 -1.652)" fill="#fff"/>
              <path id="패스_66438" data-name="패스 66438" d="M35.322,47.12H2.86A2.863,2.863,0,0,1,0,44.26V5.119a2.863,2.863,0,0,1,2.86-2.86H35.322a2.863,2.863,0,0,1,2.86,2.86V44.26a2.863,2.863,0,0,1-2.86,2.86M2.86,3.582A1.539,1.539,0,0,0,1.323,5.119V44.26A1.539,1.539,0,0,0,2.86,45.8H35.322a1.539,1.539,0,0,0,1.537-1.537V5.119a1.539,1.539,0,0,0-1.537-1.537Z" transform="translate(0 -1.064)" fill="#333"/>
              <rect id="사각형_3472" data-name="사각형 3472" width="10.851" height="1.632" transform="translate(5.588 6.92)" fill="#c3eded"/>
              <rect id="사각형_3473" data-name="사각형 3473" width="12.92" height="0.834" transform="translate(5.588 11.763)" fill="#ccc"/>
              <rect id="사각형_3474" data-name="사각형 3474" width="15.935" height="0.834" transform="translate(5.588 14.123)" fill="#ccc"/>
              <rect id="사각형_3475" data-name="사각형 3475" width="27.006" height="0.834" transform="translate(5.588 16.483)" fill="#ccc"/>
              <rect id="사각형_3476" data-name="사각형 3476" width="27.006" height="0.834" transform="translate(5.588 18.842)" fill="#ccc"/>
              <rect id="사각형_3477" data-name="사각형 3477" width="27.006" height="0.834" transform="translate(5.588 21.202)" fill="#ccc"/>
              <rect id="사각형_3478" data-name="사각형 3478" width="27.006" height="0.834" transform="translate(5.588 23.561)" fill="#ccc"/>
              <rect id="사각형_3479" data-name="사각형 3479" width="27.006" height="0.834" transform="translate(5.588 25.921)" fill="#ccc"/>
              <rect id="사각형_3480" data-name="사각형 3480" width="8.879" height="0.834" transform="translate(5.588 28.281)" fill="#ccc"/>
              <rect id="사각형_3481" data-name="사각형 3481" width="8.879" height="0.834" transform="translate(23.714 36.547)" fill="#ccc"/>
              <rect id="사각형_3482" data-name="사각형 3482" width="27.006" height="0.834" transform="translate(5.588 38.779)" fill="#ccc"/>
              <path id="패스_66439" data-name="패스 66439" d="M46.284,12.937a.927.927,0,0,1,.927-.63.959.959,0,0,1,.961.656l1.991,5.182a.836.836,0,0,1,.034.281c0,.417-.485.681-.944.681a.732.732,0,0,1-.766-.52l-.3-.935H46.148l-.289.918a.77.77,0,0,1-.766.544.789.789,0,0,1-.843-.706.838.838,0,0,1,.051-.272Zm.3,3.344h1.166l-.579-1.83Z" transform="translate(-20.839 -5.796)" fill="#ff725d"/>
              <path id="패스_66440" data-name="패스 66440" d="M58.068,16.992H57.021a.606.606,0,0,1-.561-.68c0-.332.179-.681.553-.681h1.055V14.585a.66.66,0,0,1,.74-.622.676.676,0,0,1,.758.622v1.046h1.021a.627.627,0,0,1,.57.689.6.6,0,0,1-.553.672H59.566v1.013a.7.7,0,0,1-.758.664.682.682,0,0,1-.74-.664Z" transform="translate(-26.589 -6.575)" fill="#ff725d"/>
              <path id="패스_66441" data-name="패스 66441" d="M15.964,11.865l-3.2-2.116-3.2,2.116V1.251h6.4Z" transform="translate(-4.503 -0.589)" fill="#16a1a9"/>
              <path id="패스_66442" data-name="패스 66442" d="M15.376,11.938a.661.661,0,0,1-.365-.11L12.175,9.953,9.338,11.828a.662.662,0,0,1-1.026-.552V.662A.661.661,0,0,1,8.973,0h6.4a.661.661,0,0,1,.661.661V11.276a.661.661,0,0,1-.661.661M12.175,8.5a.663.663,0,0,1,.365.11l2.175,1.438V1.323H9.635v8.723L11.81,8.608a.661.661,0,0,1,.365-.11" transform="translate(-3.914 0)" fill="#333"/>
            </g>
          </g>
        </g>
        <g id="_1-7" data-name="1" transform="translate(1352 1400)">
          <g id="사각형_3524-6" data-name="사각형 3524" transform="translate(-88 44)" fill="#f3fafa" stroke="#b0e0e2" stroke-width="1">
            <rect width="150" height="220" rx="70" stroke="none"/>
            <rect x="0.5" y="0.5" width="149" height="219" rx="69.5" fill="none"/>
          </g>
          <text id="학점_기준의_졸업요건_설정" data-name="학점 기준의
졸업요건 설정" transform="translate(-13 200)" fill="#111" font-size="14" font-family="NotoSansCJKkr-Regular, Noto Sans CJK KR" letter-spacing="-0.025em"><tspan x="-32.893" y="0">학점 기준의</tspan><tspan x="-39.158" y="20">졸업요건 설정</tspan></text>
          <text id="졸업" transform="translate(-13 113)" fill="#16a1a9" font-size="18" font-family="NotoSansCJKkr-Bold, Noto Sans CJK KR" font-weight="700" letter-spacing="-0.025em"><tspan x="-16.335" y="0">졸업</tspan></text>
          <g id="그룹_5819-6" data-name="그룹 5819" transform="translate(-3 -1)">
            <g id="타원_400-6" data-name="타원 400" transform="translate(-22 64)" fill="#fff" stroke="#b0e0e2" stroke-width="1">
              <circle cx="12.5" cy="12.5" r="12.5" stroke="none"/>
              <circle cx="12.5" cy="12.5" r="12" fill="none"/>
            </g>
            <text id="_6" data-name="6" transform="translate(-9 82)" fill="#16a1a9" font-size="12" font-family="NotoSansCJKkr-Bold, Noto Sans CJK KR" font-weight="700" letter-spacing="-0.025em"><tspan x="-3.534" y="0">6</tspan></text>
          </g>
          <g id="그룹_5840" data-name="그룹 5840" transform="translate(-41 132.614)">
            <g id="그룹_5802" data-name="그룹 5802" transform="translate(0 0)" clip-path="url(#clip-path-9)">
              <path id="패스_66453" data-name="패스 66453" d="M36.081,46.69,18.8,39.107V50.5h0c0,2.172,7.739,3.933,17.286,3.933S53.367,52.674,53.367,50.5h0V39.107Z" transform="translate(-8.712 -18.127)" fill="#6c6d6d"/>
              <path id="패스_66454" data-name="패스 66454" d="M53.366,33.914V27.9H18.8v6.011L36.081,41.5Z" transform="translate(-8.712 -12.934)" fill="#3a3a3a"/>
              <path id="패스_66455" data-name="패스 66455" d="M35.5,49.333c-7.218,0-17.956-1.226-17.956-4.6V27.324a.671.671,0,0,1,.671-.671H52.787a.67.67,0,0,1,.671.671V44.729c0,3.378-10.738,4.6-17.956,4.6M18.886,27.994V44.729c0,1.138,5.706,3.263,16.615,3.263s16.615-2.124,16.615-3.262V27.994Z" transform="translate(-8.133 -12.354)" fill="#333"/>
              <path id="패스_66456" data-name="패스 66456" d="M54.646,13.675l-26.7,11.712L1.25,13.675,27.948,1.25Z" transform="translate(-0.58 -0.579)" fill="#6c6d6d"/>
              <path id="패스_66457" data-name="패스 66457" d="M27.369,25.478a.672.672,0,0,1-.269-.056L.4,13.71a.67.67,0,0,1-.013-1.222L27.086.063a.669.669,0,0,1,.566,0l26.7,12.425a.671.671,0,0,1-.014,1.222l-26.7,11.712a.676.676,0,0,1-.269.056M2.3,13.078l25.07,11,25.07-11L27.369,1.41Z" transform="translate(0 0)" fill="#333"/>
              <path id="패스_66458" data-name="패스 66458" d="M51.384,21.057c0,.733-1.213,1.328-2.708,1.328s-2.709-.594-2.709-1.328,1.212-1.328,2.709-1.328,2.708.594,2.708,1.328" transform="translate(-21.307 -9.145)" fill="#8edddd"/>
              <path id="패스_66459" data-name="패스 66459" d="M48.1,22.476c-1.926,0-3.379-.859-3.379-2,0-1.158,1.422-2,3.379-2,1.926,0,3.379.859,3.379,2s-1.452,2-3.379,2m0-2.656c-1.342,0-2.018.5-2.038.658.02.152.7.657,2.038.657s2.017-.5,2.038-.658c-.021-.152-.7-.657-2.038-.657" transform="translate(-20.727 -8.565)" fill="#333"/>
              <path id="패스_66460" data-name="패스 66460" d="M77.935,33.816a.671.671,0,0,1-.671-.671V24.221L55.425,22.293a.671.671,0,1,1,.119-1.336l22.45,1.982a.671.671,0,0,1,.612.668v9.538a.671.671,0,0,1-.671.671" transform="translate(-25.407 -9.713)" fill="#333"/>
              <path id="패스_66461" data-name="패스 66461" d="M95.924,43.679a2.3,2.3,0,0,0-2.3,2.3v5.613h4.6V45.979a2.3,2.3,0,0,0-2.3-2.3" transform="translate(-43.397 -20.246)" fill="#8edddd"/>
              <path id="패스_66462" data-name="패스 66462" d="M97.646,51.683h-4.6a.671.671,0,0,1-.671-.671V45.4a2.971,2.971,0,0,1,5.943,0v5.613a.671.671,0,0,1-.671.671m-3.931-1.341h3.26V45.4a1.63,1.63,0,0,0-3.26,0Z" transform="translate(-42.818 -19.667)" fill="#333"/>
            </g>
          </g>
        </g>
      </g>
      <g id="_6-2" data-name="&gt;" transform="translate(171.16 2939.031)">
        <circle id="타원_402-6" data-name="타원 402" cx="2.1" cy="2.1" r="2.1" transform="translate(3 13.311)" fill="#1681a9"/>
        <path id="패스_66492-6" data-name="패스 66492" d="M9.1,17.511H22.974l-2.758,2.758a2.113,2.113,0,0,0,0,2.968,2.087,2.087,0,0,0,2.968,0l5.082-5.068a3.921,3.921,0,0,0,0-5.516L23.184,7.585A2.087,2.087,0,0,0,21.7,6.969a2.136,2.136,0,0,0-1.484.616,2.113,2.113,0,0,0,0,2.968l2.758,2.758H9.1a2.1,2.1,0,1,0,0,4.2Z" transform="translate(1.6 0)" fill="#1681a9"/>
      </g>
    </g>
  </g>
</svg>
