<?xml version="1.0" encoding="UTF-8"?>
<svg xmlns="http://www.w3.org/2000/svg" version="1.1" viewBox="0 0 393 262.1">
  <defs>
    <style>
      .cls-1 {
        fill: #fff;
      }

      .cls-2 {
        fill: #42a2eb;
      }
    </style>
  </defs>
  <!-- Generator: Adobe Illustrator 28.6.0, SVG Export Plug-In . SVG Version: 1.2.0 Build 709)  -->
  <g>
    <g id="_레이어_1">
      <g>
        <rect class="cls-2" x="223.4" y="174.1" width="86.8" height="34.4"/>
        <path class="cls-2" d="M350,0H43C19.3,0,0,19.3,0,43v176c0,23.7,19.3,43,43,43h307c23.7,0,43-19.3,43-43V43c0-23.7-19.3-43-43-43ZM97.4,214.8c-25.3,0-41.6-10-52.3-22h0s0,0,0,0c0,0,0,0,0,0l12.2-16.1c9.4,9.6,21.4,17.7,37.9,17.7s30.5-10,30.5-26.6-11.3-29.4-47.5-29.4v-18.5c31.6,0,42.1-12,42.1-28.1s-9.4-23.1-24.6-23.3c-12.4.2-22.9,6.3-32,15.3l-13.1-15.7c12.6-11.3,27.5-19.4,46-19.4,28.8,0,49,14.8,49,41.4s-10.7,31.4-27.7,37.7v1.1c18.5,4.6,33.1,18.5,33.1,40.1s-24.2,46-53.6,46ZM166.3,136.1c25.3-10,42.3-23.1,52.3-39l-48.6,5.2-3.3-18.3,59.7-3.5c1.7-5.7,3.1-11.3,3.7-17.7h-54.5v-18.1h77.2,0c0,49-21.8,85.5-75.9,107.7l-10.7-16.3ZM332.2,226.4h-131v-70.2h131v70.2ZM332.2,147.5h-21.4v-49.3h-21.8v48h-21.1V35.6h21.1v44.2h21.8V31.7h21.4v115.8Z"/>
        <polygon class="cls-1" points="45.1 192.8 45.1 192.8 45.1 192.8 45.1 192.8"/>
      </g>
    </g>
  </g>
</svg>