<svg width="40" height="24" viewBox="0 0 40 24" fill="none" xmlns="http://www.w3.org/2000/svg">
<path d="M6 23.5L7.5 16L12 18.5L6 23.5Z" fill="#F2674A"/>
<path d="M0 3C0 1.34315 1.34315 0 3 0H37C38.6569 0 40 1.34315 40 3V16C40 17.6569 38.6569 19 37 19H3C1.34315 19 0 17.6569 0 16V3Z" fill="#F2674A"/>
<path d="M29.7676 6.86304C30.6516 6.86304 31.3103 7.05804 31.7436 7.44804C32.177 7.82937 32.3936 8.4317 32.3936 9.25504V14H31.4186L31.1456 13.025H31.0936C30.8943 13.2764 30.6863 13.4844 30.4696 13.649C30.2616 13.8137 30.019 13.935 29.7416 14.013C29.473 14.091 29.1436 14.13 28.7536 14.13C28.3376 14.13 27.9606 14.0564 27.6226 13.909C27.2933 13.753 27.0333 13.519 26.8426 13.207C26.652 12.8864 26.5566 12.4877 26.5566 12.011C26.5566 11.3004 26.8253 10.7587 27.3626 10.386C27.9086 10.0134 28.7363 9.8097 29.8456 9.77504L31.0416 9.73604V9.34604C31.0416 8.82604 30.9246 8.46204 30.6906 8.25404C30.4566 8.04604 30.1273 7.94204 29.7026 7.94204C29.3386 7.94204 28.992 7.99404 28.6626 8.09804C28.3333 8.20204 28.0213 8.3277 27.7266 8.47504L27.2846 7.47404C27.614 7.3007 27.991 7.1577 28.4156 7.04504C28.849 6.9237 29.2996 6.86304 29.7676 6.86304ZM30.0926 10.659C29.2953 10.6937 28.7406 10.828 28.4286 11.062C28.1253 11.2874 27.9736 11.608 27.9736 12.024C27.9736 12.388 28.082 12.6524 28.2986 12.817C28.524 12.9817 28.8056 13.064 29.1436 13.064C29.6896 13.064 30.1403 12.9124 30.4956 12.609C30.851 12.3057 31.0286 11.8507 31.0286 11.244V10.633L30.0926 10.659Z" fill="white"/>
<path d="M24.9217 13.0119C25.1037 13.0119 25.29 12.9946 25.4807 12.9599C25.6714 12.9253 25.836 12.8863 25.9747 12.8429V13.8829C25.8274 13.9523 25.628 14.0086 25.3767 14.0519C25.1254 14.1039 24.874 14.1299 24.6227 14.1299C24.2414 14.1299 23.8904 14.0649 23.5697 13.9349C23.2577 13.8049 23.0064 13.5796 22.8157 13.2589C22.625 12.9383 22.5297 12.4919 22.5297 11.9199V8.04592H21.5547V7.42192L22.5817 6.90192L23.0627 5.41992H23.9077V6.99292H25.9097V8.04592H23.9077V11.8939C23.9077 12.2753 23.9987 12.5569 24.1807 12.7389C24.3714 12.9209 24.6184 13.0119 24.9217 13.0119Z" fill="white"/>
<path d="M18.0418 6.86304C18.6571 6.86304 19.1858 6.99304 19.6278 7.25304C20.0698 7.50437 20.4078 7.86837 20.6418 8.34504C20.8845 8.8217 21.0058 9.38504 21.0058 10.035V10.789H16.2998C16.3171 11.5084 16.5035 12.0587 16.8588 12.44C17.2228 12.8214 17.7298 13.012 18.3798 13.012C18.8305 13.012 19.2291 12.973 19.5758 12.895C19.9311 12.8084 20.2951 12.6827 20.6678 12.518V13.662C20.3211 13.818 19.9658 13.935 19.6018 14.013C19.2465 14.091 18.8218 14.13 18.3278 14.13C17.6518 14.13 17.0538 13.9957 16.5338 13.727C16.0138 13.4584 15.6065 13.0597 15.3118 12.531C15.0258 11.9937 14.8828 11.335 14.8828 10.555C14.8828 9.76637 15.0128 9.09904 15.2728 8.55304C15.5415 8.00704 15.9098 7.59104 16.3778 7.30504C16.8545 7.01037 17.4091 6.86304 18.0418 6.86304ZM18.0418 7.92904C17.5478 7.92904 17.1491 8.08937 16.8458 8.41004C16.5511 8.7307 16.3778 9.1857 16.3258 9.77504H19.6278C19.6278 9.41104 19.5715 9.09037 19.4588 8.81304C19.3461 8.5357 19.1728 8.31904 18.9388 8.16304C18.7048 8.00704 18.4058 7.92904 18.0418 7.92904Z" fill="white"/>
<path d="M9.95138 4.71802C10.74 4.71802 11.3987 4.79168 11.9274 4.93902C12.4647 5.08635 12.8677 5.33335 13.1364 5.68002C13.4137 6.01802 13.5524 6.46868 13.5524 7.03202C13.5524 7.39602 13.4874 7.72102 13.3574 8.00702C13.2274 8.28435 13.0367 8.51835 12.7854 8.70902C12.5427 8.89102 12.2394 9.01235 11.8754 9.07302V9.13802C12.248 9.19868 12.5817 9.31135 12.8764 9.47602C13.171 9.63202 13.405 9.86168 13.5784 10.165C13.7517 10.4684 13.8384 10.8627 13.8384 11.348C13.8384 11.9114 13.704 12.3924 13.4354 12.791C13.1754 13.181 12.7984 13.48 12.3044 13.688C11.819 13.896 11.2384 14 10.5624 14H7.23438V4.71802H9.95138ZM10.1854 8.59202C10.9134 8.59202 11.4117 8.47502 11.6804 8.24102C11.9577 8.00702 12.0964 7.66035 12.0964 7.20102C12.0964 6.73302 11.9317 6.39935 11.6024 6.20002C11.273 6.00068 10.7487 5.90102 10.0294 5.90102H8.63838V8.59202H10.1854ZM8.63838 9.73602V12.83H10.3414C11.0954 12.83 11.6197 12.6827 11.9144 12.388C12.209 12.0934 12.3564 11.7034 12.3564 11.218C12.3564 10.9234 12.2914 10.6634 12.1614 10.438C12.0314 10.2127 11.8104 10.0394 11.4984 9.91802C11.195 9.79669 10.779 9.73602 10.2504 9.73602H8.63838Z" fill="white"/>
</svg>
