<?xml version="1.0" encoding="UTF-8"?>
<svg xmlns="http://www.w3.org/2000/svg" version="1.1" viewBox="0 0 393 262.1">
  <defs>
    <style>
      .cls-1 {
        fill: #f55893;
      }
    </style>
  </defs>
  <!-- Generator: Adobe Illustrator 28.6.0, SVG Export Plug-In . SVG Version: 1.2.0 Build 709)  -->
  <g>
    <g id="_레이어_1">
      <g>
        <rect class="cls-1" x="82.3" y="84.2" width="76.8" height="19.3"/>
        <path class="cls-1" d="M350,0H43C19.3,0,0,19.3,0,43v176c0,23.7,19.3,43,43,43h307c23.7,0,43-19.3,43-43V43C393,19.3,373.7,0,350,0ZM217.1,59.7h124.2v18.2c0,21.6,0,44.7-6.1,78.2l-19.7-2.3c6.1-31.5,6.1-54.9,6.1-75.9v-2.1h-104.6v-16.1ZM62.8,49h19.5v20.1h76.8v-20.1h19.5v70h0H62.8V49ZM181.7,213H61.7v-47.2h19.7v31.2h100.3v16.1ZM199.1,149.4h-66.9v30.8h-19.7v-30.8H42.5v-15.9h156.5v15.9ZM357.6,193.7h-156v-16.2h35.9v-55.8h19.5v55.8h23.1v-55.8h19.5v55.8h57.9v16.2Z"/>
      </g>
    </g>
  </g>
</svg>