<?xml version="1.0" encoding="UTF-8"?>
<svg xmlns="http://www.w3.org/2000/svg" version="1.1" viewBox="0 0 393 262.1">
  <defs>
    <style>
      .cls-1 {
        fill: #f06e1e;
      }
    </style>
  </defs>
  <!-- Generator: Adobe Illustrator 28.6.0, SVG Export Plug-In . SVG Version: 1.2.0 Build 709)  -->
  <g>
    <g id="_레이어_1" data-name="레이어_1">
      <g id="_레이어_1-2" data-name="_레이어_1">
        <g>
          <rect class="cls-1" x="223.4" y="174.1" width="86.8" height="34.4"/>
          <path class="cls-1" d="M350,0H43C19.3,0,0,19.3,0,43v176c0,23.7,19.3,43,43,43h307c23.7,0,43-19.3,43-43V43c0-23.7-19.3-43-43-43ZM152.1,212H48.6v-14.6h0c47.3-41.9,71.7-73,71.7-99.4s-9.4-29.4-27.2-29.4-23.1,8.1-31.6,17.9l-14.2-14c13.7-14.8,27.9-24,48.8-24s48.4,19.2,48.4,48.2-24.6,63-58.6,95.5c8.3-.9,18.3-1.5,26.2-1.5h40.1v21.4h-.1ZM166.3,136.1c25.3-10,42.3-23.1,52.3-39l-48.6,5.2-3.3-18.3,59.7-3.5c1.7-5.7,3.1-11.3,3.7-17.7h-54.5v-18.1h77.2c0,49-21.8,85.5-75.9,107.7l-10.7-16.3h.1ZM332.2,226.4h-131v-70.2h131v70.2ZM332.2,147.5h-21.4v-49.3h-21.8v48h-21.1V35.6h21.1v44.2h21.8V31.7h21.4v115.8Z"/>
        </g>
      </g>
    </g>
  </g>
</svg>