<?xml version="1.0" encoding="UTF-8"?>
<svg xmlns="http://www.w3.org/2000/svg" version="1.1" viewBox="0 0 393 262.1">
  <defs>
    <style>
      .cls-1 {
        fill: #7875e1;
      }
    </style>
  </defs>
  <!-- Generator: Adobe Illustrator 28.6.0, SVG Export Plug-In . SVG Version: 1.2.0 Build 709)  -->
  <g>
    <g id="_레이어_1">
      <g>
        <path class="cls-1" d="M100.3,101l-31.6,48.4h44v-42.1c0-8.7.9-22.2,1.3-31h-.9c-3.9,8.1-8.3,16.4-12.9,24.6Z"/>
        <rect class="cls-1" x="223.4" y="174.1" width="86.8" height="34.4"/>
        <path class="cls-1" d="M350,0H43C19.3,0,0,19.3,0,43v176c0,23.7,19.3,43,43,43h307c23.7,0,43-19.3,43-43V43c0-23.7-19.3-43-43-43ZM156.7,168.8h0s-20.5,0-20.5,0v43.2h-23.5v-43.2H43.4v-16.8l63.9-100.5h29v97.9h20.5v19.4ZM166.3,136.1c25.3-10,42.3-23.1,52.3-39l-48.6,5.2-3.3-18.3,59.7-3.5c1.7-5.7,3.1-11.3,3.7-17.7h-54.5v-18.1h77.2c0,49-21.8,85.5-75.9,107.7l-10.7-16.3ZM332.2,226.4h-131v-70.2h131v70.2ZM332.2,147.5h-21.4v-49.3h-21.8v48h-21.1V35.6h21.1v44.2h21.8V31.7h21.4v115.8Z"/>
      </g>
    </g>
  </g>
</svg>