<svg xmlns="http://www.w3.org/2000/svg" width="74" height="29" viewBox="0 0 74 29"><path d="M74,12.5A12.5,12.5,0,0,0,61.5,0h-49A12.5,12.5,0,0,0,0,12.5H0A12.5,12.5,0,0,0,12.5,25h49A12.5,12.5,0,0,0,74,12.5Z" fill="#f2674a"/><path d="M51,31l3.25-11L61,23.826Z" transform="translate(-45 -2)" fill="#f2674a"/><path d="M55.471,11.578h8.463v1.365H55.471ZM54.2,15.2H65.1v1.4H54.2ZM55.471,7h8.372v1.4H57.187v3.744H55.471Z" fill="#fff"/><path d="M50.819,6h1.729V18.077H50.819Zm-4.758.845a2.668,2.668,0,0,1,1.638.533,3.393,3.393,0,0,1,1.118,1.5,5.7,5.7,0,0,1,.416,2.275,5.833,5.833,0,0,1-.416,2.3A3.5,3.5,0,0,1,47.7,14.944a2.819,2.819,0,0,1-3.263,0,3.59,3.59,0,0,1-1.131-1.495,6,6,0,0,1-.4-2.3,5.865,5.865,0,0,1,.4-2.275,3.483,3.483,0,0,1,1.131-1.5A2.649,2.649,0,0,1,46.061,6.845Zm0,1.573a1.116,1.116,0,0,0-.78.312,2.1,2.1,0,0,0-.533.923,5.216,5.216,0,0,0-.182,1.495,5.441,5.441,0,0,0,.182,1.508,2.1,2.1,0,0,0,.533.923,1.116,1.116,0,0,0,.78.312,1.131,1.131,0,0,0,.793-.312,2.005,2.005,0,0,0,.52-.923,5.1,5.1,0,0,0,.2-1.508,4.888,4.888,0,0,0-.2-1.495,2.005,2.005,0,0,0-.52-.923A1.131,1.131,0,0,0,46.061,8.418Z" fill="#fff"/><path d="M38.614,6h1.742V18.038H38.614Zm1.3,4.615h2.119v1.417H39.914ZM35.455,7.248h1.7a11.071,11.071,0,0,1-.52,3.419,8.217,8.217,0,0,1-1.69,2.964,10.2,10.2,0,0,1-3.172,2.34L30.8,14.658a10.426,10.426,0,0,0,2.613-1.846,6.484,6.484,0,0,0,1.534-2.327,8.062,8.062,0,0,0,.507-2.925Zm-3.991,0h4.888V8.639H31.464Z" fill="#fff"/><path d="M21.74,10.043h1.716v2.21H21.74Zm4.225,0h1.729v2.21H25.965Zm-6.682,1.69H30.177v1.352H19.283ZM24.7,13.7a6.816,6.816,0,0,1,3.068.572,1.721,1.721,0,0,1,0,3.224,6.816,6.816,0,0,1-3.068.572,6.816,6.816,0,0,1-3.068-.572,1.728,1.728,0,0,1,0-3.224A6.816,6.816,0,0,1,24.7,13.7Zm0,1.3a7.391,7.391,0,0,0-1.352.1,1.972,1.972,0,0,0-.806.286.586.586,0,0,0-.273.494.619.619,0,0,0,.273.507,1.972,1.972,0,0,0,.806.286,8.417,8.417,0,0,0,1.352.091,8.169,8.169,0,0,0,1.339-.091,1.991,1.991,0,0,0,.819-.286.619.619,0,0,0,.273-.507.586.586,0,0,0-.273-.494,1.991,1.991,0,0,0-.819-.286A7.174,7.174,0,0,0,24.7,15Zm.026-8.8a8.276,8.276,0,0,1,2.314.286,3.456,3.456,0,0,1,1.521.793,1.7,1.7,0,0,1,0,2.47,3.644,3.644,0,0,1-1.521.793,8.648,8.648,0,0,1-2.314.273,8.682,8.682,0,0,1-2.3-.273,3.644,3.644,0,0,1-1.521-.793,1.7,1.7,0,0,1,0-2.47,3.456,3.456,0,0,1,1.521-.793A8.309,8.309,0,0,1,24.73,6.2Zm0,1.313a7.187,7.187,0,0,0-1.391.117,2.123,2.123,0,0,0-.884.325.678.678,0,0,0-.286.559.667.667,0,0,0,.286.546,2.239,2.239,0,0,0,.884.338,8.062,8.062,0,0,0,1.391.1,8.012,8.012,0,0,0,1.4-.1,2.225,2.225,0,0,0,.871-.338.659.659,0,0,0,.3-.546.67.67,0,0,0-.3-.559,2.106,2.106,0,0,0-.871-.325A7.143,7.143,0,0,0,24.73,7.508Z" fill="#fff"/><path d="M15.917,6h1.729V18.077H15.917Zm-4.758.845a2.669,2.669,0,0,1,1.638.533,3.394,3.394,0,0,1,1.118,1.5,5.7,5.7,0,0,1,.416,2.275,5.835,5.835,0,0,1-.416,2.3A3.5,3.5,0,0,1,12.8,14.944a2.819,2.819,0,0,1-3.263,0A3.589,3.589,0,0,1,8.4,13.449a6,6,0,0,1-.4-2.3,5.864,5.864,0,0,1,.4-2.275,3.482,3.482,0,0,1,1.131-1.5A2.649,2.649,0,0,1,11.159,6.845Zm0,1.573a1.116,1.116,0,0,0-.78.312,2.1,2.1,0,0,0-.533.923,5.215,5.215,0,0,0-.182,1.495,5.44,5.44,0,0,0,.182,1.508,2.1,2.1,0,0,0,.533.923,1.116,1.116,0,0,0,.78.312,1.131,1.131,0,0,0,.793-.312,2.006,2.006,0,0,0,.52-.923,5.1,5.1,0,0,0,.195-1.508,4.888,4.888,0,0,0-.195-1.495,2.006,2.006,0,0,0-.52-.923A1.131,1.131,0,0,0,11.159,8.418Z" fill="#fff"/></svg>