<?xml version="1.0" encoding="UTF-8"?>
<svg xmlns="http://www.w3.org/2000/svg" version="1.1" viewBox="0 0 393 262.1">
  <defs>
    <style>
      .cls-1 {
        fill: #08a87c;
      }
    </style>
  </defs>
  <!-- Generator: Adobe Illustrator 28.6.0, SVG Export Plug-In . SVG Version: 1.2.0 Build 709)  -->
  <g>
    <g id="_레이어_1" data-name="레이어_1">
      <g id="_레이어_1-2" data-name="_레이어_1">
        <g>
          <path class="cls-1" d="M350,0H43C19.3,0,0,19.3,0,43v176c0,23.7,19.3,43,43,43h307c23.7,0,43-19.3,43-43V43c0-23.7-19.3-43-43-43ZM216,58.6h125.1v18.3c0,21.7,0,45-6.2,78.7l-19.8-2.3c6.2-31.8,6.2-55.2,6.2-76.4v-2.1h-105.3v-16.2h0ZM176.4,213H56.4v-48.7h20v32.5h99.9v16.2h0ZM194.1,152H36.4v-16h68.7v-16.7h-48.1V49h19.6v19.8h77.4v-19.8h19.6v70.3h-48.5v16.7h68.9v16h.1ZM357.5,193.6h-157.1v-16.4h36.2v-56.2h19.6v56.2h23.3v-56.2h19.6v56.2h58.3v16.4h.1Z"/>
          <rect class="cls-1" x="76.7" y="84.3" width="77.4" height="19.2"/>
        </g>
      </g>
    </g>
  </g>
</svg>