<svg width="162" height="16" viewBox="0 0 162 16" fill="none" xmlns="http://www.w3.org/2000/svg">
<path d="M14.778 15.894H12.384V12.582H1.404V10.512H6.786V8.64H0.648V6.552H15.534V8.64H9.18V10.512H14.778V15.894ZM14.778 5.85H12.384V2.592H1.404V0.432H14.778V5.85ZM17.539 0.432H25.063V4.194C25.063 5.358 24.913 6.474 24.613 7.542C24.325 8.61 23.893 9.606 23.317 10.53C22.753 11.466 22.057 12.318 21.229 13.086C20.401 13.854 19.459 14.514 18.403 15.066L16.765 13.338C18.661 12.414 20.119 11.178 21.139 9.63C22.159 8.082 22.669 6.378 22.669 4.518V2.61H17.539V0.432ZM30.571 8.316V15.732H28.177V0.18H30.571V6.03H32.587V8.316H30.571ZM43.3941 15.894H38.3901C36.9501 15.894 35.7981 15.66 34.9341 15.192C34.0821 14.736 33.6561 13.932 33.6561 12.78C33.6561 11.844 34.0101 11.088 34.7181 10.512C35.4381 9.936 36.4101 9.648 37.6341 9.648H42.6201C44.0601 9.648 45.2061 9.9 46.0581 10.404C46.9221 10.896 47.3541 11.688 47.3541 12.78C47.3541 13.764 47.0001 14.526 46.2921 15.066C45.5841 15.618 44.6181 15.894 43.3941 15.894ZM37.6521 13.878H42.9261C43.5021 13.878 43.9761 13.8 44.3481 13.644C44.7321 13.5 44.9241 13.212 44.9241 12.78C44.9241 12.348 44.7321 12.054 44.3481 11.898C43.9761 11.742 43.5021 11.664 42.9261 11.664H38.0841C37.5321 11.664 37.0581 11.742 36.6621 11.898C36.2661 12.054 36.0681 12.348 36.0681 12.78C36.0681 13.128 36.2001 13.398 36.4641 13.59C36.7401 13.782 37.1361 13.878 37.6521 13.878ZM40.2801 6.426H47.9481V8.478H33.0621V6.426H37.8861V3.942H40.2801V6.426ZM47.1921 5.58H44.7981V2.574H33.8181V0.432H47.1921V5.58ZM59.0071 8.082H54.4351C53.7151 8.082 53.0611 7.992 52.4731 7.812C51.8851 7.62 51.3871 7.35 50.9791 7.002C50.5711 6.654 50.2531 6.24 50.0251 5.76C49.8091 5.28 49.7011 4.74 49.7011 4.14C49.7011 2.952 50.1271 1.998 50.9791 1.278C51.8431 0.546 52.9951 0.18 54.4351 0.18H59.0071C59.7151 0.18 60.3571 0.276 60.9331 0.467999C61.5211 0.66 62.0251 0.93 62.4451 1.278C62.8531 1.626 63.1711 2.046 63.3991 2.538C63.6271 3.018 63.7411 3.552 63.7411 4.14C63.7411 4.74 63.6271 5.28 63.3991 5.76C63.1711 6.24 62.8531 6.654 62.4451 7.002C62.0251 7.35 61.5211 7.62 60.9331 7.812C60.3571 7.992 59.7151 8.082 59.0071 8.082ZM54.4711 5.904H58.9531C59.6731 5.904 60.2371 5.748 60.6451 5.436C61.0651 5.124 61.2751 4.692 61.2751 4.14C61.2751 3.6 61.0651 3.168 60.6451 2.844C60.2371 2.508 59.6731 2.34 58.9531 2.34H54.4711C53.7511 2.34 53.1871 2.508 52.7791 2.844C52.3711 3.168 52.1671 3.6 52.1671 4.14C52.1671 4.692 52.3711 5.124 52.7791 5.436C53.1871 5.748 53.7511 5.904 54.4711 5.904ZM64.1551 9.738V11.934H60.9691V15.894H58.5751V11.934H54.8491V15.894H52.4731V11.934H49.2691V9.738H64.1551ZM72.2261 12.888V15.048H66.0701V0.432H71.8841V2.61H68.4641V12.888H72.2261ZM75.7541 0.251999V15.552H73.3961V8.514H70.3901V6.228H73.3961V0.251999H75.7541ZM79.5161 15.732H77.1401V0.18H79.5161V15.732ZM95.7232 0.18V15.732H93.3472V0.18H95.7232ZM84.4012 5.004V10.494C84.4012 11.37 84.5692 12.018 84.9052 12.438C85.2412 12.846 85.7272 13.05 86.3632 13.05C86.9992 13.05 87.4852 12.846 87.8212 12.438C88.1692 12.018 88.3432 11.37 88.3432 10.494V5.004C88.3432 4.14 88.1692 3.498 87.8212 3.078C87.4852 2.658 86.9992 2.448 86.3632 2.448C85.7272 2.448 85.2412 2.658 84.9052 3.078C84.5692 3.498 84.4012 4.14 84.4012 5.004ZM82.1152 10.494V5.004C82.1152 3.468 82.4992 2.292 83.2672 1.476C84.0472 0.659999 85.0792 0.251999 86.3632 0.251999C87.6592 0.251999 88.6972 0.659999 89.4772 1.476C90.2572 2.292 90.6472 3.468 90.6472 5.004V10.494C90.6472 12.03 90.2572 13.2 89.4772 14.004C88.6972 14.808 87.6592 15.21 86.3632 15.21C85.0792 15.21 84.0472 14.808 83.2672 14.004C82.4992 13.2 82.1152 12.03 82.1152 10.494ZM106.782 15.048H98.4842V0.432H106.062V2.61H100.878V6.336H105.9V8.514H100.878V12.888H106.782V15.048ZM109.554 8.496H106.602V6.21H109.554V0.18H111.93V15.732H109.554V8.496ZM128.263 14.4V15.552H114.979V11.844H126.787V10.476H114.979V9.306H128.083V13.014H116.293V14.4H128.263ZM114.097 6.822H128.983V7.992H114.097V6.822ZM128.083 0.503999V1.692H114.979V0.503999H128.083ZM118.957 4.32H123.853L124.321 2.34H125.671L125.185 4.32H128.263V5.472H114.817V4.32H117.661V2.34H118.957V4.32ZM144.092 0.18V10.494H142.778V5.562H140.312V9.738H139.016V0.251999H140.312V4.374H142.778V0.18H144.092ZM137.756 7.956V9.144H131.024V4.194H135.668V1.692H131.024V0.503999H136.982V5.364H132.338V7.956H137.756ZM138.152 11.322C138.944 12.114 139.916 12.786 141.068 13.338C142.22 13.89 143.39 14.28 144.578 14.508L144.002 15.552C142.814 15.288 141.632 14.868 140.456 14.292C139.28 13.716 138.29 13.032 137.486 12.24C136.766 13.116 135.872 13.842 134.804 14.418C133.748 14.994 132.662 15.372 131.546 15.552L130.844 14.472C131.6 14.364 132.326 14.178 133.022 13.914C133.718 13.65 134.354 13.32 134.93 12.924C135.506 12.528 136.01 12.072 136.442 11.556C136.886 11.04 137.234 10.476 137.486 9.864L138.674 10.278C138.602 10.458 138.524 10.638 138.44 10.818C138.356 10.986 138.26 11.154 138.152 11.322ZM160.497 10.836V15.552H147.393V10.836H160.497ZM148.707 14.382H159.201V12.006H148.707V14.382ZM154.521 6.228V8.136H161.397V9.306H146.511V8.136H153.207V6.228H147.231V5.058H150.075V2.502H151.371V5.058H156.195C156.291 4.626 156.387 4.2 156.483 3.78C156.591 3.36 156.699 2.934 156.807 2.502H158.157C158.097 2.718 158.037 2.934 157.977 3.15C157.929 3.354 157.881 3.564 157.833 3.78C157.785 3.996 157.731 4.212 157.671 4.428C157.623 4.632 157.575 4.842 157.527 5.058H160.677V6.228H154.521ZM160.497 0.503999V1.692H147.393V0.503999H160.497Z" fill="#B1B8BE"/>
</svg>
