<svg width="16" height="16" viewBox="0 0 16 16" fill="none" xmlns="http://www.w3.org/2000/svg">
<path fill-rule="evenodd" clip-rule="evenodd" d="M3.19974 2.13307C2.61064 2.13307 2.13307 2.61064 2.13307 3.19974V9.46061C2.13307 10.0497 2.61064 10.5273 3.19974 10.5273H4.45191C4.74647 10.5273 4.98525 10.7661 4.98525 11.0606V13.1122L7.41392 10.6835C7.51394 10.5835 7.64959 10.5273 7.79104 10.5273H12.7997C13.3888 10.5273 13.8664 10.0497 13.8664 9.46061V3.19974C13.8664 2.61064 13.3888 2.13307 12.7997 2.13307H3.19974ZM1.06641 3.19974C1.06641 2.02153 2.02153 1.06641 3.19974 1.06641H12.7997C13.9779 1.06641 14.9331 2.02153 14.9331 3.19974V9.46061C14.9331 10.6388 13.9779 11.5939 12.7997 11.5939H8.01196L4.82904 14.7769C4.6765 14.9294 4.44711 14.975 4.24782 14.8925C4.04852 14.8099 3.91858 14.6155 3.91858 14.3997V11.5939H3.19974C2.02153 11.5939 1.06641 10.6388 1.06641 9.46061V3.19974ZM4.26641 4.79974C4.26641 4.50519 4.50519 4.26641 4.79974 4.26641H10.3997C10.6943 4.26641 10.9331 4.50519 10.9331 4.79974C10.9331 5.09429 10.6943 5.33307 10.3997 5.33307H4.79974C4.50519 5.33307 4.26641 5.09429 4.26641 4.79974ZM4.26641 7.99974C4.26641 7.70519 4.50519 7.46641 4.79974 7.46641H7.99974C8.29429 7.46641 8.53307 7.70519 8.53307 7.99974C8.53307 8.29429 8.29429 8.53307 7.99974 8.53307H4.79974C4.50519 8.53307 4.26641 8.29429 4.26641 7.99974Z" fill="black"/>
</svg>
