<svg width="27" height="28" viewBox="0 0 27 28" fill="none" xmlns="http://www.w3.org/2000/svg">
<path fill-rule="evenodd" clip-rule="evenodd" d="M2.22266 13.9999C2.22266 13.7581 2.32116 13.5267 2.49545 13.3591L8.27323 7.80359C8.6271 7.46333 9.1898 7.47437 9.53007 7.82824C9.87033 8.18211 9.85929 8.74481 9.50542 9.08508L5.31846 13.111L23.5551 13.111C24.046 13.111 24.444 13.509 24.444 13.9999C24.444 14.4908 24.046 14.8888 23.5551 14.8888L5.31846 14.8888L9.50542 18.9147C9.85929 19.255 9.87032 19.8177 9.53006 20.1715C9.1898 20.5254 8.6271 20.5364 8.27323 20.1962L2.49545 14.6406C2.32116 14.473 2.22266 14.2417 2.22266 13.9999Z" fill="#33363D"/>
</svg>
