<svg width="16" height="16" viewBox="0 0 16 16" fill="none" xmlns="http://www.w3.org/2000/svg">
<g id="home icon">
<path id="Icon" d="M9.96235 14.0579V2.60728C9.96235 2.23909 9.66388 1.94061 9.29569 1.94061H6.59019C6.222 1.94061 5.92352 2.23909 5.92352 2.60728V14.0579M9.96235 14.0579L9.96127 7.17805C9.96121 6.80982 10.2597 6.51128 10.6279 6.51128H13.3333C13.7015 6.51128 14 6.80976 14 7.17795V13.3913C14 13.7595 13.7015 14.0579 13.3333 14.0579H9.96235ZM9.96235 14.0579H5.92352M5.92352 14.0579V10.7246C5.92352 10.3564 5.62504 10.0579 5.25685 10.0579H2.66667C2.29848 10.0579 2 10.3564 2 10.7246V13.3913C2 13.7595 2.29848 14.0579 2.66667 14.0579H5.92352Z" stroke="#41DBE7" stroke-width="1.2" stroke-linecap="round" stroke-linejoin="round"/>
</g>
</svg>
