<svg width="16" height="16" viewBox="0 0 16 16" fill="none" xmlns="http://www.w3.org/2000/svg">
<path fill-rule="evenodd" clip-rule="evenodd" d="M3.06667 3.20001C3.06666 3.12637 3.12636 3.06667 3.2 3.06667H7.73275C8.0273 3.06667 8.26608 2.82789 8.26608 2.53333C8.26608 2.23878 8.0273 2 7.73275 2H3.2C2.53721 2 1.99994 2.53733 2 3.20011L2.00091 12.8002C2.00098 13.4629 2.53822 14.0001 3.20091 14.0001H12.7994C13.4622 14.0001 13.9994 13.4629 13.9994 12.8001V8.2668C13.9994 7.97225 13.7606 7.73346 13.4661 7.73346C13.1715 7.73346 12.9327 7.97225 12.9327 8.2668V12.8001C12.9327 12.8738 12.8731 12.9335 12.7994 12.9335H3.20091C3.12728 12.9335 3.06759 12.8738 3.06758 12.8001L3.06667 3.20001ZM9.33281 2.53333C9.33281 2.82789 9.57159 3.06667 9.86615 3.06667H12.1786L6.95569 8.28954C6.74741 8.49782 6.74741 8.83551 6.95569 9.04379C7.16397 9.25207 7.50166 9.25207 7.70994 9.04379L12.9328 3.82091V6.13346C12.9328 6.42802 13.1716 6.6668 13.4661 6.6668C13.7607 6.6668 13.9995 6.42802 13.9995 6.13346V2.53333C13.9995 2.23878 13.7607 2 13.4661 2H9.86615C9.57159 2 9.33281 2.23878 9.33281 2.53333Z" fill="#02838C"/>
</svg>
