<svg width="14" height="14" viewBox="0 0 14 14" fill="none" xmlns="http://www.w3.org/2000/svg">
<path fill-rule="evenodd" clip-rule="evenodd" d="M9.50759 1.99161C8.75312 1.61308 7.90128 1.40001 6.99967 1.40001C3.90688 1.40001 1.39967 3.90722 1.39967 7.00001C1.39967 10.0928 3.90688 12.6 6.99967 12.6C10.0925 12.6 12.5997 10.0928 12.5997 7.00001C12.5997 5.98782 12.3311 5.03834 11.8614 4.21895L12.5179 3.25801C13.2428 4.32488 13.6663 5.61298 13.6663 7.00001C13.6663 10.6819 10.6816 13.6667 6.99967 13.6667C3.31778 13.6667 0.333008 10.6819 0.333008 7.00001C0.333008 3.31811 3.31778 0.333344 6.99967 0.333344C8.12461 0.333344 9.18447 0.611969 10.114 1.10397L9.50759 1.99161ZM10.4117 2.55915C10.6976 2.77912 10.9616 3.02607 11.2 3.2962L11.8176 2.39216C11.5696 2.13297 11.301 1.89375 11.0142 1.67716L10.4117 2.55915Z" fill="#33363D"/>
<path fill-rule="evenodd" clip-rule="evenodd" d="M11.9663 1.22616C12.2096 1.39231 12.272 1.72417 12.1059 1.96739L7.55139 8.63405C7.46187 8.7651 7.31863 8.84946 7.16061 8.86422C7.00259 8.87898 6.84621 8.8226 6.73397 8.7104L3.95511 5.93262C3.74679 5.72438 3.74673 5.38669 3.95496 5.17837C4.1632 4.97005 4.50089 4.96999 4.70921 5.17823L7.03334 7.50145L11.2251 1.36568C11.3913 1.12247 11.7231 1.06 11.9663 1.22616Z" fill="#256EF4"/>
</svg>
