<svg width="14" height="14" viewBox="0 0 14 14" fill="none" xmlns="http://www.w3.org/2000/svg">
<path d="M6.20593 1.66333C6.41077 1.29777 6.92288 1.29777 7.12773 1.66333L12.4281 11.1222C12.6329 11.4878 12.3769 11.9447 11.9672 11.9447H1.36649C0.956802 11.9447 0.700747 11.4878 0.905591 11.1222L6.20593 1.66333Z" fill="#DE3412"/>
<path fill-rule="evenodd" clip-rule="evenodd" d="M6.52799 4.72266C6.29788 4.72266 6.11133 4.9092 6.11133 5.13932V8.19488C6.11133 8.425 6.29788 8.61154 6.52799 8.61154H6.80577C7.03589 8.61154 7.22244 8.425 7.22244 8.19488V5.13932C7.22244 4.9092 7.03589 4.72266 6.80577 4.72266H6.52799ZM6.52799 9.16683C6.29788 9.16683 6.11133 9.35338 6.11133 9.5835V9.86127C6.11133 10.0914 6.29788 10.2779 6.52799 10.2779H6.80577C7.03589 10.2779 7.22244 10.0914 7.22244 9.86127V9.5835C7.22244 9.35338 7.03589 9.16683 6.80577 9.16683H6.52799Z" fill="white"/>
</svg>
