<svg width="16" height="16" viewBox="0 0 16 16" fill="none" xmlns="http://www.w3.org/2000/svg">
<g id="icon/logout">
<path id="Vector" fill-rule="evenodd" clip-rule="evenodd" d="M2.53335 2C2.3919 2 2.25624 2.05618 2.15621 2.1562C2.05619 2.25622 2 2.39188 2 2.53333V13.4685C2 13.7631 2.23878 14.0019 2.53333 14.0019H7.46615C7.7607 14.0019 7.99948 13.7631 7.99948 13.4685C7.99948 13.174 7.7607 12.9352 7.46615 12.9352H3.06667V3.06668L7.46613 3.0668C7.76068 3.0668 7.99947 2.82803 7.99948 2.53348C7.99949 2.23893 7.76071 2.00014 7.46616 2.00013L2.53335 2ZM14.1019 8.38458C14.2065 8.28402 14.2656 8.14521 14.2656 8.00013C14.2656 7.85506 14.2065 7.71624 14.1019 7.61569L10.6353 4.28235C10.423 4.0782 10.0853 4.08482 9.88118 4.29714C9.67702 4.50946 9.68364 4.84709 9.89597 5.05124L12.4081 7.4668H6C5.70545 7.4668 5.46667 7.70558 5.46667 8.00013C5.46667 8.29468 5.70545 8.53346 6 8.53346H12.4081L9.89597 10.949C9.68364 11.1532 9.67702 11.4908 9.88118 11.7031C10.0853 11.9154 10.423 11.9221 10.6353 11.7179L14.1019 8.38458Z" fill="#33363D"/>
</g>
</svg>
