<svg width="16" height="16" viewBox="0 0 16 16" fill="none" xmlns="http://www.w3.org/2000/svg">
<g id="home icon">
<path id="Icon" d="M13.625 8.6C13.9564 8.6 14.225 8.33137 14.225 8C14.225 7.66863 13.9564 7.4 13.625 7.4V8.6ZM13.4 8C13.4 10.9823 10.9823 13.4 8 13.4V14.6C11.6451 14.6 14.6 11.6451 14.6 8H13.4ZM8 13.4C5.01766 13.4 2.6 10.9823 2.6 8H1.4C1.4 11.6451 4.35492 14.6 8 14.6V13.4ZM2.6 8C2.6 5.01766 5.01766 2.6 8 2.6V1.4C4.35492 1.4 1.4 4.35492 1.4 8H2.6ZM8 2.6C10.9823 2.6 13.4 5.01766 13.4 8H14.6C14.6 4.35492 11.6451 1.4 8 1.4V2.6ZM8 13.4C7.83608 13.4 7.63263 13.3266 7.39527 13.0971C7.15503 12.8649 6.91126 12.4998 6.69354 12.0021C6.25887 11.0086 5.975 9.59412 5.975 8H4.775C4.775 9.71959 5.07875 11.3051 5.59415 12.4831C5.85146 13.0713 6.17334 13.5849 6.56119 13.9599C6.95194 14.3376 7.43904 14.6 8 14.6V13.4ZM5.975 8C5.975 6.40588 6.25887 4.99138 6.69354 3.99785C6.91126 3.5002 7.15502 3.13514 7.39527 2.90288C7.63263 2.67341 7.83608 2.6 8 2.6V1.4C7.43904 1.4 6.95194 1.66238 6.56119 2.04014C6.17334 2.41511 5.85146 2.92873 5.59415 3.51687C5.07875 4.69492 4.775 6.28041 4.775 8H5.975ZM8 14.6C8.56096 14.6 9.04806 14.3376 9.43881 13.9599C9.82666 13.5849 10.1485 13.0713 10.4058 12.4831C10.9212 11.3051 11.225 9.71959 11.225 8H10.025C10.025 9.59412 9.74113 11.0086 9.30646 12.0021C9.08874 12.4998 8.84498 12.8649 8.60473 13.0971C8.36737 13.3266 8.16392 13.4 8 13.4V14.6ZM11.225 8C11.225 6.28041 10.9212 4.69492 10.4058 3.51687C10.1485 2.92873 9.82666 2.41511 9.43881 2.04014C9.04806 1.66238 8.56096 1.4 8 1.4V2.6C8.16392 2.6 8.36737 2.67341 8.60473 2.90288C8.84498 3.13514 9.08874 3.5002 9.30646 3.99785C9.74113 4.99138 10.025 6.40588 10.025 8H11.225ZM2 8.6L13.625 8.6V7.4L2 7.4L2 8.6Z" fill="#CDD1D5"/>
</g>
</svg>
