<svg width="222" height="36" viewBox="0 0 222 36" fill="none" xmlns="http://www.w3.org/2000/svg">
<path d="M19.704 28.192H16.512V23.776H1.872V21.016H9.048V18.52H0.864V15.736H20.712V18.52H12.24V21.016H19.704V28.192ZM19.704 14.8H16.512V10.456H1.872V7.576H19.704V14.8ZM23.3854 7.576H33.4174V12.592C33.4174 14.144 33.2174 15.632 32.8174 17.056C32.4334 18.48 31.8574 19.808 31.0894 21.04C30.3374 22.288 29.4094 23.424 28.3054 24.448C27.2014 25.472 25.9454 26.352 24.5374 27.088L22.3534 24.784C24.8814 23.552 26.8254 21.904 28.1854 19.84C29.5454 17.776 30.2254 15.504 30.2254 13.024V10.48H23.3854V7.576ZM40.7614 18.088V27.976H37.5694V7.24H40.7614V15.04H43.4494V18.088H40.7614ZM57.8588 28.192H51.1868C49.2668 28.192 47.7308 27.88 46.5788 27.256C45.4428 26.648 44.8748 25.576 44.8748 24.04C44.8748 22.792 45.3468 21.784 46.2908 21.016C47.2508 20.248 48.5468 19.864 50.1788 19.864H56.8268C58.7468 19.864 60.2748 20.2 61.4108 20.872C62.5628 21.528 63.1388 22.584 63.1388 24.04C63.1388 25.352 62.6668 26.368 61.7228 27.088C60.7788 27.824 59.4908 28.192 57.8588 28.192ZM50.2028 25.504H57.2348C58.0028 25.504 58.6348 25.4 59.1308 25.192C59.6428 25 59.8988 24.616 59.8988 24.04C59.8988 23.464 59.6428 23.072 59.1308 22.864C58.6348 22.656 58.0028 22.552 57.2348 22.552H50.7788C50.0428 22.552 49.4108 22.656 48.8828 22.864C48.3548 23.072 48.0908 23.464 48.0908 24.04C48.0908 24.504 48.2668 24.864 48.6188 25.12C48.9868 25.376 49.5148 25.504 50.2028 25.504ZM53.7068 15.568H63.9308V18.304H44.0828V15.568H50.5148V12.256H53.7068V15.568ZM62.9228 14.44H59.7308V10.432H45.0908V7.576H62.9228V14.44ZM78.6761 17.776H72.5801C71.6201 17.776 70.7481 17.656 69.9641 17.416C69.1801 17.16 68.5161 16.8 67.9721 16.336C67.4281 15.872 67.0041 15.32 66.7001 14.68C66.4121 14.04 66.2681 13.32 66.2681 12.52C66.2681 10.936 66.8361 9.664 67.9721 8.704C69.1241 7.728 70.6601 7.24 72.5801 7.24H78.6761C79.6201 7.24 80.4761 7.368 81.2441 7.624C82.0281 7.88 82.7001 8.24 83.2601 8.704C83.8041 9.168 84.2281 9.728 84.5321 10.384C84.8361 11.024 84.9881 11.736 84.9881 12.52C84.9881 13.32 84.8361 14.04 84.5321 14.68C84.2281 15.32 83.8041 15.872 83.2601 16.336C82.7001 16.8 82.0281 17.16 81.2441 17.416C80.4761 17.656 79.6201 17.776 78.6761 17.776ZM72.6281 14.872H78.6041C79.5641 14.872 80.3161 14.664 80.8601 14.248C81.4201 13.832 81.7001 13.256 81.7001 12.52C81.7001 11.8 81.4201 11.224 80.8601 10.792C80.3161 10.344 79.5641 10.12 78.6041 10.12H72.6281C71.6681 10.12 70.9161 10.344 70.3721 10.792C69.8281 11.224 69.5561 11.8 69.5561 12.52C69.5561 13.256 69.8281 13.832 70.3721 14.248C70.9161 14.664 71.6681 14.872 72.6281 14.872ZM85.5401 19.984V22.912H81.2921V28.192H78.1001V22.912H73.1321V28.192H69.9641V22.912H65.6921V19.984H85.5401ZM96.3015 24.184V27.064H88.0935V7.576H95.8455V10.48H91.2855V24.184H96.3015ZM101.006 7.336V27.736H97.8615V18.352H93.8535V15.304H97.8615V7.336H101.006ZM106.022 27.976H102.854V7.24H106.022V27.976ZM127.631 7.24V27.976H124.463V7.24H127.631ZM112.535 13.672V20.992C112.535 22.16 112.759 23.024 113.207 23.584C113.655 24.128 114.303 24.4 115.151 24.4C115.999 24.4 116.647 24.128 117.095 23.584C117.559 23.024 117.791 22.16 117.791 20.992V13.672C117.791 12.52 117.559 11.664 117.095 11.104C116.647 10.544 115.999 10.264 115.151 10.264C114.303 10.264 113.655 10.544 113.207 11.104C112.759 11.664 112.535 12.52 112.535 13.672ZM109.487 20.992V13.672C109.487 11.624 109.999 10.056 111.023 8.968C112.063 7.88 113.439 7.336 115.151 7.336C116.879 7.336 118.263 7.88 119.303 8.968C120.343 10.056 120.863 11.624 120.863 13.672V20.992C120.863 23.04 120.343 24.6 119.303 25.672C118.263 26.744 116.879 27.28 115.151 27.28C113.439 27.28 112.063 26.744 111.023 25.672C109.999 24.6 109.487 23.04 109.487 20.992ZM142.376 27.064H131.312V7.576H141.416V10.48H134.504V15.448H141.2V18.352H134.504V24.184H142.376V27.064ZM146.072 18.328H142.136V15.28H146.072V7.24H149.24V27.976H146.072V18.328ZM176.666 26.2V27.736H158.954V22.792H174.698V20.968H158.954V19.408H176.426V24.352H160.706V26.2H176.666ZM157.778 16.096H177.626V17.656H157.778V16.096ZM176.426 7.672V9.256H158.954V7.672H176.426ZM164.258 12.76H170.786L171.41 10.12H173.21L172.562 12.76H176.666V14.296H158.738V12.76H162.53V10.12H164.258V12.76ZM197.771 7.24V20.992H196.019V14.416H192.731V19.984H191.003V7.336H192.731V12.832H196.019V7.24H197.771ZM189.323 17.608V19.192H180.347V12.592H186.539V9.256H180.347V7.672H188.291V14.152H182.099V17.608H189.323ZM189.851 22.096C190.907 23.152 192.203 24.048 193.739 24.784C195.275 25.52 196.835 26.04 198.419 26.344L197.651 27.736C196.067 27.384 194.491 26.824 192.923 26.056C191.355 25.288 190.035 24.376 188.963 23.32C188.003 24.488 186.811 25.456 185.387 26.224C183.979 26.992 182.531 27.496 181.043 27.736L180.107 26.296C181.115 26.152 182.083 25.904 183.011 25.552C183.939 25.2 184.787 24.76 185.555 24.232C186.323 23.704 186.995 23.096 187.571 22.408C188.163 21.72 188.627 20.968 188.963 20.152L190.547 20.704C190.451 20.944 190.347 21.184 190.235 21.424C190.123 21.648 189.995 21.872 189.851 22.096ZM219.645 21.448V27.736H202.173V21.448H219.645ZM203.925 26.176H217.917V23.008H203.925V26.176ZM211.677 15.304V17.848H220.845V19.408H200.997V17.848H209.925V15.304H201.957V13.744H205.749V10.336H207.477V13.744H213.909C214.037 13.168 214.165 12.6 214.293 12.04C214.437 11.48 214.581 10.912 214.725 10.336H216.525C216.445 10.624 216.365 10.912 216.285 11.2C216.221 11.472 216.157 11.752 216.093 12.04C216.029 12.328 215.957 12.616 215.877 12.904C215.813 13.176 215.749 13.456 215.685 13.744H219.885V15.304H211.677ZM219.645 7.672V9.256H202.173V7.672H219.645Z" fill="#131416"/>
</svg>
