<svg width="20" height="20" viewBox="0 0 20 20" fill="none" xmlns="http://www.w3.org/2000/svg">
<path fill-rule="evenodd" clip-rule="evenodd" d="M6.53549 2.50057C6.54797 2.50005 6.56047 2.49989 6.57296 2.50007C7.38774 2.51215 8.18656 2.72887 8.889 3.13059C9.29889 3.365 9.63695 3.72186 9.90263 4.06223C9.93546 4.10429 9.96765 4.14672 9.99919 4.18935C10.0307 4.14672 10.0629 4.10429 10.0958 4.06223C10.3614 3.72186 10.6995 3.365 11.1094 3.13059C11.8118 2.72887 12.6106 2.51215 13.4254 2.50007C13.4379 2.49989 13.4504 2.50005 13.4629 2.50057C14.7504 2.55389 15.9702 3.09078 16.8534 4.00382C17.7346 4.91478 18.2087 6.1269 18.1628 7.37803C18.1591 8.56035 17.662 9.75439 16.9893 10.843C16.3082 11.9452 15.4077 13.0023 14.5153 13.9198C12.7333 15.7519 10.9136 17.0977 10.7333 17.2194L10.7331 17.2195L10.372 17.4631C10.1467 17.615 9.8517 17.615 9.62641 17.4631L9.26531 17.2195L9.26357 17.2184C9.08487 17.097 7.26544 15.7516 5.48311 13.9194C4.59065 13.002 3.69021 11.945 3.00914 10.8429C2.33643 9.75432 1.83925 8.56034 1.83557 7.37801C1.78967 6.12689 2.26378 4.91477 3.14495 4.00382C4.02815 3.09078 5.24795 2.55389 6.53549 2.50057ZM6.57188 3.83359C5.62359 3.87756 4.73771 4.27498 4.1033 4.93083C3.46576 5.58992 3.13342 6.45585 3.16836 7.33841C3.16871 7.3472 3.16888 7.35599 3.16888 7.36478C3.16888 8.19531 3.5261 9.14311 4.14337 10.142C4.75478 11.1313 5.58372 12.1106 6.43884 12.9897C7.29157 13.8663 8.15576 14.6284 8.82587 15.1842C9.16046 15.4617 9.44532 15.6866 9.6544 15.8475C9.75895 15.9279 9.84416 15.992 9.90677 16.0384C9.93811 16.0616 9.96336 16.0801 9.98223 16.0937L9.99924 16.1059L10.0167 16.0934C10.0354 16.0799 10.0606 16.0615 10.0919 16.0384C10.1544 15.9921 10.2396 15.9281 10.3441 15.8477C10.5531 15.687 10.838 15.4621 11.1725 15.1846C11.8426 14.629 12.7068 13.8668 13.5595 12.9902C14.4146 12.111 15.2436 11.1316 15.855 10.1421C16.4723 9.1432 16.8295 8.19532 16.8295 7.36478C16.8295 7.35599 16.8297 7.3472 16.83 7.33841C16.865 6.45585 16.5326 5.58992 15.8951 4.93083C15.2607 4.27498 14.3748 3.87756 13.4265 3.83359C12.8408 3.84537 12.2702 4.00272 11.7713 4.28802C11.5779 4.39864 11.3657 4.60218 11.1468 4.88262C10.9326 5.15704 10.7411 5.46676 10.5757 5.7516C10.4564 5.95706 10.2368 6.0835 9.99919 6.0835C9.76161 6.0835 9.54198 5.95706 9.42267 5.7516C9.25727 5.46676 9.06576 5.15704 8.85156 4.88262C8.63267 4.60218 8.42051 4.39864 8.22709 4.28802C7.7282 4.00272 7.15755 3.84537 6.57188 3.83359Z" fill="#256EF4"/>
</svg>
