<svg width="32" height="32" viewBox="0 0 32 32" fill="none" xmlns="http://www.w3.org/2000/svg">
<path fill-rule="evenodd" clip-rule="evenodd" d="M6.13236 6.13333V9.33333C6.13236 9.92244 5.65479 10.4 5.06569 10.4C4.47659 10.4 3.99902 9.92244 3.99902 9.33333V5.73333C3.99902 4.77604 4.77506 4 5.73236 4H26.2653C27.2226 4 27.9986 4.77604 27.9986 5.73333V9.33333C27.9986 9.92244 27.5211 10.4 26.932 10.4C26.3429 10.4 25.8653 9.92244 25.8653 9.33333V6.13333H17.0659L17.0671 25.8663H21.598C22.1871 25.8663 22.6646 26.3438 22.6646 26.9329C22.6646 27.522 22.1871 27.9996 21.598 27.9996H10.398C9.80888 27.9996 9.33132 27.522 9.33132 26.9329C9.33132 26.3438 9.80888 25.8663 10.398 25.8663H14.9337L14.9326 6.13333H6.13236Z" fill="#33363D"/>
</svg>
