<svg width="32" height="32" viewBox="0 0 32 32" fill="none" xmlns="http://www.w3.org/2000/svg">
<path fill-rule="evenodd" clip-rule="evenodd" d="M10.4571 4.00091C10.4771 4.00009 10.4971 3.99982 10.5171 4.00012C11.8207 4.01944 13.0988 4.3662 14.2227 5.00895C14.8786 5.38401 15.4195 5.95497 15.8445 6.49957C15.8971 6.56686 15.9486 6.63475 15.999 6.70295C16.0495 6.63475 16.101 6.56686 16.1535 6.49957C16.5786 5.95497 17.1195 5.38401 17.7753 5.00895C18.8993 4.3662 20.1774 4.01944 21.481 4.00012C21.501 3.99982 21.521 4.00009 21.541 4.00091C23.601 4.08622 25.5527 4.94524 26.9658 6.40611C28.3757 7.86365 29.1343 9.80304 29.0608 11.8048C29.0549 13.6966 28.2595 15.607 27.1831 17.3489C26.0934 19.1123 24.6527 20.8037 23.2248 22.2717C20.3736 25.203 17.4621 27.3563 17.1736 27.551L17.1733 27.5513L16.5955 27.9409C16.235 28.1841 15.7631 28.1841 15.4026 27.9409L14.8248 27.5513L14.822 27.5494C14.5361 27.3552 11.625 25.2026 8.77331 22.271C7.34539 20.8031 5.90469 19.112 4.81496 17.3486C3.73863 15.6069 2.94315 13.6966 2.93725 11.8048C2.86381 9.80302 3.62239 7.86364 5.03227 6.40611C6.44537 4.94524 8.39706 4.08622 10.4571 4.00091ZM10.5154 6.13374C8.99808 6.20409 7.58068 6.83997 6.56562 7.88933C5.54556 8.94387 5.01381 10.3294 5.06972 11.7415C5.07027 11.7555 5.07055 11.7696 5.07055 11.7837C5.07055 13.1125 5.64211 14.629 6.62973 16.2271C7.60799 17.8101 8.93429 19.377 10.3025 20.7835C11.6669 22.1861 13.0495 23.4054 14.1217 24.2947C14.6571 24.7387 15.1129 25.0986 15.4474 25.3559C15.6147 25.4846 15.751 25.5872 15.8512 25.6614C15.9013 25.6986 15.9417 25.7281 15.9719 25.7499L15.9991 25.7694L16.027 25.7494C16.057 25.7278 16.0973 25.6984 16.1474 25.6614C16.2474 25.5874 16.3837 25.4849 16.5509 25.3563C16.8853 25.0992 17.3411 24.7394 17.8764 24.2954C18.9485 23.4063 20.3312 22.1869 21.6956 20.7843C23.0638 19.3777 24.3901 17.8106 25.3683 16.2274C26.356 14.6291 26.9275 13.1125 26.9275 11.7837C26.9275 11.7696 26.9278 11.7555 26.9284 11.7415C26.9843 10.3294 26.4525 8.94387 25.4325 7.88933C24.4174 6.83997 23 6.20409 21.4827 6.13374C20.5457 6.1526 19.6326 6.40435 18.8344 6.86084C18.5249 7.03783 18.1855 7.36349 17.8353 7.81219C17.4925 8.25127 17.1861 8.74682 16.9215 9.20257C16.7306 9.53129 16.3792 9.73359 15.999 9.73359C15.6189 9.73359 15.2675 9.53129 15.0766 9.20257C14.812 8.74682 14.5056 8.25127 14.1628 7.81219C13.8126 7.36349 13.4732 7.03783 13.1637 6.86084C12.3655 6.40434 11.4524 6.1526 10.5154 6.13374Z" fill="#33363D"/>
</svg>
