<svg width="32" height="32" viewBox="0 0 32 32" fill="none" xmlns="http://www.w3.org/2000/svg">
<path fill-rule="evenodd" clip-rule="evenodd" d="M6.39997 4.26615C5.22176 4.26615 4.26663 5.22127 4.26663 6.39948V18.9212C4.26663 20.0994 5.22176 21.0546 6.39997 21.0546H8.90431C9.49342 21.0546 9.97098 21.5321 9.97098 22.1212V26.2243L14.8283 21.367C15.0284 21.1669 15.2997 21.0546 15.5826 21.0546H25.6C26.7782 21.0546 27.7333 20.0994 27.7333 18.9212V6.39948C27.7333 5.22127 26.7782 4.26615 25.6 4.26615H6.39997ZM2.1333 6.39948C2.1333 4.04307 4.04355 2.13281 6.39997 2.13281H25.6C27.9564 2.13281 29.8666 4.04306 29.8666 6.39948V18.9212C29.8666 21.2776 27.9564 23.1879 25.6 23.1879H16.0244L9.65856 29.5537C9.3535 29.8588 8.8947 29.95 8.49612 29.7849C8.09753 29.6198 7.83765 29.2309 7.83765 28.7995V23.1879H6.39997C4.04355 23.1879 2.1333 21.2776 2.1333 18.9212V6.39948ZM8.5333 9.59948C8.5333 9.01038 9.01086 8.53281 9.59997 8.53281H20.8C21.3891 8.53281 21.8666 9.01038 21.8666 9.59948C21.8666 10.1886 21.3891 10.6661 20.8 10.6661H9.59997C9.01086 10.6661 8.5333 10.1886 8.5333 9.59948ZM8.5333 15.9995C8.5333 15.4104 9.01086 14.9328 9.59997 14.9328H16C16.5891 14.9328 17.0666 15.4104 17.0666 15.9995C17.0666 16.5886 16.5891 17.0661 16 17.0661H9.59997C9.01086 17.0661 8.5333 16.5886 8.5333 15.9995Z" fill="#33363D"/>
</svg>
