<svg width="32" height="32" viewBox="0 0 32 32" fill="none" xmlns="http://www.w3.org/2000/svg">
<path fill-rule="evenodd" clip-rule="evenodd" d="M21.9124 3.24601C22.329 2.82945 23.0044 2.82945 23.4209 3.24601L28.7542 8.57935C28.9543 8.77939 29.0667 9.0507 29.0667 9.33359C29.0667 9.61649 28.9543 9.8878 28.7542 10.0878L16.7542 22.0878C16.5542 22.2879 16.2829 22.4003 16 22.4003H10.6667C10.0776 22.4003 9.6 21.9227 9.6 21.3336V16.0003C9.6 15.7174 9.71238 15.4461 9.91242 15.246L21.9124 3.24601ZM22.6667 5.50875L20.1752 8.00026L24 11.8251L26.4915 9.33359L22.6667 5.50875ZM22.4915 13.3336L18.6667 9.50875L11.7333 16.4421V20.2669H15.5582L22.4915 13.3336ZM6.4 6.13359C6.25272 6.13359 6.13333 6.25298 6.13333 6.40026V25.6003C6.13333 25.7475 6.25272 25.8669 6.4 25.8669H25.6C25.7473 25.8669 25.8667 25.7475 25.8667 25.6003V16.2669C25.8667 15.6778 26.3442 15.2003 26.9333 15.2003C27.5224 15.2003 28 15.6778 28 16.2669V25.6003C28 26.9257 26.9255 28.0003 25.6 28.0003H6.4C5.07452 28.0003 4 26.9257 4 25.6003V6.40026C4 5.07478 5.07452 4.00026 6.4 4.00026H15.7323C16.3214 4.00026 16.799 4.47782 16.799 5.06693C16.799 5.65603 16.3214 6.13359 15.7323 6.13359H6.4Z" fill="#33363D"/>
</svg>
