<svg width="24" height="24" viewBox="0 0 24 24" fill="none" xmlns="http://www.w3.org/2000/svg">
<path fill-rule="evenodd" clip-rule="evenodd" d="M7.51492 2.60417C7.73318 2.98832 7.59869 3.47667 7.21454 3.69493C6.10623 4.32462 5.23939 5.37764 4.7509 6.66281C4.59392 7.07581 4.13186 7.28335 3.71886 7.12637C3.30586 6.96939 3.09831 6.50733 3.25529 6.09433C3.86198 4.49821 4.95946 3.13595 6.42415 2.30378C6.80831 2.08552 7.29666 2.22001 7.51492 2.60417ZM16.4758 2.60572C16.6983 2.22397 17.188 2.09483 17.5698 2.31727C19.0163 3.16014 20.1595 4.4797 20.7538 6.09283C20.9065 6.50742 20.6942 6.96733 20.2796 7.12006C19.865 7.27279 19.4051 7.06051 19.2524 6.64592C18.7913 5.39427 17.9013 4.36224 16.7643 3.6997C16.3825 3.47726 16.2534 2.98747 16.4758 2.60572ZM12.0042 5.00401C9.03825 5.00401 6.51754 7.64989 6.51754 11.0637V11.0726L6.51748 11.0726L6.49465 13.1074C6.4936 14.548 6.00373 15.7592 5.45612 16.6367H18.5552C18.0299 15.7576 17.5606 14.5443 17.5606 13.1027V13.0933H17.5606L17.5834 11.1601C17.5812 7.69277 15.02 5.00401 12.0042 5.00401ZM4.91754 11.0591C4.91983 6.89789 8.02755 3.40401 12.0042 3.40401C16.0334 3.40401 19.1834 6.94571 19.1834 11.1647V11.1741H19.1834L19.1606 13.1072C19.1617 14.3261 19.6075 15.3472 20.075 16.0475C20.3704 16.4899 20.341 17.0137 20.1966 17.384C20.0565 17.7431 19.6818 18.2367 19.0279 18.2367H4.98143C4.31697 18.2367 3.94334 17.7284 3.80693 17.3679C3.66581 16.9949 3.63893 16.4622 3.94801 16.0182C4.43625 15.3169 4.89466 14.305 4.89466 13.1027V13.0938L4.89471 13.0938L4.91754 11.0591ZM15.1299 19.6532C15.4049 19.999 15.3475 20.5022 15.0017 20.7772C14.1946 21.4191 13.1425 21.7994 12.0042 21.7994C10.8659 21.7994 9.81382 21.4191 9.00673 20.7772C8.66092 20.5022 8.60352 19.999 8.87852 19.6532C9.15352 19.3074 9.65679 19.25 10.0026 19.525C10.5221 19.9381 11.2219 20.1994 12.0042 20.1994C12.7864 20.1994 13.4862 19.9381 14.0058 19.525C14.3516 19.25 14.8549 19.3074 15.1299 19.6532Z" fill="#33363D"/>
<circle cx="17.3218" cy="6" r="4" fill="#FF0000"/>
</svg>
