<svg width="24" height="24" viewBox="0 0 24 24" fill="none" xmlns="http://www.w3.org/2000/svg">
<path fill-rule="evenodd" clip-rule="evenodd" d="M10.8984 4.00039C7.08767 4.00039 3.99844 7.08963 3.99844 10.9004C3.99844 14.7112 7.08767 17.8004 10.8984 17.8004C12.7126 17.8004 14.3633 17.1002 15.595 15.9554C15.6326 15.8796 15.6829 15.8086 15.746 15.7455C15.809 15.6825 15.8799 15.6322 15.9555 15.5947C17.0991 14.3632 17.7984 12.7135 17.7984 10.9004C17.7984 7.08963 14.7092 4.00039 10.8984 4.00039ZM10.8984 19.4004C12.9582 19.4004 14.8468 18.6678 16.318 17.4489L19.6348 20.7657C19.9473 21.0781 20.4538 21.0781 20.7662 20.7657C21.0786 20.4533 21.0786 19.9468 20.7662 19.6343L17.4491 16.3173C18.6667 14.8465 19.3984 12.9589 19.3984 10.9004C19.3984 6.20597 15.5929 2.40039 10.8984 2.40039C6.20402 2.40039 2.39844 6.20597 2.39844 10.9004C2.39844 15.5948 6.20402 19.4004 10.8984 19.4004ZM7.90156 10.1001C7.45973 10.1001 7.10156 10.4583 7.10156 10.9001C7.10156 11.3419 7.45973 11.7001 7.90156 11.7001H13.9016C14.3434 11.7001 14.7016 11.3419 14.7016 10.9001C14.7016 10.4583 14.3434 10.1001 13.9016 10.1001H7.90156Z" fill="#33363D"/>
</svg>
