<svg width="40" height="40" viewBox="0 0 40 40" fill="none" xmlns="http://www.w3.org/2000/svg">
<path fill-rule="evenodd" clip-rule="evenodd" d="M26.2699 7.47966C24.3838 6.53332 22.2542 6.00065 20.0002 6.00065C12.2682 6.00065 6.00016 12.2687 6.00016 20.0007C6.00016 27.7326 12.2682 34.0007 20.0002 34.0007C27.7321 34.0007 34.0002 27.7326 34.0002 20.0007C34.0002 17.4702 33.3288 15.0965 32.1545 13.048L33.7957 10.6457C35.6079 13.3128 36.6668 16.5331 36.6668 20.0007C36.6668 29.2054 29.2049 36.6673 20.0002 36.6673C10.7954 36.6673 3.3335 29.2054 3.3335 20.0007C3.3335 10.7959 10.7954 3.33398 20.0002 3.33398C22.8125 3.33398 25.4621 4.03055 27.786 5.26056L26.2699 7.47966ZM28.5302 8.89849C29.2449 9.44841 29.905 10.0658 30.5009 10.7411L32.045 8.48103C31.425 7.83305 30.7534 7.23499 30.0366 6.69352L28.5302 8.89849Z" fill="#33363D"/>
<path fill-rule="evenodd" clip-rule="evenodd" d="M32.4178 5.5665C33.0259 5.98189 33.182 6.81154 32.7666 7.41958L21.3804 24.0862C21.1566 24.4139 20.7985 24.6248 20.4035 24.6617C20.0084 24.6986 19.6175 24.5576 19.3369 24.2771L12.3897 17.3327C11.8689 16.8121 11.8688 15.9678 12.3894 15.447C12.91 14.9262 13.7542 14.9261 14.275 15.4467L20.0853 21.2547L30.5647 5.91531C30.9801 5.30728 31.8098 5.15111 32.4178 5.5665Z" fill="#256EF4"/>
</svg>
