<svg width="25" height="24" viewBox="0 0 25 24" fill="none" xmlns="http://www.w3.org/2000/svg">
<path d="M22.5 12C22.5 17.5235 18.0221 22 12.5009 22C6.97973 22 2.5 17.5235 2.5 12C2.5 6.47645 6.97604 2 12.5009 2C18.0258 2 22.5 6.4783 22.5 12Z" fill="white"/>
<path d="M17.2707 11.3039C15.672 10.2235 13.6259 10.663 12.5509 12.2882C11.6559 13.6455 10.3024 13.8154 9.78064 13.8154C8.07059 13.8154 6.9027 12.6187 6.55549 11.3814C6.55178 11.3685 6.54807 11.3574 6.54621 11.3463C6.5425 11.3334 6.54064 11.3186 6.53507 11.3039C6.39767 10.7868 6.36425 10.5412 6.36425 9.99268C6.36425 7.03608 9.41672 3.74152 13.8097 3.74152C18.2028 3.74152 20.8857 7.14873 21.5523 9.04346C21.5393 9.00838 21.5282 8.97698 21.517 8.94374C20.2396 5.23737 16.7062 2.5744 12.5472 2.5744C7.31675 2.5744 3.07227 6.79231 3.07227 12.0001C3.07227 16.6538 6.44595 20.6353 11.1286 20.6353C14.8607 20.6353 17.3691 18.5559 18.5184 15.6843C19.1497 14.1146 18.7041 12.2715 17.2707 11.302" fill="#003964"/>
<path d="M21.605 9.22615C21.0498 7.37758 18.4578 3.74139 13.8049 3.74139C9.41184 3.74139 6.35938 7.03594 6.35938 9.99254C6.35938 10.541 6.39465 10.7866 6.53019 11.3037C6.47264 11.0766 6.44293 10.8513 6.44293 10.6315C6.44293 7.55118 9.54367 5.41637 12.7317 5.41637C17.0486 5.41637 20.5467 8.89559 20.5467 13.1874C20.5467 16.5503 18.5989 19.4644 15.773 20.8624C19.4196 19.5512 22.0228 16.0775 22.0228 11.9999C22.0228 11.0341 21.8928 10.1828 21.6069 9.22615" fill="#ED1A3B"/>
</svg>
