<svg width="14" height="14" viewBox="0 0 14 14" fill="none" xmlns="http://www.w3.org/2000/svg">
<path d="M6.87243 1.66284C7.07728 1.29728 7.58939 1.29728 7.79423 1.66284L13.0946 11.1217C13.2994 11.4873 13.0434 11.9442 12.6337 11.9442H2.03299C1.62331 11.9442 1.36725 11.4873 1.5721 11.1217L6.87243 1.66284Z" fill="#9E6A00"/>
<path fill-rule="evenodd" clip-rule="evenodd" d="M7.1945 4.72168C6.96438 4.72168 6.77783 4.90823 6.77783 5.13835V8.1939C6.77783 8.42402 6.96438 8.61057 7.1945 8.61057H7.47228C7.7024 8.61057 7.88894 8.42402 7.88894 8.1939V5.13835C7.88894 4.90823 7.70239 4.72168 7.47228 4.72168H7.1945ZM7.1945 9.16626C6.96438 9.16626 6.77783 9.35281 6.77783 9.58293V9.8607C6.77783 10.0908 6.96438 10.2774 7.1945 10.2774H7.47228C7.7024 10.2774 7.88894 10.0908 7.88894 9.8607V9.58293C7.88894 9.35281 7.70239 9.16626 7.47228 9.16626H7.1945Z" fill="white"/>
</svg>
