<svg width="20" height="20" viewBox="0 0 20 20" fill="none" xmlns="http://www.w3.org/2000/svg">
<path d="M10.6423 2.31702C10.6423 1.95856 10.3517 1.66797 9.99328 1.66797C9.63482 1.66797 9.34423 1.95856 9.34423 2.31702V4.4954C9.34423 4.85386 9.63482 5.14445 9.99328 5.14445C10.3517 5.14445 10.6423 4.85386 10.6423 4.4954V2.31702Z" fill="#33363D"/>
<path d="M3.42086 3.39522C3.15603 3.15365 2.7455 3.1725 2.50393 3.43733C2.26235 3.70216 2.2812 4.11269 2.54604 4.35426L4.34849 5.99843C4.61332 6.24001 5.02384 6.22116 5.26542 5.95632C5.50699 5.69149 5.48814 5.28097 5.22331 5.03939L3.42086 3.39522Z" fill="#33363D"/>
<path d="M17.4404 4.35425C17.7052 4.11267 17.724 3.70215 17.4825 3.43732C17.2409 3.1725 16.8304 3.15365 16.5655 3.39523L14.7632 5.0394C14.4983 5.28098 14.4795 5.69151 14.7211 5.95633C14.9627 6.22116 15.3732 6.24 15.638 5.99842L17.4404 4.35425Z" fill="#33363D"/>
<path d="M14.8889 12.0846C15.4478 12.0846 15.8479 11.5459 15.6873 11.0106L14.6862 7.67355C14.5803 7.32067 14.2555 7.079 13.8871 7.079H6.1184C5.74998 7.079 5.42518 7.32066 5.31932 7.67355L4.31819 11.0106C4.15761 11.5459 4.5577 12.0846 5.11655 12.0846H14.8889Z" fill="#33363D"/>
<path d="M16.6839 17.5015H3.32227C2.81556 17.5015 2.56221 17.5015 2.39311 17.3958C2.24501 17.3033 2.13719 17.1583 2.09107 16.9899C2.03842 16.7976 2.11122 16.5549 2.25682 16.0696L2.79843 14.2642C2.87636 14.0044 2.91533 13.8745 2.98912 13.7759C3.06989 13.6679 3.18032 13.5857 3.30696 13.5394C3.42265 13.497 3.55825 13.497 3.82947 13.497H16.1767C16.4479 13.497 16.5835 13.497 16.6992 13.5394C16.8258 13.5857 16.9362 13.6679 17.017 13.7759C17.0908 13.8745 17.1298 14.0044 17.2077 14.2642L17.7493 16.0696C17.8949 16.5549 17.9677 16.7976 17.9151 16.9899C17.8689 17.1583 17.7611 17.3033 17.613 17.3958C17.4439 17.5015 17.1906 17.5015 16.6839 17.5015Z" fill="#33363D"/>
</svg>
