<svg width="32" height="32" viewBox="0 0 32 32" fill="none" xmlns="http://www.w3.org/2000/svg">
<path fill-rule="evenodd" clip-rule="evenodd" d="M10.0199 3.47352C10.3109 3.98573 10.1316 4.63687 9.61938 4.92788C8.14164 5.76746 6.98585 7.17149 6.33453 8.88504C6.12523 9.43571 5.50915 9.71244 4.95848 9.50313C4.40781 9.29382 4.13109 8.67774 4.34039 8.12708C5.1493 5.99892 6.61262 4.18256 8.56554 3.07301C9.07775 2.782 9.72888 2.96132 10.0199 3.47352ZM21.9678 3.4756C22.2643 2.9666 22.9174 2.79441 23.4264 3.09099C25.3551 4.21482 26.8794 5.97424 27.6717 8.12508C27.8753 8.67787 27.5923 9.29107 27.0395 9.49471C26.4867 9.69835 25.8735 9.41531 25.6699 8.86253C25.0551 7.19367 23.8684 5.81762 22.3524 4.93424C21.8434 4.63765 21.6712 3.98459 21.9678 3.4756ZM16.0056 6.67331C12.051 6.67331 8.69005 10.2012 8.69005 14.7528V14.7648L8.68998 14.7648L8.65954 17.4778C8.65814 19.3986 8.00497 21.0135 7.27482 22.1835H24.7403C24.0398 21.0114 23.4141 19.3937 23.4141 17.4716V17.459H23.4142L23.4446 14.8815C23.4416 10.2583 20.0266 6.67331 16.0056 6.67331ZM6.55672 14.7467C6.55977 9.19849 10.7034 4.53998 16.0056 4.53998C21.3779 4.53998 25.5779 9.26224 25.5779 14.8876V14.9002H25.5779L25.5474 17.4776C25.5489 19.1027 26.1433 20.4642 26.7666 21.3979C27.1605 21.9879 27.1214 22.6862 26.9288 23.18C26.742 23.6588 26.2424 24.3169 25.3705 24.3169H6.64191C5.75595 24.3169 5.25779 23.6392 5.0759 23.1584C4.88774 22.6611 4.85191 21.9509 5.26401 21.3589C5.91499 20.4238 6.52621 19.0746 6.52621 17.4716V17.4596L6.52627 17.4596L6.55672 14.7467ZM20.1731 26.2055C20.5398 26.6666 20.4633 27.3376 20.0022 27.7043C18.9261 28.5601 17.5233 29.0671 16.0056 29.0671C14.4879 29.0671 13.0851 28.5601 12.009 27.7043C11.5479 27.3376 11.4714 26.6666 11.838 26.2055C12.2047 25.7444 12.8757 25.6679 13.3368 26.0346C14.0295 26.5855 14.9626 26.9338 16.0056 26.9338C17.0486 26.9338 17.9816 26.5855 18.6744 26.0346C19.1354 25.6679 19.8065 25.7444 20.1731 26.2055Z" fill="#33363D"/>
</svg>
