<svg width="24" height="24" viewBox="0 0 24 24" fill="none" xmlns="http://www.w3.org/2000/svg">
<path fill-rule="evenodd" clip-rule="evenodd" d="M7.65804 7.08033C7.65803 6.6385 8.0162 6.28032 8.45803 6.28031L16.98 6.28019C17.1922 6.28019 17.3957 6.36447 17.5457 6.5145C17.6957 6.66453 17.78 6.86802 17.78 7.08019V15.481C17.78 15.9228 17.4219 16.281 16.98 16.281C16.5382 16.281 16.18 15.9228 16.18 15.481V9.01156L7.64622 17.5454C7.33381 17.8578 6.82727 17.8578 6.51485 17.5454C6.20243 17.233 6.20243 16.7264 6.51485 16.414L15.0486 7.88022L8.45805 7.88031C8.01622 7.88032 7.65805 7.52215 7.65804 7.08033Z" fill="#33363D"/>
</svg>
