<svg width="25" height="24" viewBox="0 0 25 24" fill="none" xmlns="http://www.w3.org/2000/svg">
<g opacity="0.5">
<path fill-rule="evenodd" clip-rule="evenodd" d="M8.1 7.8C8.1 6.58497 9.08497 5.6 10.3 5.6C11.515 5.6 12.5 6.58497 12.5 7.8C12.5 9.01503 11.515 10 10.3 10C9.08497 10 8.1 9.01503 8.1 7.8ZM10.3 4C8.20132 4 6.5 5.70132 6.5 7.8C6.5 9.89868 8.20132 11.6 10.3 11.6C12.3987 11.6 14.1 9.89868 14.1 7.8C14.1 5.70132 12.3987 4 10.3 4ZM16.3 8.7002C15.8582 8.7002 15.5 9.05837 15.5 9.5002C15.5 9.94202 15.8582 10.3002 16.3 10.3002H18.1992V12.2002C18.1992 12.642 18.5574 13.0002 18.9992 13.0002C19.441 13.0002 19.7992 12.642 19.7992 12.2002V10.3002H21.6992C22.141 10.3002 22.4992 9.94202 22.4992 9.5002C22.4992 9.05837 22.141 8.7002 21.6992 8.7002H19.7992V6.8C19.7992 6.35817 19.441 6 18.9992 6C18.5574 6 18.1992 6.35817 18.1992 6.8V8.7002H16.3ZM16.3407 14.4004C12.6342 12.759 8.41664 12.7097 4.67279 14.2641L4.22636 14.4494C3.1812 14.8833 2.5 15.9037 2.5 17.0354V19.2002C2.5 19.6421 2.85817 20.0002 3.3 20.0002H17.3C17.7418 20.0002 18.1 19.6421 18.1 19.2002V17.0019C18.1 15.894 17.4468 14.8903 16.4338 14.4417L16.3407 14.4004ZM5.2863 15.7418C8.62541 14.3554 12.387 14.3994 15.6928 15.8634L15.7859 15.9046C16.22 16.0969 16.5 16.5271 16.5 17.0019V18.4002H4.1V17.0354C4.1 16.5504 4.39194 16.1131 4.83987 15.9271L5.2863 15.7418Z" fill="white"/>
</g>
</svg>
