<svg width="32" height="32" viewBox="0 0 32 32" fill="none" xmlns="http://www.w3.org/2000/svg">
<path fill-rule="evenodd" clip-rule="evenodd" d="M11.5824 5.70429C9.16891 6.7413 7.19306 8.60217 6.00882 10.9329H9.46476C9.78393 9.48519 10.2378 8.16635 10.8023 7.0373C11.0362 6.56959 11.2966 6.12138 11.5824 5.70429ZM5.18806 13.0663C4.93507 14.0011 4.80008 14.9845 4.80008 15.9993C4.80008 17.0178 4.93602 18.0045 5.19073 18.9423C5.23707 18.9361 5.28435 18.9329 5.33237 18.9329H9.10496C8.9917 17.9876 8.93237 17.0052 8.93237 15.9996C8.93237 14.994 8.9917 14.0116 9.10496 13.0663H5.18806ZM6.00909 21.0663C7.19328 23.3966 9.16881 25.2572 11.5819 26.2942C11.2963 25.8773 11.0361 25.4294 10.8023 24.9619C10.2378 23.8329 9.78393 22.514 9.46476 21.0663H6.00909ZM20.4153 26.2955C22.8297 25.2587 24.8064 23.3976 25.9911 21.0663H22.5333C22.2141 22.514 21.7603 23.8329 21.1957 24.9619C20.9618 25.4298 20.7013 25.8782 20.4153 26.2955ZM26.8094 18.9425C27.0641 18.0047 27.2001 17.0179 27.2001 15.9993C27.2001 14.9845 27.0651 14.0011 26.8121 13.0663H22.8931C23.0064 14.0116 23.0657 14.994 23.0657 15.9996C23.0657 17.0052 23.0064 17.9876 22.8931 18.9329H26.6657C26.7144 18.9329 26.7624 18.9362 26.8094 18.9425ZM25.9913 10.9329C24.8066 8.60122 22.8296 6.73979 20.4148 5.70302C20.701 6.12047 20.9616 6.56911 21.1957 7.0373C21.7603 8.16635 22.2141 9.48519 22.5333 10.9329H25.9913ZM16.0001 2.66602C8.63629 2.66602 2.66675 8.63555 2.66675 15.9993C2.66675 23.3631 8.63629 29.3327 16.0001 29.3327C23.3639 29.3327 29.3334 23.3631 29.3334 15.9993C29.3334 8.63555 23.3639 2.66602 16.0001 2.66602ZM11.6556 10.9329C11.9297 9.8273 12.2888 8.83464 12.7105 7.99136C13.7395 5.93317 14.9639 5.06628 15.999 5.06628C17.0342 5.06628 18.2585 5.93317 19.2876 7.99136C19.7093 8.83464 20.0684 9.8273 20.3425 10.9329H11.6556ZM12.7105 24.0079C12.2888 23.1646 11.9297 22.1719 11.6556 21.0663H20.3425C20.0684 22.1719 19.7093 23.1646 19.2876 24.0079C18.2585 26.066 17.0342 26.9329 15.999 26.9329C14.9639 26.9329 13.7395 26.066 12.7105 24.0079ZM11.0657 15.9996C11.0657 17.019 11.1321 18.002 11.255 18.9329H20.743C20.866 18.002 20.9324 17.019 20.9324 15.9996C20.9324 14.9803 20.866 13.9972 20.743 13.0663H11.255C11.1321 13.9972 11.0657 14.9803 11.0657 15.9996Z" fill="#33363D"/>
</svg>
