<svg width="21" height="20" viewBox="0 0 21 20" fill="none" xmlns="http://www.w3.org/2000/svg">
<g clip-path="url(#clip0_225_15819)">
<path d="M20.1759 13.2669C20.1759 13.7179 19.8103 14.0835 19.3592 14.0835H16.9092V15.7169H18.5426C19.1713 15.7169 19.5642 16.3975 19.2498 16.9419C19.1039 17.1946 18.8343 17.3502 18.5426 17.3502H16.9092V18.9835C16.9092 19.6122 16.2287 20.0051 15.6842 19.6908C15.4316 19.5449 15.2759 19.2753 15.2759 18.9835V13.2669C15.2759 12.8158 15.6415 12.4502 16.0926 12.4502H19.3592C19.8103 12.4502 20.1759 12.8158 20.1759 13.2669ZM6.70091 15.3085C6.70091 16.8871 5.42119 18.1669 3.84258 18.1669H3.02591V18.9835C3.02591 19.6122 2.34535 20.0051 1.80091 19.6908C1.54823 19.5449 1.39258 19.2753 1.39258 18.9835V13.2669C1.39258 12.8158 1.7582 12.4502 2.20924 12.4502H3.84258C5.42119 12.4502 6.70091 13.7299 6.70091 15.3085ZM5.06758 15.3085C5.06758 14.632 4.51913 14.0835 3.84258 14.0835H3.02591V16.5335H3.84258C4.51913 16.5335 5.06758 15.9851 5.06758 15.3085ZM14.0509 16.1252C14.0509 18.1548 12.4055 19.8001 10.3759 19.8002H8.74258C8.29153 19.8002 7.92591 19.4346 7.92591 18.9835V13.2669C7.92591 12.8158 8.29153 12.4502 8.74258 12.4502H10.3759C12.4055 12.4503 14.0509 14.0956 14.0509 16.1252ZM12.4176 16.1252C12.4176 14.9976 11.5035 14.0835 10.3759 14.0835H9.55924V18.1669H10.3759C11.5035 18.1669 12.4176 17.2528 12.4176 16.1252ZM1.39258 9.18353V1.83353C1.39258 0.931438 2.12381 0.200157 3.02591 0.200196H12.8259C13.0426 0.200024 13.2504 0.285953 13.4037 0.439071L19.1204 6.15573C19.2735 6.30902 19.3594 6.51687 19.3592 6.73353V9.18353C19.3592 9.8122 18.6787 10.2051 18.1342 9.89078C17.8816 9.7449 17.7259 9.4753 17.7259 9.18353V7.5502H12.8259C12.3749 7.55022 12.0092 7.18458 12.0092 6.73353V1.83353H3.02591V9.18353C3.02591 9.8122 2.34535 10.2051 1.80091 9.89078C1.54823 9.7449 1.39258 9.4753 1.39258 9.18353ZM13.6426 5.91686H16.5713L13.6426 2.98809V5.91686Z" fill="white"/>
</g>
<defs>
<clipPath id="clip0_225_15819">
<rect width="20" height="20" fill="white" transform="translate(0.785156)"/>
</clipPath>
</defs>
</svg>
