<svg width="16" height="16" viewBox="0 0 16 16" fill="none" xmlns="http://www.w3.org/2000/svg">
<path fill-rule="evenodd" clip-rule="evenodd" d="M2.42387 8.05684C2.6904 7.21952 3.38969 6.42176 4.39745 5.82637C5.39978 5.23419 6.66813 4.86745 7.99867 4.86745C10.685 4.86745 12.9179 6.34688 13.5708 8.08127C13.5723 8.08547 13.5726 8.08821 13.5726 8.0892L13.5726 8.08934C13.2105 9.23178 11.6216 11.1341 7.99867 11.1341C4.41842 11.1341 2.80283 9.07017 2.42338 8.05862L2.42387 8.05684ZM7.99867 3.80078C6.47877 3.80078 5.02283 4.21798 3.85487 4.90801C2.69235 5.59483 1.77535 6.57754 1.40745 7.7333C1.33681 7.95524 1.33738 8.19941 1.42275 8.42813C1.94653 9.83155 3.94399 12.2008 7.99867 12.2008C12.0372 12.2008 14.0733 10.0424 14.5898 8.41041C14.6647 8.17396 14.6521 7.92617 14.569 7.70549C13.722 5.45534 11.0116 3.80078 7.99867 3.80078ZM6.53249 8.00078C6.53249 7.19076 7.18914 6.53411 7.99915 6.53411C8.80917 6.53411 9.46582 7.19076 9.46582 8.00078C9.46582 8.8108 8.80917 9.46745 7.99915 9.46745C7.18914 9.46745 6.53249 8.8108 6.53249 8.00078ZM7.99915 5.46745C6.60003 5.46745 5.46582 6.60166 5.46582 8.00078C5.46582 9.3999 6.60003 10.5341 7.99915 10.5341C9.39828 10.5341 10.5325 9.3999 10.5325 8.00078C10.5325 6.60166 9.39828 5.46745 7.99915 5.46745Z" fill="#33363D"/>
</svg>
