<svg width="32" height="32" viewBox="0 0 32 32" fill="none" xmlns="http://www.w3.org/2000/svg">
<path fill-rule="evenodd" clip-rule="evenodd" d="M5.33325 5.06602C5.33325 3.74053 6.40777 2.66602 7.73325 2.66602H17.9999C18.2828 2.66602 18.5542 2.77842 18.7542 2.9785L26.3532 10.5788C26.5532 10.7788 26.6655 11.0501 26.6655 11.3329V26.9329C26.6655 28.2584 25.591 29.3329 24.2655 29.3329H7.73325C6.40777 29.3329 5.33325 28.2584 5.33325 26.9329V5.06602ZM7.73325 4.79935C7.58598 4.79935 7.46659 4.91874 7.46659 5.06602V26.9329C7.46659 27.0802 7.58598 27.1996 7.73325 27.1996H24.2655C24.4128 27.1996 24.5322 27.0802 24.5322 26.9329V12.3996H19.3333C18.0078 12.3996 16.9333 11.3251 16.9333 9.99961V4.79935H7.73325ZM19.0666 6.30816L23.024 10.2663H19.3333C19.186 10.2663 19.0666 10.1469 19.0666 9.99961V6.30816ZM9.59888 17.8661C9.59888 17.277 10.0764 16.7995 10.6655 16.7995H15.9989C16.588 16.7995 17.0655 17.277 17.0655 17.8661C17.0655 18.4553 16.588 18.9328 15.9989 18.9328H10.6655C10.0764 18.9328 9.59888 18.4553 9.59888 17.8661ZM10.6655 21.3327C10.0764 21.3327 9.59888 21.8102 9.59888 22.3994C9.59888 22.9885 10.0764 23.466 10.6655 23.466H19.9989C20.588 23.466 21.0655 22.9885 21.0655 22.3994C21.0655 21.8102 20.588 21.3327 19.9989 21.3327H10.6655Z" fill="#33363D"/>
</svg>
