<svg width="14" height="14" viewBox="0 0 14 14" fill="none" xmlns="http://www.w3.org/2000/svg">
<rect width="11.1111" height="11.1111" rx="5.55556" transform="matrix(1 0 0 -1 1.77734 12.5005)" fill="#0B78CB"/>
<path d="M7.2768 5.52327C7.64499 5.52327 7.94347 5.2248 7.94347 4.85661C7.94347 4.48842 7.64499 4.18994 7.2768 4.18994C6.90861 4.18994 6.61013 4.48842 6.61013 4.85661C6.61013 5.2248 6.90861 5.52327 7.2768 5.52327Z" fill="white"/>
<path d="M6.49902 6.07335C6.40698 6.07335 6.33236 6.14797 6.33236 6.24002V6.57335C6.33236 6.6654 6.40698 6.74002 6.49902 6.74002H6.77767C6.86972 6.74002 6.94434 6.81464 6.94434 6.90668V8.94146H6.38835C6.2963 8.94146 6.22168 9.01608 6.22168 9.10813V9.44146C6.22168 9.53351 6.2963 9.60813 6.38835 9.60813H8.27724C8.36928 9.60813 8.4439 9.53351 8.4439 9.44146V9.10813C8.4439 9.01608 8.36928 8.94146 8.27724 8.94146H7.94434V6.24002C7.94434 6.14797 7.86972 6.07335 7.77767 6.07335H6.49902Z" fill="white"/>
</svg>
