<svg width="16" height="16" viewBox="0 0 16 16" fill="none" xmlns="http://www.w3.org/2000/svg">
<path fill-rule="evenodd" clip-rule="evenodd" d="M4.1333 5.33346C4.1333 4.67072 4.67056 4.13346 5.3333 4.13346H12.8C13.4627 4.13346 14 4.67072 14 5.33346V12.8001C14 13.4629 13.4627 14.0001 12.8 14.0001H5.3333C4.67056 14.0001 4.1333 13.4629 4.1333 12.8001V5.33346ZM5.3333 5.20013C5.25966 5.20013 5.19997 5.25983 5.19997 5.33346V12.8001C5.19997 12.8738 5.25966 12.9335 5.3333 12.9335H12.8C12.8736 12.9335 12.9333 12.8738 12.9333 12.8001V5.33346C12.9333 5.25982 12.8736 5.20013 12.8 5.20013H5.3333Z" fill="#33363D"/>
<path fill-rule="evenodd" clip-rule="evenodd" d="M2.00049 3.2C2.00049 2.53726 2.53775 2 3.20049 2H12.1333C12.4279 2 12.6666 2.23878 12.6666 2.53333C12.6666 2.82789 12.4279 3.06667 12.1333 3.06667H3.20049C3.12685 3.06667 3.06716 3.12636 3.06716 3.2V12.1335C3.06716 12.428 2.82837 12.6668 2.53382 12.6668C2.23927 12.6668 2.00049 12.428 2.00049 12.1335V3.2Z" fill="#33363D"/>
</svg>
