<svg width="16" height="16" viewBox="0 0 16 16" fill="none" xmlns="http://www.w3.org/2000/svg">
<path fill-rule="evenodd" clip-rule="evenodd" d="M8.38336 10.703C8.2828 10.8076 8.14399 10.8667 7.99891 10.8667C7.85384 10.8667 7.71502 10.8076 7.61447 10.703L4.28113 7.23632C4.07698 7.024 4.0836 6.68638 4.29592 6.48222C4.50824 6.27807 4.84587 6.28469 5.05002 6.49701L7.46558 9.00919V2.53333C7.46558 2.23878 7.70436 2 7.99891 2C8.29346 2 8.53224 2.23878 8.53224 2.53333V9.00919L10.9478 6.49701C11.152 6.28469 11.4896 6.27807 11.7019 6.48222C11.9142 6.68638 11.9208 7.024 11.7167 7.23632L8.38336 10.703ZM2.39995 10.6671C2.40002 10.3725 2.1613 10.1337 1.86675 10.1336C1.5722 10.1335 1.33336 10.3722 1.33328 10.6668L1.33276 12.8001C1.33273 12.9416 1.3889 13.0773 1.48893 13.1773C1.58895 13.2774 1.72463 13.3336 1.8661 13.3336H14.1322C14.4268 13.3336 14.6656 13.0948 14.6656 12.8003V10.6669C14.6656 10.3724 14.4268 10.1336 14.1322 10.1336C13.8377 10.1336 13.5989 10.3724 13.5989 10.6669V12.2669H2.39956L2.39995 10.6671Z" fill="#256EF4"/>
</svg>
