<svg width="20" height="20" viewBox="0 0 20 20" fill="none" xmlns="http://www.w3.org/2000/svg">
<path fill-rule="evenodd" clip-rule="evenodd" d="M3.00033 17.168C2.63214 17.168 2.33366 16.8695 2.33366 16.5013L2.33366 11.263C2.33366 9.05384 4.12452 7.26298 6.33366 7.26298L15.3909 7.26298L12.1006 3.97271C11.8402 3.71236 11.8402 3.29025 12.1006 3.0299C12.3609 2.76955 12.783 2.76955 13.0434 3.0299L17.4717 7.45824C17.7321 7.71859 17.7321 8.1407 17.4717 8.40105L13.0434 12.8294C12.783 13.0897 12.3609 13.0897 12.1006 12.8294C11.8402 12.569 11.8402 12.1469 12.1006 11.8866L15.3909 8.59631L6.33366 8.59631C4.8609 8.59631 3.66699 9.79022 3.66699 11.263L3.66699 16.5013C3.66699 16.8695 3.36852 17.168 3.00033 17.168Z" fill="black"/>
</svg>
