<svg width="20" height="20" viewBox="0 0 20 20" fill="none" xmlns="http://www.w3.org/2000/svg">
<path fill-rule="evenodd" clip-rule="evenodd" d="M16.9997 17.168C17.3679 17.168 17.6663 16.8695 17.6663 16.5013L17.6663 11.263C17.6663 9.05384 15.8755 7.26298 13.6663 7.26298L4.60915 7.26298L7.89942 3.97271C8.15977 3.71236 8.15977 3.29025 7.89942 3.0299C7.63907 2.76955 7.21696 2.76955 6.95661 3.0299L2.52827 7.45824C2.26792 7.71859 2.26792 8.1407 2.52827 8.40105L6.95661 12.8294C7.21696 13.0897 7.63907 13.0897 7.89942 12.8294C8.15977 12.569 8.15977 12.1469 7.89942 11.8866L4.60915 8.59631L13.6663 8.59631C15.1391 8.59631 16.333 9.79022 16.333 11.263L16.333 16.5013C16.333 16.8695 16.6315 17.168 16.9997 17.168Z" fill="black"/>
</svg>
