<svg width="20" height="20" viewBox="0 0 20 20" fill="none" xmlns="http://www.w3.org/2000/svg">
<path fill-rule="evenodd" clip-rule="evenodd" d="M6.53574 2.50057C6.54822 2.50005 6.56071 2.49989 6.5732 2.50007C7.38798 2.51215 8.1868 2.72887 8.88925 3.13059C9.29914 3.365 9.6372 3.72186 9.90287 4.06223C9.9357 4.10429 9.96789 4.14672 9.99944 4.18935C10.031 4.14672 10.0632 4.10429 10.096 4.06223C10.3617 3.72186 10.6997 3.365 11.1096 3.13059C11.8121 2.72887 12.6109 2.51215 13.4257 2.50007C13.4382 2.49989 13.4507 2.50005 13.4631 2.50057C14.7507 2.55389 15.9705 3.09078 16.8537 4.00382C17.7348 4.91478 18.209 6.1269 18.1631 7.37803C18.1594 8.56035 17.6622 9.75439 16.9895 10.843C16.3084 11.9452 15.408 13.0023 14.5155 13.9198C12.7336 15.7519 10.9138 17.0977 10.7335 17.2194L10.3722 17.4631C10.1469 17.615 9.85195 17.615 9.62666 17.4631L9.26555 17.2195L9.26381 17.2184C9.08511 17.097 7.26568 15.7516 5.48335 13.9194C4.5909 13.002 3.69046 11.945 3.00938 10.8429C2.33667 9.75432 1.8395 8.56034 1.83581 7.37801C1.78991 6.12689 2.26403 4.91477 3.1452 4.00382C4.02839 3.09078 5.24819 2.55389 6.53574 2.50057Z" fill="#256EF4"/>
</svg>
