<svg width="32" height="32" viewBox="0 0 32 32" fill="none" xmlns="http://www.w3.org/2000/svg">
<path fill-rule="evenodd" clip-rule="evenodd" d="M12.8 7.99935C12.8 6.23204 14.2327 4.79935 16 4.79935C17.7673 4.79935 19.2 6.23204 19.2 7.99935C19.2 9.76666 17.7673 11.1993 16 11.1993C14.2327 11.1993 12.8 9.76666 12.8 7.99935ZM16 2.66602C13.0545 2.66602 10.6667 5.05383 10.6667 7.99935C10.6667 10.9449 13.0545 13.3327 16 13.3327C18.9455 13.3327 21.3333 10.9449 21.3333 7.99935C21.3333 5.05383 18.9455 2.66602 16 2.66602ZM26.9892 18.123C20.5695 13.6457 12.0724 13.5214 5.52443 17.809L5.08524 18.0966C4.40804 18.5401 4 19.295 4 20.1045V25.5992C4 26.9247 5.07452 27.9992 6.4 27.9992H25.599C26.9244 27.9992 27.999 26.9247 27.999 25.5992V20.0584C27.999 19.287 27.6219 18.5643 26.9892 18.123ZM6.69311 19.5938C12.5122 15.7833 20.0636 15.8938 25.7688 19.8728C25.8295 19.9151 25.8656 19.9844 25.8656 20.0584V25.5992C25.8656 25.7465 25.7462 25.8658 25.599 25.8658H6.4C6.25272 25.8658 6.13333 25.7465 6.13333 25.5992V20.1045C6.13333 20.0145 6.17867 19.9306 6.25392 19.8814L6.69311 19.5938Z" fill="#33363D"/>
</svg>
