<svg width="25" height="24" viewBox="0 0 25 24" fill="none" xmlns="http://www.w3.org/2000/svg">
<g opacity="0.5">
<path fill-rule="evenodd" clip-rule="evenodd" d="M20.6992 3C20.9114 2.99999 21.1149 3.08428 21.2649 3.23431C21.4149 3.38434 21.4992 3.58782 21.4992 3.8V20.2028C21.4992 20.6446 21.141 21.0028 20.6992 21.0028H13.3C12.8582 21.0028 12.5 20.6446 12.5 20.2028C12.5 19.761 12.8582 19.4028 13.3 19.4028H19.8992V4.60002L13.3 4.6002C12.8582 4.60021 12.5 4.24204 12.5 3.80022C12.5 3.35839 12.8582 3.00021 13.3 3.0002L20.6992 3ZM16.0545 12.5769C16.2113 12.426 16.3 12.2178 16.3 12.0002C16.3 11.7826 16.2113 11.5744 16.0545 11.4235L10.8545 6.42353C10.536 6.11729 10.0296 6.12722 9.72333 6.44571C9.4171 6.76419 9.42703 7.27063 9.74551 7.57686L13.5138 11.2002H3.90156C3.45973 11.2002 3.10156 11.5584 3.10156 12.0002C3.10156 12.442 3.45973 12.8002 3.90156 12.8002H13.5138L9.74551 16.4235C9.42703 16.7298 9.4171 17.2362 9.72333 17.5547C10.0296 17.8732 10.536 17.8831 10.8545 17.5769L16.0545 12.5769Z" fill="#256EF4"/>
</g>
</svg>
