<svg width="20" height="20" viewBox="0 0 20 20" fill="none" xmlns="http://www.w3.org/2000/svg">
<g clip-path="url(#clip0_225_15820)">
<path d="M2.24171 16.125C2.24171 17.2479 2.97466 18.1666 3.87502 18.1666C4.27327 18.1577 4.65041 17.9858 4.9183 17.6909C5.35874 17.2424 6.11963 17.4388 6.2879 18.0445C6.36398 18.3184 6.2922 18.6121 6.09837 18.82C5.52366 19.4386 4.71941 19.7931 3.87502 19.8C2.07327 19.8 0.608398 18.1513 0.608398 16.125C0.608398 14.0987 2.07327 12.45 3.87502 12.45C4.71941 12.4569 5.52366 12.8114 6.09837 13.43C6.52706 13.8899 6.29721 14.6413 5.68465 14.7827C5.4077 14.8466 5.11744 14.7619 4.9183 14.5591C4.65041 14.2643 4.27327 14.0923 3.87502 14.0834C2.97466 14.0834 2.24171 15.0021 2.24171 16.125ZM10.3674 15.2379C9.95912 15.1195 9.5365 14.998 9.30069 14.8459C9.17309 14.7632 9.17513 14.7438 9.18636 14.652C9.18998 14.5015 9.266 14.3619 9.39052 14.2773C9.8601 13.9588 10.9565 14.1007 11.4138 14.2202C12.022 14.3832 12.5787 13.8267 12.4158 13.2184C12.3402 12.9361 12.1197 12.7156 11.8374 12.6399C11.621 12.5838 9.6937 12.1071 8.48505 12.9217C7.96762 13.2689 7.63106 13.828 7.56631 14.4478C7.36215 16.0689 8.95973 16.5313 9.9142 16.8069C11.1453 17.1632 11.2535 17.3092 11.2188 17.5817C11.1872 17.8277 11.0902 17.9227 11.0004 17.9829C10.5308 18.2953 9.45177 18.1421 9.00465 18.0196C8.39799 17.8503 7.83551 18.4012 7.99218 19.0112C8.06489 19.2944 8.28313 19.5172 8.56468 19.5958C9.07099 19.7284 9.59193 19.797 10.1153 19.8C10.7094 19.8 11.3709 19.6979 11.9007 19.3447C12.4302 18.9928 12.7744 18.4224 12.8389 17.79C13.0624 16.0229 11.377 15.5299 10.3674 15.2379ZM18.8495 12.498C18.4246 12.3459 17.957 12.5672 17.8051 12.9921L16.5332 16.5548L15.2602 12.9921C15.0489 12.4 14.2758 12.2587 13.8686 12.7379C13.6797 12.9602 13.6238 13.2665 13.7219 13.5413L15.7635 19.2579C15.9747 19.85 16.7477 19.9915 17.1549 19.5125C17.2189 19.4372 17.2687 19.351 17.3019 19.2579L19.3435 13.5413C19.4949 13.1168 19.2738 12.6499 18.8495 12.498ZM19.3915 6.73345V9.18342C19.3915 9.81209 18.711 10.205 18.1665 9.89066C17.9138 9.74479 17.7582 9.47519 17.7582 9.18342V7.55011H12.8582C12.4072 7.55011 12.0416 7.18448 12.0416 6.73345V1.83351H3.05837V9.18342C3.05837 9.81209 2.37782 10.205 1.83338 9.89066C1.58071 9.74479 1.42505 9.47519 1.42505 9.18342V1.83351C1.42505 0.931453 2.15631 0.200196 3.05837 0.200196H12.8582C13.0749 0.200024 13.2828 0.285953 13.436 0.439071L19.1526 6.15566C19.3057 6.30895 19.3917 6.5168 19.3915 6.73345ZM16.6036 5.9168L13.6749 2.98805V5.9168H16.6036Z" fill="white"/>
</g>
<defs>
<clipPath id="clip0_225_15820">
<rect width="20" height="20" fill="white"/>
</clipPath>
</defs>
</svg>
