<svg width="52" height="66" viewBox="0 0 52 66" fill="none" xmlns="http://www.w3.org/2000/svg">
<path d="M25.3868 4.91609L26 6.02984L26.6133 4.91609C26.9265 4.34709 27.3834 3.87172 27.9372 3.53764C28.4852 3.20715 29.109 3.02639 29.7471 3.0128C30.7796 3.06338 31.752 3.51984 32.4542 4.28547C33.1613 5.05636 33.5366 6.07796 33.4972 7.12719L33.4967 7.14032V7.15345C33.4967 8.13614 33.0978 9.21536 32.4244 10.3225C31.7554 11.4224 30.849 12.495 29.9147 13.4502C28.0848 15.321 26.2131 16.6761 26.0001 16.8284C25.7784 16.6692 23.9111 15.3161 22.0853 13.4496C21.1511 12.4945 20.2447 11.4221 19.5757 10.3223C18.9023 9.21526 18.5034 8.13613 18.5034 7.15345V7.14032L18.5029 7.12719C18.4635 6.07796 18.8388 5.05636 19.5459 4.28547C20.2481 3.51984 21.2205 3.06338 22.253 3.0128C22.8911 3.02639 23.5149 3.20715 24.0629 3.53764C24.6167 3.87172 25.0736 4.34709 25.3868 4.91609Z" stroke="#F0F0F0" stroke-width="1.4"/>
<path d="M24.6925 39.42V40.596H14.6965V36.928H16.0125V39.42H24.6925ZM26.1345 32.266V33.456H24.4265V37.782H23.1105V28.64H24.4265V32.266H26.1345ZM22.4105 34.674V35.864H13.8985V34.674H16.2225V31.86H17.5245V34.674H22.4105ZM20.8705 33.624H19.5545V30.068H14.4305V28.892H20.8705V33.624ZM35.982 35.444V28.64H37.298V35.444H35.982ZM29.402 28.64H30.718C30.718 28.9947 30.6993 29.3447 30.662 29.69C30.6247 30.026 30.5687 30.3573 30.494 30.684C30.886 31.3373 31.3947 31.958 32.02 32.546C32.6453 33.1247 33.3173 33.61 34.036 34.002L33.224 35.01C32.6267 34.6553 32.048 34.2307 31.488 33.736C30.928 33.232 30.438 32.7 30.018 32.14C29.738 32.7933 29.374 33.3953 28.926 33.946C28.478 34.4873 27.9553 34.9587 27.358 35.36L26.35 34.464C27.3487 33.848 28.1047 33.0453 28.618 32.056C29.1407 31.0573 29.402 29.9187 29.402 28.64ZM27.428 40.596V36.004H37.298V40.596H27.428ZM35.982 39.434V37.166H28.744V39.434H35.982ZM12.9578 60.014V61.204H8.1278V49.892H12.6218V51.082H9.4438V60.014H12.9578ZM15.5618 49.696V61.596H14.2458V55.814H11.4178V54.638H14.2458V49.696H15.5618ZM18.3898 61.736H17.0738V49.64H18.3898V61.736ZM30.9953 49.64V61.736H29.6793V49.64H30.9953ZM21.9093 53.588V57.536C21.9093 58.46 22.0679 59.1273 22.3853 59.538C22.7119 59.9487 23.1926 60.154 23.8273 60.154C24.4433 60.154 24.9146 59.9487 25.2413 59.538C25.5679 59.1273 25.7313 58.46 25.7313 57.536V53.588C25.7313 52.664 25.5679 51.9967 25.2413 51.586C24.9146 51.166 24.4433 50.956 23.8273 50.956C23.1926 50.956 22.7119 51.166 22.3853 51.586C22.0679 51.9967 21.9093 52.664 21.9093 53.588ZM20.5933 57.536V53.588C20.5933 52.3 20.8919 51.3433 21.4893 50.718C22.0866 50.0833 22.8659 49.766 23.8273 49.766C24.7793 49.766 25.5539 50.0833 26.1513 50.718C26.7486 51.3433 27.0473 52.3 27.0473 53.588V57.536C27.0473 58.8147 26.7486 59.7667 26.1513 60.392C25.5539 61.0173 24.7793 61.33 23.8273 61.33C22.8659 61.33 22.0866 61.0173 21.4893 60.392C20.8919 59.7667 20.5933 58.8147 20.5933 57.536ZM39.6527 61.204H33.3387V49.892H38.9947V51.082H34.6547V54.638H38.8687V55.814H34.6547V60.014H39.6527V61.204ZM42.2847 55.814H39.5267V54.638H42.2847V49.64H43.6007V61.736H42.2847V55.814Z" fill="#F8F8F8"/>
</svg>
