<svg width="52" height="45" viewBox="0 0 52 45" fill="none" xmlns="http://www.w3.org/2000/svg">
<path fill-rule="evenodd" clip-rule="evenodd" d="M29.9363 8.01163L26.6999 11.248V2.15778H25.2999V11.248L22.0636 8.01163L21.0736 9.00158L25.5049 13.4329L25.9999 13.9279L26.4949 13.4329L30.9262 9.00158L29.9363 8.01163ZM17.8 13.5001V16.5001C17.8 16.8867 18.1134 17.2001 18.5 17.2001H33.5C33.8866 17.2001 34.2 16.8867 34.2 16.5001V13.5001H32.8V15.8001H19.2V13.5001H17.8Z" fill="#F0F0F0"/>
<path d="M9.18906 40.204H1.82506V28.892H8.40506V30.082H3.14106V39.014H9.18906V40.204ZM11.8211 34.646V40.736H10.5051V28.64H11.8211V33.47H13.5291V34.646H11.8211ZM21.6685 33.638H17.7205C16.6939 33.638 15.8865 33.428 15.2985 33.008C14.7199 32.588 14.4305 31.9627 14.4305 31.132C14.4305 30.376 14.7199 29.774 15.2985 29.326C15.8865 28.8687 16.6939 28.64 17.7205 28.64H21.6685C22.6765 28.64 23.4745 28.8687 24.0625 29.326C24.6599 29.774 24.9585 30.376 24.9585 31.132C24.9585 31.9627 24.6599 32.588 24.0625 33.008C23.4745 33.428 22.6765 33.638 21.6685 33.638ZM17.7205 32.448H21.6685C22.2845 32.448 22.7419 32.3313 23.0405 32.098C23.3485 31.8553 23.5025 31.5333 23.5025 31.132C23.5025 30.74 23.3485 30.4227 23.0405 30.18C22.7419 29.9373 22.2845 29.816 21.6685 29.816H17.7205C17.1605 29.816 16.7125 29.9373 16.3765 30.18C16.0405 30.4227 15.8725 30.74 15.8725 31.132C15.8725 31.5333 16.0219 31.8553 16.3205 32.098C16.6192 32.3313 17.0859 32.448 17.7205 32.448ZM20.4085 38.118H19.0925V35.878H13.8985V34.688H25.4765V35.878H20.4085V38.118ZM24.9585 39.42V40.596H14.5565V37.054H15.8725V39.42H24.9585ZM37.564 35.024V36.2H27.162V31.93H36.108V30.082H27.162V28.892H37.424V33.106H28.478V35.024H37.564ZM38.082 39.014V40.204H26.504V39.014H31.642V36.872H32.958V39.014H38.082ZM41.0835 34.296H50.1695V35.472H39.7675V28.892H50.0295V30.082H41.0835V34.296ZM50.6875 39.014V40.204H39.1095V39.014H50.6875Z" fill="#F8F8F8"/>
</svg>
