<svg width="52" height="45" viewBox="0 0 52 45" fill="none" xmlns="http://www.w3.org/2000/svg">
<path fill-rule="evenodd" clip-rule="evenodd" d="M25.9999 2C21.5816 2 17.9999 5.58172 17.9999 10C17.9999 11.2091 18.2681 12.3555 18.7483 13.383L18.0848 16.5702C18.0114 16.9228 18.3236 17.235 18.6762 17.1616L21.4535 16.5835C22.7445 17.4767 24.3111 18 25.9999 18C30.4182 18 33.9999 14.4183 33.9999 10C33.9999 5.58172 30.4182 2 25.9999 2Z" fill="#F0F0F0"/>
<path d="M25.0673 12.2348V12.124C25.0702 11.6098 25.1185 11.2007 25.2122 10.8967C25.3088 10.5927 25.4452 10.3484 25.6213 10.1637C25.7974 9.97625 26.0119 9.80437 26.2648 9.64812C26.4381 9.54017 26.5929 9.42227 26.7293 9.29443C26.8685 9.16375 26.9778 9.01886 27.0574 8.85977C27.1369 8.69784 27.1767 8.51744 27.1767 8.31858C27.1767 8.09415 27.1241 7.89954 27.019 7.73477C26.9139 7.57 26.7719 7.44216 26.5929 7.35125C26.4168 7.26034 26.2193 7.21489 26.0006 7.21489C25.7989 7.21489 25.6071 7.25892 25.4253 7.34699C25.2463 7.43221 25.0972 7.5629 24.9778 7.73903C24.8614 7.91233 24.796 8.1325 24.7818 8.39954H23.2648C23.279 7.85977 23.4097 7.40807 23.6568 7.04443C23.9068 6.68079 24.2364 6.40807 24.6455 6.22625C25.0574 6.04443 25.5119 5.95352 26.0091 5.95352C26.5517 5.95352 27.029 6.04869 27.4409 6.23903C27.8557 6.42937 28.1781 6.70068 28.4082 7.05295C28.6412 7.40239 28.7577 7.81716 28.7577 8.29727C28.7577 8.62114 28.7051 8.91091 28.6 9.16659C28.4977 9.42227 28.3514 9.64954 28.1611 9.84841C27.9707 10.0473 27.7449 10.2248 27.4835 10.3811C27.2534 10.5231 27.0645 10.6709 26.9168 10.8243C26.7719 10.9777 26.6639 11.1581 26.5929 11.3655C26.5247 11.57 26.4892 11.8228 26.4864 12.124V12.2348H25.0673ZM25.8088 14.8939C25.5531 14.8939 25.333 14.803 25.1483 14.6211C24.9636 14.4393 24.8713 14.2177 24.8713 13.9564C24.8713 13.7007 24.9636 13.4819 25.1483 13.3001C25.333 13.1183 25.5531 13.0274 25.8088 13.0274C26.0616 13.0274 26.2804 13.1183 26.4651 13.3001C26.6526 13.4819 26.7463 13.7007 26.7463 13.9564C26.7463 14.1297 26.7023 14.2873 26.6142 14.4294C26.529 14.5714 26.4153 14.6851 26.2733 14.7703C26.1341 14.8527 25.9793 14.8939 25.8088 14.8939Z" fill="#4857FF"/>
<path d="M17.3539 39.672H16.0379V29.158H21.4279V30.348H17.3539V33.638H21.0359V34.814H17.3539V39.672ZM27.3494 39.672L26.7614 37.194H23.8494L23.2614 39.672H21.8194L24.5774 29.102H26.0334L28.7914 39.672H27.3494ZM26.4814 36.004L26.0754 34.254L25.2914 30.796L24.5354 34.296L24.1294 36.004H26.4814ZM34.7078 36.732V32.126C34.7078 31.4727 34.5444 30.992 34.2178 30.684C33.8911 30.3667 33.4198 30.208 32.8038 30.208C32.1784 30.208 31.7024 30.3667 31.3758 30.684C31.0584 30.992 30.8998 31.4727 30.8998 32.126V36.732C30.8998 37.3947 31.0584 37.88 31.3758 38.188C31.7024 38.4867 32.1784 38.636 32.8038 38.636C32.9904 38.636 33.1584 38.622 33.3078 38.594C33.4664 38.566 33.6158 38.524 33.7558 38.468L32.6078 37.32L33.3918 36.536L34.5538 37.684C34.6004 37.5533 34.6378 37.4133 34.6658 37.264C34.6938 37.1053 34.7078 36.928 34.7078 36.732ZM36.0238 31.986V36.858C36.0238 37.222 35.9818 37.558 35.8978 37.866C35.8138 38.1647 35.6924 38.426 35.5338 38.65L36.5558 39.672L35.7578 40.47L34.6798 39.392C34.4278 39.532 34.1431 39.6347 33.8258 39.7C33.5178 39.7747 33.1771 39.812 32.8038 39.812C31.7771 39.812 30.9838 39.5553 30.4238 39.042C29.8638 38.538 29.5838 37.81 29.5838 36.858V31.986C29.5838 31.034 29.8638 30.306 30.4238 29.802C30.9838 29.2887 31.7771 29.032 32.8038 29.032C33.8211 29.032 34.6098 29.2887 35.1698 29.802C35.7391 30.306 36.0238 31.034 36.0238 31.986Z" fill="#F8F8F8"/>
</svg>
