<svg width="52" height="66" viewBox="0 0 52 66" fill="none" xmlns="http://www.w3.org/2000/svg">
<path d="M18.4999 10.0001L33.4999 10.0001" stroke="#F8F8F8" stroke-width="1.4" stroke-linecap="round"/>
<path d="M25.9999 2.50006L25.9999 17.5001" stroke="#F8F8F8" stroke-width="1.4" stroke-linecap="round"/>
<path d="M12.9578 39.014V40.204H8.1278V28.892H12.6218V30.082H9.4438V39.014H12.9578ZM15.5618 28.696V40.596H14.2458V34.814H11.4178V33.638H14.2458V28.696H15.5618ZM18.3898 40.736H17.0738V28.64H18.3898V40.736ZM30.9953 28.64V40.736H29.6793V28.64H30.9953ZM21.9093 32.588V36.536C21.9093 37.46 22.0679 38.1273 22.3853 38.538C22.7119 38.9487 23.1926 39.154 23.8273 39.154C24.4433 39.154 24.9146 38.9487 25.2413 38.538C25.5679 38.1273 25.7313 37.46 25.7313 36.536V32.588C25.7313 31.664 25.5679 30.9967 25.2413 30.586C24.9146 30.166 24.4433 29.956 23.8273 29.956C23.1926 29.956 22.7119 30.166 22.3853 30.586C22.0679 30.9967 21.9093 31.664 21.9093 32.588ZM20.5933 36.536V32.588C20.5933 31.3 20.8919 30.3433 21.4893 29.718C22.0866 29.0833 22.8659 28.766 23.8273 28.766C24.7793 28.766 25.5539 29.0833 26.1513 29.718C26.7486 30.3433 27.0473 31.3 27.0473 32.588V36.536C27.0473 37.8147 26.7486 38.7667 26.1513 39.392C25.5539 40.0173 24.7793 40.33 23.8273 40.33C22.8659 40.33 22.0866 40.0173 21.4893 39.392C20.8919 38.7667 20.5933 37.8147 20.5933 36.536ZM39.6527 40.204H33.3387V28.892H38.9947V30.082H34.6547V33.638H38.8687V34.814H34.6547V39.014H39.6527V40.204ZM42.2847 34.814H39.5267V33.638H42.2847V28.64H43.6007V40.736H42.2847V34.814ZM21.2765 56.22H18.1125C17.5525 56.22 17.0345 56.1453 16.5585 55.996C16.0919 55.8373 15.6905 55.6133 15.3545 55.324C15.0185 55.0347 14.7572 54.6893 14.5705 54.288C14.3839 53.8773 14.2905 53.4247 14.2905 52.93C14.2905 52.4447 14.3839 52.0013 14.5705 51.6C14.7572 51.1893 15.0185 50.8393 15.3545 50.55C15.6905 50.2607 16.0919 50.0367 16.5585 49.878C17.0345 49.7193 17.5525 49.64 18.1125 49.64H21.2765C21.8272 49.64 22.3359 49.7193 22.8025 49.878C23.2692 50.0367 23.6705 50.2607 24.0065 50.55C24.3425 50.8393 24.6039 51.1893 24.7905 51.6C24.9865 52.0013 25.0845 52.4447 25.0845 52.93C25.0845 53.4247 24.9865 53.8773 24.7905 54.288C24.6039 54.6893 24.3425 55.0347 24.0065 55.324C23.6705 55.6133 23.2692 55.8373 22.8025 55.996C22.3359 56.1453 21.8272 56.22 21.2765 56.22ZM18.1125 55.03H21.2765C21.9952 55.03 22.5785 54.8387 23.0265 54.456C23.4745 54.064 23.6985 53.5553 23.6985 52.93C23.6985 52.3047 23.4745 51.796 23.0265 51.404C22.5785 51.012 21.9952 50.816 21.2765 50.816H18.1125C17.3845 50.816 16.7965 51.012 16.3485 51.404C15.9005 51.796 15.6765 52.3047 15.6765 52.93C15.6765 53.5553 15.9005 54.064 16.3485 54.456C16.7965 54.8387 17.3845 55.03 18.1125 55.03ZM25.4765 60.014V61.204H13.8985V60.014H16.5305V57.004H17.8465V60.014H21.5285V57.004H22.8445V60.014H25.4765ZM27.498 56.878L26.504 55.968C26.952 55.7627 27.372 55.5107 27.764 55.212C28.156 54.904 28.5013 54.568 28.8 54.204C29.0987 53.8307 29.3413 53.4387 29.528 53.028C29.724 52.608 29.8593 52.1787 29.934 51.74H27.036V50.55H29.864V49.234H31.18V50.55H34.022V51.74H31.264C31.236 51.908 31.2033 52.076 31.166 52.244C31.1287 52.412 31.0867 52.58 31.04 52.748C31.4227 53.336 31.9313 53.8633 32.566 54.33C33.2007 54.7873 33.8633 55.1373 34.554 55.38L33.798 56.43C33.182 56.178 32.5707 55.8373 31.964 55.408C31.3667 54.9693 30.8673 54.5027 30.466 54.008C30.1207 54.624 29.6867 55.184 29.164 55.688C28.6507 56.192 28.0953 56.5887 27.498 56.878ZM34.54 61.862H30.326C29.3367 61.862 28.5853 61.6427 28.072 61.204C27.5587 60.7653 27.302 60.2193 27.302 59.566C27.302 58.9127 27.5587 58.3667 28.072 57.928C28.5853 57.4893 29.3367 57.27 30.326 57.27H34.54C35.52 57.27 36.2667 57.4893 36.78 57.928C37.3027 58.3667 37.564 58.9127 37.564 59.566C37.564 60.2193 37.3027 60.7653 36.78 61.204C36.2667 61.6427 35.52 61.862 34.54 61.862ZM30.326 60.7H34.54C35.0627 60.7 35.464 60.602 35.744 60.406C36.0333 60.21 36.178 59.93 36.178 59.566C36.178 59.2113 36.0333 58.936 35.744 58.74C35.464 58.5347 35.0627 58.432 34.54 58.432H30.326C29.794 58.432 29.3833 58.5347 29.094 58.74C28.814 58.936 28.674 59.2113 28.674 59.566C28.674 59.93 28.814 60.21 29.094 60.406C29.3833 60.602 29.794 60.7 30.326 60.7ZM35.982 49.64H37.298V56.962H35.982V53.938H33.35V52.748H35.982V49.64Z" fill="#F8F8F8"/>
</svg>
