<svg width="52" height="42" viewBox="0 0 52 42" fill="none" xmlns="http://www.w3.org/2000/svg">
<path d="M15.2195 12.732V8.126C15.2195 7.47267 15.0562 6.992 14.7295 6.684C14.4028 6.36667 13.9315 6.208 13.3155 6.208C12.6902 6.208 12.2142 6.36667 11.8875 6.684C11.5702 6.992 11.4115 7.47267 11.4115 8.126V12.732C11.4115 13.3947 11.5702 13.88 11.8875 14.188C12.2142 14.4867 12.6902 14.636 13.3155 14.636C13.5022 14.636 13.6702 14.622 13.8195 14.594C13.9782 14.566 14.1275 14.524 14.2675 14.468L13.1195 13.32L13.9035 12.536L15.0655 13.684C15.1122 13.5533 15.1495 13.4133 15.1775 13.264C15.2055 13.1053 15.2195 12.928 15.2195 12.732ZM16.5355 7.986V12.858C16.5355 13.222 16.4935 13.558 16.4095 13.866C16.3255 14.1647 16.2042 14.426 16.0455 14.65L17.0675 15.672L16.2695 16.47L15.1915 15.392C14.9395 15.532 14.6548 15.6347 14.3375 15.7C14.0295 15.7747 13.6888 15.812 13.3155 15.812C12.2888 15.812 11.4955 15.5553 10.9355 15.042C10.3755 14.538 10.0955 13.81 10.0955 12.858V7.986C10.0955 7.034 10.3755 6.306 10.9355 5.802C11.4955 5.28867 12.2888 5.032 13.3155 5.032C14.3328 5.032 15.1215 5.28867 15.6815 5.802C16.2508 6.306 16.5355 7.034 16.5355 7.986ZM22.9698 12.592V5.158H24.2858V12.858C24.2858 13.81 24.0058 14.538 23.4458 15.042C22.8858 15.5553 22.1158 15.812 21.1358 15.812C20.1465 15.812 19.3718 15.5553 18.8118 15.042C18.2518 14.538 17.9718 13.81 17.9718 12.858V5.158H19.2878V12.592C19.2878 13.32 19.4465 13.8427 19.7638 14.16C20.0811 14.4773 20.5385 14.636 21.1358 14.636C21.7238 14.636 22.1765 14.4773 22.4938 14.16C22.8111 13.8427 22.9698 13.32 22.9698 12.592ZM27.2358 15.672H25.9198V5.158H27.2358V15.672ZM34.0763 12.536H35.3923C35.3923 13.5907 35.103 14.4027 34.5243 14.972C33.955 15.532 33.1476 15.812 32.1023 15.812C31.085 15.812 30.2823 15.5553 29.6943 15.042C29.1063 14.538 28.8123 13.81 28.8123 12.858V7.986C28.8123 7.034 29.0923 6.306 29.6523 5.802C30.2123 5.28867 31.0056 5.032 32.0323 5.032C33.0683 5.032 33.8523 5.30267 34.3843 5.844C34.9163 6.38533 35.1963 7.11333 35.2243 8.028H33.9083C33.8803 7.44 33.7123 6.992 33.4043 6.684C33.1056 6.36667 32.6483 6.208 32.0323 6.208C31.407 6.208 30.931 6.36667 30.6043 6.684C30.287 7.00133 30.1283 7.482 30.1283 8.126V12.732C30.1283 13.3853 30.301 13.866 30.6463 14.174C30.9916 14.482 31.477 14.636 32.1023 14.636C32.7276 14.636 33.2083 14.454 33.5443 14.09C33.8896 13.7167 34.067 13.1987 34.0763 12.536ZM43.0043 5.158L39.5603 10.03L43.3963 15.672H41.8283L38.8183 11.094L38.0063 12.228V15.672H36.6903V5.158H38.0063V10.24L41.4223 5.158H43.0043ZM13.0141 26.158L15.3801 32.08L17.7461 26.158H19.0621V36.672H17.7461V31.758L17.8861 28.972L15.7161 34.782H14.9181L12.8881 28.986L13.0141 31.758V36.672H11.6981V26.158H13.0141ZM20.6395 26.158H25.9035V27.348H21.9555V30.638H25.5115V31.814H21.9555V35.51H26.1695V36.672H20.6395V26.158ZM28.6654 26.158L32.3474 34.124L32.2074 30.638V26.158H33.5234V36.672H32.3474L28.6654 29.056L28.7914 32.542V36.672H27.4754V26.158H28.6654ZM40.046 33.592V26.158H41.362V33.858C41.362 34.81 41.082 35.538 40.522 36.042C39.962 36.5553 39.192 36.812 38.212 36.812C37.2227 36.812 36.448 36.5553 35.888 36.042C35.328 35.538 35.048 34.81 35.048 33.858V26.158H36.364V33.592C36.364 34.32 36.5227 34.8427 36.84 35.16C37.1573 35.4773 37.6147 35.636 38.212 35.636C38.8 35.636 39.2527 35.4773 39.57 35.16C39.8873 34.8427 40.046 34.32 40.046 33.592Z" fill="#8E8E8E"/>
</svg>
