<svg width="86" height="15" viewBox="0 0 86 15" fill="none" xmlns="http://www.w3.org/2000/svg">
<path d="M24.8787 0V10.8732H17.5901V0H14.6758L14.6782 11.2129C14.6782 12.6195 15.7657 13.7603 17.1075 13.7603H25.3654C26.7071 13.7603 27.7946 12.6195 27.7946 11.2129V0H24.8803H24.8787Z" fill="#768185"/>
<path d="M54.6177 5.43191H46.8441V2.88796H56.6972V0H46.3582C45.0165 0 43.929 1.14074 43.929 2.5482V5.77166C43.929 7.17912 45.0165 8.31986 46.3582 8.31986H54.1319V10.8723H44.2723V13.7603H54.6177C55.9595 13.7603 57.047 12.6195 57.047 11.2121V7.9801C57.047 6.57265 55.9595 5.43191 54.6177 5.43191Z" fill="#768185"/>
<path d="M83.5604 5.43191H75.7867V2.88796H85.6398V0H75.3008C73.9591 0 72.8716 1.14074 72.8716 2.5482V5.77166C72.8716 7.17912 73.9591 8.31986 75.3008 8.31986H83.0745V10.8723H73.2149V13.7603H83.5604C84.9021 13.7603 85.9896 12.6195 85.9896 11.2121V7.9801C85.9896 6.57265 84.9021 5.43191 83.5604 5.43191Z" fill="#768185"/>
<path d="M13.118 5.4404H2.91431V2.8922H13.1156V0.00424699L0 0V0.00424699V13.7603H2.91431V8.32836H13.118V5.4404Z" fill="#768185"/>
<path d="M42.5626 4.16388C42.5626 1.86626 40.7876 0.00352476 38.5973 0.00267536L32.3597 0.000976562H29.4446V13.7604H32.3597V8.32424H38.262C38.9325 8.32424 39.4766 8.89503 39.4766 9.59833V13.7604H42.3918V9.651C42.3918 8.67164 41.8654 7.82224 41.0929 7.39584C41.9893 6.63308 42.5626 5.46856 42.5626 4.16388ZM38.4369 5.43628H32.3597V2.88808H38.4369C39.1074 2.88808 39.6516 3.45888 39.6516 4.16218C39.6516 4.86548 39.1074 5.43628 38.4369 5.43628Z" fill="#768185"/>
<path d="M71.4205 0H68.5061V5.43445H61.2175V0H58.3032V5.77421C58.3032 7.18082 59.3907 8.32156 60.7325 8.32156H68.507V10.8732H58.653V13.7603H68.9904C70.3321 13.7603 71.4196 12.6195 71.4196 11.2129L71.4221 0H71.4205Z" fill="#768185"/>
</svg>
