<svg width="382" height="72" viewBox="0 0 382 72" fill="none" xmlns="http://www.w3.org/2000/svg">
<g clip-path="url(#clip0_73_95)">
<path d="M110.521 0V56.8941H78.1419V0H65.1945L65.2051 58.6719C65.2051 66.0321 70.0369 72.0019 75.9971 72.0019H112.682C118.643 72.0019 123.474 66.0321 123.474 58.6719V0H110.521Z" fill="#0D1012"/>
<path d="M242.634 28.4227H208.101V15.1115H251.872V0H205.942C199.982 0 195.15 5.96975 195.15 13.3337V30.2006C195.15 37.5645 199.982 43.5342 205.942 43.5342H240.475V56.8904H196.675V72.0019H242.634C248.594 72.0019 253.426 66.0321 253.426 58.6682V41.7564C253.426 34.3925 248.594 28.4227 242.634 28.4227Z" fill="#0D1012"/>
<path d="M371.21 28.4227H336.674V15.1115H380.446V0H334.515C328.556 0 323.725 5.96975 323.725 13.3337V30.2006C323.725 37.5645 328.556 43.5342 334.515 43.5342H369.051V56.8904H325.25V72.0019H371.21C377.168 72.0019 382 66.0321 382 58.6682V41.7564C382 34.3925 377.168 28.4227 371.21 28.4227Z" fill="#0D1012"/>
<path d="M58.2754 28.4658H12.9474V15.1321H58.2648V0.0224567L0 0V72H12.9474V43.5773H58.277V28.4658H58.2754Z" fill="#0D1012"/>
<path d="M189.081 21.7869C189.081 9.7651 181.195 0.017006 171.465 0.0132632L143.756 0.00390625H130.805V72.0002H143.756V43.555H169.976C172.954 43.555 175.373 46.5417 175.373 50.2228V72.0002H188.324V50.4979C188.324 45.374 185.985 40.9294 182.554 38.6968C186.536 34.7052 189.084 28.6119 189.084 21.7851L189.081 21.7869ZM170.753 28.4453H143.756V15.1117H170.753C173.731 15.1117 176.149 18.0984 176.149 21.7776C176.149 25.4567 173.731 28.4453 170.753 28.4453Z" fill="#0D1012"/>
<path d="M317.278 -8.17313e-05H304.332V28.4357H271.953V-8.17313e-05H259.007V30.2136C259.007 37.5738 263.839 43.5435 269.799 43.5435H304.337V56.894H260.563V71.9999H306.485C312.446 71.9999 317.278 66.0302 317.278 58.67L317.29 -0.00195312H317.281L317.278 -8.17313e-05Z" fill="#0D1012"/>
</g>
<defs>
<clipPath id="clip0_73_95">
<rect width="382" height="72" fill="white"/>
</clipPath>
</defs>
</svg>
