<svg xmlns="http://www.w3.org/2000/svg" width="670" height="280" viewBox="0 0 670 280">
    <defs>
        <clipPath id="03fdpvlhna">
            <rect data-name="사각형 4870" width="670" height="280" rx="32" transform="translate(-.21)" style="fill:#cdecea"/>
        </clipPath>
        <clipPath id="e4ukokg33b">
            <path data-name="사각형 1687" style="stroke:#707070;fill:none" d="M0 0h161.713v398.805H0z"/>
        </clipPath>
        <clipPath id="t0xlji0unc">
            <path data-name="사각형 1694" style="stroke:#707070;fill:none" d="M0 0h124.927v391.877H0z"/>
        </clipPath>
    </defs>
    <g transform="translate(.21)">
        <rect data-name="사각형 3078" width="670" height="280" rx="32" transform="translate(-.21)" style="fill:#cdecea"/>
        <text data-name="수능대비" transform="translate(149.79 107)" style="letter-spacing:-.025em;font-weight:700;font-size:40px;font-family:NotoSansCJKkr-Bold,Noto Sans CJK KR;fill:#111"><tspan x="0" y="0">수능대비 </tspan></text>
        <text data-name="시기별 학습 및 대입 준비 전략 1학기" transform="translate(39.79 153)" style="font-family:NotoSansCJKkr-Medium,Noto Sans CJK KR;font-weight:500;font-size:28px;letter-spacing:-.025em;fill:#111"><tspan x="0" y="0">시기별 학습 및 대입 준비 전략 1학기</tspan></text>
        <text transform="translate(39.79 211)" style="fill:#666;font-size:26px;font-family:NotoSansCJKkr-Medium,Noto Sans CJK KR;font-weight:500;letter-spacing:-.025em"><tspan x="0" y="0">자세히보기</tspan></text>
        <text data-name="2024" transform="translate(39.79 107)" style="font-size:44px;font-family:Roboto-Bold,Roboto;letter-spacing:-.025em;font-weight:700;fill:#111"><tspan x="0" y="0">2024</tspan></text>
        <path data-name="패스 135" d="M0 0h23.957v23.957H0z" transform="translate(157.715 190.658)" style="fill:none"/>
        <path data-name="패스 136" d="m9 6 7.445 7.511L9 21.022" transform="translate(157.971 188.234)" style="stroke-linejoin:round;stroke-linecap:round;stroke:#666;stroke-width:3px;fill:none"/>
        <g data-name="마스크 그룹 4917" style="clip-path:url(#03fdpvlhna)">
            <g data-name="그룹 2135" transform="translate(536.068 46.389)" style="clip-path:url(#e4ukokg33b)">
                <path data-name="패스 2242" d="M165.356 325.593c-7.842-9.414-9.984-8.636-11.994-9.08a9.243 9.243 0 0 0-3.753.157 21.612 21.612 0 0 1 9.53 5.114 75.413 75.413 0 0 0 5.405 7.293c1.974-2.046 1.193-3.026.811-3.485" transform="translate(-23.586 -53.702)" style="fill:#447aad;stroke:#707070"/>
                <path data-name="패스 2243" d="M165.356 325.593c-7.842-9.414-9.984-8.636-11.994-9.08a9.243 9.243 0 0 0-3.753.157 21.612 21.612 0 0 1 9.53 5.114 75.413 75.413 0 0 0 5.405 7.293c1.975-2.045 1.193-3.025.812-3.484z" transform="translate(-23.586 -53.702)" style="stroke:#283030;stroke-linejoin:round;stroke-linecap:round;fill:none"/>
                <path data-name="패스 2244" d="M156.254 308.958c-3.2-2.287-3.518-4.855-3.518-4.855-8.951.732-4.857 4.18-7.612 7.886s1.935 3.886 1.935 3.886c1 .093 4.173-1.729 5.459-1.446 2.01.443 4.152-.335 11.994 9.079.382.458 1.163 1.439-.811 3.485a66.142 66.142 0 0 0 7.765-9.2 6.142 6.142 0 0 1 .5-.685c-4.374 4.044-6.377 1.17-6.377 1.17s-6.612-7.369-9.339-9.317" transform="translate(-22.742 -51.618)" style="fill:#447aad;stroke:#707070"/>
                <path data-name="패스 2245" d="M156.254 308.958c-3.2-2.287-3.518-4.855-3.518-4.855-8.951.732-4.857 4.18-7.612 7.886s1.935 3.886 1.935 3.886c1 .093 4.173-1.729 5.459-1.446 2.01.443 4.152-.335 11.994 9.079.382.458 1.163 1.439-.811 3.485h0a66.142 66.142 0 0 0 7.765-9.2 6.142 6.142 0 0 1 .5-.685c-4.374 4.044-6.377 1.17-6.377 1.17s-6.607-7.372-9.335-9.32z" transform="translate(-22.742 -51.618)" style="stroke:#283030;stroke-linejoin:round;stroke-linecap:round;fill:none"/>
                <path data-name="패스 2246" d="M162.641 294.171a26.243 26.243 0 0 0-2.47-.338c11.354 6.892 6.594 9.212 11.785 13.986s5.4 6.839 5.4 6.839a6.221 6.221 0 0 1 1.953 2.225c8.064 10.836-2.834 15.968-3.134 16.106 5.816 1.707 8.345-3.569 8.345-3.569 6.516-10.4-6.662-21.474-6.662-21.474l-6.41-4.958-.192-1.014c-1.107-2.4-2.134-6.589-8.618-7.8" transform="translate(-25.251 -49.875)" style="fill:#fff;stroke:#707070"/>
                <path data-name="패스 2247" d="M162.641 294.171a26.243 26.243 0 0 0-2.47-.338c11.354 6.892 6.594 9.212 11.785 13.986s5.4 6.839 5.4 6.839a6.221 6.221 0 0 1 1.953 2.225c8.064 10.836-2.834 15.968-3.134 16.106 5.816 1.707 8.345-3.569 8.345-3.569 6.516-10.4-6.662-21.474-6.662-21.474l-6.41-4.958-.192-1.014c-1.104-2.402-2.131-6.589-8.615-7.803z" transform="translate(-25.251 -49.875)" style="stroke:#283030;stroke-linejoin:round;stroke-linecap:round;fill:none"/>
                <path data-name="패스 2248" d="M177.732 319.105a3.757 3.757 0 0 0-.576.548c.189-.175.378-.346.576-.548" transform="translate(-27.929 -54.165)" style="fill:#fff;stroke:#707070"/>
                <path data-name="패스 2249" d="M177.732 319.105a3.757 3.757 0 0 0-.576.548c.19-.175.378-.346.576-.548z" transform="translate(-27.929 -54.165)" style="stroke:#283030;stroke-linejoin:round;stroke-linecap:round;fill:none"/>
                <path data-name="패스 2250" d="M176.184 319.01c-.2.2-.387.373-.576.548a6.248 6.248 0 0 0-.5.685 66.066 66.066 0 0 1-7.765 9.2l-.006.007s5.517 7.781 9.961 7.739l.013-.007c.3-.139 11.2-5.27 3.134-16.106a6.222 6.222 0 0 0-1.953-2.225 1.926 1.926 0 0 0-2.305.157" transform="translate(-26.381 -54.069)" style="fill:#fff;stroke:#707070"/>
                <path data-name="패스 2251" d="M176.184 319.01c-.2.2-.387.373-.576.548a6.248 6.248 0 0 0-.5.685 66.066 66.066 0 0 1-7.765 9.2l-.006.007s5.517 7.781 9.961 7.739l.013-.007c.3-.139 11.2-5.27 3.134-16.106a6.222 6.222 0 0 0-1.953-2.225 1.926 1.926 0 0 0-2.308.159z" transform="translate(-26.381 -54.069)" style="stroke:#283030;stroke-linejoin:round;stroke-linecap:round;fill:none"/>
                <path data-name="패스 2252" d="M160.17 293.832" transform="translate(-25.251 -49.875)" style="fill:#5bbbb3;stroke:#707070"/>
                <path data-name="패스 2253" d="M160.17 293.832h0z" transform="translate(-25.251 -49.875)" style="stroke:#283030;stroke-linejoin:round;stroke-linecap:round;fill:none"/>
                <path data-name="패스 2254" d="M158.4 293.817a18.662 18.662 0 0 0-9.476 1.58 8.031 8.031 0 0 1 3.711 4.459s1.157 5.056 4.358 7.343c2.727 1.948 9.339 9.317 9.339 9.317s2 2.875 6.377-1.17a3.711 3.711 0 0 1 .576-.548 1.926 1.926 0 0 1 2.305-.157s-.213-2.064-5.4-6.839-.43-7.094-11.784-13.986z" transform="translate(-23.478 -49.86)" style="fill:#447aad;stroke:#707070"/>
                <path data-name="패스 2255" d="M158.4 293.817a18.662 18.662 0 0 0-9.476 1.58 8.031 8.031 0 0 1 3.711 4.459s1.157 5.056 4.358 7.343c2.727 1.948 9.339 9.317 9.339 9.317s2 2.875 6.377-1.17a3.711 3.711 0 0 1 .576-.548 1.926 1.926 0 0 1 2.305-.157s-.213-2.064-5.4-6.839-.43-7.094-11.784-13.986z" transform="translate(-23.478 -49.86)" style="stroke:#283030;stroke-linejoin:round;stroke-linecap:round;fill:none"/>
                <path data-name="패스 2257" d="M180.577 318.916z" transform="translate(-28.469 -54.133)" style="stroke:#283030;stroke-linejoin:round;stroke-linecap:round;fill:none"/>
                <path data-name="패스 2258" d="m165.172 313.649-2.166 9.085a.691.691 0 0 1-.831.506l-.339-.079a.681.681 0 0 1-.514-.818l2.166-9.085a.691.691 0 0 1 .831-.506l.339.079a.68.68 0 0 1 .514.818" transform="translate(-25.43 -53.083)" style="fill:#fff;stroke:#707070"/>
                <path data-name="패스 2259" d="m.679 0 9.339.03a.691.691 0 0 1 .682.693v.348a.681.681 0 0 1-.679.688l-9.337-.03A.691.691 0 0 1 0 1.037V.688A.68.68 0 0 1 .679 0z" transform="rotate(-76.777 238.216 49.296)" style="stroke:#283030;stroke-linecap:round;fill:none"/>
                <path data-name="패스 2260" d="m167.178 316.853-8.078 4.622a.767.767 0 0 1-1.039-.271l-.106-.179a.74.74 0 0 1 .274-1.021l8.078-4.622a.767.767 0 0 1 1.039.271l.106.179a.74.74 0 0 1-.274 1.021" transform="translate(-24.886 -53.516)" style="fill:#fff;stroke:#707070"/>
                <path data-name="패스 2261" d="m167.178 316.853-8.078 4.622a.767.767 0 0 1-1.039-.271l-.106-.179a.74.74 0 0 1 .274-1.021l8.078-4.622a.767.767 0 0 1 1.039.271l.106.179a.74.74 0 0 1-.274 1.021z" transform="translate(-24.886 -53.516)" style="stroke:#283030;stroke-linejoin:round;stroke-linecap:round;fill:none"/>
                <path data-name="패스 2262" d="m159.77 309.353-1.988 9.125a.691.691 0 0 1-.82.522l-.34-.072a.681.681 0 0 1-.53-.809l1.987-9.124a.692.692 0 0 1 .821-.523l.34.073a.68.68 0 0 1 .53.808" transform="translate(-24.606 -52.357)" style="fill:#fff;stroke:#707070"/>
                <path data-name="패스 2263" d="m159.77 309.353-1.988 9.125a.691.691 0 0 1-.82.522l-.34-.072a.681.681 0 0 1-.53-.809l1.987-9.124a.692.692 0 0 1 .821-.523l.34.073a.68.68 0 0 1 .53.808z" transform="translate(-24.606 -52.357)" style="stroke:#283030;stroke-linejoin:round;stroke-linecap:round;fill:none"/>
                <path data-name="패스 2264" d="m161.82 312.5-7.986 4.774a.767.767 0 0 1-1.044-.251l-.109-.178a.74.74 0 0 1 .254-1.026l7.986-4.774a.768.768 0 0 1 1.044.251l.109.178a.74.74 0 0 1-.254 1.026" transform="translate(-24.053 -52.778)" style="fill:#fff;stroke:#707070"/>
                <path data-name="패스 2265" d="m.749 0 9.306.06a.766.766 0 0 1 .761.756v.209a.741.741 0 0 1-.75.745l-9.3-.059A.767.767 0 0 1 0 .953V.744A.74.74 0 0 1 .749 0z" transform="rotate(-31.236 535.291 -97.66)" style="stroke:#283030;stroke-linecap:round;fill:none"/>
                <path data-name="패스 2266" d="m170.424 318.342-2.167 9.085a.69.69 0 0 1-.831.506l-.339-.078a.682.682 0 0 1-.515-.819l2.166-9.085a.692.692 0 0 1 .831-.506l.339.079a.681.681 0 0 1 .514.818" transform="translate(-26.258 -53.88)" style="fill:#fff;stroke:#707070"/>
                <path data-name="패스 2267" d="m.679 0 9.337.03a.693.693 0 0 1 .684.694v.346a.681.681 0 0 1-.679.688L.684 1.729A.691.691 0 0 1 0 1.037V.688A.68.68 0 0 1 .679 0z" transform="rotate(-76.777 242.887 48.453)" style="stroke:#283030;stroke-linecap:round;fill:none"/>
                <path data-name="패스 2268" d="m172.43 321.546-8.078 4.622a.767.767 0 0 1-1.039-.271l-.106-.179a.741.741 0 0 1 .274-1.021l8.078-4.622a.768.768 0 0 1 1.039.271l.106.179a.741.741 0 0 1-.274 1.021" transform="translate(-25.714 -54.312)" style="fill:#fff;stroke:#707070"/>
                <path data-name="패스 2269" d="m172.43 321.546-8.078 4.622a.767.767 0 0 1-1.039-.271l-.106-.179a.741.741 0 0 1 .274-1.021l8.078-4.622a.768.768 0 0 1 1.039.271l.106.179a.741.741 0 0 1-.274 1.021z" transform="translate(-25.714 -54.312)" style="stroke:#283030;stroke-linejoin:round;stroke-linecap:round;fill:none"/>
                <path data-name="패스 2270" d="M147.831 314.84s2.442-3.617 1.995-7.413l3.66.492s.381 4.7-1.954 7.159z" transform="translate(-23.306 -52.183)" style="fill:#fff;stroke:#707070"/>
                <path data-name="패스 2271" d="M147.831 314.84s2.442-3.617 1.995-7.413l3.66.492s.381 4.7-1.954 7.159z" transform="translate(-23.306 -52.183)" style="stroke:#283030;stroke-linejoin:round;stroke-linecap:round;fill:none"/>
                <path data-name="패스 2272" d="m123.864 295.072-4.59 1.914-3.154-43.086-28.18 3s4.779 72.346 19.29 72.581c6.194.1 14.86-4.6 22.761-10.025 1.363-11.909-2.97-20.133-6.126-24.386" transform="translate(-13.864 -43.097)" style="fill:#f8dcd8;stroke:#707070"/>
                <path data-name="패스 2273" d="m123.864 295.072-4.59 1.914-3.154-43.086-28.18 3s4.779 72.346 19.29 72.581c6.194.1 14.86-4.6 22.761-10.025 1.363-11.907-2.97-20.13-6.127-24.384z" transform="translate(-13.864 -43.097)" style="stroke:#283030;stroke-linejoin:round;stroke-linecap:round;fill:none"/>
                <path data-name="패스 2274" d="m146.03 295.73-15.442 6.438c3.156 4.253 7.489 12.477 6.126 24.386a196.766 196.766 0 0 0 19.841-15.854s4.71-15.753-10.525-14.969" transform="translate(-20.588 -50.192)" style="fill:#fff;stroke:#707070"/>
                <path data-name="패스 2275" d="m146.03 295.73-15.442 6.438c3.156 4.253 7.489 12.477 6.126 24.386a196.766 196.766 0 0 0 19.841-15.854s4.71-15.754-10.525-14.97z" transform="translate(-20.588 -50.192)" style="stroke:#283030;stroke-linejoin:round;stroke-linecap:round;fill:none"/>
                <path data-name="패스 2276" d="m51.105 371.666 2.426 49.272s12.706 6.269 18.515-4.259c0 0 2.135-23.33 2.588-45.246-8.809 4.1-18.2 2.069-23.528.233" transform="translate(-8.057 -63.047)" style="fill:#fff;stroke:#707070"/>
                <path data-name="패스 2277" d="m51.105 371.666 2.426 49.272s12.706 6.269 18.515-4.259c0 0 2.135-23.33 2.588-45.246-8.81 4.103-18.202 2.067-23.529.233z" transform="translate(-8.057 -63.047)" style="stroke:#283030;stroke-linejoin:round;stroke-linecap:round;fill:none"/>
                <path data-name="패스 2278" d="m72.843 317.163 7.162-58.784-31.025-24.2v77.831l1.79 36.355c5.327 1.835 14.72 3.869 23.528-.233.252-12.177-.015-23.916-1.456-30.974" transform="translate(-7.722 -39.75)" style="fill:#f8dcd8;stroke:#707070"/>
                <path data-name="패스 2279" d="m72.843 317.163 7.162-58.784-31.025-24.2v77.831l1.79 36.355c5.327 1.835 14.72 3.869 23.528-.233.252-12.172-.015-23.912-1.455-30.969z" transform="translate(-7.722 -39.75)" style="stroke:#283030;stroke-linejoin:round;stroke-linecap:round;fill:none"/>
                <path data-name="패스 2280" d="M8.764 69.556s5.762-2.809 16.452-1.261" transform="translate(-1.382 -11.513)" style="stroke:#283030;stroke-linejoin:round;stroke-linecap:round;fill:none"/>
                <path data-name="패스 2281" d="M48.806 209.7 35.99 281.914s54.226 18.894 92.79-3.02c.953-2.675-5.707-16.7-5.707-16.7l-13.006-49.5z" transform="translate(-5.674 -35.594)" style="fill:#447aad;stroke:#707070"/>
                <path data-name="패스 2282" d="M48.806 209.7 35.99 281.914s54.226 18.894 92.79-3.02c.953-2.675-5.707-16.7-5.707-16.7l-13.006-49.5z" transform="translate(-5.674 -35.594)" style="stroke:#283030;stroke-linejoin:round;stroke-linecap:round;fill:none"/>
                <path data-name="패스 2283" d="M3.782 7.636s-5.259 12.7 2.274 16.108L5.584 31l11.975-.191.2-8.479s5.987-4.038.681-14.755z" transform="translate(-.315 -1.286)" style="fill:#f8dcd8;stroke:#707070"/>
                <path data-name="패스 2284" d="M3.782 7.636s-5.259 12.7 2.274 16.108L5.584 31l11.975-.191.2-8.479s5.987-4.038.681-14.755z" transform="translate(-.315 -1.286)" style="stroke:#283030;stroke-linejoin:round;stroke-linecap:round;fill:none"/>
                <path data-name="패스 2285" d="m19.782 8.363-.612-5A2.342 2.342 0 0 1 21.23.768 2.361 2.361 0 0 1 23.859 2.8l.613 5.006a2.362 2.362 0 0 1-4.69.557" transform="translate(-3.019 -.127)" style="fill:#f8dcd8;stroke:#707070"/>
                <path data-name="패스 2286" d="m19.782 8.363-.612-5A2.342 2.342 0 0 1 21.23.768h0A2.361 2.361 0 0 1 23.859 2.8l.613 5.006a2.362 2.362 0 0 1-4.69.557z" transform="translate(-3.019 -.127)" style="stroke:#283030;stroke-linejoin:round;stroke-linecap:round;fill:none"/>
                <path data-name="패스 2287" d="m13.982 9.063-.612-5.007a2.342 2.342 0 0 1 2.061-2.59A2.361 2.361 0 0 1 18.059 3.5l.613 5a2.341 2.341 0 0 1-2.061 2.59 2.361 2.361 0 0 1-2.627-2.032" transform="translate(-2.105 -.246)" style="fill:#f8dcd8;stroke:#707070"/>
                <path data-name="패스 2288" d="m13.982 9.063-.612-5.007a2.342 2.342 0 0 1 2.061-2.59h0A2.361 2.361 0 0 1 18.059 3.5l.613 5a2.341 2.341 0 0 1-2.061 2.59h0a2.361 2.361 0 0 1-2.629-2.027z" transform="translate(-2.105 -.246)" style="stroke:#283030;stroke-linejoin:round;stroke-linecap:round;fill:none"/>
                <path data-name="패스 2289" d="M8.183 9.763 7.57 4.757a2.343 2.343 0 0 1 2.062-2.59A2.361 2.361 0 0 1 12.26 4.2l.613 5a2.343 2.343 0 0 1-2.062 2.59 2.362 2.362 0 0 1-2.628-2.027" transform="translate(-1.191 -.365)" style="fill:#f8dcd8;stroke:#707070"/>
                <path data-name="패스 2290" d="M8.183 9.763 7.57 4.757a2.343 2.343 0 0 1 2.062-2.59h0A2.361 2.361 0 0 1 12.26 4.2l.613 5a2.343 2.343 0 0 1-2.062 2.59h0a2.362 2.362 0 0 1-2.628-2.027z" transform="translate(-1.191 -.365)" style="stroke:#283030;stroke-linejoin:round;stroke-linecap:round;fill:none"/>
                <path data-name="패스 2291" d="m2.384 10.463-.613-5.006a2.343 2.343 0 0 1 2.061-2.59A2.362 2.362 0 0 1 6.461 4.9l.613 5a2.341 2.341 0 0 1-2.062 2.59 2.362 2.362 0 0 1-2.627-2.032" transform="translate(-.277 -.484)" style="fill:#f8dcd8;stroke:#707070"/>
                <path data-name="패스 2292" d="m2.384 10.463-.613-5.006a2.343 2.343 0 0 1 2.061-2.59h0A2.362 2.362 0 0 1 6.461 4.9l.613 5a2.341 2.341 0 0 1-2.062 2.59h0a2.362 2.362 0 0 1-2.628-2.027z" transform="translate(-.277 -.484)" style="stroke:#283030;stroke-linejoin:round;stroke-linecap:round;fill:none"/>
                <path data-name="패스 2293" d="M13.178 19.787c3.742-5.6 7.25-3.2 7.25-3.2l-.449-2.332a1.868 1.868 0 0 1 1.354-2.343 2.058 2.058 0 0 1 2.36 1.538 33.972 33.972 0 0 1 .992 3.834c.748 7.351-8.982 7.48-8.982 7.48" transform="translate(-2.078 -2.016)" style="fill:#f8dcd8;stroke:#707070"/>
                <path data-name="패스 2294" d="M13.178 19.787c3.742-5.6 7.25-3.2 7.25-3.2l-.449-2.332a1.868 1.868 0 0 1 1.354-2.343 2.058 2.058 0 0 1 2.36 1.538 33.972 33.972 0 0 1 .992 3.834c.748 7.351-8.982 7.48-8.982 7.48" transform="translate(-2.078 -2.016)" style="stroke:#283030;stroke-linejoin:round;stroke-linecap:round;fill:none"/>
                <path data-name="패스 2295" d="M48.751 61.559c.478-7.8 3.041-21.663 18.145-25.652 0 0 38.125-11.019 34.85 34.027 0 0-1.13 14.926 10.3 21.774s13.807 22.54 0 23.611c0 0 6.19-5.455 0-13.337 0 0 .952 13.205-8.094 13.337h-48.41s-6.346-3.395-5.632-15.123c0 0-8.808 10.91.714 16.016 0 0-12.619-2.969-5.323-22.6s3.112-26.547 3.449-32.054" transform="translate(-6.784 -5.893)" style="fill:#ac7661;stroke:#707070"/>
                <path data-name="패스 2296" d="M48.751 61.559c.478-7.8 3.041-21.663 18.145-25.652 0 0 38.125-11.019 34.85 34.027 0 0-1.13 14.926 10.3 21.774s13.807 22.54 0 23.611c0 0 6.19-5.455 0-13.337 0 0 .952 13.205-8.094 13.337h-48.41s-6.346-3.395-5.632-15.123c0 0-8.808 10.91.714 16.016 0 0-12.619-2.969-5.323-22.6s3.113-26.546 3.45-32.053z" transform="translate(-6.784 -5.893)" style="stroke:#283030;stroke-linejoin:round;stroke-linecap:round;fill:none"/>
                <path data-name="패스 2297" d="M2.468 32.735s11.843-2.208 19.863.456l.237 5.891a53.687 53.687 0 0 1 2.641 6.83c1.029 3.459 7.339 37.457 7.339 37.457l5.02 14.707 1.069 37.446S20.65 123.557 10.143 93.427-.618 42.469 2.468 39.886z" transform="translate(-.118 -5.411)" style="fill:#fff;stroke:#707070"/>
                <path data-name="패스 2298" d="M2.468 32.735s11.843-2.208 19.863.456l.237 5.891a53.687 53.687 0 0 1 2.641 6.83c1.029 3.459 7.339 37.457 7.339 37.457l5.02 14.707 1.069 37.446S20.65 123.557 10.143 93.427-.618 42.469 2.468 39.886z" transform="translate(-.118 -5.411)" style="stroke:#283030;stroke-linejoin:round;stroke-linecap:round;fill:none"/>
                <path data-name="패스 2299" d="m84.545 131.854 4.213-46.23-20.513-2.106L67 123.652" transform="translate(-10.563 -14.176)" style="fill:#f8dcd8;stroke:#707070"/>
                <path data-name="패스 2300" d="m84.545 131.854 4.213-46.23-20.513-2.106L67 123.652" transform="translate(-10.563 -14.176)" style="stroke:#283030;stroke-linejoin:round;stroke-linecap:round;fill:none"/>
                <path data-name="패스 2301" d="M45.767 72.255a6.5 6.5 0 1 1 5.741 7.5 6.719 6.719 0 0 1-5.741-7.5" transform="translate(-7.209 -11.206)" style="fill:#f8dcd8;stroke:#707070"/>
                <path data-name="패스 2302" d="M45.767 72.255a6.5 6.5 0 1 1 5.741 7.5 6.719 6.719 0 0 1-5.741-7.5z" transform="translate(-7.209 -11.206)" style="stroke:#283030;stroke-linejoin:round;stroke-linecap:round;fill:none"/>
                <path data-name="패스 2303" d="M49 73.123a3.753 3.753 0 1 1 3.317 4.335A3.883 3.883 0 0 1 49 73.123z" transform="translate(-7.722 -11.8)" style="stroke:#283030;stroke-linejoin:round;stroke-linecap:round;fill:none"/>
                <path data-name="패스 2304" d="M98.723 79.869a6.5 6.5 0 1 1 5.741 7.5 6.72 6.72 0 0 1-5.741-7.5" transform="translate(-15.558 -12.498)" style="fill:#f8dcd8;stroke:#707070"/>
                <path data-name="패스 2305" d="M98.723 79.869a6.5 6.5 0 1 1 5.741 7.5 6.72 6.72 0 0 1-5.741-7.5z" transform="translate(-15.558 -12.498)" style="stroke:#283030;stroke-linejoin:round;stroke-linecap:round;fill:none"/>
                <path data-name="패스 2306" d="M101.96 80.737a3.753 3.753 0 1 1 3.317 4.336 3.883 3.883 0 0 1-3.317-4.336z" transform="translate(-16.071 -13.093)" style="stroke:#283030;stroke-linejoin:round;stroke-linecap:round;fill:none"/>
                <path data-name="패스 2307" d="M54.342 76.224c-1.815-13.166 6.5-25.681 18.578-27.952S96.258 54.835 98.074 68s-6.5 25.68-18.579 27.952-23.337-6.562-25.153-19.728" transform="translate(-8.528 -8.133)" style="fill:#f8dcd8;stroke:#707070"/>
                <path data-name="패스 2308" d="M54.342 76.224c-1.815-13.166 6.5-25.681 18.578-27.952S96.258 54.835 98.074 68s-6.5 25.68-18.579 27.952-23.337-6.562-25.153-19.728z" transform="translate(-8.528 -8.133)" style="stroke:#283030;stroke-linejoin:round;stroke-linecap:round;fill:none"/>
                <path data-name="패스 2309" d="M70.434 75.04a1.746 1.746 0 0 1 2.159-1.153 1.708 1.708 0 0 1 .943 2.235 1.745 1.745 0 0 1-2.159 1.152 1.707 1.707 0 0 1-.943-2.234" transform="translate(-11.086 -12.527)" style="fill:#283030;stroke:#707070"/>
                <path data-name="패스 2310" d="M70.434 75.04a1.746 1.746 0 0 1 2.159-1.153 1.708 1.708 0 0 1 .943 2.235 1.745 1.745 0 0 1-2.159 1.152 1.707 1.707 0 0 1-.943-2.234z" transform="translate(-11.086 -12.527)" style="stroke:#283030;stroke-linejoin:round;stroke-linecap:round;fill:none"/>
                <path data-name="패스 2311" d="M87.317 76.764a1.746 1.746 0 0 1 2.159-1.153 1.708 1.708 0 0 1 .943 2.235A1.745 1.745 0 0 1 88.261 79a1.707 1.707 0 0 1-.943-2.234" transform="translate(-13.748 -12.82)" style="fill:#283030;stroke:#707070"/>
                <path data-name="패스 2312" d="M87.317 76.764a1.746 1.746 0 0 1 2.159-1.153 1.708 1.708 0 0 1 .943 2.235A1.745 1.745 0 0 1 88.261 79a1.707 1.707 0 0 1-.944-2.236z" transform="translate(-13.748 -12.82)" style="stroke:#283030;stroke-linejoin:round;stroke-linecap:round;fill:none"/>
                <path data-name="패스 2313" d="M78.36 82.274a1.5 1.5 0 0 1 2.989.3" transform="translate(-12.354 -13.739)" style="stroke:#283030;stroke-linejoin:round;stroke-linecap:round;fill:none"/>
                <path data-name="패스 2314" d="M68.922 85.287A4.093 4.093 0 0 0 67.24 79.7a4.214 4.214 0 0 0-5.672 1.658 4.093 4.093 0 0 0 1.682 5.59 4.214 4.214 0 0 0 5.672-1.658" transform="translate(-9.627 -13.443)" style="fill:#f1abac"/>
                <path data-name="패스 2315" d="M95.8 89.56a4.093 4.093 0 0 0-1.682-5.59 4.213 4.213 0 0 0-5.671 1.658 4.093 4.093 0 0 0 1.681 5.59A4.214 4.214 0 0 0 95.8 89.56" transform="translate(-13.864 -14.168)" style="fill:#f1abac"/>
                <path data-name="패스 2316" d="M68.518 69.4s1.773-1.7 5.461-.656" transform="translate(-10.802 -11.611)" style="fill:#fff;stroke:#707070"/>
                <path data-name="패스 2317" d="M68.518 69.4s1.773-1.7 5.461-.656" transform="translate(-10.802 -11.611)" style="stroke:#283030;stroke-linejoin:round;stroke-linecap:round;fill:none"/>
                <path data-name="패스 2318" d="M93.187 71.862s-1.389-2.014-5.214-1.729" transform="translate(-13.869 -11.9)" style="fill:#fff;stroke:#707070"/>
                <path data-name="패스 2319" d="M93.187 71.862s-1.389-2.014-5.214-1.729" transform="translate(-13.869 -11.9)" style="stroke:#283030;stroke-linejoin:round;stroke-linecap:round;fill:none"/>
                <path data-name="패스 2320" d="M85.127 89.714a34.051 34.051 0 0 1-15.208-2.468s6.389 13.277 15.208 2.468" transform="translate(-11.023 -14.809)" style="fill:#ed8a79;stroke:#707070"/>
                <path data-name="패스 2321" d="M85.127 89.714a34.051 34.051 0 0 1-15.208-2.468s6.389 13.277 15.208 2.468z" transform="translate(-11.023 -14.809)" style="stroke:#283030;stroke-linejoin:round;stroke-linecap:round;fill:none"/>
                <path data-name="패스 2322" d="M70.035 46.946s-3.512-1.046-7.1 3.476" transform="translate(-9.923 -7.951)" style="stroke:#283030;stroke-linejoin:round;stroke-linecap:round;fill:none"/>
                <path data-name="패스 2323" d="M54.275 61.576s18.238-4.724 22.7-12.372c0 0 4.836 8.47 10.9 13.17S96.08 81.53 90.01 85.3c0 0 13.826-4.421 8.163-26.106 0 0-5.485-28.957-30.383-16.345-5.19 2.626-10.863 3.375-13.515 18.727" transform="translate(-8.557 -6.733)" style="fill:#ac7661"/>
                <path data-name="패스 2324" d="M81.225 51.154s4.836 8.47 10.9 13.17S100.33 83.48 94.26 87.25c0 0 13.826-4.42 8.163-26.106" transform="translate(-12.805 -8.683)" style="fill:#ac7661;stroke:#707070"/>
                <path data-name="패스 2325" d="M81.225 51.154s4.836 8.47 10.9 13.17S100.33 83.48 94.26 87.25c0 0 13.826-4.42 8.163-26.106" transform="translate(-12.805 -8.683)" style="stroke:#283030;stroke-linejoin:round;stroke-linecap:round;fill:none"/>
                <path data-name="패스 2326" d="M63.953 111.56 73.007 151l10.7-39.443 22.12 5.063s-3.571 26.445 4.047 33.55v20.238l6.035 30.84S96.871 207.281 45 201.18c2.271-3.885.521-52.442.521-52.442l-1.114-39z" transform="translate(-7.001 -18.627)" style="fill:#5bbbb3;stroke:#707070"/>
                <path data-name="패스 2327" d="M63.953 111.56 73.007 151l10.7-39.443 22.12 5.063s-3.571 26.445 4.047 33.55v20.238l6.035 30.84S96.871 207.281 45 201.18c2.271-3.885.521-52.442.521-52.442l-1.114-39z" transform="translate(-7.001 -18.627)" style="stroke:#283030;stroke-linejoin:round;stroke-linecap:round;fill:none"/>
                <path data-name="패스 2328" d="m72.3 131.482 5.6-7.5 5.461 7.5-1.573 5.8-1.969 2.459.328 3.585-2.741 10.1-2.738-11.926-.093-2.691z" transform="translate(-11.398 -21.045)" style="fill:#447aad;stroke:#707070"/>
                <path data-name="패스 2329" d="m72.3 131.482 5.6-7.5 5.461 7.5-1.573 5.8-1.969 2.459.328 3.585-2.741 10.1-2.738-11.926-.093-2.691z" transform="translate(-11.398 -21.045)" style="stroke:#283030;stroke-linejoin:round;stroke-linecap:round;fill:none"/>
                <path data-name="선 211" transform="translate(63.177 118.691)" style="stroke:#283030;stroke-linejoin:round;stroke-linecap:round;fill:none" d="M0 0h5.242"/>
                <path data-name="패스 2330" d="m109.257 148.445-18.066-1.981.134-6.464 18.065 1.98z" transform="translate(-14.377 -23.763)" style="fill:#f8d073;stroke:#707070"/>
                <path data-name="패스 2331" d="m109.257 148.445-18.066-1.981.134-6.464 18.065 1.98z" transform="translate(-14.377 -23.763)" style="stroke:#283030;stroke-linejoin:round;stroke-linecap:round;fill:none"/>
                <path data-name="패스 2332" d="m67.611 111.933 9.054 39.443 10.7-39.443-10.206 10.005z" transform="translate(-10.659 -18.999)" style="fill:#fff;stroke:#707070"/>
                <path data-name="패스 2333" d="m67.611 111.933 9.054 39.443 10.7-39.443-10.206 10.005z" transform="translate(-10.659 -18.999)" style="stroke:#283030;stroke-linejoin:round;stroke-linecap:round;fill:none"/>
                <path data-name="패스 2334" d="m66.7 107.264 9.428 13.882-8.092 6.792a2.822 2.822 0 0 1-4.6-1.7l-2.369-15.613z" transform="translate(-9.626 -18.207)" style="fill:#fff;stroke:#707070"/>
                <path data-name="패스 2335" d="m66.7 107.264 9.428 13.882-8.092 6.792a2.822 2.822 0 0 1-4.6-1.7l-2.369-15.613z" transform="translate(-9.626 -18.207)" style="stroke:#283030;stroke-linejoin:round;stroke-linecap:round;fill:none"/>
                <path data-name="패스 2336" d="M89.415 108.586 78.946 121.37l7.722 8.242a2.823 2.823 0 0 0 4.846-1.468l2.4-15.692z" transform="translate(-12.446 -18.431)" style="fill:#fff;stroke:#707070"/>
                <path data-name="패스 2337" d="M89.415 108.586 78.946 121.37l7.722 8.242a2.823 2.823 0 0 0 4.846-1.468l2.4-15.692z" transform="translate(-12.446 -18.431)" style="stroke:#283030;stroke-linejoin:round;stroke-linecap:round;fill:none"/>
                <path data-name="패스 2338" d="m0 0 40 .074.1 54.577-40-.074z" transform="rotate(-7.479 830.914 -296.929)" style="fill:#f8d073;stroke:#707070"/>
                <path data-name="패스 2339" d="m0 0 40 .074.1 54.577-40-.074z" transform="rotate(-7.479 830.914 -296.929)" style="stroke:#283030;stroke-linecap:round;fill:none"/>
                <path data-name="선 212" transform="translate(83.634 102.969)" style="stroke:#283030;stroke-linejoin:round;stroke-linecap:round;fill:none" d="M0 .59 4.56 0"/>
                <path data-name="선 213" transform="translate(84.28 107.821)" style="stroke:#283030;stroke-linejoin:round;stroke-linecap:round;fill:none" d="M0 .59 4.56 0"/>
                <path data-name="선 214" transform="translate(84.927 112.673)" style="stroke:#283030;stroke-linejoin:round;stroke-linecap:round;fill:none" d="M0 .59 4.56 0"/>
                <path data-name="선 215" transform="translate(85.573 117.525)" style="stroke:#283030;stroke-linejoin:round;stroke-linecap:round;fill:none" d="M0 .59 4.56 0"/>
                <path data-name="선 216" transform="translate(86.219 122.377)" style="stroke:#283030;stroke-linejoin:round;stroke-linecap:round;fill:none" d="M0 .59 4.56 0"/>
                <path data-name="선 217" transform="translate(86.865 127.229)" style="stroke:#283030;stroke-linejoin:round;stroke-linecap:round;fill:none" d="M0 .59 4.56 0"/>
                <path data-name="선 218" transform="translate(87.511 132.081)" style="stroke:#283030;stroke-linejoin:round;stroke-linecap:round;fill:none" d="M0 .59 4.56 0"/>
                <path data-name="선 219" transform="translate(88.158 136.933)" style="stroke:#283030;stroke-linejoin:round;stroke-linecap:round;fill:none" d="M0 .59 4.56 0"/>
                <path data-name="선 220" transform="translate(88.804 141.785)" style="stroke:#283030;stroke-linejoin:round;stroke-linecap:round;fill:none" d="M0 .59 4.56 0"/>
                <path data-name="선 221" transform="translate(89.45 146.637)" style="stroke:#283030;stroke-linejoin:round;stroke-linecap:round;fill:none" d="M0 .59 4.56 0"/>
                <path data-name="선 222" transform="translate(90.096 151.489)" style="stroke:#283030;stroke-linejoin:round;stroke-linecap:round;fill:none" d="M0 .59 4.56 0"/>
                <path data-name="패스 2340" d="m95.775 172.006 3.332-12.221-8.124-2.153-7.659-6.432a15.93 15.93 0 0 0-7.771-3.535c-1.049-.165-1.862-.287-1.862-.287a2.03 2.03 0 0 0-2.545 1.269l-.176.531a1.987 1.987 0 0 0 1.288 2.507l3.669 1.186-.06.179-3.667-1.19a2.029 2.029 0 0 0-2.544 1.27l-.177.53a1.987 1.987 0 0 0 1.288 2.507l3.669 1.186-.06.179-3.669-1.186a2.028 2.028 0 0 0-2.544 1.269l-.177.531a1.987 1.987 0 0 0 1.288 2.507l3.669 1.186-.06.179-3.669-1.186a2.028 2.028 0 0 0-2.544 1.269l-.176.53a1.987 1.987 0 0 0 1.287 2.508l3.669 1.186a1.988 1.988 0 0 0 .524.087l14.076 3.681z" transform="translate(-10.467 -24.998)" style="fill:#f8dcd8;stroke:#707070"/>
                <path data-name="패스 2341" d="m95.775 172.006 3.332-12.221-8.124-2.153-7.659-6.432a15.93 15.93 0 0 0-7.771-3.535c-1.049-.165-1.862-.287-1.862-.287a2.03 2.03 0 0 0-2.545 1.269l-.176.531a1.987 1.987 0 0 0 1.288 2.507l3.669 1.186-.06.179-3.667-1.19a2.029 2.029 0 0 0-2.544 1.27l-.177.53a1.987 1.987 0 0 0 1.288 2.507l3.669 1.186-.06.179-3.669-1.186a2.028 2.028 0 0 0-2.544 1.269l-.177.531a1.987 1.987 0 0 0 1.288 2.507l3.669 1.186-.06.179-3.669-1.186a2.028 2.028 0 0 0-2.544 1.269l-.176.53a1.987 1.987 0 0 0 1.287 2.508l3.669 1.186a1.988 1.988 0 0 0 .524.087l14.076 3.681z" transform="translate(-10.467 -24.998)" style="stroke:#283030;stroke-linejoin:round;stroke-linecap:round;fill:none"/>
                <path data-name="패스 2342" d="M97.242 150.145s-4.456 11.97-3.125 17.819l3.807 1.28s-.218 8.212 12.981 8.916 33.91 2.211 28.434-17.548-12.575-36.964-25.862-41.311l.152-1.27s-3.571 26.444 4.047 33.549v2.179l-13.733-2.179z" transform="translate(-14.799 -20.035)" style="fill:#fff;stroke:#707070"/>
                <path data-name="패스 2343" d="M97.242 150.145s-4.456 11.97-3.125 17.819l3.807 1.28s-.218 8.212 12.981 8.916 33.91 2.211 28.434-17.548-12.575-36.964-25.862-41.311l.152-1.27s-3.571 26.444 4.047 33.549v2.179l-13.733-2.179z" transform="translate(-14.799 -20.035)" style="stroke:#283030;stroke-linejoin:round;stroke-linecap:round;fill:none"/>
                <path data-name="패스 2344" d="M98.683 176.766s3.123-4.03 5.515-14.424" transform="translate(-15.558 -27.556)" style="stroke:#283030;stroke-linejoin:round;stroke-linecap:round;fill:none"/>
                <path data-name="패스 2345" d="M122.132 160.728s10.183-3.724 15.494.055" transform="translate(-19.254 -27.004)" style="stroke:#283030;stroke-linejoin:round;stroke-linecap:round;fill:none"/>
                <path data-name="패스 2346" d="M64.565 59.928a1.246 1.246 0 0 1-1.664-.514l-4.181-7.881a1.211 1.211 0 0 1 .521-1.641 1.246 1.246 0 0 1 1.664.514l4.18 7.882a1.21 1.21 0 0 1-.521 1.64" transform="translate(-9.236 -8.445)" style="fill:#f8d073;stroke:#707070"/>
                <path data-name="패스 2347" d="M64.565 59.928h0a1.246 1.246 0 0 1-1.664-.514l-4.181-7.881a1.211 1.211 0 0 1 .521-1.641 1.246 1.246 0 0 1 1.664.514l4.18 7.882a1.21 1.21 0 0 1-.52 1.64z" transform="translate(-9.236 -8.445)" style="stroke:#283030;stroke-linejoin:round;stroke-linecap:round;fill:none"/>
                <path data-name="패스 2348" d="m101.957 223.063 1.969 30.628 8.2 36.657" transform="translate(-16.074 -37.863)" style="stroke:#283030;stroke-linejoin:round;stroke-linecap:round;fill:none"/>
                <path data-name="패스 2349" d="m67.419 222.078-1.026 24.9v42.937" transform="translate(-10.467 -37.696)" style="stroke:#283030;stroke-linejoin:round;stroke-linecap:round;fill:none"/>
                <path data-name="선 223" transform="translate(50.038 209.281)" style="stroke:#283030;stroke-linejoin:round;stroke-linecap:round;fill:none" d="M0 41.958 5.889 0"/>
                <path data-name="선 224" transform="translate(87.853 215.828)" style="stroke:#283030;stroke-linejoin:round;stroke-linecap:round;fill:none" d="M3.112 37.348 0 0"/>
                <path data-name="패스 2350" d="M40.793 448.972c9.877-10.206 8.664-12.523 8.9-14.862a10.215 10.215 0 0 0-.718-4.227 24.354 24.354 0 0 1-4.62 11.517 87.905 87.905 0 0 0-7.746 7.148c2.669 1.948 3.7.925 4.184.428" transform="translate(-5.772 -72.968)" style="fill:#447aad;stroke:#707070"/>
                <path data-name="패스 2351" d="M40.793 448.972c9.877-10.206 8.664-12.523 8.9-14.862a10.215 10.215 0 0 0-.718-4.227 24.354 24.354 0 0 1-4.62 11.517 87.905 87.905 0 0 0-7.746 7.148c2.669 1.943 3.703.92 4.184.424z" transform="translate(-5.772 -72.968)" style="stroke:#283030;stroke-linejoin:round;stroke-linecap:round;fill:none"/>
                <path data-name="패스 2352" d="M56.609 436.368c2.215-3.949 7.953-5.97 7.953-5.97-1.2-5.711-6.778-4.181-11.5-6.78s-3.94 1.78-3.94 1.78a21.9 21.9 0 0 1-.155 3.281 10.217 10.217 0 0 1 .718 4.227c-.232 2.339.982 4.655-8.9 14.862-.48.5-1.514 1.52-4.184-.428a77.666 77.666 0 0 0 11.852 7.5 7.439 7.439 0 0 1 .871.475c-5.345-4.384-2.274-7.056-2.274-7.056s7.665-8.525 9.551-11.888" transform="translate(-5.772 -71.765)" style="fill:#447aad;stroke:#707070"/>
                <path data-name="패스 2353" d="M56.609 436.368c2.215-3.949 7.953-5.97 7.953-5.97-1.2-5.711-6.778-4.181-11.5-6.78s-3.94 1.78-3.94 1.78a21.9 21.9 0 0 1-.155 3.281 10.217 10.217 0 0 1 .718 4.227c-.232 2.339.982 4.655-8.9 14.862-.48.5-1.514 1.52-4.184-.428h0a77.666 77.666 0 0 0 11.852 7.5 7.439 7.439 0 0 1 .871.475c-5.345-4.384-2.274-7.056-2.274-7.056s7.673-8.528 9.559-11.891z" transform="translate(-5.772 -71.765)" style="stroke:#283030;stroke-linejoin:round;stroke-linecap:round;fill:none"/>
                <path data-name="패스 2354" d="M70.514 442.451a29.22 29.22 0 0 0 .043-2.845c-6.431 13.829-9.39 8.09-14.227 14.641s-7.216 7.083-7.216 7.083a7.214 7.214 0 0 1-2.321 2.525c-11.5 10.657-19.049-.96-19.254-1.281-1.165 6.826 5.361 8.946 5.361 8.946 13.068 5.915 24.127-10.568 24.127-10.568l3.786-4.888 1.157-.36c2.647-1.592 8.056-5.741 8.55-13.254" transform="translate(-4.32 -74.619)" style="fill:#fff;stroke:#707070"/>
                <path data-name="패스 2355" d="M70.514 442.451a29.22 29.22 0 0 0 .043-2.845c-6.431 13.829-9.39 8.09-14.227 14.641s-7.216 7.083-7.216 7.083a7.214 7.214 0 0 1-2.321 2.525c-11.5 10.657-19.049-.96-19.254-1.281-1.165 6.826 5.361 8.946 5.361 8.946 13.068 5.915 24.127-10.568 24.127-10.568l3.786-4.888 1.157-.36c2.641-1.591 8.05-5.74 8.544-13.253z" transform="translate(-4.32 -74.619)" style="stroke:#283030;stroke-linejoin:round;stroke-linecap:round;fill:none"/>
                <path data-name="패스 2356" d="M52.434 462.535a4.406 4.406 0 0 0-.722-.575c.232.19.457.379.722.575" transform="translate(-8.153 -78.413)" style="fill:#fff;stroke:#707070"/>
                <path data-name="패스 2357" d="M52.434 462.535a4.406 4.406 0 0 0-.722-.575c.232.19.457.38.722.575z" transform="translate(-8.153 -78.413)" style="stroke:#283030;stroke-linejoin:round;stroke-linecap:round;fill:none"/>
                <path data-name="패스 2358" d="M48.618 460.9c-.264-.2-.49-.385-.722-.575a7.364 7.364 0 0 0-.871-.474 77.713 77.713 0 0 1-11.852-7.5l-.008-.006s-8.3 7.344-7.619 12.37l.009.015c.2.32 7.749 11.938 19.254 1.28a7.218 7.218 0 0 0 2.32-2.524 2.148 2.148 0 0 0-.511-2.589" transform="translate(-4.336 -76.782)" style="fill:#fff;stroke:#707070"/>
                <path data-name="패스 2359" d="M48.618 460.9c-.264-.2-.49-.385-.722-.575a7.364 7.364 0 0 0-.871-.474 77.713 77.713 0 0 1-11.852-7.5l-.008-.006s-8.3 7.344-7.619 12.37l.009.015c.2.32 7.749 11.938 19.254 1.28a7.218 7.218 0 0 0 2.32-2.524 2.148 2.148 0 0 0-.511-2.586z" transform="translate(-4.336 -76.782)" style="stroke:#283030;stroke-linejoin:round;stroke-linecap:round;fill:none"/>
                <path data-name="패스 2360" d="M78.635 439.6" transform="translate(-12.397 -74.618)" style="fill:#5bbbb3;stroke:#707070"/>
                <path data-name="패스 2361" d="M78.635 439.6h0z" transform="translate(-12.397 -74.618)" style="stroke:#283030;stroke-linejoin:round;stroke-linecap:round;fill:none"/>
                <path data-name="패스 2362" d="M73.8 437.284a36.918 36.918 0 0 0-2.247-11.355c-1.114 3.266-5.2 5-5.2 5s-5.74 2.021-7.953 5.97c-1.886 3.363-9.551 11.888-9.551 11.888s-3.071 2.673 2.273 7.056a4.33 4.33 0 0 1 .723.575 2.146 2.146 0 0 1 .51 2.588s2.38-.531 7.217-7.082 7.8-.813 14.227-14.641z" transform="translate(-7.563 -72.297)" style="fill:#447aad;stroke:#707070"/>
                <path data-name="패스 2363" d="M73.8 437.284a36.918 36.918 0 0 0-2.247-11.355c-1.114 3.266-5.2 5-5.2 5s-5.74 2.021-7.953 5.97c-1.886 3.363-9.551 11.888-9.551 11.888s-3.071 2.673 2.273 7.056a4.33 4.33 0 0 1 .723.575 2.146 2.146 0 0 1 .51 2.588s2.38-.531 7.217-7.082 7.8-.813 14.227-14.641z" transform="translate(-7.563 -72.297)" style="stroke:#283030;stroke-linejoin:round;stroke-linecap:round;fill:none"/>
                <path data-name="패스 2365" d="M53.176 465.771z" transform="translate(-8.383 -79.06)" style="stroke:#283030;stroke-linejoin:round;stroke-linecap:round;fill:none"/>
                <path data-name="패스 2366" d="m54.864 447.556-11.137-1.2a.683.683 0 0 1-.611-.751l.067-.609a.688.688 0 0 1 .761-.6l11.135 1.2a.683.683 0 0 1 .612.751l-.067.608a.688.688 0 0 1-.761.6" transform="translate(-6.797 -75.431)" style="fill:#fff;stroke:#707070"/>
                <path data-name="패스 2367" d="m54.864 447.556-11.137-1.2a.683.683 0 0 1-.611-.751l.067-.609a.688.688 0 0 1 .761-.6l11.135 1.2a.683.683 0 0 1 .612.751l-.067.608a.688.688 0 0 1-.76.601z" transform="translate(-6.797 -75.431)" style="stroke:#283030;stroke-linejoin:round;stroke-linecap:round;fill:none"/>
                <path data-name="패스 2368" d="m52.362 450.217-6.775-8.792a.675.675 0 0 1 .132-.954l.494-.37a.7.7 0 0 1 .967.13l6.775 8.792a.674.674 0 0 1-.132.954l-.494.37a.7.7 0 0 1-.968-.13" transform="translate(-7.165 -74.679)" style="fill:#fff;stroke:#707070"/>
                <path data-name="패스 2369" d="m52.362 450.217-6.775-8.792a.675.675 0 0 1 .132-.954l.494-.37a.7.7 0 0 1 .967.13l6.775 8.792a.674.674 0 0 1-.132.954l-.494.37a.7.7 0 0 1-.967-.13z" transform="translate(-7.165 -74.679)" style="stroke:#283030;stroke-linejoin:round;stroke-linecap:round;fill:none"/>
                <path data-name="패스 2370" d="m59.032 440.745-11.157-.986a.684.684 0 0 1-.627-.739l.056-.609a.688.688 0 0 1 .75-.617l11.157.986a.683.683 0 0 1 .626.739l-.055.609a.688.688 0 0 1-.75.617" transform="translate(-7.448 -74.311)" style="fill:#fff;stroke:#707070"/>
                <path data-name="패스 2371" d="M.679 0h.613a.688.688 0 0 1 .682.691l.014 11.2a.683.683 0 0 1-.68.69H.7a.688.688 0 0 1-.681-.691L0 .689A.683.683 0 0 1 .679 0z" transform="rotate(-84.879 219.669 160.964)" style="stroke:#283030;stroke-linecap:round;fill:none"/>
                <path data-name="패스 2372" d="m56.584 443.452-6.945-8.663a.675.675 0 0 1 .114-.957l.487-.379a.7.7 0 0 1 .97.112l6.945 8.663a.674.674 0 0 1-.114.957l-.487.379a.7.7 0 0 1-.97-.112" transform="translate(-7.802 -73.55)" style="fill:#fff;stroke:#707070"/>
                <path data-name="패스 2373" d="M.682 0H1.3a.7.7 0 0 1 .692.69l.078 11.1a.674.674 0 0 1-.682.679H.771a.7.7 0 0 1-.692-.69L0 .68A.674.674 0 0 1 .682 0z" transform="rotate(-38.316 539.836 120.749)" style="stroke:#283030;stroke-linecap:round;fill:none"/>
                <path data-name="패스 2374" d="m50.21 454.25-11.136-1.2a.683.683 0 0 1-.612-.751l.067-.609a.688.688 0 0 1 .761-.6l11.136 1.2a.683.683 0 0 1 .612.75l-.067.609a.688.688 0 0 1-.761.6" transform="translate(-6.063 -76.568)" style="fill:#fff;stroke:#707070"/>
                <path data-name="패스 2375" d="M.68 0h.612a.688.688 0 0 1 .682.691l.017 11.2a.682.682 0 0 1-.679.689H.7a.687.687 0 0 1-.681-.691L0 .69A.683.683 0 0 1 .68 0z" transform="rotate(-83.8 225.928 170.223)" style="stroke:#283030;stroke-linecap:round;fill:none"/>
                <path data-name="패스 2376" d="m47.709 456.912-6.775-8.792a.674.674 0 0 1 .132-.954l.494-.37a.7.7 0 0 1 .968.13l6.774 8.792a.674.674 0 0 1-.132.954l-.494.37a.7.7 0 0 1-.968-.13" transform="translate(-6.431 -75.816)" style="fill:#fff;stroke:#707070"/>
                <path data-name="패스 2377" d="M.682 0H1.3a.7.7 0 0 1 .692.689l.077 11.1a.674.674 0 0 1-.682.68H.77a.7.7 0 0 1-.693-.69L0 .68A.674.674 0 0 1 .682 0z" transform="rotate(-37.25 568.81 135.449)" style="stroke:#283030;stroke-linecap:round;fill:none"/>
                <path data-name="패스 2378" d="M52.74 427.188s4.133 2.966 8.616 2.645l-.754 4.148s-5.539.2-8.321-2.586z" transform="translate(-8.242 -72.511)" style="fill:#fff;stroke:#707070"/>
                <path data-name="패스 2379" d="M52.74 427.188s4.133 2.966 8.616 2.645l-.754 4.148s-5.539.2-8.321-2.586z" transform="translate(-8.242 -72.511)" style="stroke:#283030;stroke-linejoin:round;stroke-linecap:round;fill:none"/>
                <path data-name="패스 2380" d="M2.789 41.294s11.554-1.784 17.969-.865" transform="translate(-.44 -6.818)" style="stroke:#283030;stroke-linejoin:round;stroke-linecap:round;fill:none"/>
            </g>
            <g data-name="img">
                <path data-name="패스 2381" d="m0 0 19.838.058.046 15.923-19.838-.058z" transform="rotate(-78.122 503.143 -115.255)" style="fill:#fff;stroke:#707070"/>
                <path data-name="패스 2382" d="m0 0 19.838.058.046 15.923-19.838-.058z" transform="rotate(-78.122 503.143 -115.255)" style="stroke:#283030;stroke-linecap:round;fill:none"/>
                <path data-name="사각형 1688" transform="rotate(-1.102 20959.306 -23997.565)" style="fill:#fff;stroke:#707070" d="M0 0h15.202v20.235H0z"/>
                <path data-name="사각형 1689" transform="rotate(-1.102 20959.306 -23997.565)" style="stroke:#283030;stroke-linejoin:round;stroke-linecap:round;fill:none" d="M0 0h15.202v20.235H0z"/>
                <g data-name="그룹 2138">
                    <g data-name="그룹 2137" style="clip-path:url(#t0xlji0unc)" transform="translate(433.81 49.854)">
                        <path data-name="패스 2383" d="M133.9 437.454a9.388 9.388 0 0 1-.728.632c-6.181 4.815-32.289-4.223-32.289-4.223-11.7-.6-13.034-4.408-13.034-4.408l.7-2.686a180.317 180.317 0 0 0 45.351 10.685" transform="translate(-13.849 -72.44)" style="fill:#fff;stroke:#707070"/>
                        <path data-name="패스 2384" d="M133.9 437.454a9.388 9.388 0 0 1-.728.632c-6.181 4.815-32.289-4.223-32.289-4.223-11.7-.6-13.034-4.408-13.034-4.408l.7-2.686a180.317 180.317 0 0 0 45.351 10.685z" transform="translate(-13.849 -72.44)" style="stroke:#283030;stroke-linejoin:round;stroke-linecap:round;fill:none"/>
                        <path data-name="패스 2385" d="M52.2 449.822a18.435 18.435 0 0 1-4.541 9.083c-3.427 3.894-8.777 5.289-15.045 5.056-3.059-.113-7.542-.869-8.749-2.8a4.59 4.59 0 0 1-.385-.78 4.934 4.934 0 0 0 .247 4.4c1.207 1.93 5.691 2.685 8.749 2.8 6.267.232 11.618-1.163 15.044-5.057s5.25-8.727 4.753-12.148a36.722 36.722 0 0 1-.074-.555" transform="translate(-3.64 -76.353)" style="fill:#fff;stroke:#707070"/>
                        <path data-name="패스 2386" d="M52.2 449.822a18.435 18.435 0 0 1-4.541 9.083c-3.427 3.894-8.777 5.289-15.045 5.056-3.059-.113-7.542-.869-8.749-2.8a4.59 4.59 0 0 1-.385-.78 4.934 4.934 0 0 0 .247 4.4c1.207 1.93 5.691 2.685 8.749 2.8 6.267.232 11.618-1.163 15.044-5.057s5.25-8.727 4.753-12.148a13.24 13.24 0 0 0-.073-.554z" transform="translate(-3.64 -76.353)" style="stroke:#283030;stroke-linejoin:round;stroke-linecap:round;fill:none"/>
                        <path data-name="패스 2387" d="M42.656 453.329c-7.44-2.682-12.337-1.086-13.048-.487-1.472 1.3-4.887 4.572-6.05 7.88a4.6 4.6 0 0 0 .386.78c1.207 1.929 5.69 2.685 8.749 2.8 6.267.232 11.618-1.163 15.045-5.057 0 0 2.37-3.228-5.082-5.915" transform="translate(-3.714 -76.692)" style="fill:#fff;stroke:#707070"/>
                        <path data-name="패스 2388" d="M42.656 453.329c-7.44-2.682-12.337-1.086-13.048-.487-1.472 1.3-4.887 4.572-6.05 7.88a4.6 4.6 0 0 0 .386.78c1.207 1.929 5.69 2.685 8.749 2.8 6.267.232 11.618-1.163 15.045-5.057 0-.001 2.37-3.229-5.082-5.916z" transform="translate(-3.714 -76.692)" style="stroke:#283030;stroke-linejoin:round;stroke-linecap:round;fill:none"/>
                        <path data-name="패스 2389" d="M53.411 446.84c-.478-3.819-.989-12.725-.989-12.725a10.168 10.168 0 0 1-3.591 1.5c.195-3.583-5.046-3.516-9.479-3.253s-2.654 2.658-2.654 2.658l-5.264 13.908s-.27.22-.694.594c.712-.6 5.608-2.2 13.048.487s5.082 5.916 5.082 5.916a18.435 18.435 0 0 0 4.541-9.083" transform="translate(-4.846 -73.371)" style="fill:#5bbbb3;stroke:#707070"/>
                        <path data-name="패스 2390" d="M53.411 446.84c-.478-3.819-.989-12.725-.989-12.725a10.168 10.168 0 0 1-3.591 1.5c.195-3.583-5.046-3.516-9.479-3.253s-2.654 2.658-2.654 2.658l-5.264 13.908s-.27.22-.694.594c.712-.6 5.608-2.2 13.048.487s5.082 5.916 5.082 5.916a18.435 18.435 0 0 0 4.541-9.085z" transform="translate(-4.846 -73.371)" style="stroke:#283030;stroke-linejoin:round;stroke-linecap:round;fill:none"/>
                        <path data-name="패스 2391" d="m47.284 440.141-9.669 2.448a.69.69 0 0 1-.84-.49l-.106-.407a.682.682 0 0 1 .5-.829l9.668-2.448a.693.693 0 0 1 .841.49l.106.408a.679.679 0 0 1-.5.829" transform="translate(-5.778 -74.413)" style="fill:#fff;stroke:#707070"/>
                        <path data-name="패스 2392" d="m.688 0 9.974.035a.691.691 0 0 1 .692.684v.421a.681.681 0 0 1-.688.68L.694 1.784A.691.691 0 0 1 0 1.1V.679A.68.68 0 0 1 .688 0z" transform="rotate(-14.408 1465.599 61.784)" style="stroke:#283030;stroke-linecap:round;fill:none"/>
                        <path data-name="패스 2393" d="m46.073 443.6-8.451-5.236a.675.675 0 0 1-.217-.938l.227-.356a.7.7 0 0 1 .953-.214l8.451 5.236a.675.675 0 0 1 .217.938l-.227.356a.7.7 0 0 1-.952.214" transform="translate(-5.88 -74.133)" style="fill:#fff;stroke:#707070"/>
                        <path data-name="패스 2394" d="M.68 0h.42a.7.7 0 0 1 .69.7l.065 9.942a.675.675 0 0 1-.679.683H.753a.7.7 0 0 1-.687-.691L0 .684A.675.675 0 0 1 .68 0z" transform="rotate(-57.86 344.686 153.661)" style="stroke:#283030;stroke-linecap:round;fill:none"/>
                        <path data-name="패스 2395" d="m45.482 447.28-9.668 2.448a.691.691 0 0 1-.841-.49l-.106-.407a.679.679 0 0 1 .5-.829l9.668-2.449a.693.693 0 0 1 .841.49l.106.408a.68.68 0 0 1-.5.829" transform="translate(-5.493 -75.625)" style="fill:#fff;stroke:#707070"/>
                        <path data-name="패스 2396" d="m.688 0 9.974.035a.692.692 0 0 1 .692.684v.421a.68.68 0 0 1-.687.679L.694 1.784A.691.691 0 0 1 0 1.1V.679A.68.68 0 0 1 .688 0z" transform="rotate(-14.409 1488.186 70.76)" style="stroke:#283030;stroke-linecap:round;fill:none"/>
                        <path data-name="패스 2397" d="m44.27 450.734-8.452-5.234a.674.674 0 0 1-.217-.938l.227-.356a.7.7 0 0 1 .953-.214l8.451 5.236a.675.675 0 0 1 .217.938l-.227.356a.7.7 0 0 1-.952.214" transform="translate(-5.596 -75.345)" style="fill:#fff;stroke:#707070"/>
                        <path data-name="패스 2398" d="M.68 0h.42a.7.7 0 0 1 .69.7l.065 9.942a.675.675 0 0 1-.679.683H.753a.7.7 0 0 1-.687-.691L0 .684A.675.675 0 0 1 .68 0z" transform="rotate(-57.845 349.447 158.07)" style="stroke:#283030;stroke-linecap:round;fill:none"/>
                        <path data-name="패스 2399" d="m88.811 423.483.235-.9c1.635-8.442 5.346-12.192 5.346-12.192 6.388 3.061 10.886 3.113 10.886 3.113 7.734-6.3 9.813 3.4 9.813 3.4l8.988 6.454a14.288 14.288 0 0 0-12.244 7.632 179.28 179.28 0 0 1-23.155-7z" transform="translate(-13.98 -69.66)" style="fill:#5bbbb3;stroke:#707070"/>
                        <path data-name="패스 2400" d="m88.811 423.483.235-.9c1.635-8.442 5.346-12.192 5.346-12.192 6.388 3.061 10.886 3.113 10.886 3.113 7.734-6.3 9.813 3.4 9.813 3.4l8.988 6.454a14.288 14.288 0 0 0-12.244 7.632 179.28 179.28 0 0 1-23.155-7z" transform="translate(-13.98 -69.66)" style="stroke:#283030;stroke-linejoin:round;stroke-linecap:round;fill:none"/>
                        <path data-name="패스 2401" d="M128.412 426.008s15.991 4.609 10.416 10.84c-.142.158-.3.316-.467.476a170.968 170.968 0 0 1-22.193-3.685 14.287 14.287 0 0 1 12.244-7.632" transform="translate(-18.314 -72.31)" style="fill:#fff;stroke:#707070"/>
                        <path data-name="패스 2402" d="M128.412 426.008s15.991 4.609 10.416 10.84c-.142.158-.3.316-.467.476a170.968 170.968 0 0 1-22.193-3.685 14.287 14.287 0 0 1 12.244-7.631z" transform="translate(-18.314 -72.31)" style="stroke:#283030;stroke-linejoin:round;stroke-linecap:round;fill:none"/>
                        <path data-name="패스 2403" d="m115.083 420.1 4.79-3.081a.675.675 0 0 0 .2-.942l-.213-.322a.7.7 0 0 0-.956-.2l-4.79 3.081a.675.675 0 0 0-.2.942l.213.322a.7.7 0 0 0 .956.2" transform="translate(-17.941 -70.518)" style="fill:#fff;stroke:#707070"/>
                        <path data-name="패스 2404" d="m.684 0 5.7.038a.7.7 0 0 1 .693.689v.386a.675.675 0 0 1-.683.679L.7 1.755a.7.7 0 0 1-.7-.689V.68A.675.675 0 0 1 .684 0z" transform="rotate(-33.07 634.374 13.128)" style="stroke:#283030;stroke-linecap:round;fill:none"/>
                        <path data-name="패스 2405" d="m114.52 417.646 5.58 1.254a.69.69 0 0 0 .827-.511l.087-.375a.68.68 0 0 0-.519-.815l-5.578-1.255a.691.691 0 0 0-.827.511l-.087.375a.682.682 0 0 0 .52.815" transform="translate(-17.97 -70.599)" style="fill:#fff;stroke:#707070"/>
                        <path data-name="패스 2406" d="M.68 0h.384a.691.691 0 0 1 .684.693l.018 5.718a.68.68 0 0 1-.678.687H.7a.69.69 0 0 1-.682-.691L0 .689A.681.681 0 0 1 .68 0z" transform="rotate(-77.11 265.524 113.265)" style="stroke:#283030;stroke-linecap:round;fill:none"/>
                        <path data-name="패스 2407" d="m121.017 425.232 4.791-3.081a.675.675 0 0 0 .2-.942l-.213-.322a.7.7 0 0 0-.956-.2l-4.791 3.081a.675.675 0 0 0-.2.942l.213.322a.7.7 0 0 0 .956.2" transform="translate(-18.877 -71.389)" style="fill:#fff;stroke:#707070"/>
                        <path data-name="패스 2408" d="m.684 0 5.7.038a.7.7 0 0 1 .692.688v.386a.675.675 0 0 1-.683.679L.7 1.755a.7.7 0 0 1-.7-.689V.68A.675.675 0 0 1 .684 0z" transform="rotate(-33.07 644.04 6.84)" style="stroke:#283030;stroke-linecap:round;fill:none"/>
                        <path data-name="패스 2409" d="m120.454 422.774 5.578 1.255a.69.69 0 0 0 .826-.511l.087-.375a.68.68 0 0 0-.52-.815l-5.577-1.255a.69.69 0 0 0-.826.511l-.088.375a.681.681 0 0 0 .52.815" transform="translate(-18.905 -71.47)" style="fill:#fff;stroke:#707070"/>
                        <path data-name="패스 2410" d="M.679 0h.385a.69.69 0 0 1 .682.691l.019 5.719a.681.681 0 0 1-.679.688H.7A.691.691 0 0 1 .018 6.4L0 .688A.681.681 0 0 1 .679 0z" transform="rotate(-77.11 270.695 112.258)" style="stroke:#283030;stroke-linecap:round;fill:none"/>
                        <path data-name="패스 2411" d="M107.659 101.436s7.736 5.885 10.49 10.916 11.618 18.552 16.588 26.925c5.856 9.867 16.265 25.27-14.461 43.09l-7.937-22.233 6.319-8.134-6.554-6.275z" transform="translate(-16.973 -17.218)" style="fill:#fff;stroke:#707070"/>
                        <path data-name="패스 2412" d="M107.659 101.436s7.736 5.885 10.49 10.916 11.618 18.552 16.588 26.925c5.856 9.867 16.265 25.27-14.461 43.09l-7.937-22.233 6.319-8.134-6.554-6.275z" transform="translate(-16.973 -17.218)" style="stroke:#283030;stroke-linejoin:round;stroke-linecap:round;fill:none"/>
                        <path data-name="패스 2413" d="M16.016 72.06s5.941.551 9.329 7.532c0 0 3.757-2.213 6.457 1.034l.035-1.663c5.672 41.022-7.531 51.061-7.531 51.061s-8.309-5.06-8.487-23.912c0 0-6.616-5-6.83-22.1z" transform="translate(-1.417 -12.231)" style="fill:#fff;stroke:#707070"/>
                        <path data-name="패스 2414" d="M16.016 72.06s5.941.551 9.329 7.532c0 0 3.757-2.213 6.457 1.034l.035-1.663c5.672 41.022-7.531 51.061-7.531 51.061s-8.309-5.06-8.487-23.912c0 0-6.616-5-6.83-22.1z" transform="translate(-1.417 -12.231)" style="stroke:#283030;stroke-linejoin:round;stroke-linecap:round;fill:none"/>
                        <path data-name="패스 2415" d="m8.969 82.8 3.274 6.7s8.953 4.589 10.42-8.764l-3.412-7.8z" transform="translate(-1.414 -12.381)" style="fill:#f8dcd8;stroke:#707070"/>
                        <path data-name="패스 2416" d="m8.969 82.8 3.274 6.7s8.953 4.589 10.42-8.764l-3.412-7.8z" transform="translate(-1.414 -12.381)" style="stroke:#283030;stroke-linejoin:round;stroke-linecap:round;fill:none"/>
                        <path data-name="패스 2417" d="m77.779 87.86 2.272-26.311-20.467-2.515-1.445 28.023" transform="translate(-9.166 -10.02)" style="fill:#f8dcd8;stroke:#707070"/>
                        <path data-name="패스 2418" d="m77.779 87.86 2.272-26.311-20.467-2.515-1.445 28.023" transform="translate(-9.166 -10.02)" style="stroke:#283030;stroke-linejoin:round;stroke-linecap:round;fill:none"/>
                        <path data-name="패스 2419" d="M37.656 36.163s-6.117-24.3 19.682-30.172c0 0-2.5-1.966-2.739-4.311 0 0 4.8 2.646 7.051 2.479 0 0-.713-2.208 2.265-3.41 0 0 .07 3.6 1.462 3.95 0 0 22.854.287 24.915 26.823z" transform="translate(-5.837 -.127)" style="fill:#ac7661;stroke:#707070"/>
                        <path data-name="패스 2420" d="M37.656 36.163s-6.117-24.3 19.682-30.172c0 0-2.5-1.966-2.739-4.311 0 0 4.8 2.646 7.051 2.479 0 0-.713-2.208 2.265-3.41 0 0 .07 3.6 1.462 3.95 0 0 22.854.287 24.915 26.823z" transform="translate(-5.837 -.127)" style="stroke:#283030;stroke-linejoin:round;stroke-linecap:round;fill:none"/>
                        <path data-name="패스 2421" d="M100.971 42.34a6.412 6.412 0 1 0-5.672 7.4 6.633 6.633 0 0 0 5.672-7.4" transform="translate(-13.904 -6.141)" style="fill:#f8dcd8;stroke:#707070"/>
                        <path data-name="패스 2422" d="M100.971 42.34a6.412 6.412 0 1 0-5.672 7.4 6.633 6.633 0 0 0 5.672-7.4z" transform="translate(-13.904 -6.141)" style="stroke:#283030;stroke-linejoin:round;stroke-linecap:round;fill:none"/>
                        <path data-name="패스 2423" d="M98.789 43.194a3.7 3.7 0 1 0-3.278 4.278 3.833 3.833 0 0 0 3.278-4.278z" transform="translate(-14.411 -6.728)" style="stroke:#283030;stroke-linejoin:round;stroke-linecap:round;fill:none"/>
                        <path data-name="패스 2424" d="M47.831 47.727A6.412 6.412 0 1 0 35.094 49a6.412 6.412 0 1 0 12.737-1.273" transform="translate(-5.527 -7.055)" style="fill:#f8dcd8;stroke:#707070"/>
                        <path data-name="패스 2425" d="M47.831 47.727A6.412 6.412 0 1 0 35.094 49a6.412 6.412 0 1 0 12.737-1.273z" transform="translate(-5.527 -7.055)" style="stroke:#283030;stroke-linejoin:round;stroke-linecap:round;fill:none"/>
                        <path data-name="패스 2426" d="M45.648 48.582a3.7 3.7 0 1 0-3.278 4.278 3.832 3.832 0 0 0 3.278-4.278z" transform="translate(-6.033 -7.642)" style="stroke:#283030;stroke-linejoin:round;stroke-linecap:round;fill:none"/>
                        <path data-name="패스 2427" d="M86.727 46.249c1.8-13-6.4-25.354-18.32-27.6S45.366 25.108 43.565 38.1s6.4 25.354 18.32 27.6 23.042-6.462 24.842-19.457" transform="translate(-6.829 -3.105)" style="fill:#f8dcd8;stroke:#707070"/>
                        <path data-name="패스 2428" d="M86.727 46.249c1.8-13-6.4-25.354-18.32-27.6S45.366 25.108 43.565 38.1s6.4 25.354 18.32 27.6 23.041-6.455 24.842-19.451z" transform="translate(-6.829 -3.105)" style="stroke:#283030;stroke-linejoin:round;stroke-linecap:round;fill:none"/>
                        <path data-name="패스 2429" d="M78.4 45.073a1.724 1.724 0 0 0-2.13-1.14 1.686 1.686 0 0 0-.932 2.206 1.723 1.723 0 0 0 2.13 1.139 1.686 1.686 0 0 0 .932-2.205" transform="translate(-11.86 -7.443)" style="fill:#283030;stroke:#707070"/>
                        <path data-name="패스 2430" d="M78.4 45.073a1.724 1.724 0 0 0-2.13-1.14 1.686 1.686 0 0 0-.932 2.206 1.723 1.723 0 0 0 2.13 1.139 1.686 1.686 0 0 0 .932-2.205z" transform="translate(-11.86 -7.443)" style="stroke-miterlimit:10;stroke:#283030;fill:none"/>
                        <path data-name="패스 2431" d="M61.735 46.763a1.723 1.723 0 0 0-2.13-1.14 1.687 1.687 0 0 0-.933 2.205 1.724 1.724 0 0 0 2.131 1.14 1.686 1.686 0 0 0 .932-2.205" transform="translate(-9.232 -7.73)" style="fill:#283030;stroke:#707070"/>
                        <path data-name="패스 2432" d="M61.735 46.763a1.723 1.723 0 0 0-2.13-1.14 1.687 1.687 0 0 0-.933 2.205 1.724 1.724 0 0 0 2.131 1.14 1.686 1.686 0 0 0 .932-2.205z" transform="translate(-9.232 -7.73)" style="stroke-miterlimit:10;stroke:#283030;fill:none"/>
                        <path data-name="패스 2433" d="M70.635 52.208a1.483 1.483 0 0 0-2.951.295" transform="translate(-10.669 -8.639)" style="stroke:#283030;stroke-linejoin:round;stroke-linecap:round;fill:none"/>
                        <path data-name="패스 2434" d="M82.752 53.769a4.041 4.041 0 0 1 1.664-5.517 4.159 4.159 0 0 1 5.6 1.641 4.04 4.04 0 0 1-1.664 5.517 4.16 4.16 0 0 1-5.6-1.641" transform="translate(-12.967 -8.107)" style="fill:#f1abac"/>
                        <path data-name="패스 2435" d="M48.394 57.252a4.04 4.04 0 0 1 1.664-5.516 4.16 4.16 0 0 1 5.6 1.641 4.04 4.04 0 0 1-1.664 5.517 4.159 4.159 0 0 1-5.6-1.641" transform="translate(-7.551 -8.698)" style="fill:#f1abac"/>
                        <path data-name="패스 2436" d="M79.9 39.506s-1.75-1.675-5.39-.651" transform="translate(-11.747 -6.539)" style="fill:#fff;stroke:#707070"/>
                        <path data-name="패스 2437" d="M79.9 39.506s-1.75-1.675-5.39-.651" transform="translate(-11.747 -6.539)" style="stroke:#283030;stroke-linejoin:round;stroke-linecap:round;fill:none"/>
                        <path data-name="패스 2438" d="M55.6 41.92s1.373-1.988 5.148-1.7" transform="translate(-8.765 -6.822)" style="fill:#fff;stroke:#707070"/>
                        <path data-name="패스 2439" d="M55.6 41.92s1.373-1.988 5.148-1.7" transform="translate(-8.765 -6.822)" style="stroke:#283030;stroke-linejoin:round;stroke-linecap:round;fill:none"/>
                        <path data-name="패스 2440" d="M62.186 17.09c11.568-1.156 21.707 3.5 24.022 10.636a10.192 10.192 0 0 1 .41 1.832c.572 2.081 2.056 4.679-.558 4.872-.138.01-.275.021-.437.017a12.42 12.42 0 0 0-3.268.317c-1.8.444-3.81 1.369-5.358.27-1.28-.909-1.565-2.8-2.647-3.969s-2.836-1.438-3.93-2.611a11.6 11.6 0 0 1-1.3-2.043 9.121 9.121 0 0 0-2.544-2.758 15.565 15.565 0 0 1-.781 6.458 6.18 6.18 0 0 1-2.219 3.279c-1.463.946-3.338.707-5.008 1.138a23.864 23.864 0 0 0 .216-10.2c-.87 3.394-3.8 5.766-6.906 6.992a2.352 2.352 0 0 0-1.071.653 3.085 3.085 0 0 0-.405 1.479 6.171 6.171 0 0 1-4.154 5.013 8.021 8.021 0 0 0-2.095.687 3.116 3.116 0 0 1-1.272.466 10.638 10.638 0 0 1-2.077-5.228c-.852-8.29 8.719-16.036 21.38-17.3" transform="translate(-6.425 -2.871)" style="fill:#ac7661"/>
                        <path data-name="패스 2441" d="M47.279 39.982a6.171 6.171 0 0 0 4.154-5.012 3.086 3.086 0 0 1 .405-1.48 2.345 2.345 0 0 1 1.071-.653c3.1-1.226 6.036-3.6 6.906-6.993a23.864 23.864 0 0 1-.216 10.2" transform="translate(-7.454 -4.387)" style="stroke:#283030;stroke-linejoin:round;stroke-linecap:round;fill:none"/>
                        <path data-name="패스 2442" d="M71.409 25.031a9.121 9.121 0 0 1 2.544 2.758 11.643 11.643 0 0 0 1.3 2.043c1.094 1.173 2.837 1.437 3.93 2.611s1.367 3.06 2.648 3.969" transform="translate(-11.258 -4.249)" style="stroke:#283030;stroke-linejoin:round;stroke-linecap:round;fill:none"/>
                        <path data-name="패스 2443" d="M63.786 59.739s9.731 1.617 13.068-4.773" transform="translate(-10.056 -9.33)" style="stroke:#283030;stroke-linejoin:round;stroke-linecap:round;fill:none"/>
                        <path data-name="패스 2444" d="M17.962 61.18a15.294 15.294 0 0 1-2.412-5l-.216-5.768a2.975 2.975 0 0 0-3.227-2.65 2.966 2.966 0 0 0-3.019 2.877l.224 5.985-.576 6.166.214 17.1s7.66 1.955 9.939-2.572 2.22-11.971-.926-16.136" transform="translate(-1.377 -8.106)" style="fill:#f8dcd8;stroke:#707070"/>
                        <path data-name="패스 2445" d="M17.962 61.18a15.294 15.294 0 0 1-2.412-5l-.216-5.768a2.975 2.975 0 0 0-3.227-2.65 2.966 2.966 0 0 0-3.019 2.877l.224 5.985-.576 6.166.214 17.1s7.66 1.955 9.939-2.572 2.218-11.973-.927-16.138z" transform="translate(-1.377 -8.106)" style="stroke:#283030;stroke-linejoin:round;stroke-linecap:round;fill:none"/>
                        <path data-name="패스 2446" d="M9.826 67.72 2.5 67.9a1.655 1.655 0 0 1-1.7-1.592l-.049-1.766a1.651 1.651 0 0 1 1.618-1.678l7.331-.183a1.655 1.655 0 0 1 1.7 1.595l.045 1.766a1.653 1.653 0 0 1-1.619 1.678" transform="translate(-.118 -10.639)" style="fill:#f8dcd8;stroke:#707070"/>
                        <rect data-name="사각형 1690" width="10.653" height="5.044" rx="1.972" transform="rotate(-1.449 2066.867 2.765)" style="stroke:#283030;stroke-linejoin:round;stroke-linecap:round;fill:none"/>
                        <path data-name="패스 2447" d="m9.987 74.042-7.327.183a1.654 1.654 0 0 1-1.7-1.595l-.048-1.766a1.652 1.652 0 0 1 1.618-1.678L9.856 69a1.656 1.656 0 0 1 1.7 1.595l.045 1.765a1.652 1.652 0 0 1-1.618 1.679" transform="translate(-.144 -11.712)" style="fill:#f8dcd8;stroke:#707070"/>
                        <path data-name="사각형 1691" d="M1.973 0h6.708a1.972 1.972 0 0 1 1.972 1.972v1.1a1.972 1.972 0 0 1-1.972 1.972H1.973A1.973 1.973 0 0 1 0 3.071v-1.1A1.973 1.973 0 0 1 1.973 0z" transform="rotate(-1.449 2274.477 .052)" style="stroke:#283030;stroke-linejoin:round;stroke-linecap:round;fill:none"/>
                        <path data-name="패스 2448" d="m10.147 80.364-7.325.184a1.656 1.656 0 0 1-1.7-1.6l-.045-1.765a1.652 1.652 0 0 1 1.613-1.675l7.327-.183a1.655 1.655 0 0 1 1.7 1.595l.045 1.765a1.652 1.652 0 0 1-1.618 1.679" transform="translate(-.169 -12.786)" style="fill:#f8dcd8;stroke:#707070"/>
                        <path data-name="사각형 1692" d="M1.973 0H8.68a1.973 1.973 0 0 1 1.973 1.973v1.1a1.972 1.972 0 0 1-1.972 1.971H1.972A1.972 1.972 0 0 1 0 3.073v-1.1A1.973 1.973 0 0 1 1.973 0z" transform="matrix(1 -.025 .025 1 .861 62.764)" style="stroke:#283030;stroke-linejoin:round;stroke-linecap:round;fill:none"/>
                        <path data-name="패스 2449" d="m10.307 86.685-7.326.183a1.656 1.656 0 0 1-1.7-1.595l-.045-1.765a1.652 1.652 0 0 1 1.618-1.679l7.327-.184a1.655 1.655 0 0 1 1.7 1.595l.045 1.765a1.653 1.653 0 0 1-1.618 1.679" transform="translate(-.194 -13.858)" style="fill:#f8dcd8;stroke:#707070"/>
                        <path data-name="사각형 1693" d="M1.973 0H8.68a1.973 1.973 0 0 1 1.973 1.973v1.1A1.973 1.973 0 0 1 8.68 5.044H1.972A1.972 1.972 0 0 1 0 3.073v-1.1A1.973 1.973 0 0 1 1.973 0z" transform="matrix(1 -.025 .025 1 .997 68.012)" style="stroke:#283030;stroke-linejoin:round;stroke-linecap:round;fill:none"/>
                        <path data-name="패스 2450" d="m28.907 200.179 2.054 80.02-1.736 107.924s16.2 9.344 32.894.659l2.138-103.692L67 237.787l12.668 48.965.689 75.35s13.6 11.707 30.151 4.85l1.445-85.89-19.483-77.857z" transform="translate(-4.557 -33.978)" style="fill:#447aad;stroke:#707070"/>
                        <path data-name="패스 2451" d="m28.907 200.179 2.054 80.02-1.736 107.924s16.2 9.344 32.894.659l2.138-103.692L67 237.787l12.668 48.965.689 75.35s13.6 11.707 30.151 4.85l1.445-85.89-19.483-77.857z" transform="translate(-4.557 -33.978)" style="stroke:#283030;stroke-linejoin:round;stroke-linecap:round;fill:none"/>
                        <path data-name="패스 2452" d="m34.134 80.375 18.724 2.038 16.018 40.828 4.617-38.993 22.352 12.819 3.5 38.013 3.9 65.067-79.692-3.579 3.047-65.132s13.2-10.039 7.531-51.061" transform="translate(-3.714 -13.643)" style="fill:#5bbbb3;stroke:#707070"/>
                        <path data-name="패스 2453" d="m34.134 80.375 18.724 2.038 16.018 40.828 4.617-38.993 22.352 12.819 3.5 38.013 3.9 65.067-79.692-3.579 3.047-65.132s13.206-10.036 7.534-51.061z" transform="translate(-3.714 -13.643)" style="stroke:#283030;stroke-linejoin:round;stroke-linecap:round;fill:none"/>
                        <path data-name="선 225" transform="translate(62.438 188.422)" style="stroke:#283030;stroke-linejoin:round;stroke-linecap:round;fill:none" d="M0 15.387 13.531 0"/>
                        <path data-name="선 226" transform="translate(23.496 132.642)" style="stroke:#283030;stroke-linejoin:round;stroke-linecap:round;fill:none" d="M0 34.559 8.723 0"/>
                        <path data-name="패스 2454" d="m103.722 127.059-18.066-1.981.134-6.469 18.065 1.98z" transform="translate(-13.504 -20.133)" style="fill:#f8d073;stroke:#707070"/>
                        <path data-name="패스 2455" d="m103.722 127.059-18.066-1.981.134-6.469 18.065 1.98z" transform="translate(-13.504 -20.133)" style="stroke:#283030;stroke-linejoin:round;stroke-linecap:round;fill:none"/>
                        <path data-name="패스 2456" d="m78.874 240 13.745 50.557-1.058 80.617" transform="translate(-12.435 -40.737)" style="stroke:#283030;stroke-linejoin:round;stroke-linecap:round;fill:none"/>
                        <path data-name="선 227" transform="translate(74.699 238.905)" style="stroke:#283030;stroke-linejoin:round;stroke-linecap:round;fill:none" d="M.407 13.869 0 0"/>
                        <path data-name="패스 2457" d="m58.341 82.83 16.018 40.828 4.617-38.993-7.121 1.8z" transform="translate(-9.198 -14.06)" style="fill:#fff;stroke:#707070"/>
                        <path data-name="패스 2458" d="m58.341 82.83 16.018 40.828 4.617-38.993-7.121 1.8z" transform="translate(-9.198 -14.06)" style="stroke:#283030;stroke-linejoin:round;stroke-linecap:round;fill:none"/>
                        <path data-name="패스 2459" d="M56.085 76.122 70.48 85.33l-6.545 9.057a3.6 3.6 0 0 1-5.945-.187l-8.372-13.259z" transform="translate(-7.822 -12.921)" style="fill:#fff;stroke:#707070"/>
                        <path data-name="패스 2460" d="M56.085 76.122 70.48 85.33l-6.545 9.057a3.6 3.6 0 0 1-5.945-.187l-8.372-13.259z" transform="translate(-7.822 -12.921)" style="stroke:#283030;stroke-linejoin:round;stroke-linecap:round;fill:none"/>
                        <path data-name="패스 2461" d="M74.384 85.99 81.592 80l5.062 7.133-3.164 9.349a2.094 2.094 0 0 1-3.851.242z" transform="translate(-11.727 -13.58)" style="fill:#fff;stroke:#707070"/>
                        <path data-name="패스 2462" d="M74.384 85.99 81.592 80l5.062 7.133-3.164 9.349a2.094 2.094 0 0 1-3.851.242z" transform="translate(-11.727 -13.58)" style="stroke:#283030;stroke-linejoin:round;stroke-linecap:round;fill:none"/>
                        <path data-name="패스 2463" d="M115.016 171.369s13.3 6.657 7.583 18.909z" transform="translate(-18.133 -29.088)" style="fill:#f8dcd8;stroke:#707070"/>
                        <path data-name="패스 2464" d="M115.016 171.369s13.3 6.657 7.583 18.909z" transform="translate(-18.133 -29.088)" style="stroke:#283030;stroke-linejoin:round;stroke-linecap:round;fill:none"/>
                        <path data-name="패스 2465" d="m68.535 94.03 4.927-6.817 3.886 7.939.255 5.287h-1.337l1.525 8.548-1.825 15.413-6.675-17.014 1.777-6.949h-1.777z" transform="translate(-10.805 -14.804)" style="fill:#447aad;stroke:#707070"/>
                        <path data-name="패스 2466" d="m68.535 94.03 4.927-6.817 3.886 7.939.255 5.287h-1.337l1.525 8.548-1.825 15.413-6.675-17.014 1.777-6.949h-1.777z" transform="translate(-10.805 -14.804)" style="stroke:#283030;stroke-linejoin:round;stroke-linecap:round;fill:none"/>
                        <path data-name="선 228" transform="translate(60.264 85.635)" style="stroke:#283030;stroke-linejoin:round;stroke-linecap:round;fill:none" d="M0 0h5.197"/>
                        <path data-name="패스 2467" d="m114.328 193.7 6.7-3.149a2.2 2.2 0 0 1 2.906 1.014l.583 1.2a2.14 2.14 0 0 1-1.029 2.864l-6.7 3.15a2.2 2.2 0 0 1-2.906-1.015l-.582-1.2a2.142 2.142 0 0 1 1.029-2.865" transform="translate(-17.829 -32.308)" style="fill:#f8dcd8;stroke:#707070"/>
                        <path data-name="패스 2468" d="m2.164 0 7.4.041a2.194 2.194 0 0 1 2.187 2.169l.008 1.337A2.134 2.134 0 0 1 9.6 5.688l-7.4-.041A2.194 2.194 0 0 1 .009 3.48L0 2.144A2.136 2.136 0 0 1 2.164 0z" transform="rotate(-25.503 405.905 -127.731)" style="stroke:#283030;stroke-linecap:round;fill:none"/>
                        <path data-name="패스 2469" d="m111.285 187.322 6.7-3.15a2.2 2.2 0 0 1 2.906 1.015l.582 1.2a2.142 2.142 0 0 1-1.028 2.864l-6.7 3.15a2.2 2.2 0 0 1-2.905-1.014l-.583-1.2a2.141 2.141 0 0 1 1.029-2.864" transform="translate(-17.349 -31.226)" style="fill:#f8dcd8;stroke:#707070"/>
                        <path data-name="패스 2470" d="m2.163 0 7.4.041a2.194 2.194 0 0 1 2.186 2.167l.008 1.336A2.136 2.136 0 0 1 9.6 5.689l-7.4-.041A2.193 2.193 0 0 1 .009 3.481L0 2.143A2.135 2.135 0 0 1 2.163 0z" transform="rotate(-25.503 392.93 -124.717)" style="stroke:#283030;stroke-linecap:round;fill:none"/>
                        <path data-name="패스 2471" d="m108.244 180.948 6.7-3.149a2.2 2.2 0 0 1 2.906 1.014l.583 1.2a2.141 2.141 0 0 1-1.029 2.864l-6.7 3.15a2.2 2.2 0 0 1-2.906-1.014l-.583-1.2a2.141 2.141 0 0 1 1.029-2.864" transform="translate(-16.869 -30.144)" style="fill:#f8dcd8;stroke:#707070"/>
                        <path data-name="패스 2472" d="m2.164 0 7.4.041a2.194 2.194 0 0 1 2.188 2.169l.008 1.336A2.136 2.136 0 0 1 9.6 5.688l-7.4-.041A2.194 2.194 0 0 1 .009 3.48L0 2.144A2.136 2.136 0 0 1 2.164 0z" transform="rotate(-25.501 379.979 -121.717)" style="stroke:#283030;stroke-linecap:round;fill:none"/>
                        <path data-name="패스 2473" d="m105.2 174.572 6.7-3.15a2.2 2.2 0 0 1 2.907 1.014l.582 1.2a2.142 2.142 0 0 1-1.029 2.865l-6.7 3.15a2.2 2.2 0 0 1-2.906-1.014l-.581-1.2a2.139 2.139 0 0 1 1.029-2.864" transform="translate(-16.39 -29.062)" style="fill:#f8dcd8;stroke:#707070"/>
                        <path data-name="패스 2474" d="m2.164 0 7.4.041a2.194 2.194 0 0 1 2.186 2.167l.008 1.337A2.135 2.135 0 0 1 9.6 5.689l-7.4-.041A2.193 2.193 0 0 1 .009 3.482L0 2.145A2.136 2.136 0 0 1 2.164 0z" transform="rotate(-25.506 366.937 -118.664)" style="stroke:#283030;stroke-linecap:round;fill:none"/>
                        <path data-name="패스 2475" d="M120.716 160.059s5.638-9.532 9.566-11.129" transform="translate(-19.031 -25.279)" style="stroke:#283030;stroke-linejoin:round;stroke-linecap:round;fill:none"/>
                        <path data-name="패스 2476" d="M11.777 94.5s4.851 6.853 11.328.3c5.039-5.094 2.68-13.675 2.68-13.675" transform="translate(-1.857 -13.771)" style="stroke:#283030;stroke-linejoin:round;stroke-linecap:round;fill:none"/>
                    </g>
                </g>
            </g>
        </g>
    </g>
</svg>
