<svg xmlns="http://www.w3.org/2000/svg" width="48" height="48" viewBox="0 0 48 48">
    <defs>
        <clipPath id="qmx2jr067a">
            <path data-name="사각형 1646" style="stroke-width:.5px;stroke:#707070;fill:none" d="M0 0h36v40.361H0z"/>
        </clipPath>
    </defs>
    <path data-name="사각형 3819" style="fill:transparent" d="M0 0h48v48H0z"/>
    <g data-name="그룹 2089" transform="translate(6 3.999)" style="clip-path:url(#qmx2jr067a)">
        <path data-name="패스 1015" d="m36.953 68.133-5.48 2.29v7.42H9.455l-5.218-9.71 1.1-5.784a2.633 2.633 0 0 1 .095-.491c1.19-4.1 11.191-5.374 11.191-5.374l3.973-.193 3.977.19s10.872 1.382 11.289 5.919z" transform="translate(-2.973 -37.78)" style="fill:#f2674a;stroke-width:.5px;stroke:#707070"/>
        <path data-name="패스 1016" d="m36.953 68.133-5.48 2.29v7.42H9.455l-5.218-9.71 1.1-5.784a2.633 2.633 0 0 1 .095-.491v0c1.19-4.1 11.191-5.374 11.191-5.374l3.973-.193 3.977.19s10.872 1.382 11.289 5.919z" transform="translate(-2.973 -37.78)" style="stroke-linecap:round;stroke-linejoin:round;stroke:#0e0000;stroke-width:.5px;fill:none"/>
        <path data-name="패스 1018" d="M26.3 11.179s-2.617 8.48 3.934 8.406c4.583-.051-.268-4.776-.268-4.776L32.2 2.8s-3.964 2.023-5.9 8.379z" transform="translate(-18.093 -.466)" style="stroke:#000;stroke-linecap:round;stroke-linejoin:round;stroke-width:.5px"/>
        <path data-name="패스 1020" d="M76.427 11.084s2.715 8.264-3.418 8.362c-4.291.068.1-4.7.1-4.7L70.638 3s3.775 1.888 5.789 8.084z" transform="translate(-49.913 -.669)" style="stroke:#000;stroke-linecap:round;stroke-linejoin:round;stroke-width:.5px"/>
        <path data-name="패스 1021" d="M34.559 6.921a5.962 5.962 0 0 1 6-5.922h2.385a5.962 5.962 0 0 1 6 5.922z" transform="translate(-24.442 1.02)" style="stroke:#000;stroke-width:.5px"/>
        <path data-name="패스 1022" d="M34.559 7.023h0A5.974 5.974 0 0 1 40.481 1h2.353a5.973 5.973 0 0 1 5.922 6.024z" transform="translate(-24.252 .918)" style="stroke-linecap:round;stroke-linejoin:round;stroke:#0e0000;stroke-width:.5px;fill:none"/>
        <path data-name="패스 1024" d="M53.718 49.194h0a1.609 1.609 0 0 1-.538-1.2V45.9h-6.873v2.09a1.61 1.61 0 0 1-.538 1.2h0c2.238 1.268 4.81 1.504 7.949.004z" transform="translate(-32.119 -30.492)" style="fill:#f7c8c9;stroke-linecap:round;stroke-linejoin:round;stroke:#0e0000;stroke-width:.5px"/>
        <path data-name="패스 1026" d="M34.268 26.7a1.11 1.11 0 0 1-.72.276 1.553 1.553 0 0 1-1.319-1.709 1.553 1.553 0 0 1 1.319-1.709 1.127 1.127 0 0 1 .772.323z" transform="translate(-22.617 -14.809)" style="fill:#f7c8c9;stroke:#000;stroke-linecap:round;stroke-linejoin:round;stroke-width:.5px"/>
        <path data-name="패스 1027" d="M77.536 26.7a1.11 1.11 0 0 0 .72.276 1.553 1.553 0 0 0 1.319-1.709 1.553 1.553 0 0 0-1.319-1.709 1.127 1.127 0 0 0-.772.323z" transform="translate(-54.375 -14.809)" style="fill:#f7c8c9;stroke-width:.5px;stroke:#707070"/>
        <path data-name="패스 1028" d="M77.536 26.7a1.11 1.11 0 0 0 .72.276 1.553 1.553 0 0 0 1.319-1.709 1.553 1.553 0 0 0-1.319-1.709 1.127 1.127 0 0 0-.772.323z" transform="translate(-54.375 -14.809)" style="stroke:#000;stroke-linecap:round;stroke-linejoin:round;stroke-width:.5px;fill:none"/>
        <path data-name="패스 1029" d="M43.717 27.781h-.282c-3.392 0-6.143-3.992-6.143-7.384V18.9a1.494 1.494 0 0 1 1.661-1.482c3.376.367 4.941-1.409 4.691-1.427s.941 1.589 4.545 1.44a1.5 1.5 0 0 1 1.67 1.481V20.4c0 3.393-2.75 7.384-6.143 7.384" transform="translate(-26.17 -9.504)" style="fill:#f7c8c9;stroke:#000;stroke-width:.5px"/>
        <path data-name="패스 1031" d="M51.71 29.161c0 .243-.131.439-.293.439s-.293-.2-.293-.439.131-.44.293-.44.293.2.293.44" transform="translate(-35.877 -18.435)" style="fill:#030700;stroke:#000;stroke-width:.5px"/>
        <path data-name="패스 1032" d="M51.71 29.161c0 .243-.131.439-.293.439s-.293-.2-.293-.439.131-.44.293-.44.293.197.293.44z" transform="translate(-35.877 -18.435)" style="stroke-linecap:round;stroke-linejoin:round;stroke:#0e0000;stroke-width:.5px;fill:none"/>
        <path data-name="패스 1033" d="M63.7 29.161c0 .243.131.439.293.439s.293-.2.293-.439-.131-.44-.293-.44-.293.2-.293.44" transform="translate(-44.701 -18.435)" style="fill:#030700;stroke:#000;stroke-width:.5px"/>
        <path data-name="패스 1034" d="M63.7 29.161c0 .243.131.439.293.439s.293-.2.293-.439-.131-.44-.293-.44-.293.197-.293.44z" transform="translate(-44.701 -18.435)" style="stroke-linecap:round;stroke-linejoin:round;stroke:#0e0000;stroke-width:.5px;fill:none"/>
        <path data-name="패스 1035" d="M53.1 37.43a3.031 3.031 0 0 0 3.278 0" transform="translate(-37.263 -24.546)" style="stroke-linecap:round;stroke-linejoin:round;stroke:#0e0000;stroke-width:.5px;fill:none"/>
        <path data-name="패스 1036" d="M45.285 32a.748.748 0 1 1-.736-.612.682.682 0 0 1 .736.612" transform="translate(-30.747 -20.308)" style="fill:#f7a6aa"/>
        <path data-name="패스 1037" d="M69.449 32a.748.748 0 1 1-.736-.612.682.682 0 0 1 .736.612" transform="translate(-47.704 -20.308)" style="fill:#f7a6aa"/>
        <path data-name="선 3" transform="translate(17.474 11.083)" style="stroke-linecap:round;stroke-linejoin:round;stroke:#0e0000;stroke-width:.5px;fill:none" d="M0 0h0"/>
        <path data-name="패스 1039" d="m94.83 92.426 1.925 10.774h-8.347L87 94.7" transform="translate(-61.054 -63.141)" style="fill:#f2674a;stroke-width:.5px;stroke:#707070"/>
        <path data-name="패스 1040" d="m94.83 92.426 1.925 10.774h-8.347L87 94.7" transform="translate(-61.054 -63.141)" style="stroke-linecap:round;stroke-linejoin:round;stroke:#0e0000;stroke-width:.5px;fill:none"/>
        <path data-name="패스 1041" d="m34.461 78.224 3.994-.489a.936.936 0 0 0 .834-.991.91.91 0 0 0-1.017-.821l.435-.053a.936.936 0 0 0 .834-.991.911.911 0 0 0-1.018-.821.911.911 0 0 0 .789-1.042.936.936 0 0 0-1.049-.761l-.435.053a.911.911 0 0 0 .789-1.042.936.936 0 0 0-1.049-.76l-5.192.636-2.792 4.4 3.677 2.826.565-.069" transform="translate(-20.763 -47.752)" style="fill:#f7c8c9;stroke-width:.5px;stroke:#707070"/>
        <path data-name="패스 1042" d="m34.461 78.224 3.994-.489a.936.936 0 0 0 .834-.991.91.91 0 0 0-1.017-.821l.435-.053a.936.936 0 0 0 .834-.991.911.911 0 0 0-1.018-.821.911.911 0 0 0 .789-1.042.936.936 0 0 0-1.049-.761l-.435.053a.911.911 0 0 0 .789-1.042.936.936 0 0 0-1.049-.76l-5.192.636-2.792 4.4 3.677 2.826.565-.069" transform="translate(-20.763 -47.752)" style="stroke-linecap:round;stroke-linejoin:round;stroke:#0e0000;stroke-width:.5px;fill:none"/>
        <path data-name="선 4" transform="translate(16.279 24.556)" style="fill:#8d75ff;stroke-width:.5px;stroke:#707070" d="M.788 0 0 .096"/>
        <path data-name="선 5" transform="translate(16.279 24.556)" style="stroke-linecap:round;stroke-linejoin:round;stroke:#0e0000;stroke-width:.5px;fill:none" d="M.788 0 0 .096"/>
        <path data-name="선 6" transform="translate(16.894 26.315)" style="fill:#8d75ff;stroke-width:.5px;stroke:#707070" d="M.788 0 0 .097"/>
        <path data-name="선 7" transform="translate(16.894 26.315)" style="stroke-linecap:round;stroke-linejoin:round;stroke:#0e0000;stroke-width:.5px;fill:none" d="M.788 0 0 .097"/>
        <path data-name="선 8" transform="translate(16.721 28.171)" style="fill:#8d75ff;stroke-width:.5px;stroke:#707070" d="M.788 0 0 .097"/>
        <path data-name="선 9" transform="translate(16.721 28.171)" style="stroke-linecap:round;stroke-linejoin:round;stroke:#0e0000;stroke-width:.5px;fill:none" d="M.788 0 0 .097"/>
        <path data-name="패스 1043" d="m32.523 67.883 1.916-3.023a11.508 11.508 0 0 0 .747-2.553.881.881 0 0 1 .773-.752.891.891 0 0 1 .993.776l.162 1.322a.873.873 0 0 0 .973.76l.86-.105" transform="translate(-22.824 -41.472)" style="fill:#f7c8c9;stroke-width:.5px;stroke:#707070"/>
        <path data-name="패스 1044" d="m32.523 67.883 1.916-3.023a11.508 11.508 0 0 0 .747-2.553.881.881 0 0 1 .773-.752.891.891 0 0 1 .993.776l.162 1.322a.873.873 0 0 0 .973.76l.86-.105" transform="translate(-22.824 -41.472)" style="stroke-linecap:round;stroke-linejoin:round;stroke:#0e0000;stroke-width:.5px;fill:none"/>
        <path data-name="패스 1045" d="m2.344 84.837-1.286 7.405a3.831 3.831 0 0 0 3.774 4.486h2.926a3.231 3.231 0 0 0 2.558-1.257l5.925-7.671-5.928-4.6-5.549 6.764" transform="translate(-.702 -56.666)" style="fill:#f2674a;stroke-width:.5px;stroke:#707070"/>
        <path data-name="패스 1046" d="m2.344 84.837-1.286 7.405a3.831 3.831 0 0 0 3.774 4.486h2.926a3.231 3.231 0 0 0 2.558-1.257l5.925-7.671-5.928-4.6-5.549 6.764" transform="translate(-.702 -56.666)" style="stroke-linecap:round;stroke-linejoin:round;stroke:#0e0000;stroke-width:.5px;fill:none"/>
        <ellipse data-name="타원 60" cx="5.242" cy="2.49" rx="5.242" ry="2.49" transform="translate(12.056 1.573)"/>
    </g>
</svg>
