<svg xmlns="http://www.w3.org/2000/svg" width="48" height="48" viewBox="0 0 48 48">
    <defs>
        <clipPath id="ofrib1rd1a">
            <path data-name="사각형 1651" style="stroke-width:.5px;stroke:#707070;fill:none" d="M0 0h36.813v44.176H0z"/>
        </clipPath>
    </defs>
    <path data-name="사각형 3819" style="fill:transparent" d="M0 0h48v48H0z"/>
    <g data-name="그룹 2090" transform="translate(5.999 2)" style="clip-path:url(#ofrib1rd1a)">
        <path data-name="패스 1048" d="M25.67 7.712s-.545-7.5 8.109-6.549c0 0 6.851-1.8 7.066 6.549z" transform="translate(-14.793 -.582)" style="stroke-linejoin:round;stroke:#0e0000;stroke-linecap:round;stroke-width:.5px"/>
        <path data-name="사각형 1647" transform="translate(12.583 7.13)" style="fill:#030700;stroke-width:.5px;stroke:#707070" d="M0 0h13.469v2.382H0z"/>
        <path data-name="패스 1124" d="M0 0h13.469v2.382H0z" transform="translate(12.583 7.13)" style="stroke:#0e0000;stroke-linecap:round;stroke-width:.5px;fill:none"/>
        <path data-name="패스 1050" d="M41.433 46.181c-3.2 1.529-5.815 1.288-8.09 0h0a1.636 1.636 0 0 1-1.1.43l3.67 7.89.5 1.072.758 1.629 5.374-10.59a1.636 1.636 0 0 1-1.1-.43z" transform="translate(-18.775 -26.879)" style="stroke-linejoin:round;stroke:#0e0000;stroke-linecap:round;stroke-width:.5px;fill:none"/>
        <path data-name="패스 1052" d="M42.96 41.516h0a1.64 1.64 0 0 1-.547-1.22v-2.133h-6.99v2.129a1.64 1.64 0 0 1-.548 1.221h0c2.277 1.287 4.892 1.532 8.085.003z" transform="translate(-20.287 -22.214)" style="fill:#f7c8c9;stroke-linejoin:round;stroke:#0e0000;stroke-linecap:round;stroke-width:.5px"/>
        <path data-name="사각형 1649" transform="translate(10.87 7.13)" style="stroke:#000;fill:#030700;stroke-width:.5px" d="M0 0h1.445v2.382H0z"/>
        <path data-name="패스 1053" d="M57.986 22.786a1.13 1.13 0 0 0 .733.282 1.582 1.582 0 0 0 1.343-1.741 1.582 1.582 0 0 0-1.343-1.742 1.145 1.145 0 0 0-.786.329" transform="translate(-33.739 -11.4)" style="fill:#f7c8c9;stroke-width:.5px;stroke:#707070"/>
        <path data-name="패스 1054" d="M57.986 22.786a1.13 1.13 0 0 0 .733.282 1.582 1.582 0 0 0 1.343-1.741 1.582 1.582 0 0 0-1.343-1.742 1.145 1.145 0 0 0-.786.329" transform="translate(-33.739 -11.4)" style="stroke-linejoin:round;stroke:#0e0000;stroke-linecap:round;stroke-width:.5px;fill:none"/>
        <path data-name="패스 1055" d="M27.108 22.786a1.13 1.13 0 0 1-.732.282 1.582 1.582 0 0 1-1.343-1.741 1.582 1.582 0 0 1 1.343-1.742 1.147 1.147 0 0 1 .786.329" transform="translate(-14.578 -11.4)" style="fill:#f7c8c9;stroke-width:.5px;stroke:#707070"/>
        <path data-name="패스 1056" d="M27.108 22.786a1.13 1.13 0 0 1-.732.282 1.582 1.582 0 0 1-1.343-1.741 1.582 1.582 0 0 1 1.343-1.742 1.147 1.147 0 0 1 .786.329" transform="translate(-14.578 -11.4)" style="stroke-linejoin:round;stroke:#0e0000;stroke-linecap:round;stroke-width:.5px;fill:none"/>
        <path data-name="패스 1058" d="M35.253 27.1h-.287c-3.454 0-6.254-4.125-6.254-7.63v-1.542c0-.921 1.009-2.138 1.692-1.531s4.706-.862 4.706-.862 3.089 1.544 4.7.875a1.531 1.531 0 0 1 1.7 1.53v1.53c-.003 3.506-2.803 7.63-6.257 7.63z" transform="translate(-16.721 -9.204)" style="fill:#f7c8c9;stroke-linejoin:round;stroke:#0e0000;stroke-linecap:round;stroke-width:.5px"/>
        <path data-name="패스 1059" d="M38.8 25.229c0 .227-.122.41-.273.41s-.273-.183-.273-.41.122-.41.273-.41.273.183.273.41" transform="translate(-22.28 -14.446)" style="fill:#030700;stroke-width:.5px;stroke:#707070"/>
        <ellipse data-name="타원 57" cx=".273" cy=".41" rx=".273" ry=".41" transform="translate(15.977 10.373)" style="stroke-linejoin:round;stroke:#0e0000;stroke-linecap:round;stroke-width:.5px;fill:none"/>
        <path data-name="패스 1060" d="M49.375 25.229c0 .227.122.41.273.41s.273-.183.273-.41-.122-.41-.273-.41-.273.183-.273.41" transform="translate(-28.755 -14.446)" style="fill:#030700;stroke-width:.5px;stroke:#707070"/>
        <ellipse data-name="타원 58" cx=".273" cy=".41" rx=".273" ry=".41" transform="translate(20.62 10.373)" style="stroke-linejoin:round;stroke:#0e0000;stroke-linecap:round;stroke-width:.5px;fill:none"/>
        <path data-name="패스 1062" d="M48.939 47.208s8.545-.1 10 3.426 2.371 14.361 2.371 14.361h-4.049l-.081 6.241H44.017V57.8z" transform="translate(-25.633 -27.478)" style="fill:#89cfd3;stroke-linejoin:round;stroke:#0e0000;stroke-linecap:round;stroke-width:.5px"/>
        <path data-name="패스 1063" d="m70.066 83.317 1.156 8.137H77.2l-.713-6.241-.327-3.273" transform="translate(-40.805 -47.695)" style="fill:#89cfd3;stroke-width:.5px;stroke:#707070"/>
        <path data-name="패스 1064" d="m70.066 83.317 1.156 8.137H77.2l-.713-6.241-.327-3.273" transform="translate(-40.805 -47.695)" style="stroke-linejoin:round;stroke:#0e0000;stroke-linecap:round;stroke-width:.5px;fill:none"/>
        <path data-name="패스 1066" d="M56.27 77.648h-1.956a1.933 1.933 0 0 1-1.932-1.933v-3.892H58.2v3.891a1.933 1.933 0 0 1-1.93 1.934z" transform="translate(-30.506 -41.806)" style="stroke-linejoin:round;stroke:#0e0000;stroke-linecap:round;stroke-width:.5px;fill:none"/>
        <path data-name="패스 1067" d="m38.21 49.366-.528 1.148a1.614 1.614 0 0 1-2.529.542l-1.117-.977" transform="translate(-19.822 -28.735)" style="stroke-linejoin:round;stroke:#0e0000;stroke-linecap:round;stroke-width:.5px;fill:none"/>
        <path data-name="패스 1068" d="m44.032 49.366.528 1.148a1.614 1.614 0 0 0 2.528.542l1.118-.977" transform="translate(-25.643 -28.735)" style="stroke-linejoin:round;stroke:#0e0000;stroke-linecap:round;stroke-width:.5px;fill:none"/>
        <path data-name="패스 1070" d="M15.084 47.133s-8.545-.1-10 3.426S2.708 64.92 2.708 64.92h4.054l.081 6.241h13.163V57.72z" transform="translate(-1.577 -27.434)" style="fill:#89cfd3;stroke-linejoin:round;stroke:#0e0000;stroke-linecap:round;stroke-width:.5px"/>
        <path data-name="패스 1071" d="m8.135 83.242-1.156 8.137H1l.713-6.241.327-3.272" transform="translate(-.582 -47.652)" style="fill:#89cfd3;stroke-width:.5px;stroke:#707070"/>
        <path data-name="패스 1072" d="m8.135 83.242-1.156 8.137H1l.713-6.241.327-3.272" transform="translate(-.582 -47.652)" style="stroke-linejoin:round;stroke:#0e0000;stroke-linecap:round;stroke-width:.5px;fill:none"/>
        <path data-name="패스 1073" d="M39.174 33.608a4.242 4.242 0 0 0 4.59 0" transform="translate(-22.814 -19.562)" style="stroke-linejoin:round;stroke:#0e0000;stroke-linecap:round;stroke-width:.5px;fill:none"/>
        <path data-name="패스 1074" d="M34.951 28.426a1.048 1.048 0 1 1-1.03-.857.956.956 0 0 1 1.03.857" transform="translate(-19.154 -16.047)" style="fill:#f7a6aa"/>
        <path data-name="패스 1075" d="M53.114 28.426a1.048 1.048 0 1 1-1.03-.857.956.956 0 0 1 1.03.857" transform="translate(-29.732 -16.047)" style="fill:#f7a6aa"/>
        <path data-name="선 10" transform="translate(18.655 11.522)" style="stroke-linejoin:round;stroke:#0e0000;stroke-linecap:round;stroke-width:.5px;fill:none" d="M0 0h0"/>
    </g>
</svg>
