<svg xmlns="http://www.w3.org/2000/svg" width="80" height="102.86" viewBox="0 0 80 102.86">
    <path d="M8 0h64a8 8 0 0 1 8 8v86.86a8 8 0 0 1-8 8H8a8 8 0 0 1-8-8V8a8 8 0 0 1 8-8z" style="fill:#f4f5f6"/>
    <g data-name="그룹 5752">
        <path data-name="패스 67055" d="M18.17 44.69a5.541 5.541 0 0 1 2.22.45 5.877 5.877 0 0 1 1.82 1.22 5.776 5.776 0 0 1 1.22 1.81 5.494 5.494 0 0 1 .45 2.21v5.45h-1.9v-1.22a6.011 6.011 0 0 1-1.73 1.06 5.734 5.734 0 0 1-2.08.38 5.378 5.378 0 0 1-2.2-.45 6 6 0 0 1-1.8-1.21 5.62 5.62 0 0 1-1.22-1.8 5.652 5.652 0 0 1 0-4.42 5.737 5.737 0 0 1 3.02-3.03 5.378 5.378 0 0 1 2.2-.45zm0 1.88a3.866 3.866 0 0 0-1.48.29 3.755 3.755 0 0 0-1.21.82 4.287 4.287 0 0 0-.82 1.22 3.7 3.7 0 0 0-.31 1.48 3.539 3.539 0 0 0 .31 1.48 3.874 3.874 0 0 0 2.03 2.03 3.738 3.738 0 0 0 1.48.31 3.566 3.566 0 0 0 1.5-.31 3.921 3.921 0 0 0 1.21-.82 3.781 3.781 0 0 0 .81-1.21 3.721 3.721 0 0 0 .29-1.48 3.866 3.866 0 0 0-.29-1.48 3.94 3.94 0 0 0-.81-1.22 3.65 3.65 0 0 0-1.21-.82 3.967 3.967 0 0 0-1.5-.29z" style="fill:#ced0d0"/>
        <path data-name="패스 67056" d="M31.72 44.69a5.536 5.536 0 0 1 2.08.39 5.907 5.907 0 0 1 1.73 1.07v-6.27h1.85v10.5a5.459 5.459 0 0 1-.45 2.21 5.638 5.638 0 0 1-3.01 3.01 5.494 5.494 0 0 1-2.21.45 5.412 5.412 0 0 1-2.2-.45 6 6 0 0 1-1.8-1.21 5.62 5.62 0 0 1-1.22-1.8 5.652 5.652 0 0 1 0-4.42 5.776 5.776 0 0 1 1.22-1.81 5.848 5.848 0 0 1 1.8-1.22 5.494 5.494 0 0 1 2.21-.45zm0 1.88a3.866 3.866 0 0 0-1.48.29 3.755 3.755 0 0 0-1.21.82 4.287 4.287 0 0 0-.82 1.22 3.7 3.7 0 0 0-.31 1.48 3.539 3.539 0 0 0 .31 1.48 3.874 3.874 0 0 0 2.03 2.03 3.7 3.7 0 0 0 1.48.31 3.539 3.539 0 0 0 1.48-.31 4.09 4.09 0 0 0 1.22-.82 3.65 3.65 0 0 0 .82-1.21 3.721 3.721 0 0 0 .29-1.48 3.866 3.866 0 0 0-.29-1.48 3.8 3.8 0 0 0-.82-1.22 3.91 3.91 0 0 0-1.22-.82 3.866 3.866 0 0 0-1.48-.29z" style="fill:#ced0d0"/>
        <path data-name="패스 67057" d="M39.41 39.9h1.87v2.53h-1.87zm0 5.06h1.87v10.9h-1.87z" style="fill:#ced0d0"/>
        <path data-name="패스 67058" d="M48.76 44.76a5.494 5.494 0 0 1 2.21.45 5.923 5.923 0 0 1 1.81 1.21 5.64 5.64 0 0 1-1.12 8.91 5.294 5.294 0 0 1 1.05 1.47 4.075 4.075 0 0 1 .41 1.82 3.9 3.9 0 0 1-.37 1.69 4.349 4.349 0 0 1-1.02 1.38 5.415 5.415 0 0 1-1.51.94 4.9 4.9 0 0 1-1.84.35v-1.85a3.221 3.221 0 0 0 1.12-.2 2.951 2.951 0 0 0 .93-.54 2.654 2.654 0 0 0 .62-.8 2.133 2.133 0 0 0 .23-.97 2.4 2.4 0 0 0-.2-.97 2.544 2.544 0 0 0-.55-.8 2.781 2.781 0 0 0-.8-.55 2.4 2.4 0 0 0-.97-.2 5.412 5.412 0 0 1-2.2-.45 5.765 5.765 0 0 1-3.02-3.02 5.412 5.412 0 0 1-.45-2.2 5.542 5.542 0 0 1 .45-2.22 5.717 5.717 0 0 1 1.22-1.81 5.877 5.877 0 0 1 1.8-1.21 5.752 5.752 0 0 1 2.2-.43zm0 1.87a3.866 3.866 0 0 0-1.48.29 3.65 3.65 0 0 0-1.21.82 4.287 4.287 0 0 0-.82 1.22 3.8 3.8 0 0 0 0 2.96 3.806 3.806 0 0 0 .82 1.21 3.977 3.977 0 0 0 1.21.82 3.738 3.738 0 0 0 1.48.31 3.566 3.566 0 0 0 1.5-.31 3.921 3.921 0 0 0 1.21-.82 3.781 3.781 0 0 0 .81-1.21 3.687 3.687 0 0 0 .29-1.48 3.866 3.866 0 0 0-.29-1.48 3.784 3.784 0 0 0-2.02-2.04 3.893 3.893 0 0 0-1.5-.29z" style="fill:#ced0d0"/>
        <path data-name="패스 67059" d="M61.79 44.69a5.542 5.542 0 0 1 2.22.45 5.877 5.877 0 0 1 1.82 1.22 5.951 5.951 0 0 1 1.22 1.81 5.494 5.494 0 0 1 .45 2.21v5.45h-1.9v-1.22a6.011 6.011 0 0 1-1.73 1.06 5.734 5.734 0 0 1-2.08.38 5.412 5.412 0 0 1-2.2-.45 6 6 0 0 1-1.8-1.21 5.62 5.62 0 0 1-1.22-1.8 5.652 5.652 0 0 1 0-4.42 5.951 5.951 0 0 1 1.22-1.81 5.732 5.732 0 0 1 1.8-1.22 5.412 5.412 0 0 1 2.2-.45zm0 1.88a3.866 3.866 0 0 0-1.48.29 3.755 3.755 0 0 0-1.21.82 4.287 4.287 0 0 0-.82 1.22 3.8 3.8 0 0 0 0 2.96 3.874 3.874 0 0 0 2.03 2.03 3.738 3.738 0 0 0 1.48.31 3.566 3.566 0 0 0 1.5-.31 3.81 3.81 0 0 0 2.02-2.03 3.721 3.721 0 0 0 .29-1.48 3.866 3.866 0 0 0-.29-1.48 3.772 3.772 0 0 0-.81-1.22 3.65 3.65 0 0 0-1.21-.82 3.893 3.893 0 0 0-1.5-.29z" style="fill:#ced0d0"/>
    </g>
</svg>
