<svg width="28" height="50" viewBox="0 0 28 50" fill="none" xmlns="http://www.w3.org/2000/svg">
<mask id="mask0_210_792" style="mask-type:luminance" maskUnits="userSpaceOnUse" x="0" y="0" width="25" height="50">
<path d="M0 0H25V50H0V0Z" fill="white"/>
</mask>
<g mask="url(#mask0_210_792)">
<path d="M2.2501 5.975C2.0208 5.58158 1.6924 5.25515 1.2976 5.02828C0.902796 4.8014 0.455395 4.68201 9.53674e-05 4.68201C-0.455305 4.68201 -0.902603 4.8014 -1.2974 5.02828C-1.6922 5.25515 -2.0206 5.58158 -2.2499 5.975L-8.0728 15.9708L-19.3812 18.4208C-19.826 18.5175 -20.2377 18.7291 -20.5752 19.0344C-20.9128 19.3398 -21.1644 19.7284 -21.305 20.1613C-21.4456 20.5942 -21.4703 21.0565 -21.3765 21.5019C-21.2828 21.9474 -21.0739 22.3604 -20.7707 22.7L-13.0624 31.3271L-14.2291 42.8375C-14.2751 43.2907 -14.2014 43.7481 -14.0154 44.164C-13.8294 44.5798 -13.5375 44.9396 -13.1689 45.2074C-12.8004 45.4752 -12.368 45.6416 -11.915 45.69C-11.462 45.7384 -11.0042 45.6672 -10.5874 45.4833L9.53674e-05 40.8167L10.5876 45.4833C11.0044 45.6672 11.4622 45.7384 11.9152 45.69C12.3682 45.6416 12.8005 45.4752 13.1691 45.2074C13.5377 44.9396 13.8295 44.5798 14.0156 44.164C14.2016 43.7481 14.2753 43.2907 14.2293 42.8375L13.0626 31.3271L20.7709 22.7021C21.0746 22.3625 21.2839 21.9493 21.378 21.5036C21.472 21.0579 21.4475 20.5953 21.3069 20.162C21.1662 19.7287 20.9144 19.3399 20.5765 19.0344C20.2387 18.7288 19.8265 18.5173 19.3813 18.4208L8.073 15.9708L2.2501 5.975Z" fill="#FBA500"/>
</g>
</svg>
