<svg width="24" height="24" viewBox="0 0 24 24" fill="none" xmlns="http://www.w3.org/2000/svg">
<path d="M4.3845 21C4.00033 21 3.6735 20.8653 3.404 20.596C3.13467 20.3265 3 19.9997 3 19.6155V9.3845C3 9.00033 3.13467 8.6735 3.404 8.404C3.6735 8.13467 4.00033 8 4.3845 8H10.3463V3.76925C10.3463 3.56442 10.4234 3.385 10.5777 3.231C10.7321 3.077 10.9119 3 11.1173 3H12.8883C13.0936 3 13.2725 3.077 13.425 3.231C13.5775 3.385 13.6538 3.56442 13.6538 3.76925V8H19.6155C19.9997 8 20.3265 8.13467 20.596 8.404C20.8653 8.6735 21 9.00033 21 9.3845V19.6155C21 19.9997 20.8653 20.3265 20.596 20.596C20.3265 20.8653 19.9997 21 19.6155 21H4.3845ZM4.3845 20.2307H19.6155C19.7948 20.2307 19.9423 20.1731 20.0578 20.0578C20.1731 19.9423 20.2307 19.7948 20.2307 19.6155V9.3845C20.2307 9.20517 20.1731 9.05775 20.0578 8.94225C19.9423 8.82692 19.7948 8.76925 19.6155 8.76925H13.6538V9.8845C13.6538 10.1205 13.5775 10.3077 13.425 10.4462C13.2725 10.5846 13.0923 10.6538 12.8845 10.6538H11.1155C10.9077 10.6538 10.7275 10.5846 10.575 10.4462C10.4225 10.3077 10.3463 10.1205 10.3463 9.8845V8.76925H4.3845C4.20517 8.76925 4.05775 8.82692 3.94225 8.94225C3.82692 9.05775 3.76925 9.20517 3.76925 9.3845V19.6155C3.76925 19.7948 3.82692 19.9423 3.94225 20.0578C4.05775 20.1731 4.20517 20.2307 4.3845 20.2307ZM6.223 17.3443H11.5828V17.2443C11.5828 17.0084 11.5238 16.7963 11.4058 16.6078C11.2878 16.4193 11.1313 16.2833 10.9365 16.2C10.5185 16.0423 10.1532 15.9343 9.8405 15.876C9.52767 15.8177 9.22317 15.7885 8.927 15.7885C8.62317 15.7885 8.30167 15.8228 7.9625 15.8913C7.62333 15.9599 7.26725 16.0628 6.89425 16.2C6.68275 16.2833 6.518 16.4193 6.4 16.6078C6.282 16.7963 6.223 17.0084 6.223 17.2443V17.3443ZM14.0845 15.727H18.2V14.9578H14.0845V15.727ZM9.7255 14.628C9.93933 14.408 10.0463 14.1416 10.0463 13.8288C10.0463 13.5159 9.93933 13.2496 9.7255 13.0298C9.51167 12.8099 9.2485 12.7 8.936 12.7C8.6235 12.7 8.35733 12.8099 8.1375 13.0298C7.91767 13.2496 7.80775 13.5159 7.80775 13.8288C7.80775 14.1416 7.91767 14.408 8.1375 14.628C8.35733 14.8478 8.6235 14.9578 8.936 14.9578C9.2485 14.9578 9.51167 14.8478 9.7255 14.628ZM14.0845 13.4213H18.2V12.652H14.0845V13.4213ZM11.1155 9.8845H12.8845V3.76925H11.1155V9.8845Z" fill="white"/>
</svg>
