<svg width="24" height="24" viewBox="0 0 24 24" fill="none" xmlns="http://www.w3.org/2000/svg">
<g clip-path="url(#clip0_419_4250)">
<path d="M7.42273 6.34638C6.99073 6.34638 6.6209 6.19247 6.31323 5.88463C6.00557 5.57697 5.85173 5.20713 5.85173 4.77513C5.85173 4.34313 6.00557 3.9713 6.31323 3.65963C6.6209 3.34813 6.99073 3.19238 7.42273 3.19238C7.8549 3.19238 8.22673 3.34813 8.53823 3.65963C8.84973 3.9713 9.00548 4.34313 9.00548 4.77513C9.00548 5.20713 8.84973 5.57697 8.53823 5.88463C8.22673 6.19247 7.8549 6.34638 7.42273 6.34638ZM13.9632 18.7694H7.74598C7.35098 18.7694 6.99932 18.6437 6.69098 18.3924C6.38265 18.1412 6.19323 17.8181 6.12273 17.4231L3.99023 6.70213H4.77673L6.85548 17.3846C6.89398 17.5386 6.98373 17.6797 7.12473 17.8079C7.26573 17.9361 7.41957 18.0001 7.58623 18.0001H13.9632V18.7694ZM19.271 21.3846L16.7055 16.9329H9.06698C8.72348 16.9329 8.42573 16.8335 8.17373 16.6346C7.9219 16.436 7.76073 16.1796 7.69023 15.8656L6.47673 9.85788C6.3524 9.18088 6.50882 8.60747 6.94598 8.13763C7.38315 7.6678 7.90557 7.43288 8.51323 7.43288C8.98123 7.43288 9.3979 7.57872 9.76323 7.87038C10.1286 8.16205 10.3632 8.5463 10.467 9.02313L11.7132 15.1579H15.8247C16.0684 15.1579 16.296 15.2291 16.5075 15.3714C16.719 15.5136 16.8888 15.7007 17.017 15.9329L19.942 21.0001L19.271 21.3846Z" fill="white"/>
</g>
<defs>
<clipPath id="clip0_419_4250">
<rect width="24" height="24" fill="white"/>
</clipPath>
</defs>
</svg>
