<svg width="24" height="24" viewBox="0 0 24 24" fill="none" xmlns="http://www.w3.org/2000/svg">
<g clip-path="url(#clip0_419_4245)">
<path d="M4.5 20V19.2307H6.64625V4H14.5307V5.048H17.3788V19.2307H19.5V20H16.6095V5.81725H14.5307V20H4.5ZM12.1703 12.5395C12.3171 12.3862 12.3905 12.2063 12.3905 12C12.3905 11.7937 12.3171 11.6138 12.1703 11.4605C12.0234 11.3073 11.8436 11.2307 11.6308 11.2307C11.4179 11.2307 11.2349 11.3073 11.0817 11.4605C10.9286 11.6138 10.852 11.7937 10.852 12C10.852 12.2063 10.9286 12.3862 11.0817 12.5395C11.2349 12.6927 11.4179 12.7692 11.6308 12.7692C11.8436 12.7692 12.0234 12.6927 12.1703 12.5395ZM7.4155 19.2307H13.7615V4.76925H7.4155V19.2307Z" fill="white"/>
</g>
<defs>
<clipPath id="clip0_419_4245">
<rect width="24" height="24" fill="white"/>
</clipPath>
</defs>
</svg>
