<svg width="24" height="24" viewBox="0 0 24 24" fill="none" xmlns="http://www.w3.org/2000/svg">
<circle cx="12" cy="12" r="11.5" fill="#F3F3F3" stroke="#CCCCCC"/>
<path d="M10.8333 11.4166V14.9166M13.1667 11.4166V14.9166M16.0833 8.49996V16.6666C16.0833 16.976 15.9604 17.2728 15.7416 17.4916C15.5228 17.7104 15.2261 17.8333 14.9167 17.8333H9.08333C8.77391 17.8333 8.47717 17.7104 8.25838 17.4916C8.03958 17.2728 7.91667 16.976 7.91667 16.6666V8.49996M6.75 8.49996H17.25M9.66667 8.49996V7.33329C9.66667 7.02387 9.78958 6.72713 10.0084 6.50833C10.2272 6.28954 10.5239 6.16663 10.8333 6.16663H13.1667C13.4761 6.16663 13.7728 6.28954 13.9916 6.50833C14.2104 6.72713 14.3333 7.02387 14.3333 7.33329V8.49996" stroke="#666666" stroke-linecap="round" stroke-linejoin="round"/>
</svg>
