<svg width="32" height="32" viewBox="0 0 32 32" fill="none" xmlns="http://www.w3.org/2000/svg">
<g clip-path="url(#clip0_1024_16215)">
<path d="M19.0789 6.26265C19.7699 5.67397 20.8686 6.13921 20.8686 7.0202V25.9792C20.8686 26.8608 19.7699 27.326 19.0789 26.7374L14.0474 22.4483C13.5131 21.9925 12.8202 21.7404 12.102 21.7402H9.21898C8.36525 21.7402 7.54649 21.4182 6.94282 20.8449C6.33914 20.2716 6 19.494 6 18.6833V14.3162C6 12.6276 7.44088 11.2592 9.21898 11.2592H12.102C12.8202 11.2591 13.5131 11.0069 14.0474 10.5511L19.0789 6.26265ZM19.3358 7.99959L15.0714 11.6354C14.2556 12.3306 13.1981 12.715 12.102 12.7149H9.21898C8.77179 12.7149 8.34291 12.8836 8.0267 13.1839C7.71049 13.4842 7.53285 13.8915 7.53285 14.3162V18.6833C7.53285 19.108 7.71049 19.5152 8.0267 19.8155C8.34291 20.1158 8.77179 20.2845 9.21898 20.2845H12.102C13.1981 20.2846 14.2557 20.6692 15.0714 21.3647L19.3358 25.001V7.99959ZM23.526 10.9098C23.5944 10.8397 23.6768 10.7831 23.7683 10.7432C23.8598 10.7034 23.9587 10.681 24.0593 10.6774C24.1599 10.6739 24.2603 10.6892 24.3546 10.7224C24.449 10.7557 24.5356 10.8063 24.6094 10.8714L24.61 10.8726L24.6112 10.8737L24.6143 10.8766L24.6229 10.8836L24.6486 10.9075C24.6695 10.9269 24.6975 10.9539 24.7326 10.9884C24.8019 11.0571 24.8975 11.1556 25.0098 11.2825C25.2342 11.5364 25.5291 11.9067 25.8228 12.3847C26.5927 13.6329 26.999 15.0532 27 16.4997C27 18.26 26.4095 19.6592 25.8228 20.6153C25.5285 21.0927 25.2342 21.4637 25.0098 21.7175C24.895 21.8475 24.7743 21.9726 24.648 22.0925L24.6364 22.1036L24.6229 22.1158L24.6143 22.1234L24.6112 22.1263L24.61 22.128H24.6088C24.4595 22.2563 24.2631 22.3237 24.062 22.3156C23.8609 22.3075 23.6712 22.2247 23.5339 22.0849C23.3967 21.9451 23.3228 21.7596 23.3283 21.5685C23.3338 21.3774 23.4182 21.1961 23.5634 21.0636L23.5646 21.0625L23.5744 21.0531L23.6265 21.0031C23.6743 20.9559 23.7467 20.8814 23.835 20.7812C24.0128 20.5798 24.255 20.277 24.4978 19.8816C25.1313 18.856 25.4659 17.6888 25.4672 16.4997C25.4672 15.0574 24.9846 13.9092 24.4984 13.1184C24.2556 12.7225 24.014 12.4197 23.8362 12.2188C23.7529 12.1249 23.6658 12.0342 23.575 11.9469L23.5646 11.937L23.5652 11.9376C23.4167 11.8061 23.3291 11.6241 23.3217 11.4314C23.3144 11.2387 23.3878 11.0511 23.526 10.9098Z" fill="#111111"/>
</g>
<defs>
<clipPath id="clip0_1024_16215">
<rect width="32" height="32" fill="white"/>
</clipPath>
</defs>
</svg>
