<svg xmlns="http://www.w3.org/2000/svg" width="32" height="32" viewBox="0 0 32 32">
    <path transform="translate(6 6)" style="fill:none;opacity:.2" d="M0 0h20v20H0z"/>
    <path data-name="패스 65251" d="M18.035 2.951H13.71L12.777 1.1A1.967 1.967 0 0 0 11 0H7.492a1.957 1.957 0 0 0-1.781 1.1l-.9 1.856H.5a.493.493 0 0 0-.353.144.5.5 0 0 0 .353.851h1.889V16.6a2.986 2.986 0 0 0 2.974 3h7.811a2.986 2.986 0 0 0 2.971-3V3.951h1.89a.5.5 0 0 0 0-1M6.6 1.551A1 1 0 0 1 7.495 1h3.522a.994.994 0 0 1 .892.551l.669 1.4H5.933zM15.163 16.6a2 2 0 0 1-1.986 2h-7.84a2 2 0 0 1-1.988-2V3.951h11.814z" transform="translate(6.7 6.2)" style="stroke:#111;stroke-width:.4px;fill:#111"/>
    <path data-name="패스 65252" d="M11.178 16.368h.022a.667.667 0 0 0 .667-.667V7.155a.667.667 0 0 0-.18-.491.659.659 0 0 0-.466-.209H11.2a.667.667 0 0 0-.666.648v8.6a.67.67 0 0 0 .643.667" transform="translate(6.7 6.2)" style="fill:#111"/>
    <path data-name="패스 65253" d="M6.9 16.368h.023a.667.667 0 0 0 .667-.667V7.155a.674.674 0 0 0-.181-.491.659.659 0 0 0-.466-.209h-.02a.667.667 0 0 0-.665.647v8.6a.67.67 0 0 0 .643.667" transform="translate(6.7 6.2)" style="fill:#111"/>
    <path data-name="사각형 4846" style="fill:none;opacity:.2" d="M0 0h32v32H0z"/>
</svg>
