<svg width="20" height="20" viewBox="0 0 20 20" fill="none" xmlns="http://www.w3.org/2000/svg">
<path d="M8.15617 4.71766C7.80416 4.21918 7.31676 3.99456 6.79983 4.0001C6.30936 4.00502 5.83181 4.21488 5.43303 4.49427C5.02629 4.78063 4.67946 5.14376 4.41208 5.56322C4.15977 5.96262 3.97761 6.43463 4.00223 6.89557C4.121 9.11286 5.36841 11.4822 7.12045 13.2354C8.87126 14.9869 11.2092 16.2041 13.5698 15.9715C14.0326 15.926 14.4702 15.6903 14.8277 15.39C15.1975 15.0767 15.4997 14.6914 15.7157 14.2576C15.925 13.8318 16.0499 13.3407 15.981 12.8625C15.9096 12.364 15.6308 11.9185 15.1182 11.6231C15.012 11.5615 14.9069 11.4979 14.8031 11.4323C14.7108 11.3751 14.6123 11.3129 14.4929 11.2415C14.2491 11.0912 13.9917 10.9639 13.7243 10.8612C13.4492 10.7609 13.1347 10.6951 12.8073 10.74C12.4683 10.7868 12.1532 10.9468 11.8806 11.2335C11.6707 11.4551 11.3618 11.524 10.9273 11.3985C10.4854 11.2705 9.98821 10.9529 9.5562 10.5234C9.12419 10.095 8.79741 9.5941 8.65772 9.14178C8.51987 8.69377 8.58079 8.36453 8.79618 8.13745C9.08726 7.83098 9.24234 7.49005 9.27496 7.12942C9.30696 6.77864 9.21957 6.44878 9.09465 6.16078C8.90757 5.73061 8.59002 5.30291 8.3414 4.96936C8.27889 4.88597 8.21735 4.80186 8.15678 4.71704" fill="#666666"/>
</svg>
