<svg xmlns="http://www.w3.org/2000/svg" width="28.014" height="28" viewBox="0 0 28.014 28">
    <path data-name="패스 66383" d="M5.876 4h15.072a1.877 1.877 0 0 1 1.877 1.877v13.336L20.3 16.485H5.876A1.877 1.877 0 0 1 4 14.609V5.877A1.877 1.877 0 0 1 5.876 4" transform="translate(3.745 5.787)" style="stroke-width:1.5px;stroke-linecap:round;stroke-linejoin:round;stroke:#333;fill:#feae6d"/>
    <g data-name="그룹 5336">
        <g data-name="그룹 5335">
            <path data-name="패스 66381" d="M5.083 1.78A1.783 1.783 0 0 1 3.3 3.561H0V0h3.3a1.782 1.782 0 0 1 1.78 1.78M3.3 7.122H0V3.561h3.3a1.78 1.78 0 0 1 0 3.561" style="fill:none;stroke-width:1.5px;stroke-linecap:round;stroke-linejoin:round;stroke:#333" transform="translate(15.334 13.25)"/>
        </g>
    </g>
    <path data-name="패스 66382" d="M20.948 4H5.877A1.877 1.877 0 0 0 4 5.877v13.335l2.524-2.727h14.424a1.876 1.876 0 0 0 1.876-1.876V5.877A1.877 1.877 0 0 0 20.948 4" transform="translate(-3.25 1)" style="fill:#34c8cf;stroke-width:1.5px;stroke-linecap:round;stroke-linejoin:round;stroke:#333"/>
    <path data-name="패스 66384" d="m-18673.031-19123.094 2.268-5.848 2.268 5.848" transform="translate(18680.504 19137.123)" style="stroke:#fff;fill:none;stroke-width:1.5px;stroke-linecap:round;stroke-linejoin:round"/>
    <path data-name="패스 66385" d="M-18670.824-19118.471h2.922" transform="translate(18679.082 19130.305)" style="stroke:#fff;fill:none;stroke-width:1.5px"/>
    <path data-name="사각형 4538" style="opacity:.2;fill:none" d="M0 0h28v28H0z" transform="translate(.014)"/>
</svg>
