<svg xmlns="http://www.w3.org/2000/svg" width="28" height="28" viewBox="0 0 28 28">
    <defs>
        <clipPath id="khbxez095a">
            <path data-name="사각형 1662" transform="translate(-7.911 -2.911)" style="fill:red;opacity:.24" d="M0 0h28v28H0z"/>
        </clipPath>
    </defs>
    <g data-name="마스크 그룹 18" transform="translate(7.911 2.911)" style="clip-path:url(#khbxez095a)">
        <g data-name="그룹 2128">
            <path data-name="패스 112" d="M17.967 6.753a1.033 1.033 0 0 0-1.032-1.033H1.783A1.033 1.033 0 0 0 .75 6.753v17.562a1.033 1.033 0 0 0 1.033 1.033h11.191l4.993-4.994z" transform="translate(-5.648 -3.319)" style="stroke-width:1.2px;fill:none;stroke:#111;stroke-linecap:round;stroke-linejoin:round"/>
            <path data-name="패스 113" d="M24.169 27.779h-3.96a1.033 1.033 0 0 0-1.033 1.033v3.961z" transform="translate(-11.85 -10.743)" style="fill:#fff"/>
            <path data-name="패스 114" d="M24.169 27.779h-3.96a1.033 1.033 0 0 0-1.033 1.033v3.961z" transform="translate(-11.85 -10.743)" style="stroke-width:1.2px;fill:none;stroke:#111;stroke-linecap:round;stroke-linejoin:round"/>
            <path data-name="패스 115" d="m19.45 15.846-1.235-1.234-2.469-2.469-.526 2.107-.527 2.106-.3 1.186-.3 1.186 1.185-.3 1.185-.3 2.107-.527 2.107-.527z" transform="translate(-10.141 -5.48)" style="stroke-width:1.2px;fill:none;stroke:#111;stroke-linecap:round;stroke-linejoin:round"/>
            <path data-name="패스 116" d="m27.46 4.069-.851-.851L24.141.75l-3.78 3.779-3.78 3.78 2.469 2.469 2.469 2.469 3.78-3.78 3.779-3.779z" transform="translate(-10.976 -1.646)" style="fill:#34c8cf;stroke:#707070;stroke-width:1.2px"/>
            <path data-name="패스 117" d="M27.46 4.069h0l-.851-.851L24.141.75l-3.78 3.779-3.78 3.78 2.469 2.469 2.469 2.469 3.78-3.78 3.779-3.779z" transform="translate(-10.976 -1.646)" style="stroke-width:1.2px;fill:none;stroke:#111;stroke-linecap:round;stroke-linejoin:round"/>
        </g>
    </g>
</svg>
