<svg xmlns="http://www.w3.org/2000/svg" width="20" height="20" viewBox="0 0 20 20">
    <path data-name="패스 38653" d="M292.78 86.1h8.96c.411 0 .824.006 1.235 0h.018a.846.846 0 0 0 0-1.687h-8.96c-.411 0-.824-.006-1.235 0h-.018a.846.846 0 0 0 0 1.687" transform="translate(-284.4 -81.912)" style="stroke:#16a1a9;stroke-width:.2px;fill:#16a1a9"/>
    <path data-name="패스 38665" d="M295.78 86.1h5.96c.411 0 .824.006 1.235 0h.018a.846.846 0 0 0 0-1.687h-5.96c-.411 0-.824-.006-1.235 0h-.018a.846.846 0 0 0 0 1.687" transform="translate(-284.4 -68.513)" style="stroke:#16a1a9;stroke-width:.2px;fill:#16a1a9"/>
    <path data-name="패스 38663" d="M292.78 86.1h8.96c.411 0 .824.006 1.235 0h.018a.846.846 0 0 0 0-1.687h-8.96c-.411 0-.824-.006-1.235 0h-.018a.846.846 0 0 0 0 1.687" transform="translate(-291.5 -75.213)" style="stroke:#16a1a9;stroke-width:.2px;fill:#16a1a9"/>
    <path data-name="패스 38654" d="M.773 86.232h2.392a.847.847 0 0 0 0-1.687H.773a.847.847 0 0 0 0 1.687" transform="translate(.5 -82.042)" style="stroke:#16a1a9;stroke-width:.2px;fill:#16a1a9"/>
    <path data-name="패스 38667" d="M.773 86.232h5.392a.847.847 0 0 0 0-1.687H.773a.847.847 0 0 0 0 1.687" transform="translate(.5 -68.643)" style="stroke:#16a1a9;stroke-width:.2px;fill:#16a1a9"/>
    <path data-name="패스 38662" d="M.773 86.232h2.392a.847.847 0 0 0 0-1.687H.773a.847.847 0 0 0 0 1.687" transform="translate(15.4 -75.343)" style="stroke:#16a1a9;stroke-width:.2px;fill:#16a1a9"/>
    <path data-name="패스 38655" d="M126.548 3.732a2.288 2.288 0 0 1-.246-.015c.077.011.157.022.235.031a2.061 2.061 0 0 1-.487-.133l.212.089a1.958 1.958 0 0 1-.4-.235l.179.139a1.986 1.986 0 0 1-.347-.347l.139.179a1.918 1.918 0 0 1-.235-.4l.089.212a1.87 1.87 0 0 1-.133-.487c.011.077.022.157.031.235a2.028 2.028 0 0 1 0-.491 8.861 8.861 0 0 0-.031.235 2.062 2.062 0 0 1 .133-.487l-.089.212a1.959 1.959 0 0 1 .235-.4l-.139.179a1.986 1.986 0 0 1 .347-.347l-.179.139a1.917 1.917 0 0 1 .4-.235l-.212.089a1.87 1.87 0 0 1 .487-.133 8.861 8.861 0 0 1-.235.031 2.027 2.027 0 0 1 .491 0 8.861 8.861 0 0 0-.235-.031 2.061 2.061 0 0 1 .487.133l-.212-.089a1.959 1.959 0 0 1 .4.235l-.179-.139a1.985 1.985 0 0 1 .347.347l-.139-.179a1.918 1.918 0 0 1 .235.4l-.089-.212a1.87 1.87 0 0 1 .133.487 8.861 8.861 0 0 1-.031-.235 2.026 2.026 0 0 1 0 .491c.011-.077.022-.157.031-.235a2.061 2.061 0 0 1-.133.487l.089-.212a1.959 1.959 0 0 1-.235.4l.139-.179a1.985 1.985 0 0 1-.347.347l.179-.139a1.918 1.918 0 0 1-.4.235l.212-.089a1.87 1.87 0 0 1-.487.133c.077-.011.157-.022.235-.031a2.288 2.288 0 0 1-.246.015.919.919 0 0 0-.626.259.886.886 0 0 0 .626 1.512 2.7 2.7 0 0 0 1.534-.471 3.133 3.133 0 0 0 .71-.7 2.74 2.74 0 0 0 .4-2.326 2.692 2.692 0 0 0-.839-1.326 3.129 3.129 0 0 0-.852-.5 2.739 2.739 0 0 0-3.422 1.37 3.249 3.249 0 0 0-.179.46 3.2 3.2 0 0 0-.086.5 2.715 2.715 0 0 0 .051.845 2.641 2.641 0 0 0 .879 1.472 3.119 3.119 0 0 0 .905.527 2.6 2.6 0 0 0 .9.153.885.885 0 0 0 0-1.77" transform="translate(-120.599 .6)" style="fill:#16a1a9"/>
    <path data-name="패스 38666" d="M126.548 3.732a2.288 2.288 0 0 1-.246-.015c.077.011.157.022.235.031a2.061 2.061 0 0 1-.487-.133l.212.089a1.958 1.958 0 0 1-.4-.235l.179.139a1.986 1.986 0 0 1-.347-.347l.139.179a1.918 1.918 0 0 1-.235-.4l.089.212a1.87 1.87 0 0 1-.133-.487c.011.077.022.157.031.235a2.028 2.028 0 0 1 0-.491 8.861 8.861 0 0 0-.031.235 2.062 2.062 0 0 1 .133-.487l-.089.212a1.959 1.959 0 0 1 .235-.4l-.139.179a1.986 1.986 0 0 1 .347-.347l-.179.139a1.917 1.917 0 0 1 .4-.235l-.212.089a1.87 1.87 0 0 1 .487-.133 8.861 8.861 0 0 1-.235.031 2.027 2.027 0 0 1 .491 0 8.861 8.861 0 0 0-.235-.031 2.061 2.061 0 0 1 .487.133l-.212-.089a1.959 1.959 0 0 1 .4.235l-.179-.139a1.985 1.985 0 0 1 .347.347l-.139-.179a1.918 1.918 0 0 1 .235.4l-.089-.212a1.87 1.87 0 0 1 .133.487 8.861 8.861 0 0 1-.031-.235 2.026 2.026 0 0 1 0 .491c.011-.077.022-.157.031-.235a2.061 2.061 0 0 1-.133.487l.089-.212a1.959 1.959 0 0 1-.235.4l.139-.179a1.985 1.985 0 0 1-.347.347l.179-.139a1.918 1.918 0 0 1-.4.235l.212-.089a1.87 1.87 0 0 1-.487.133c.077-.011.157-.022.235-.031a2.288 2.288 0 0 1-.246.015.919.919 0 0 0-.626.259.886.886 0 0 0 .626 1.512 2.7 2.7 0 0 0 1.534-.471 3.133 3.133 0 0 0 .71-.7 2.74 2.74 0 0 0 .4-2.326 2.692 2.692 0 0 0-.839-1.326 3.129 3.129 0 0 0-.852-.5 2.739 2.739 0 0 0-3.422 1.37 3.249 3.249 0 0 0-.179.46 3.2 3.2 0 0 0-.086.5 2.715 2.715 0 0 0 .051.845 2.641 2.641 0 0 0 .879 1.472 3.119 3.119 0 0 0 .905.527 2.6 2.6 0 0 0 .9.153.885.885 0 0 0 0-1.77" transform="translate(-117.599 14)" style="fill:#16a1a9"/>
    <path data-name="패스 38664" d="M126.548 3.732a2.288 2.288 0 0 1-.246-.015c.077.011.157.022.235.031a2.061 2.061 0 0 1-.487-.133l.212.089a1.958 1.958 0 0 1-.4-.235l.179.139a1.986 1.986 0 0 1-.347-.347l.139.179a1.918 1.918 0 0 1-.235-.4l.089.212a1.87 1.87 0 0 1-.133-.487c.011.077.022.157.031.235a2.028 2.028 0 0 1 0-.491 8.861 8.861 0 0 0-.031.235 2.062 2.062 0 0 1 .133-.487l-.089.212a1.959 1.959 0 0 1 .235-.4l-.139.179a1.986 1.986 0 0 1 .347-.347l-.179.139a1.917 1.917 0 0 1 .4-.235l-.212.089a1.87 1.87 0 0 1 .487-.133 8.861 8.861 0 0 1-.235.031 2.027 2.027 0 0 1 .491 0 8.861 8.861 0 0 0-.235-.031 2.061 2.061 0 0 1 .487.133l-.212-.089a1.959 1.959 0 0 1 .4.235l-.179-.139a1.985 1.985 0 0 1 .347.347l-.139-.179a1.918 1.918 0 0 1 .235.4l-.089-.212a1.87 1.87 0 0 1 .133.487 8.861 8.861 0 0 1-.031-.235 2.026 2.026 0 0 1 0 .491c.011-.077.022-.157.031-.235a2.061 2.061 0 0 1-.133.487l.089-.212a1.959 1.959 0 0 1-.235.4l.139-.179a1.985 1.985 0 0 1-.347.347l.179-.139a1.918 1.918 0 0 1-.4.235l.212-.089a1.87 1.87 0 0 1-.487.133c.077-.011.157-.022.235-.031a2.288 2.288 0 0 1-.246.015.919.919 0 0 0-.626.259.886.886 0 0 0 .626 1.512 2.7 2.7 0 0 0 1.534-.471 3.133 3.133 0 0 0 .71-.7 2.74 2.74 0 0 0 .4-2.326 2.692 2.692 0 0 0-.839-1.326 3.129 3.129 0 0 0-.852-.5 2.739 2.739 0 0 0-3.422 1.37 3.249 3.249 0 0 0-.179.46 3.2 3.2 0 0 0-.086.5 2.715 2.715 0 0 0 .051.845 2.641 2.641 0 0 0 .879 1.472 3.119 3.119 0 0 0 .905.527 2.6 2.6 0 0 0 .9.153.885.885 0 0 0 0-1.77" transform="translate(-112.599 7.3)" style="fill:#16a1a9"/>
    <path style="fill:none;opacity:.1" d="M0 0h20v20H0z"/>
</svg>
