<svg width="20" height="20" viewBox="0 0 20 20" fill="none" xmlns="http://www.w3.org/2000/svg">
<path d="M7.33333 8H12.6667M7.33333 10.6667H11.3333M11.3333 14H10.6667L7.33333 16V14H6C5.46957 14 4.96086 13.7893 4.58579 13.4142C4.21071 13.0391 4 12.5304 4 12V6.66667C4 6.13624 4.21071 5.62753 4.58579 5.25245C4.96086 4.87738 5.46957 4.66667 6 4.66667H14C14.5304 4.66667 15.0391 4.87738 15.4142 5.25245C15.7893 5.62753 16 6.13624 16 6.66667V9.66667M14.6667 16.6667V16.6733M14.6667 14.6667C14.9655 14.6657 15.2554 14.5645 15.49 14.3793C15.7245 14.1941 15.8902 13.9355 15.9604 13.645C16.0306 13.3545 16.0013 13.0489 15.8772 12.777C15.7531 12.5051 15.5414 12.2827 15.276 12.1453C15.0108 12.0095 14.7074 11.9674 14.4152 12.0258C14.123 12.0843 13.8592 12.2399 13.6667 12.4673" stroke="#666666" stroke-width="1.5" stroke-linecap="round" stroke-linejoin="round"/>
</svg>
