<svg xmlns="http://www.w3.org/2000/svg" width="60" height="60" viewBox="0 0 60 60">
    <g transform="translate(-574.67 -776.672)">
        <rect data-name="사각형 2863" width="43" height="52" rx="3" transform="translate(579.67 780.672)" style="fill:#dbd5cc"/>
        <g data-name="그룹 3037" transform="translate(592.755 788.749)">
            <rect data-name="사각형 2864" width="19.018" height="28.68" rx="3" transform="rotate(-45 24.892 3.136)" style="fill:#868ef4"/>
            <path data-name="패스 65982" d="m605.96 792.908-11.808-3.235 3.235 11.808z" transform="translate(-594.151 -789.673)" style="fill:#2d2b27"/>
            <path data-name="패스 65983" d="m606.214 793.162-8.573 8.573 1.837 6.712c.061.04.126.074.188.112a5.2 5.2 0 0 0 7.684-5.687 5.2 5.2 0 0 0 5.687-7.684c-.037-.063-.071-.127-.111-.188z" transform="translate(-594.406 -789.927)" style="fill:#fff"/>
        </g>
        <path data-name="사각형 2962" transform="translate(574.67 776.672)" style="fill:none;opacity:.2" d="M0 0h60v60H0z"/>
    </g>
</svg>
