<svg xmlns="http://www.w3.org/2000/svg" width="32" height="32" viewBox="0 0 32 32">
    <g data-name="그룹 5709">
        <g data-name="그룹 3233">
            <path data-name="패스 66228" d="M24.456 9.817v-1.1a7.967 7.967 0 0 0-15.934 0v1.1" transform="translate(-.489 3.742)" style="stroke:#111;stroke-linecap:round;stroke-linejoin:round;stroke-width:1.5px;fill:none"/>
            <path data-name="패스 66229" d="M5.941 21.769H4.1a3.353 3.353 0 0 1-3.35-3.353V16.7a3.353 3.353 0 0 1 3.35-3.353h1.841z" transform="translate(2.092 -.441)" style="fill:none"/>
            <path data-name="패스 66230" d="M5.941 21.769H4.1a3.353 3.353 0 0 1-3.35-3.353V16.7a3.353 3.353 0 0 1 3.35-3.353h1.841z" transform="translate(2.092 -.441)" style="stroke:#111;stroke-linecap:round;stroke-linejoin:round;stroke-width:1.5px;fill:none"/>
            <path data-name="패스 66231" d="M32.377 13.347h1.838a3.353 3.353 0 0 1 3.353 3.353v1.716a3.353 3.353 0 0 1-3.353 3.353h-1.838z" transform="translate(-8.41 -.441)" style="fill:none"/>
            <path data-name="패스 66232" d="M32.377 13.347h1.838a3.353 3.353 0 0 1 3.353 3.353v1.716a3.353 3.353 0 0 1-3.353 3.353h-1.838z" transform="translate(-8.41 -.441)" style="stroke:#111;stroke-linecap:round;stroke-linejoin:round;stroke-width:1.5px;fill:none"/>
            <path data-name="패스 66233" d="M29.737 25.956v.369a4.419 4.419 0 0 1-4.418 4.418h-.891" transform="translate(-5.771 -4.628)" style="stroke:#111;stroke-linecap:round;stroke-linejoin:round;stroke-width:1.5px;fill:none"/>
            <path data-name="패스 66234" d="M22.667 32.244a1.771 1.771 0 1 1-1.767-1.771 1.771 1.771 0 0 1 1.771 1.771" transform="translate(-4.01 -6.128)" style="fill:none"/>
            <path data-name="패스 66235" d="M22.667 32.244a1.771 1.771 0 1 1-1.767-1.771 1.771 1.771 0 0 1 1.767 1.771z" transform="translate(-4.01 -6.128)" style="stroke:#111;stroke-linecap:round;stroke-linejoin:round;stroke-width:1.5px;fill:none"/>
            <path data-name="선 612" transform="translate(13.589 12.906)" style="fill:#fff" d="M0 0v1.114"/>
            <path data-name="선 613" transform="translate(13.589 12.906)" style="stroke:#111;stroke-linecap:round;stroke-linejoin:round;stroke-width:1.5px;fill:none" d="M0 0v1.114"/>
            <path data-name="선 614" transform="translate(18.411 12.906)" style="fill:#fff" d="M0 0v1.114"/>
            <path data-name="선 615" transform="translate(18.411 12.906)" style="stroke:#111;stroke-linecap:round;stroke-linejoin:round;stroke-width:1.5px;fill:none" d="M0 0v1.114"/>
            <path data-name="패스 66236" d="M21.662 20.364h0a1.558 1.558 0 0 1-1.562 1.558h-1.7a1.558 1.558 0 0 1-1.558-1.558" transform="translate(-3.251 -2.771)" style="stroke:#111;stroke-linecap:round;stroke-linejoin:round;stroke-width:1.5px;fill:none"/>
        </g>
        <path data-name="사각형 4753" style="opacity:.2;fill:none" d="M0 0h32v32H0z"/>
    </g>
</svg>
