<svg xmlns="http://www.w3.org/2000/svg" width="28.381" height="28" viewBox="0 0 28.381 28">
    <defs>
        <clipPath id="jpjloc8lja">
            <path data-name="패스 66407" d="M0 0h28.193v20.813H0z" style="fill:none"/>
        </clipPath>
    </defs>
    <g data-name="마스크 그룹 35" transform="translate(0 3.449)" style="clip-path:url(#jpjloc8lja)">
        <path data-name="패스 66390" d="M59.434 35.613V41.5H38.769V28.542a1.113 1.113 0 0 1 1.113-1.113h13.145" transform="translate(-35.262 -24.325)" style="stroke:#333;stroke-linecap:round;stroke-linejoin:round;stroke-width:1.5px;fill:#fff"/>
        <path data-name="패스 66391" d="M26.581 245.785H6.619A2.619 2.619 0 0 1 4 243.166v-.01h25.2v.01a2.619 2.619 0 0 1-2.619 2.619z" transform="translate(-2.76 -225.983)" style="fill:#34c8cf;stroke:#333;stroke-linecap:round;stroke-linejoin:round;stroke-width:1.5px"/>
        <path data-name="선 601" transform="translate(7.508 8.721)" style="stroke:#333;stroke-linecap:round;stroke-linejoin:round;stroke-width:1.5px;fill:none" d="M0 0h5.441"/>
        <path data-name="선 602" transform="translate(8.694 11)" style="stroke:#333;stroke-linecap:round;stroke-linejoin:round;stroke-width:1.5px;fill:none" d="M0 0h5.441"/>
        <path data-name="선 603" transform="translate(7.508 13.279)" style="stroke:#333;stroke-linecap:round;stroke-linejoin:round;stroke-width:1.5px;fill:none" d="M0 0h3.639"/>
        <path data-name="패스 66393" d="M282.143 10.924a4.056 4.056 0 1 0-6.315-.732l-.48 1.791 1.791-.48a4.057 4.057 0 0 0 5.004-.579z" transform="translate(-256.292 -2.425)" style="fill:#feae6d;stroke:#333;stroke-linecap:round;stroke-linejoin:round;stroke-width:1.5px"/>
        <path data-name="패스 66395" d="m313.543 49.259 1.269 1.285 1.843-2.346" transform="translate(-292.115 -43.74)" style="stroke:#333;stroke-linecap:round;stroke-linejoin:round;stroke-width:1.5px;fill:none"/>
    </g>
    <path data-name="사각형 4539" transform="translate(.381)" style="opacity:.2;fill:none" d="M0 0h28v28H0z"/>
</svg>
