<svg xmlns="http://www.w3.org/2000/svg" width="32" height="32" viewBox="0 0 32 32">
    <g data-name="그룹 5477">
        <path data-name="패스 9" d="M4.822 12.166a.044.044 0 0 1 .014.045l-1.2 6.274a.518.518 0 0 0 .759.552l5.6-3.081a.042.042 0 0 1 .047 0l5.6 3.081a.518.518 0 0 0 .759-.552l-1.2-6.274a.043.043 0 0 1 .014-.045L19.866 7.8a.519.519 0 0 0-.289-.893l-6.338-.8a.043.043 0 0 1-.038-.028L10.483.3a.518.518 0 0 0-.938 0L6.829 6.078a.042.042 0 0 1-.038.028L.453 6.9a.518.518 0 0 0-.29.9z" transform="translate(6 6.4)" style="stroke:#111;stroke-linecap:round;stroke-linejoin:round;stroke-width:1.5px;fill-rule:evenodd;fill:none"/>
    </g>
    <path data-name="사각형 4491" style="opacity:.2;fill:none" d="M0 0h32v32H0z"/>
</svg>
