<svg xmlns="http://www.w3.org/2000/svg" width="60" height="60" viewBox="0 0 60 60">
    <path data-name="사각형 2859" d="M0 0h29v42a3 3 0 0 1-3 3H0V0z" transform="translate(20 11)" style="fill:#4ebbad"/>
    <path data-name="사각형 2860" d="M0 0h9v47H3a3 3 0 0 1-3-3V0z" transform="translate(11 9)" style="fill:#2d2b27"/>
    <path data-name="패스 65980" d="M408.113 578.006h-33.822a4.287 4.287 0 0 0 0 8.575h33.822z" transform="translate(-359.058 -572.777)" style="fill:#dbd5cc"/>
    <path data-name="사각형 2861" d="M0 0h3v32.525A1.475 1.475 0 0 1 1.525 34h-.05A1.475 1.475 0 0 1 0 32.525V0z" transform="rotate(90 20.5 28.5)" style="fill:#2d2b27"/>
    <path data-name="패스 65981" d="M403.626 583.58v-8.575l-3.811 2.6-3.811-2.6v8.575z" transform="translate(-360.287 -572.635)" style="fill:#4ebbad"/>
    <path data-name="사각형 2862" transform="translate(26 25)" style="fill:#fff" d="M0 0h17v12H0z"/>
    <path data-name="사각형 2961" style="fill:none;opacity:.2" d="M0 0h60v60H0z"/>
</svg>
