<svg xmlns="http://www.w3.org/2000/svg" width="28" height="28" viewBox="0 0 28 28">
    <defs>
        <clipPath id="dg1anforga">
            <path data-name="사각형 1679" style="fill:red;opacity:.24" d="M0 0h28v28H0z"/>
        </clipPath>
    </defs>
    <g data-name="마스크 그룹 20" style="clip-path:url(#dg1anforga)">
        <g data-name="그룹 2130">
            <path data-name="패스 125" d="M13.253.75H6.145A2.585 2.585 0 0 0 3.56 3.335v1.219L.75 6.177 3.56 7.8v1.22a2.585 2.585 0 0 0 2.585 2.58h7.108a2.584 2.584 0 0 0 2.583-2.58V3.335A2.584 2.584 0 0 0 13.253.75" transform="translate(1.348 3.468)" style="stroke-width:1.2px;stroke:#707070;fill:#34c8cf"/>
            <path data-name="패스 126" d="M13.253.75H6.145A2.585 2.585 0 0 0 3.56 3.335v1.219L.75 6.177 3.56 7.8v1.22a2.585 2.585 0 0 0 2.585 2.58h7.108a2.584 2.584 0 0 0 2.583-2.58V3.335A2.584 2.584 0 0 0 13.253.75z" transform="translate(1.348 3.468)" style="fill:none;stroke:#111;stroke-linecap:round;stroke-linejoin:round;stroke-width:1.2px"/>
            <path data-name="선 6" transform="translate(9.892 8.036)" style="fill:#fff;stroke-width:1.2px;stroke:#707070" d="M0 0h2.256"/>
            <path data-name="패스 130" d="m24.166 15.436-5.384.424-1.6.631-1.154 2.074h5.769z" transform="translate(-5.658 -2.626)" style="fill:#f5f5f5"/>
            <path data-name="선 7" transform="translate(9.892 8.036)" style="fill:none;stroke:#111;stroke-linecap:round;stroke-linejoin:round;stroke-width:1.2px" d="M0 0h2.256"/>
            <path data-name="선 8" transform="translate(9.892 11.128)" style="fill:#fff;stroke-width:1.2px;stroke:#707070" d="M0 0h2.256"/>
            <path data-name="선 9" transform="translate(9.892 11.128)" style="fill:none;stroke:#111;stroke-linecap:round;stroke-linejoin:round;stroke-width:1.2px" d="M0 0h2.256"/>
            <path data-name="패스 127" d="M17.456 15.436h7.108a2.584 2.584 0 0 1 2.585 2.584v1.22l2.81 1.624-2.81 1.622v1.22a2.584 2.584 0 0 1-2.585 2.585h-7.108a2.584 2.584 0 0 1-2.582-2.585V18.02a2.583 2.583 0 0 1 2.582-2.584z" transform="translate(-3.909 -1.998)" style="fill:none;stroke:#111;stroke-linecap:round;stroke-linejoin:round;stroke-width:1.2px"/>
            <path data-name="선 10" transform="translate(16 17.256)" style="fill:#fff;stroke-width:1.2px;stroke:#707070" d="M2.256 0H0"/>
            <path data-name="선 11" transform="translate(16 17.256)" style="fill:none;stroke:#111;stroke-linecap:round;stroke-linejoin:round;stroke-width:1.2px" d="M2.256 0H0"/>
            <path data-name="선 12" transform="translate(16 20.348)" style="fill:#fff;stroke-width:1.2px;stroke:#707070" d="M2.256 0H0"/>
            <path data-name="선 13" transform="translate(16 20.348)" style="fill:none;stroke:#111;stroke-linecap:round;stroke-linejoin:round;stroke-width:1.2px" d="M2.256 0H0"/>
        </g>
    </g>
</svg>
