<svg width="20" height="20" viewBox="0 0 20 20" fill="none" xmlns="http://www.w3.org/2000/svg">
<mask id="mask0_198_557" style="mask-type:luminance" maskUnits="userSpaceOnUse" x="0" y="0" width="20" height="20">
<path d="M9.99997 18.3333C11.0945 18.3347 12.1785 18.1197 13.1898 17.7009C14.201 17.282 15.1195 16.6674 15.8925 15.8925C16.6674 15.1195 17.282 14.201 17.7008 13.1898C18.1197 12.1786 18.3346 11.0945 18.3333 10C18.3346 8.90545 18.1197 7.82142 17.7008 6.8102C17.282 5.79898 16.6674 4.88048 15.8925 4.1075C15.1195 3.33256 14.201 2.718 13.1898 2.29913C12.1785 1.88025 11.0945 1.66531 9.99997 1.66666C8.90542 1.66531 7.82139 1.88025 6.81017 2.29913C5.79895 2.718 4.88045 3.33256 4.10747 4.1075C3.33253 4.88048 2.71797 5.79898 2.2991 6.8102C1.88022 7.82142 1.66528 8.90545 1.66663 10C1.66528 11.0945 1.88022 12.1786 2.2991 13.1898C2.71797 14.201 3.33253 15.1195 4.10747 15.8925C4.88045 16.6674 5.79895 17.282 6.81017 17.7009C7.82139 18.1197 8.90542 18.3347 9.99997 18.3333Z" fill="white" stroke="white" stroke-width="2" stroke-linejoin="round"/>
<path d="M6.66663 10L9.16663 12.5L14.1666 7.5" stroke="black" stroke-width="2" stroke-linecap="round" stroke-linejoin="round"/>
</mask>
<g mask="url(#mask0_198_557)">
<path d="M0 0H20V20H0V0Z" fill="#031F5F"/>
</g>
</svg>
