<svg xmlns="http://www.w3.org/2000/svg" width="20" height="20" viewBox="0 0 20 20">
    <path data-name="패스 942" d="M7.545 1A6.611 6.611 0 0 0 1 7.674a8.6 8.6 0 0 0 .524 2.964c.971 3.132 6.021 7.817 6.021 7.817s5.044-4.681 6.016-7.8a8.616 8.616 0 0 0 .529-2.979A6.611 6.611 0 0 0 7.545 1zm0 9.6a3.273 3.273 0 1 1 3.273-3.273A3.273 3.273 0 0 1 7.545 10.6z" transform="translate(2.455 .455)" style="fill:#666;stroke:#666;stroke-linecap:round;stroke-linejoin:round;stroke-width:1.5px"/>
    <path data-name="사각형 1298" style="fill:none;opacity:.2" d="M0 0h20v20H0z"/>
</svg>
