<svg xmlns="http://www.w3.org/2000/svg" width="32" height="32" viewBox="0 0 32 32">
    <g data-name="그룹 2692">
        <path data-name="패스 65336" d="M4 7.056A2.074 2.074 0 0 1 6.092 5h12.551a2.074 2.074 0 0 1 2.092 2.056v12.333a2.074 2.074 0 0 1-2.092 2.056H6.092A2.074 2.074 0 0 1 4 19.389z" transform="translate(3.632 3.805)" style="stroke:#111;stroke-linecap:round;stroke-linejoin:round;stroke-width:1.5px;fill:none"/>
        <path data-name="패스 65337" d="M16 3v4.111" transform="translate(4.111 3.75)" style="stroke:#111;stroke-linecap:round;stroke-linejoin:round;stroke-width:1.5px;fill:none"/>
        <path data-name="패스 65338" d="M8 3v4.111" transform="translate(3.889 3.75)" style="stroke:#111;stroke-linecap:round;stroke-linejoin:round;stroke-width:1.5px;fill:none"/>
        <path data-name="패스 65339" d="M4 11h16.735" transform="translate(3.632 3.973)" style="stroke:#111;stroke-linecap:round;stroke-linejoin:round;stroke-width:1.5px;fill:none"/>
        <path data-name="패스 65340" d="M11 15h1.028" transform="translate(3.973 4.084)" style="stroke:#111;stroke-linecap:round;stroke-linejoin:round;stroke-width:1.5px;fill:none"/>
        <path data-name="패스 65341" d="M12 15v3.083" transform="translate(4 4.084)" style="stroke:#111;stroke-linecap:round;stroke-linejoin:round;stroke-width:1.5px;fill:none"/>
    </g>
    <path data-name="사각형 1698" style="opacity:.2;fill:none" d="M0 0h32v32H0z"/>
</svg>
