<svg xmlns="http://www.w3.org/2000/svg" width="28" height="28" viewBox="0 0 28 28">
    <path data-name="패스 9" d="M5.658 14.274a.051.051 0 0 1 .017.052l-1.409 7.361a.607.607 0 0 0 .89.647l6.566-3.615a.05.05 0 0 1 .055 0l6.566 3.615a.608.608 0 0 0 .89-.647l-1.409-7.361a.05.05 0 0 1 .017-.052l5.466-5.127a.609.609 0 0 0-.339-1.047l-7.436-.935a.051.051 0 0 1-.045-.032L12.3.349a.608.608 0 0 0-1.1 0L8.012 7.131a.05.05 0 0 1-.045.032L.531 8.1a.608.608 0 0 0-.339 1.047z" transform="translate(2.5 2.5)" style="fill:#f8a500;stroke:#f8a500;stroke-linecap:round;stroke-linejoin:round;fill-rule:evenodd"/>
    <path data-name="사각형 27" style="fill:none;opacity:.3" d="M0 0h28v28H0z"/>
</svg>
