<svg xmlns="http://www.w3.org/2000/svg" width="32" height="32" viewBox="0 0 32 32">
    <g data-name="그룹 2692">
        <path data-name="패스 65336" d="M4 6.886A1.967 1.967 0 0 1 6.038 5h12.23a1.967 1.967 0 0 1 2.038 1.886V18.2a1.967 1.967 0 0 1-2.038 1.886H6.038A1.967 1.967 0 0 1 4 18.2z" transform="translate(3.846 5.101)" style="stroke:#333;stroke-linecap:round;stroke-linejoin:round;stroke-width:1.5px;fill:none"/>
        <path data-name="패스 65337" d="M16 3v5.875" transform="translate(4.005 4.164)" style="stroke:#333;stroke-linecap:round;stroke-linejoin:round;stroke-width:1.5px;fill:none"/>
        <path data-name="패스 65338" d="M8 3v5.875" transform="translate(3.994 4.164)" style="stroke:#333;stroke-linecap:round;stroke-linejoin:round;stroke-width:1.5px;fill:none"/>
        <path data-name="패스 65339" d="M4 11h16.307" transform="translate(3.846 4.176)" style="stroke:#333;stroke-linecap:round;stroke-linejoin:round;stroke-width:1.5px;fill:none"/>
        <path data-name="패스 65340" d="M11 15h1.469" transform="translate(2.513 4.182)" style="stroke:#333;stroke-linecap:round;stroke-linejoin:round;stroke-width:1.5px;fill:none"/>
        <path data-name="패스 65341" d="M12 15v4.406" transform="translate(4 3.061)" style="stroke:#333;stroke-linecap:round;stroke-linejoin:round;stroke-width:1.5px;fill:none"/>
    </g>
    <path data-name="사각형 1698" style="opacity:.2;fill:none" d="M0 0h32v32H0z"/>
</svg>
