<svg width="64" height="64" viewBox="0 0 64 64" fill="none" xmlns="http://www.w3.org/2000/svg">
<path d="M32 48.0106H17.752C10.8933 48 5.33334 42.648 5.33334 36.0453C5.33334 29.4426 10.8933 24.0933 17.752 24.0933C18.8 19.3946 22.536 15.56 27.552 14.032C32.5653 12.5066 38.1013 13.5173 42.0693 16.6986C46.0373 19.872 47.8347 24.7173 46.7893 29.416H49.4293C53.1093 29.416 56.2827 31.5786 57.7707 34.712M50.6667 58.6666V42.6666M50.6667 42.6666L58.6667 50.6666M50.6667 42.6666L42.6667 50.6666" stroke="#888888" stroke-width="4" stroke-linecap="round" stroke-linejoin="round"/>
<path d="M28.9208 24.107C31.8612 23.2096 31.1348 28.1184 29.7668 32.7817C28.4425 37.2946 26.3687 41.9322 24.5584 40.1489C22.3675 37.9889 27.0012 36.1683 31.8934 34.6846C36.3895 33.3204 41.3447 32.576 40.4524 35.393C39.654 37.9169 36.1877 35.1436 32.6558 31.8264C29.2062 28.5903 26.1501 24.9543 28.9208 24.107Z" stroke="#888888" stroke-width="2.14286"/>
</svg>
