<svg xmlns="http://www.w3.org/2000/svg" width="32" height="32" viewBox="0 0 32 32">
    <path data-name="패스 66237" d="M9.142 0a1.926 1.926 0 0 1 1.628.931 1.591 1.591 0 0 1 .247.948 1.383 1.383 0 0 0 .21.787 1.765 1.765 0 0 0 2.3.617 1.89 1.89 0 0 1 2.569.68h0l.613 1.056a1.814 1.814 0 0 1-.677 2.532 1.63 1.63 0 0 0-.585 2.237 1.384 1.384 0 0 0 .567.573 2.059 2.059 0 0 1 .741.707 1.806 1.806 0 0 1-.015 1.832h0l-.64 1.074a1.876 1.876 0 0 1-2.588.662 1.458 1.458 0 0 0-.8-.206 1.708 1.708 0 0 0-1.692 1.628 1.85 1.85 0 0 1-1.893 1.834H7.88a1.852 1.852 0 0 1-1.9-1.834 1.693 1.693 0 0 0-1.68-1.626 1.419 1.419 0 0 0-.8.206 1.934 1.934 0 0 1-.969.268 1.909 1.909 0 0 1-1.628-.931h0L.263 12.9a1.785 1.785 0 0 1-.018-1.834 1.9 1.9 0 0 1 .732-.707 1.462 1.462 0 0 0 .576-.573 1.641 1.641 0 0 0-.595-2.234 1.829 1.829 0 0 1-.677-2.533h0l.613-1.055a1.9 1.9 0 0 1 2.579-.68 1.757 1.757 0 0 0 2.3-.617 1.383 1.383 0 0 0 .21-.787 1.6 1.6 0 0 1 .251-.949A1.964 1.964 0 0 1 7.852 0h1.29zm-.631 6.424a2.529 2.529 0 1 0 0 5.055 2.528 2.528 0 1 0 0-5.055z" transform="translate(7.154 6.952)" style="stroke:#111;stroke-linecap:round;stroke-linejoin:round;stroke-width:1.5px;fill:none"/>
    <path data-name="사각형 4833" style="opacity:.2;fill:none" d="M0 0h32v32H0z"/>
</svg>
