<svg xmlns="http://www.w3.org/2000/svg" width="56" height="56" viewBox="0 0 56 56">
    <g data-name="그룹 2734">
        <g data-name="그룹 2732">
            <path data-name="패스 65401" d="M566.3 453.786v-.663h22.732v-36.706h-38.909v37.369a9.653 9.653 0 0 0 6.353 8.892h3.474a9.654 9.654 0 0 0 6.35-8.892z" transform="translate(-544.951 -412.498)" style="stroke-linecap:round;stroke-linejoin:round;stroke:#111;stroke-width:1.5px;fill:#fff"/>
            <path data-name="패스 65402" d="M569.7 469.407v.678a9.866 9.866 0 0 1-6.339 9.1h29.709a9.866 9.866 0 0 0 6.339-9.1v-.678z" transform="translate(-548.592 -429.006)" style="fill:#38b8be;stroke-linecap:round;stroke-linejoin:round;stroke:#111;stroke-width:1.5px"/>
        </g>
        <g data-name="그룹 2733">
            <path data-name="패스 65403" d="M589.689 436.842a9.976 9.976 0 0 0-9.976-9.975v9.976h9.976z" transform="translate(-551.622 -415.869)" style="fill:#feae6d;stroke:#111;stroke-width:1.5px"/>
            <path data-name="패스 65404" d="M571.382 441.078V431.1h0a9.975 9.975 0 1 0 0 19.95h0a9.974 9.974 0 0 0 9.977-9.976h-9.977z" transform="translate(-546.294 -417.102)" style="stroke-linecap:round;stroke-linejoin:round;stroke:#111;stroke-width:1.5px;fill:#fff"/>
        </g>
    </g>
    <path style="fill:none;opacity:.2" d="M0 0h56v56H0z"/>
</svg>
