<svg width="30" height="30" viewBox="0 0 30 30" fill="none" xmlns="http://www.w3.org/2000/svg">
<path d="M27.0539 23.9131C27.0539 25.8114 25.849 27.35 24.3624 27.35H5.49617C4.00967 27.35 2.80469 25.8114 2.80469 23.9131V7.34602C2.80469 5.44785 4.00975 3.90918 5.49617 3.90918H24.3624C25.849 3.90918 27.0539 5.44797 27.0539 7.34602V23.9131Z" fill="#16A1A9" stroke="#333333" stroke-width="1.5" stroke-miterlimit="10"/>
<path d="M16.9118 8.38354C16.2812 7.92887 15.4891 7.70154 14.5356 7.70154C13.8099 7.70154 13.1983 7.86157 12.7009 8.18165C11.9117 8.68314 11.4919 9.53402 11.4414 10.7343H13.2706C13.2706 10.3847 13.3725 10.0477 13.5765 9.72319C13.7804 9.39906 14.1266 9.237 14.6152 9.237C15.1123 9.237 15.4541 9.36846 15.6407 9.63137C15.828 9.89503 15.9217 10.1867 15.9217 10.5064C15.9217 10.7852 15.7823 11.0402 15.6136 11.2714C15.5129 11.4148 15.3894 11.5407 15.248 11.6442C15.248 11.6442 14.2562 12.2803 13.8209 12.7913C13.5687 13.0873 13.546 13.5314 13.5234 14.1675C13.5222 14.2129 13.5394 14.3069 13.6976 14.3069H15.1197C15.2613 14.3069 15.2906 14.2024 15.2922 14.1553C15.3022 13.9241 15.3276 13.8052 15.3702 13.6714C15.4499 13.4186 15.6678 13.1984 15.9117 13.0082L16.4151 12.6614C16.8697 12.3068 17.232 12.0164 17.3924 11.7885C17.6657 11.4146 17.8582 10.9533 17.8582 10.4057C17.8578 9.51301 17.5423 8.83894 16.9118 8.38354ZM14.5062 15.4032C13.8762 15.3838 13.3563 15.8202 13.3364 16.5039C13.317 17.1864 13.811 17.6383 14.4415 17.6566C15.0992 17.676 15.6053 17.2545 15.6258 16.5708C15.6446 15.8872 15.1645 15.4225 14.5062 15.4032Z" fill="white"/>
<path d="M26.834 24.3764C26.834 26.0184 25.6427 27.3494 24.1731 27.3494H5.52046C4.05088 27.3494 2.85938 26.0184 2.85938 24.3764V24.3792C2.85938 22.7373 4.05088 21.4062 5.52046 21.4062H24.173C25.6426 21.4062 26.834 22.7373 26.834 24.3792L26.834 24.3764Z" fill="white" stroke="#333333" stroke-width="1.5" stroke-miterlimit="10"/>
<path d="M28.9656 18.3211L28.9702 18.0197V14.6747C28.9702 13.2742 27.9178 12.1348 26.6242 12.1348H23.0016C21.8935 12.1348 20.9922 13.1106 20.9922 14.31C20.9922 15.5098 21.8935 16.4857 23.0016 16.4857H26.6242C27.544 16.4857 28.8498 17.2829 28.8739 18.2723L28.9656 18.3211Z" fill="#FEAE6D" stroke="#333333" stroke-width="1.5" stroke-miterlimit="10"/>
<path d="M26.8398 21.4363C28.0493 21.4363 29.0302 20.3406 29.0302 18.9892C29.0302 17.6378 28.0493 16.542 26.8398 16.542V21.4363Z" fill="#FEAE6D" stroke="#383938" stroke-width="1.5" stroke-miterlimit="10"/>
</svg>
