<svg xmlns="http://www.w3.org/2000/svg" width="24" height="24" viewBox="0 0 24 24">
    <path data-name="패스 65320" d="M0 0h24v24H0z" style="fill:none"/>
    <path data-name="패스 65321" d="M5 13a2 2 0 0 1 2-2h10a2 2 0 0 1 2 2v6a2 2 0 0 1-2 2H7a2 2 0 0 1-2-2z" style="stroke:#666;stroke-linecap:round;stroke-linejoin:round;stroke-width:1.5px;fill:none"/>
    <path data-name="패스 65322" d="M11 16a1 1 0 1 0 1-1 1 1 0 0 0-1 1" style="stroke:#666;stroke-linecap:round;stroke-linejoin:round;stroke-width:1.5px;fill:none"/>
    <path data-name="패스 65323" d="M8 11V7a4 4 0 0 1 8 0v4" style="stroke:#666;stroke-linecap:round;stroke-linejoin:round;stroke-width:1.5px;fill:none"/>
</svg>
