<svg xmlns="http://www.w3.org/2000/svg" width="56" height="56" viewBox="0 0 56 56">
    <path data-name="사각형 2135" style="fill:transparent" d="M0 0h56v56H0z"/>
    <g data-name="그룹 3122">
        <path data-name="패스 65225" d="M19.728 0v48.3h34.359V13L42.563 0z" transform="translate(.912 .999)" style="fill:#fff"/>
        <path data-name="패스 65226" d="M42.664 0v13h11.525z" transform="translate(.812 .999)" style="fill:#d3d3d3"/>
        <path data-name="사각형 2081" transform="translate(24.366 6.891)" style="fill:#e0e0e0" d="M0 0h14.575v1.559H0z"/>
        <path data-name="사각형 2082" transform="translate(24.366 11.849)" style="fill:#e0e0e0" d="M0 0h14.575v1.559H0z"/>
        <path data-name="사각형 2083" transform="translate(24.407 16.808)" style="fill:#e0e0e0" d="M0 0h26.828v1.559H0z"/>
        <path data-name="사각형 2084" transform="translate(24.407 21.766)" style="fill:#e0e0e0" d="M0 0h26.828v1.559H0z"/>
        <path data-name="사각형 2085" transform="translate(24.407 26.724)" style="fill:#e0e0e0" d="M0 0h26.828v1.559H0z"/>
        <path data-name="사각형 2086" transform="translate(24.407 31.682)" style="fill:#e0e0e0" d="M0 0h26.828v1.559H0z"/>
        <g data-name="그룹 2497">
            <path data-name="패스 65227" d="M38.907 33.937A17.438 17.438 0 0 0 21.469 16.5v17.437z" transform="translate(.905 .439)" style="fill:#031f5f"/>
            <path data-name="패스 65228" d="M17.439 37.89V20.452A17.438 17.438 0 1 0 34.875 37.89z" transform="translate(1 .422)" style="fill:#16a1a9"/>
        </g>
    </g>
</svg>
