<svg xmlns="http://www.w3.org/2000/svg" width="60" height="60" viewBox="0 0 60 60">
    <g transform="translate(-358.97 -159.134)">
        <path data-name="패스 65976" d="M407.525 200.852a41.322 41.322 0 0 1-36.358.084l-.163-.084v-18.846h36.521z" transform="translate(-.763 -1.452)" style="fill:#2d2b27"/>
        <path data-name="패스 65977" d="M388.605 189.387 363 176.9l25.6-13.729 26.844 13.729z" transform="translate(-.254 -.254)" style="fill:#2a81eb"/>
        <g data-name="그룹 3034">
            <path data-name="패스 65978" d="M405.9 212.5h-2.809v-27.666l-13.523-6.762 1.257-2.513L405.9 183.1z" transform="translate(-1.943 -1.042)" style="fill:#dbd5cc"/>
        </g>
        <path data-name="패스 65979" d="M408.569 212.439c0 1.658-3 5.189-3 5.189s-3-3.53-3-5.189a3 3 0 1 1 6.008 0z" transform="translate(-2.769 -3.195)" style="fill:#fec81b"/>
        <ellipse data-name="타원 183" cx="3.745" cy="1.873" rx="3.745" ry="1.873" transform="translate(384.288 173.999)" style="fill:#dbd5cc"/>
        <path data-name="사각형 2960" transform="translate(358.97 159.134)" style="fill:none;opacity:.2" d="M0 0h60v60H0z"/>
    </g>
</svg>
