<svg width="60" height="60" viewBox="0 0 60 60" fill="none" xmlns="http://www.w3.org/2000/svg">
<path d="M52.897 47.289H6.40772C5.04785 47.289 3.94531 46.3098 3.94531 45.1021V17.0672C3.94531 15.8596 5.04772 14.8804 6.40772 14.8804H52.897C54.2569 14.8804 55.3593 15.8595 55.3593 17.0672V45.1022C55.3593 46.3098 54.2569 47.289 52.897 47.289Z" fill="white"/>
<path d="M52.9009 47.5492H6.41168C4.89227 47.5492 3.65625 46.4515 3.65625 45.1022V17.0672C3.65625 15.7178 4.89227 14.6202 6.41168 14.6202H52.9009C54.4202 14.6202 55.6562 15.7178 55.6562 17.0672V45.1023C55.6562 46.4515 54.4202 47.5492 52.9009 47.5492ZM6.41168 15.1405C5.21551 15.1405 4.24229 16.0048 4.24229 17.0671V45.1022C4.24229 46.1645 5.21551 47.0287 6.41168 47.0287H52.9009C54.0971 47.0287 55.0702 46.1643 55.0702 45.1022V17.0672C55.0702 16.0048 54.0969 15.1406 52.9009 15.1406H6.41168V15.1405Z" fill="#111111" stroke="#111111"/>
<rect x="26.6141" y="47.2386" width="6.90338" height="4.82755" fill="white" stroke="#111111" stroke-width="1.4"/>
<path d="M22.9795 51.6763H36.5449C38.8018 51.6763 40.6723 53.3311 41.0088 55.4937H18.5156C18.8521 53.3311 20.7226 51.6763 22.9795 51.6763Z" fill="white" stroke="#111111" stroke-width="1.4"/>
<path d="M49.2475 42.0777H9.59719C9.0827 42.0777 8.66406 41.6555 8.66406 41.1371V18.3325C8.66406 17.8139 9.0827 17.3921 9.59719 17.3921H49.2475C49.7621 17.3921 50.1807 17.814 50.1807 18.3325V41.1371C50.1807 41.6558 49.7621 42.0777 49.2475 42.0777ZM9.59719 17.8958C9.35827 17.8958 9.16389 18.0917 9.16389 18.3324V41.137C9.16389 41.3778 9.35827 41.5738 9.59719 41.5738H49.2475C49.4864 41.5738 49.6809 41.3778 49.6809 41.137V18.3325C49.6809 18.0918 49.4864 17.8959 49.2475 17.8959H9.59719V17.8958Z" fill="#111111" stroke="#111111"/>
<path d="M29.6517 45.5602C30.4603 45.5602 31.1159 44.978 31.1159 44.2598C31.1159 43.5417 30.4603 42.9595 29.6517 42.9595C28.843 42.9595 28.1875 43.5417 28.1875 44.2598C28.1875 44.978 28.843 45.5602 29.6517 45.5602Z" fill="#F7F7F7"/>
<path d="M14.0156 41.3364H45.2895V7.27121C45.2895 6.35635 44.4544 5.61475 43.4243 5.61475H15.8808C14.8507 5.61475 14.0156 6.35635 14.0156 7.27121V41.3364Z" fill="white"/>
<path d="M23.1611 12.9209C26.4835 12.9209 29.1768 15.6141 29.1768 18.9365C29.1767 22.2589 26.4835 24.9521 23.1611 24.9521C19.8387 24.9521 17.1455 22.2589 17.1455 18.9365C17.1455 15.6141 19.8387 12.9209 23.1611 12.9209Z" fill="#FEAE6D" stroke="#111111" stroke-width="1.4"/>
<path d="M22.6055 16.1128C22.9313 15.622 23.6844 15.657 23.9492 16.2183L24.3779 17.1255L25.3281 17.27H25.3291C25.9887 17.3708 26.1955 18.1725 25.7646 18.6108L25.0645 19.3228L25.2305 20.3354C25.3283 20.9327 24.7074 21.4989 24.0928 21.1616L23.2471 20.6978L22.4033 21.1616C21.7889 21.4987 21.1675 20.9335 21.2656 20.3354L21.4307 19.3228L20.7314 18.6108C20.3011 18.1729 20.5068 17.3703 21.168 17.27L22.1172 17.1255L22.5459 16.2173L22.6055 16.1128Z" fill="white" stroke="black"/>
<path d="M45.69 42.0768H13.7109V7.53798C13.7109 6.47453 14.6827 5.60938 15.8772 5.60938H43.5237C44.7182 5.60938 45.69 6.47476 45.69 7.53798V42.0768ZM14.2992 41.5531H45.1017V7.53798C45.1017 6.76326 44.3939 6.13307 43.5237 6.13307H15.8772C15.007 6.13307 14.2992 6.76337 14.2992 7.53798V41.5531Z" fill="#111111" stroke="#111111"/>
<path d="M14.0195 9.06859H45.2934V7.27218C45.2934 6.35732 44.4583 5.61572 43.4282 5.61572H15.8847C14.8546 5.61572 14.0195 6.35732 14.0195 7.27218V9.06859Z" fill="#38B8BE"/>
<path d="M45.5864 9.33027H13.7266V7.27363C13.7266 6.21674 14.6947 5.35693 15.8848 5.35693H43.4282C44.6184 5.35693 45.5864 6.21697 45.5864 7.27363V9.33027ZM14.3126 8.8098H45.0004V7.27363C45.0004 6.50369 44.2952 5.8774 43.4282 5.8774H15.8848C15.0178 5.8774 14.3126 6.5038 14.3126 7.27363V8.8098Z" fill="#38B8BE" stroke="#111111"/>
<path d="M42.4796 25.3289C42.8178 25.3289 43.092 25.0854 43.092 24.7851C43.092 24.4847 42.8178 24.2412 42.4796 24.2412C42.1414 24.2412 41.8672 24.4847 41.8672 24.7851C41.8672 25.0854 42.1414 25.3289 42.4796 25.3289Z" fill="white"/>
<path d="M17.8558 38.6378C16.9171 38.6378 16.1562 37.962 16.1562 37.1285C16.1562 36.2949 16.9172 35.6191 17.8558 35.6191C18.7943 35.6191 19.5553 36.2949 19.5553 37.1285" fill="#F7F7F7"/>
<path d="M40.3857 14.6548H32.4751C32.3356 14.6548 32.2227 14.5292 32.2227 14.3743C32.2227 14.2193 32.3356 14.0938 32.4751 14.0938H40.3857C40.5252 14.0938 40.6382 14.2193 40.6382 14.3743C40.6382 14.5292 40.5251 14.6548 40.3857 14.6548Z" fill="#111111"/>
<path d="M36.1922 18.021H32.4608C32.3293 18.021 32.2227 17.8955 32.2227 17.7405C32.2227 17.5856 32.3293 17.46 32.4608 17.46H36.1922C36.3238 17.46 36.4304 17.5856 36.4304 17.7405C36.4304 17.8955 36.3237 18.021 36.1922 18.021Z" fill="#111111"/>
<path d="M40.4113 18.021H37.5879C37.4638 18.021 37.3633 17.8955 37.3633 17.7405C37.3633 17.5856 37.4638 17.46 37.5879 17.46H40.4113C40.5354 17.46 40.636 17.5856 40.636 17.7405C40.636 17.8955 40.5353 18.021 40.4113 18.021Z" fill="#111111"/>
<path d="M34.7649 21.9478H32.4856C32.3404 21.9478 32.2227 21.8222 32.2227 21.6672C32.2227 21.5124 32.3404 21.3867 32.4856 21.3867H34.7649C34.9101 21.3867 35.0278 21.5124 35.0278 21.6672C35.0278 21.8222 34.91 21.9478 34.7649 21.9478Z" fill="#111111"/>
<path d="M40.4172 21.9478H35.7178C35.5953 21.9478 35.4961 21.8222 35.4961 21.6672C35.4961 21.5124 35.5953 21.3867 35.7178 21.3867H40.4172C40.5397 21.3867 40.6389 21.5124 40.6389 21.6672C40.6389 21.8222 40.5396 21.9478 40.4172 21.9478Z" fill="#111111"/>
<path d="M19.129 29.9972C19.071 29.9972 19.0125 29.9818 18.962 29.9507L18.1415 29.4444C18.0085 29.3624 17.9757 29.2003 18.068 29.0822C18.1603 28.9641 18.343 28.9348 18.4758 29.0171L19.0951 29.3993L20.747 27.9322C20.8614 27.8305 21.0471 27.8305 21.1614 27.9322C21.2759 28.0338 21.2759 28.1986 21.1614 28.3003L19.3362 29.9212C19.2797 29.9714 19.2046 29.9972 19.129 29.9972Z" fill="#111111" stroke="#111111"/>
<rect x="24.371" y="27.856" width="16.8311" height="1.12207" rx="0.561037" fill="#111111"/>
<path d="M19.129 35.9161C19.071 35.9161 19.0125 35.9009 18.962 35.8697L18.1415 35.3635C18.0085 35.2815 17.9757 35.1193 18.068 35.0013C18.1603 34.8832 18.343 34.854 18.4758 34.9361L19.0951 35.3183L20.747 33.8512C20.8614 33.7495 21.0471 33.7495 21.1614 33.8512C21.2759 33.9528 21.2759 34.1175 21.1614 34.2192L19.3362 35.8402C19.2797 35.8902 19.2046 35.9161 19.129 35.9161Z" fill="#111111" stroke="#111111"/>
<rect x="24.371" y="34.2232" width="16.8311" height="1.12207" rx="0.561037" fill="#111111"/>
</svg>
