<svg xmlns="http://www.w3.org/2000/svg" width="32" height="32" viewBox="0 0 32 32">
    <defs>
        <clipPath id="ebyifcptua">
            <path data-name="사각형 275" transform="translate(.439 1)" style="stroke:#111;stroke-width:1.5px;fill:none" d="M0 0h20v20H0z"/>
        </clipPath>
    </defs>
    <g data-name="그룹 37" transform="translate(5.561 5)" style="clip-path:url(#ebyifcptua)">
        <path data-name="패스 88" d="M14.136 21.876a2.864 2.864 0 1 1-2.864-2.812 2.839 2.839 0 0 1 2.864 2.812" transform="translate(-.792 -4.476)" style="stroke:#707070;stroke-width:1.2px;fill:#fff"/>
        <ellipse data-name="타원 11" cx="2.864" cy="2.812" rx="2.864" ry="2.812" transform="translate(7.617 14.587)" style="stroke-linecap:round;stroke-linejoin:round;stroke:#111;stroke-width:1.5px;fill:none"/>
        <path data-name="패스 89" d="M17.422 16.615a25.931 25.931 0 0 1-1.6-8.434l-.014-.7A6.54 6.54 0 0 0 9.212 1a6.54 6.54 0 0 0-6.6 6.48l-.014.7A25.9 25.9 0 0 1 1 16.616h16.422z" transform="translate(1.269 .784)" style="fill:#fff"/>
        <path data-name="패스 90" d="M17.422 16.615a25.931 25.931 0 0 1-1.6-8.434l-.014-.7A6.54 6.54 0 0 0 9.212 1a6.54 6.54 0 0 0-6.6 6.48l-.014.7A25.9 25.9 0 0 1 1 16.616h16.422z" transform="translate(1.27 .784)" style="stroke-linecap:round;stroke-linejoin:round;stroke:#111;stroke-width:1.5px;fill:none"/>
    </g>
    <path data-name="사각형 4830" style="opacity:.2;fill:none" d="M0 0h32v32H0z"/>
</svg>
