<svg xmlns="http://www.w3.org/2000/svg" width="32" height="32" viewBox="0 0 32 32">
    <g data-name="그룹 5476">
        <path data-name="패스 1" d="M6.995 1.743a2.4 2.4 0 0 1 3.467 0l6.142 5.2a3.031 3.031 0 0 1 .853 2.135v7.469a2.744 2.744 0 0 1-2.586 2.877H2.586A2.744 2.744 0 0 1 0 16.549V9.08a3.031 3.031 0 0 1 .852-2.135L2.186 5.6z" transform="translate(7.3 5.773)" style="fill-rule:evenodd;stroke:#111;stroke-width:1.5px;fill:none"/>
        <path data-name="사각형 1943" transform="translate(6 6)" style="opacity:.2;fill:none" d="M0 0h20v20H0z"/>
        <path data-name="패스 66709" d="M5.611 14.522h6.5" transform="translate(7.294 6.407)" style="stroke-linecap:round;stroke:#111;stroke-width:1.5px;fill:none"/>
    </g>
    <path data-name="사각형 4489" style="opacity:.2;fill:none" d="M0 0h32v32H0z"/>
</svg>
