<svg xmlns="http://www.w3.org/2000/svg" width="56" height="56" viewBox="0 0 56 56">
    <defs>
        <clipPath id="xlixm1wtma">
            <path data-name="사각형 2767" style="stroke:#111;stroke-width:1.5px;fill:none" d="M0 0h53.336v42.463H0z"/>
        </clipPath>
    </defs>
    <g data-name="그룹 2913" transform="translate(1.398 6.802)" style="clip-path:url(#xlixm1wtma)">
        <path data-name="패스 65793" d="M40.844 8.7h-2.651l-1.246-3.975-.453-1.447A3.845 3.845 0 0 0 33.053.75h-7.422a2.658 2.658 0 0 0-2.652 2.65v36.228a2.66 2.66 0 0 0 2.652 2.652h20.69V8.7z" transform="translate(-8.68 -.283)" style="fill:#38b8be;stroke:#111;stroke-width:1.5px"/>
        <path data-name="패스 65794" d="M40.844 8.7h-2.651l-1.246-3.975-.453-1.447A3.845 3.845 0 0 0 33.053.75h-7.422a2.658 2.658 0 0 0-2.652 2.65v36.228a2.66 2.66 0 0 0 2.652 2.652h20.69V8.7z" transform="translate(-8.68 -.283)" style="stroke-linecap:round;stroke-linejoin:round;stroke:#111;stroke-width:1.5px;fill:none"/>
        <path data-name="패스 65795" d="M41.926 8.7H15.964L14.72 4.725l-.454-1.447A3.845 3.845 0 0 0 10.824.75H3.4A2.658 2.658 0 0 0 .75 3.4v36.228a2.66 2.66 0 0 0 2.65 2.651h38.526a2.66 2.66 0 0 0 2.651-2.652V11.352A2.659 2.659 0 0 0 41.926 8.7" transform="translate(-.283 -.283)" style="fill:#fff;stroke:#111;stroke-width:1.5px"/>
        <path data-name="패스 65796" d="M41.926 8.7H15.964L14.72 4.725l-.454-1.447A3.845 3.845 0 0 0 10.824.75H3.4A2.658 2.658 0 0 0 .75 3.4v36.228a2.66 2.66 0 0 0 2.65 2.651h38.526a2.66 2.66 0 0 0 2.651-2.652V11.352A2.659 2.659 0 0 0 41.926 8.7z" transform="translate(-.283 -.283)" style="stroke-linecap:round;stroke-linejoin:round;stroke:#111;stroke-width:1.5px;fill:none"/>
        <path data-name="패스 65797" d="M42.068 23.184a1.226 1.226 0 0 1 1.227-1.226h24.238a1.226 1.226 0 0 1 1.227 1.226v4.085H42.068z" transform="translate(-15.89 -8.294)" style="fill:#feae6d;stroke:#111;stroke-width:1.5px"/>
        <path data-name="패스 65798" d="M42.068 23.184a1.226 1.226 0 0 1 1.227-1.226h24.238a1.226 1.226 0 0 1 1.227 1.226v4.085H42.068z" transform="translate(-15.89 -8.294)" style="stroke:#111;stroke-width:1.5px;fill:none"/>
        <path data-name="패스 65799" d="M74.546 30.493v15.848a1.227 1.227 0 0 1-1.227 1.227H57.388V30.493z" transform="translate(-21.676 -11.518)" style="fill:#fff;stroke:#111;stroke-width:1.5px"/>
        <path data-name="패스 65800" d="M74.546 30.493v15.848a1.227 1.227 0 0 1-1.227 1.227H57.388V30.493z" transform="translate(-21.676 -11.518)" style="stroke-linecap:round;stroke-linejoin:round;stroke:#111;stroke-width:1.5px;fill:none"/>
        <path data-name="패스 65801" d="M51.6 30.493v17.075h-8.305a1.227 1.227 0 0 1-1.226-1.227V30.493z" transform="translate(-15.89 -11.518)" style="fill:#fff;stroke:#111;stroke-width:1.5px"/>
        <path data-name="패스 65802" d="M51.6 30.493v17.075h-8.305a1.227 1.227 0 0 1-1.226-1.227V30.493z" transform="translate(-15.89 -11.518)" style="stroke-linecap:round;stroke-linejoin:round;stroke:#111;stroke-width:1.5px;fill:none"/>
        <path data-name="선 538" transform="translate(44.154 24.558)" style="fill:#fff;stroke:#111;stroke-width:1.5px" d="M5.175 0H0"/>
        <path data-name="선 539" transform="translate(44.154 24.558)" style="stroke-linecap:round;stroke-linejoin:round;stroke:#111;stroke-width:1.5px;fill:none" d="M5.175 0H0"/>
        <path data-name="선 540" transform="translate(44.154 28.915)" style="fill:#fff;stroke:#111;stroke-width:1.5px" d="M5.175 0H0"/>
        <path data-name="선 541" transform="translate(44.154 28.915)" style="stroke-linecap:round;stroke-linejoin:round;stroke:#111;stroke-width:1.5px;fill:none" d="M5.175 0H0"/>
    </g>
    <path style="opacity:.2;fill:none" d="M0 0h56v56H0z"/>
</svg>
