<svg xmlns="http://www.w3.org/2000/svg" width="32" height="32" viewBox="0 0 32 32">
    <g data-name="그룹 3101" transform="translate(3.455 1.115)">
        <path data-name="패스 88" d="M16.106 22.844a3.85 3.85 0 1 1-3.849-3.78 3.815 3.815 0 0 1 3.849 3.78" transform="translate(.844 .791)" style="stroke-width:1.5px;fill:#fff;stroke:#707070"/>
        <ellipse data-name="타원 11" cx="3.849" cy="3.78" rx="3.849" ry="3.78" transform="translate(9.252 19.854)" style="stroke:#111;stroke-linecap:round;stroke-linejoin:round;fill:none;stroke-width:1.5px"/>
        <path data-name="패스 89" d="M24.024 21.986a33.583 33.583 0 0 1-2.24-11.335l-.02-.943A8.992 8.992 0 0 0 12.512 1a8.992 8.992 0 0 0-9.251 8.709l-.02.942A33.544 33.544 0 0 1 1 21.987h23.024z" transform="translate(.56 .722)" style="stroke-width:1.5px;fill:#fff;stroke:#707070"/>
        <path data-name="패스 90" d="M24.024 21.986a33.583 33.583 0 0 1-2.24-11.335l-.02-.943A8.992 8.992 0 0 0 12.512 1a8.992 8.992 0 0 0-9.251 8.709l-.02.942A33.544 33.544 0 0 1 1 21.987h23.024z" transform="translate(.561 .722)" style="stroke:#111;stroke-linecap:round;stroke-linejoin:round;fill:none;stroke-width:1.5px"/>
        <path data-name="사각형 3127" transform="translate(-.794 1.525)" style="fill:none" d="M0 0h26.68v25.895H0z"/>
    </g>
    <path data-name="사각형 4754" style="opacity:.2;fill:none" d="M0 0h32v32H0z"/>
</svg>
