<svg xmlns="http://www.w3.org/2000/svg" width="20" height="20" viewBox="0 0 20 20">
    <g data-name="타원 1" style="fill:#fff;stroke:#999">
        <circle cx="10" cy="10" r="10" style="stroke:none"/>
        <circle cx="10" cy="10" r="9.5" style="fill:none"/>
    </g>
    <g data-name="그룹 2360">
        <path data-name="패스 34093" d="M9.254 8.52a.849.849 0 0 1-1.7 0c0-.244-.007-.392-.007-.446a2.945 2.945 0 0 1 .276-1.354 4.138 4.138 0 0 1 1.088-1.2 7.955 7.955 0 0 0 .978-.869 1.16 1.16 0 0 0 .247-.718 1.19 1.19 0 0 0-.436-.92 1.7 1.7 0 0 0-1.174-.387 1.79 1.79 0 0 0-1.193.4 2.168 2.168 0 0 0-.658 1.238.863.863 0 0 1-1.711-.217 2.849 2.849 0 0 1 1.013-2.016A3.588 3.588 0 0 1 8.446 1.2a3.73 3.73 0 0 1 2.56.84 2.535 2.535 0 0 1 .951 1.953 2.145 2.145 0 0 1-.348 1.168 7.693 7.693 0 0 1-1.492 1.5 2.838 2.838 0 0 0-.733.79 2.652 2.652 0 0 0-.13 1.069zM8.405 10a.965.965 0 1 1-.965.965.965.965 0 0 1 .965-.965z" transform="translate(1.544 3.3)" style="fill:#999;fill-rule:evenodd"/>
    </g>
</svg>
