<svg width="58" height="58" viewBox="0 0 58 58" fill="none" xmlns="http://www.w3.org/2000/svg">
<g clip-path="url(#clip0_253_2179)">
<path d="M44.2618 9.96352C38.1669 9.96352 32.8072 7.00922 29.3325 2.5047C25.8577 7.01557 20.498 9.96352 14.4031 9.96352C11.9337 9.96352 9.59004 9.4489 7.42227 8.58485V26.514C7.42227 49.8117 29.3262 55.4344 29.3262 55.4344C29.3262 55.4344 51.2301 49.8562 51.2301 26.514V8.58485C49.0623 9.45526 46.7186 9.96352 44.2492 9.96352H44.2618Z" fill="white" stroke="url(#paint0_linear_253_2179)" stroke-width="2.5" stroke-linecap="round" stroke-linejoin="round"/>
<path d="M24.4566 21.4948V18.8391C24.4566 16.1263 26.6557 13.9026 29.3388 13.9026C32.0218 13.9026 34.2209 16.1263 34.2209 18.8391V21.4948" stroke="#031F5F" stroke-width="2" stroke-linecap="round" stroke-linejoin="round"/>
<path d="M35.132 21.7998H23.5329C21.8707 21.7998 20.5231 23.1623 20.5231 24.8431V33.0071C20.5231 34.6878 21.8707 36.0504 23.5329 36.0504H35.132C36.7943 36.0504 38.1418 34.6878 38.1418 33.0071V24.8431C38.1418 23.1623 36.7943 21.7998 35.132 21.7998Z" fill="white" stroke="#031F5F" stroke-width="2" stroke-linecap="round" stroke-linejoin="round"/>
<path d="M29.3325 27.9117V31.3743" stroke="#031F5F" stroke-width="2" stroke-linecap="round" stroke-linejoin="round"/>
<path d="M31.0855 27.88C31.0855 28.8584 30.3001 29.6462 29.3387 29.6462C28.3774 29.6462 27.5919 28.852 27.5919 27.88C27.5919 26.9079 28.3774 26.1137 29.3387 26.1137C30.3001 26.1137 31.0855 26.9079 31.0855 27.88Z" fill="#38B8BE" stroke="#031F5F" stroke-width="1.5" stroke-linecap="round" stroke-linejoin="round"/>
<path d="M20.9379 42.4799L19.7126 43.2995L19.279 42.5244L20.586 41.87L19.279 41.1966L19.7126 40.4405L20.9379 41.241L20.8562 39.7671H21.7296L21.6479 41.241L22.8731 40.4405L23.3067 41.1966L21.9997 41.87L23.3067 42.5244L22.8731 43.2995L21.6479 42.4799L21.7296 43.9539H20.8562L20.9379 42.4799Z" fill="#484E66"/>
<path d="M26.2976 42.4799L25.0723 43.2995L24.6388 42.5244L25.9457 41.87L24.6388 41.1966L25.0723 40.4405L26.2976 41.241L26.2159 39.7671H27.0893L27.0076 41.241L28.2329 40.4405L28.6664 41.1966L27.3595 41.87L28.6664 42.5244L28.2329 43.2995L27.0076 42.4799L27.0893 43.9539H26.2159L26.2976 42.4799Z" fill="#484E66"/>
<path d="M31.6636 42.4799L30.4383 43.2995L30.0048 42.5244L31.3117 41.87L30.0048 41.1966L30.4383 40.4405L31.6636 41.241L31.5819 39.7671H32.4553L32.3736 41.241L33.5989 40.4405L34.0324 41.1966L32.7255 41.87L34.0324 42.5244L33.5989 43.2995L32.3736 42.4799L32.4553 43.9539H31.5819L31.6636 42.4799Z" fill="#484E66"/>
<path d="M37.0233 42.4799L35.7981 43.2995L35.3645 42.5244L36.6715 41.87L35.3645 41.1966L35.7981 40.4405L37.0233 41.241L36.9416 39.7671H37.815L37.7334 41.241L38.9586 40.4405L39.3922 41.1966L38.0852 41.87L39.3922 42.5244L38.9586 43.2995L37.7334 42.4799L37.815 43.9539H36.9416L37.0233 42.4799Z" fill="#484E66"/>
</g>
<defs>
<linearGradient id="paint0_linear_253_2179" x1="9.97961" y1="4.2074" x2="49.1265" y2="42.9233" gradientUnits="userSpaceOnUse">
<stop stop-color="#031F5F"/>
<stop offset="0.53" stop-color="#0F3375"/>
<stop offset="1" stop-color="#031F5F"/>
</linearGradient>
<clipPath id="clip0_253_2179">
<rect width="46.3274" height="55.471" fill="white" transform="translate(6.17188 1.23404)"/>
</clipPath>
</defs>
</svg>
