<svg xmlns="http://www.w3.org/2000/svg" width="28" height="28" viewBox="0 0 28 28">
    <defs>
        <clipPath id="clip-path">
            <path id="패스_66344" data-name="패스 66344" d="m71.677 25.59-8.331 9.651 3.119 2.693 8.335-9.651 1.882-2.183-3.119-2.692z" transform="translate(-63.346 -23.406)" style="fill:#34c8cf"/>
        </clipPath>
        <style>
            
        </style>
    </defs>
    <g id="ico_01my" transform="translate(-679.107 -847.08)">
        <g id="그룹_5352" data-name="그룹 5352" transform="translate(681.707 851.696)">
            <g id="그룹_5328" data-name="그룹 5328" transform="translate(-.001 1.176)">
                <path id="패스_66338" data-name="패스 66338" d="M22.581 49.483V33.39a1.473 1.473 0 0 0-1.472-1.472H5.472A1.473 1.473 0 0 0 4 33.39v16.093a1.472 1.472 0 0 0 1.472 1.472h15.637a1.472 1.472 0 0 0 1.472-1.472" transform="translate(-4 -31.918)" style="stroke:#333;stroke-width:1.5px;fill:#fff"/>
                <path id="선_590" data-name="선 590" transform="translate(3.863 6.435)" style="stroke-linecap:round;fill:none;stroke:#333;stroke-width:1.5px" d="M0 0h8.908"/>
                <path id="선_591" data-name="선 591" transform="translate(3.863 10.002)" style="stroke-linecap:round;fill:none;stroke:#333;stroke-width:1.5px" d="M0 0h8.908"/>
            </g>
        </g>
        <g id="그룹_5353" data-name="그룹 5353" transform="translate(689.932 848.971)">
            <path id="패스_66386" data-name="패스 66386" d="m-18737.148-19331.727-9.605 11.088 2.928 2.732 9.645-11.322z" transform="translate(18747.98 19334.73)" style="fill:#34c8cf"/>
            <path id="패스_66408" data-name="패스 66408" d="m26.395 0-2.754 3.1 2.754 2.385L29.1 2.493 26.632.2" transform="translate(-12.772)" style="fill:#feae6d"/>
            <path id="패스_66374" data-name="패스 66374" d="m67.248 20.668 11.89-13.775a.761.761 0 0 0-.079-1.072l-1.9-1.635a.761.761 0 0 0-1.072.079L64.2 18.039" transform="translate(-63.019 -4.001)" style="stroke-linejoin:round;stroke-linecap:round;fill:none;stroke:#333;stroke-width:1.5px"/>
            <path id="패스_66376" data-name="패스 66376" d="m59.546 111.7-4.112 1.686 1.067-4.315z" transform="translate(-55.434 -94.885)" style="stroke-linejoin:round;stroke-linecap:round;fill:none;stroke:#333;stroke-width:1.5px"/>
            <path id="선_592" data-name="선 592" transform="translate(10.723 2.962)" style="fill:none;stroke:#333;stroke-width:1.5px" d="m0 0 2.899 2.577"/>
        </g>
        <path id="사각형_4537" data-name="사각형 4537" transform="translate(679.107 847.08)" style="opacity:.2;fill:none" d="M0 0h28v28H0z"/>
    </g>
</svg>
