<svg width="48" height="48" viewBox="0 0 48 48" fill="none" xmlns="http://www.w3.org/2000/svg">
<path d="M38.522 38.2006C38.522 38.8957 38.2458 39.5623 37.7543 40.0538C37.2628 40.5453 36.5962 40.8214 35.9011 40.8214H12.3132C11.6181 40.8214 10.9514 40.5453 10.4599 40.0538C9.96842 39.5623 9.69229 38.8957 9.69229 38.2006V9.37088C9.69229 8.67578 9.96842 8.00915 10.4599 7.51764C10.9514 7.02613 11.6181 6.75 12.3132 6.75H29.3489L38.522 15.9231V38.2006Z" stroke="#888888" stroke-width="3.42857" stroke-linecap="round" stroke-linejoin="round"/>
<path d="M19.8409 14.6468C16.4495 15.6506 30.5866 32.6863 32.0936 28.7891C33.6006 24.8918 13.5246 29.916 16.8322 32.6863C20.1397 35.4566 23.2297 13.6404 19.8409 14.6468Z" stroke="#888888" stroke-width="3.42857" stroke-linecap="round" stroke-linejoin="round"/>
</svg>
