<svg xmlns="http://www.w3.org/2000/svg" width="28" height="28" viewBox="0 0 28 28">
    <path data-name="사각형 3715" style="fill:transparent" d="M0 0h28v28H0z"/>
    <path data-name="패스 34078" d="M10.588.75H.75v17.816h9.838a2.173 2.173 0 0 1 2.162 2.184V2.934A2.173 2.173 0 0 0 10.588.75z" transform="translate(1.25 3.25)" style="stroke:#222;stroke-linejoin:round;stroke-width:1.5px;fill:#fff"/>
    <path data-name="패스 34079" d="M20.912.75h9.838v17.816h-9.838a2.173 2.173 0 0 0-2.162 2.184V2.934A2.173 2.173 0 0 1 20.912.75" transform="translate(-4.75 3.25)" style="fill:#89cfd3"/>
    <path data-name="패스 34080" d="M20.912.75h9.838v17.816h-9.838a2.173 2.173 0 0 0-2.162 2.184V2.934A2.173 2.173 0 0 1 20.912.75z" transform="translate(-4.75 3.25)" style="fill:none;stroke:#222;stroke-linejoin:round;stroke-width:1.5px"/>
    <path data-name="선 243" transform="translate(4.742 8.064)" style="fill:none;stroke:#222;stroke-linejoin:round;stroke-width:1.5px" d="M0 0h6.597"/>
    <path data-name="선 244" transform="translate(4.742 11.272)" style="fill:none;stroke:#222;stroke-linejoin:round;stroke-width:1.5px" d="M0 0h6.597"/>
    <path data-name="선 245" transform="translate(4.742 14.479)" style="fill:none;stroke:#222;stroke-linejoin:round;stroke-width:1.5px" d="M0 0h6.597"/>
    <path data-name="선 246" transform="translate(4.742 17.687)" style="fill:none;stroke:#222;stroke-linejoin:round;stroke-width:1.5px" d="M0 0h6.597"/>
    <path data-name="선 247" transform="translate(16.661 8.064)" style="fill:none;stroke:#222;stroke-linejoin:round;stroke-width:1.5px" d="M6.597 0H0"/>
    <path data-name="선 248" transform="translate(16.661 11.272)" style="fill:none;stroke:#222;stroke-linejoin:round;stroke-width:1.5px" d="M6.597 0H0"/>
    <path data-name="선 249" transform="translate(16.661 14.479)" style="fill:none;stroke:#222;stroke-linejoin:round;stroke-width:1.5px" d="M6.597 0H0"/>
    <path data-name="선 250" transform="translate(16.661 17.687)" style="fill:none;stroke:#222;stroke-linejoin:round;stroke-width:1.5px" d="M6.597 0H0"/>
</svg>
