<svg xmlns="http://www.w3.org/2000/svg" width="32" height="32" viewBox="0 0 32 32">
    <g data-name="icon_map">
        <g data-name="패스 948" style="stroke-linecap:round;stroke-linejoin:round;fill:none">
            <path d="M7.8 1A6.616 6.616 0 0 0 1 7.419a7.726 7.726 0 0 0 .545 2.851C2.553 13.281 7.8 17.787 7.8 17.787s5.239-4.5 6.248-7.5a7.742 7.742 0 0 0 .552-2.868A6.616 6.616 0 0 0 7.8 1zm0 9.234a3.281 3.281 0 0 1-3.4-3.147 3.28 3.28 0 0 1 3.4-3.148 3.28 3.28 0 0 1 3.4 3.148 3.281 3.281 0 0 1-3.4 3.147z" style="stroke:none" transform="translate(7.913 6.584)"/>
            <path d="M7.798 1C4.043 1 1 3.874 1 7.419c0 1.189.205 1.836.545 2.85 1.008 3.012 6.253 7.518 6.253 7.518s5.238-4.502 6.248-7.503c.342-1.018.55-1.67.55-2.865C14.595 3.874 11.551 1 7.797 1m0 9.234c-1.877 0-3.4-1.41-3.4-3.147 0-1.74 1.523-3.148 3.4-3.148s3.399 1.409 3.399 3.148c0 1.738-1.522 3.147-3.4 3.147m0-10.734c4.576 0 8.298 3.552 8.298 7.919 0 1.476-.29 2.341-.627 3.343-.49 1.455-1.782 3.284-3.84 5.436a44.784 44.784 0 0 1-2.853 2.727 1.5 1.5 0 0 1-1.955 0 44.634 44.634 0 0 1-2.855-2.73c-2.061-2.156-3.354-3.99-3.843-5.45C-.212 9.748-.5 8.887-.5 7.42-.5 3.052 3.222-.5 7.798-.5zm0 9.234c1.048 0 1.9-.739 1.9-1.647 0-.909-.852-1.648-1.9-1.648-1.046 0-1.898.74-1.898 1.648 0 .908.852 1.647 1.899 1.647z" style="fill:#111;stroke:none" transform="translate(7.913 6.584)"/>
        </g>
        <path data-name="사각형 1301" transform="translate(7.5 6)" style="fill:none" d="M0 0h17v20H0z"/>
    </g>
</svg>
