<svg xmlns="http://www.w3.org/2000/svg" width="114" height="47.879" viewBox="0 0 114 47.879">
    <defs>
        <clipPath id="3bdak1ujva">
            <path data-name="사각형 3900" style="fill:#16a1a9" d="M0 0h114v47.879H0z"/>
        </clipPath>
    </defs>
    <g data-name="그룹 5362" style="clip-path:url(#3bdak1ujva)">
        <path data-name="패스 66702" d="M11.742 21.377a11.647 11.647 0 0 1 4.607.924 11.8 11.8 0 0 1 6.3 6.28 11.423 11.423 0 0 1 .926 4.585v11.292h-3.928v-2.531a11.961 11.961 0 0 1-3.592 2.19 11.648 11.648 0 0 1-4.313.791 11.319 11.319 0 0 1-4.563-.925 12.241 12.241 0 0 1-3.727-2.507A11.662 11.662 0 0 1 .926 37.75a11.807 11.807 0 0 1 0-9.169A11.922 11.922 0 0 1 7.179 22.3a11.334 11.334 0 0 1 4.563-.924m0 3.884a7.825 7.825 0 0 0-3.072.608 7.632 7.632 0 0 0-2.506 1.694 8.4 8.4 0 0 0-1.693 2.53 7.756 7.756 0 0 0 0 6.141 7.963 7.963 0 0 0 4.2 4.2 7.634 7.634 0 0 0 3.072.633 7.754 7.754 0 0 0 3.117-.633 8.079 8.079 0 0 0 2.508-1.7 8 8 0 0 0 1.672-8.649 8.145 8.145 0 0 0-1.672-2.53 7.649 7.649 0 0 0-2.508-1.694 7.95 7.95 0 0 0-3.117-.608" transform="translate(0 -11.395)" style="fill:#16a1a9"/>
        <path data-name="패스 66703" d="M71.908 9.982a11.358 11.358 0 0 1 4.311.813 12.407 12.407 0 0 1 3.592 2.211V0h3.839v21.77a11.446 11.446 0 0 1-.926 4.585 11.693 11.693 0 0 1-6.233 6.234 11.463 11.463 0 0 1-4.583.925 11.313 11.313 0 0 1-4.563-.925 12.218 12.218 0 0 1-3.727-2.507 11.649 11.649 0 0 1-2.53-3.728 11.829 11.829 0 0 1 0-9.169 11.946 11.946 0 0 1 6.257-6.28 11.328 11.328 0 0 1 4.563-.924m0 3.884a7.823 7.823 0 0 0-3.073.608 7.645 7.645 0 0 0-2.507 1.694 8.345 8.345 0 0 0-1.693 2.53 7.751 7.751 0 0 0 0 6.141 7.961 7.961 0 0 0 4.2 4.2 7.767 7.767 0 0 0 6.143 0 8.359 8.359 0 0 0 2.53-1.7A7.557 7.557 0 0 0 79.2 24.84a7.951 7.951 0 0 0-1.691-8.671 7.879 7.879 0 0 0-5.6-2.3" transform="translate(-32.07)" style="fill:#16a1a9"/>
        <path data-name="패스 66704" d="M119.453.093h3.885v5.24h-3.885zm0 10.479h3.885v22.584h-3.885z" transform="translate(-63.673 -.05)" style="fill:#16a1a9"/>
        <path data-name="패스 66705" d="M147.544 21.663a11.415 11.415 0 0 1 4.584.928 12.159 12.159 0 0 1 3.751 2.505 11.74 11.74 0 0 1 3.455 8.358 11.51 11.51 0 0 1-5.782 10.116 10.594 10.594 0 0 1 2.167 3.048 8.575 8.575 0 0 1 .858 3.772 8.151 8.151 0 0 1-.767 3.5 8.807 8.807 0 0 1-2.122 2.87 10.621 10.621 0 0 1-3.138 1.943 10.1 10.1 0 0 1-3.818.724v-3.843a6.7 6.7 0 0 0 2.328-.406 5.97 5.97 0 0 0 1.917-1.128 5.619 5.619 0 0 0 1.287-1.65 4.344 4.344 0 0 0 .475-2.011 4.933 4.933 0 0 0-.407-2.007 5.416 5.416 0 0 0-2.778-2.779 4.947 4.947 0 0 0-2.01-.405 11.318 11.318 0 0 1-4.563-.927 11.983 11.983 0 0 1-6.256-6.253 11.29 11.29 0 0 1-.926-4.563 11.752 11.752 0 0 1 3.456-8.358 12.23 12.23 0 0 1 3.726-2.505 11.279 11.279 0 0 1 4.563-.928m0 3.887a7.821 7.821 0 0 0-3.072.608 7.55 7.55 0 0 0-2.505 1.694 8.327 8.327 0 0 0-1.7 2.531 7.771 7.771 0 0 0 0 6.141 7.979 7.979 0 0 0 4.2 4.2 7.538 7.538 0 0 0 3.072.634 7.647 7.647 0 0 0 3.116-.634 8.11 8.11 0 0 0 2.508-1.694 7.984 7.984 0 0 0 1.669-8.647 8.048 8.048 0 0 0-1.669-2.531 7.609 7.609 0 0 0-2.508-1.694 7.936 7.936 0 0 0-3.116-.608" transform="translate(-72.386 -11.547)" style="fill:#16a1a9"/>
        <path data-name="패스 66706" d="M205.39 21.377a11.669 11.669 0 0 1 4.61.923 11.812 11.812 0 0 1 6.3 6.28 11.5 11.5 0 0 1 .923 4.585v11.293h-3.927v-2.531a11.972 11.972 0 0 1-3.592 2.19 11.648 11.648 0 0 1-4.313.791 11.319 11.319 0 0 1-4.562-.925 12.244 12.244 0 0 1-3.726-2.507 11.712 11.712 0 0 1-2.531-3.728 11.84 11.84 0 0 1 0-9.169 11.953 11.953 0 0 1 6.257-6.28 11.334 11.334 0 0 1 4.562-.924m0 3.884a7.836 7.836 0 0 0-3.073.608 7.646 7.646 0 0 0-2.507 1.694 8.362 8.362 0 0 0-1.693 2.53 7.782 7.782 0 0 0 0 6.141 7.961 7.961 0 0 0 4.2 4.2 7.645 7.645 0 0 0 3.073.633 7.731 7.731 0 0 0 3.115-.633 8.041 8.041 0 0 0 2.507-1.7 7.747 7.747 0 0 0 1.672-2.508 8.018 8.018 0 0 0 0-6.141 8.064 8.064 0 0 0-1.672-2.53 7.616 7.616 0 0 0-2.507-1.694 7.927 7.927 0 0 0-3.115-.608" transform="translate(-103.222 -11.395)" style="fill:#16a1a9"/>
    </g>
</svg>
