<svg width="128" height="25" viewBox="0 0 128 25" fill="none" xmlns="http://www.w3.org/2000/svg">
<path d="M29.7841 8.17494V6.98007H36.2147V8.17494H33.4735L36.3263 11.656L35.3621 12.4605L33.0512 9.58488L30.7802 12.6517L29.7761 11.8472L32.6289 8.1829H29.7921L29.7841 8.17494ZM38.6929 15.4716C38.6929 15.846 38.6132 16.2045 38.4618 16.531C38.3104 16.8576 38.1032 17.1524 37.8403 17.4073C37.5773 17.6622 37.2745 17.8534 36.9159 18.0047C36.5573 18.1481 36.1828 18.2278 35.7764 18.2278C35.37 18.2278 35.0035 18.1561 34.6449 18.0047C34.2863 17.8613 33.9755 17.6622 33.7126 17.4073C33.4496 17.1524 33.2424 16.8656 33.091 16.531C32.9396 16.1965 32.8599 15.846 32.8599 15.4716C32.8599 15.0972 32.9396 14.7387 33.091 14.4121C33.2424 14.0776 33.4496 13.7908 33.7126 13.5359C33.9755 13.281 34.2783 13.0819 34.6449 12.9385C35.0115 12.7951 35.378 12.7154 35.7764 12.7154C36.1749 12.7154 36.5573 12.7871 36.9159 12.9385C37.2745 13.0898 37.5773 13.281 37.8403 13.5359C38.1032 13.7908 38.3104 14.0776 38.4618 14.4121C38.6132 14.7467 38.6929 15.0972 38.6929 15.4716ZM37.3223 15.4636C37.3223 15.0414 37.1709 14.683 36.8601 14.3803C36.5573 14.0776 36.1908 13.9262 35.7605 13.9262C35.3302 13.9262 34.9796 14.0776 34.6768 14.3803C34.374 14.683 34.2226 15.0414 34.2226 15.4636C34.2226 15.8858 34.374 16.2522 34.6768 16.547C34.9796 16.8417 35.3382 16.9931 35.7605 16.9931C36.1828 16.9931 36.5573 16.8417 36.8601 16.547C37.163 16.2522 37.3223 15.8858 37.3223 15.4636ZM38.2546 12.596V10.1744H36.1669V8.97152H38.2546V6.66144H39.6491V12.6039H38.2546V12.596Z" fill="#575757"/>
<path d="M41.5611 13.7349H51.8644V14.9696H47.402V17.8612H46.0075V14.9696H41.5611V13.7349ZM43.7604 8.26245H49.6571V6.84454H51.0357V12.2294H42.3898V6.84454H43.7604V8.26245ZM49.6492 9.46529H43.7524V11.0106H49.6492V9.46529Z" fill="#575757"/>
<path d="M57.1157 8.17494V6.98007H63.5463V8.17494H60.8211L63.6579 12.3729L62.614 13.0739L60.3748 9.6964L58.1596 13.1615L57.0918 12.4605L59.9286 8.17494H57.0998H57.1157ZM57.8966 17.6303V13.8864H59.2752V16.3956H67.0764V17.6303H57.8886H57.8966ZM65.5863 13.8306V10.5248H63.4985V9.29811H65.5863V6.66144H66.9807V13.8306H65.5863Z" fill="#575757"/>
<path d="M68.535 8.57323V7.33853H75.2684V8.57323H72.4555L75.5473 15.8938L74.3121 16.4195L71.9535 10.6921L69.6187 16.5072L68.3517 15.9814L71.4514 8.57323H68.535ZM77.9697 17.8613H76.5911V6.66144H77.9697V10.9789H79.5793V12.3729H77.9697V17.8613Z" fill="#575757"/>
<path d="M90.9259 12.2456V13.4803H86.5193V15.2169H85.1248V13.4803H80.6226V12.2456H90.9259ZM81.4513 11.0986V6.78906H90.0972V11.0986H81.4513ZM82.8458 14.3645V16.4356H90.2327V17.6624H81.4513V14.3566H82.8458V14.3645ZM88.7107 7.99986H82.814V9.91165H88.7107V7.99986Z" fill="#575757"/>
<path d="M95.7633 6.7331L99.4288 15.7902L98.1857 16.3319L95.7633 10.1903L93.3488 16.4195L92.0898 15.8699L95.7553 6.74107L95.7633 6.7331ZM100.791 11.7276H98.5921V10.5009H100.791V6.65344H102.186V17.8533H100.791V11.7276Z" fill="#575757"/>
<path d="M103.955 8.5732V7.3385H110.705V8.5732H107.876L110.967 15.8938L109.748 16.4195L107.374 10.6921L105.039 16.5071L103.78 15.9814L106.888 8.5732H103.963H103.955ZM112.529 6.65344H113.924V17.8533H112.529V6.65344Z" fill="#575757"/>
<path d="M115.668 6.98004H121.071V12.3171H119.693V8.20677H115.668V6.98004ZM116.266 12.9066H117.637V13.966H123.557V12.9066H124.912V17.6303H116.266V12.9066ZM123.557 15.0972H117.637V16.4753H123.557V15.0972ZM124.912 12.58H123.533V6.65344H124.912V8.8281H126.522V10.2062H124.912V12.58Z" fill="#575757"/>
<path d="M18.006 12.0146C16.1493 10.748 13.7668 11.2658 12.5157 13.1696C11.4718 14.7548 9.89405 14.9539 9.28047 14.9539C7.28834 14.9539 5.92572 13.552 5.5273 12.1022C5.5273 12.1022 5.5273 12.0783 5.51933 12.0624C5.51933 12.0464 5.51933 12.0305 5.50339 12.0146C5.34402 11.4092 5.30418 11.1224 5.30418 10.4772C5.30418 7.01205 8.85814 3.15661 13.9819 3.15661C19.1057 3.15661 22.2293 7.14747 22.9943 9.36196C22.9784 9.32213 22.9704 9.2823 22.9545 9.24248C21.4644 4.90909 17.3526 1.7865 12.5077 1.7865C6.4118 1.7865 1.47131 6.72529 1.47131 12.8191C1.47131 18.2677 5.3998 22.9277 10.8503 22.9277C15.2011 22.9277 18.1176 20.4902 19.4643 17.1286C20.1974 15.2885 19.6794 13.1298 18.006 11.9986V12.0146Z" fill="#003764"/>
<path d="M23.0575 9.57692C22.412 7.41819 19.3919 3.15649 13.9733 3.15649C8.84956 3.15649 5.29559 7.01193 5.29559 10.477C5.29559 11.1223 5.33544 11.409 5.49481 12.0144C5.43106 11.7516 5.39122 11.4807 5.39122 11.2258C5.39122 7.61733 9.00893 5.11608 12.7223 5.11608C17.7504 5.11608 21.8223 9.18659 21.8223 14.213C21.8223 18.1561 19.5513 21.5654 16.2603 23.1984C20.5075 21.661 23.5435 17.5985 23.5435 12.819C23.5435 11.6878 23.3921 10.6921 23.0575 9.56895V9.57692Z" fill="#E4032E"/>
</svg>
