<svg xmlns="http://www.w3.org/2000/svg" width="86" height="36.119" viewBox="0 0 86 36.119">
    <defs>
        <clipPath id="dwaesg76fa">
            <path data-name="사각형 3038" style="fill:none" d="M0 0h86v36.119H0z"/>
        </clipPath>
    </defs>
    <g data-name="그룹 3070" style="clip-path:url(#dwaesg76fa)">
        <path data-name="패스 65989" d="M8.858 21.377a8.786 8.786 0 0 1 3.476.7 8.9 8.9 0 0 1 4.753 4.737 8.617 8.617 0 0 1 .7 3.459v8.52h-2.966V36.88a9.023 9.023 0 0 1-2.71 1.652 8.787 8.787 0 0 1-3.254.6 8.539 8.539 0 0 1-3.442-.7A9.234 9.234 0 0 1 2.6 36.54a8.8 8.8 0 0 1-1.9-2.812 8.907 8.907 0 0 1 0-6.917 8.994 8.994 0 0 1 4.717-4.737 8.55 8.55 0 0 1 3.442-.7m0 2.93a5.9 5.9 0 0 0-2.317.459 5.757 5.757 0 0 0-1.892 1.281 6.341 6.341 0 0 0-1.277 1.909 5.851 5.851 0 0 0 0 4.633 6.007 6.007 0 0 0 3.168 3.171 5.759 5.759 0 0 0 2.317.478 5.85 5.85 0 0 0 2.352-.478 6.094 6.094 0 0 0 1.89-1.28 6.034 6.034 0 0 0 1.261-6.525 6.145 6.145 0 0 0-1.261-1.908 5.771 5.771 0 0 0-1.892-1.278 6 6 0 0 0-2.352-.459" transform="translate(0 -13.847)" style="fill:#26969a"/>
        <path data-name="패스 65990" d="M69.024 7.53a8.569 8.569 0 0 1 3.252.613 9.36 9.36 0 0 1 2.71 1.668V0h2.9v16.423a8.634 8.634 0 0 1-.7 3.459 8.821 8.821 0 0 1-4.7 4.7 8.647 8.647 0 0 1-3.457.7 8.534 8.534 0 0 1-3.442-.7 9.217 9.217 0 0 1-2.811-1.891 8.788 8.788 0 0 1-1.909-2.812 8.923 8.923 0 0 1 0-6.917 9.012 9.012 0 0 1 4.72-4.737 8.545 8.545 0 0 1 3.442-.7m0 2.93a5.9 5.9 0 0 0-2.318.459 5.768 5.768 0 0 0-1.897 1.286 6.3 6.3 0 0 0-1.277 1.909 5.847 5.847 0 0 0 0 4.633 6.005 6.005 0 0 0 3.168 3.171 5.859 5.859 0 0 0 4.634 0 6.306 6.306 0 0 0 1.909-1.279 5.7 5.7 0 0 0 1.276-1.892 6 6 0 0 0-1.275-6.542 5.944 5.944 0 0 0-4.225-1.737" transform="translate(-38.97)" style="fill:#26969a"/>
        <path data-name="패스 65991" d="M119.453.093h2.931v3.953h-2.931zm0 7.9h2.931v17.042h-2.931z" transform="translate(-77.374 -.06)" style="fill:#26969a"/>
        <path data-name="패스 65992" d="M144.659 21.663a8.611 8.611 0 0 1 3.458.7 9.173 9.173 0 0 1 2.829 1.89 8.856 8.856 0 0 1 2.606 6.3 8.683 8.683 0 0 1-4.362 7.631 7.992 7.992 0 0 1 1.635 2.3 6.469 6.469 0 0 1 .647 2.845 6.149 6.149 0 0 1-.579 2.64 6.644 6.644 0 0 1-1.6 2.165 8.013 8.013 0 0 1-2.367 1.466 7.623 7.623 0 0 1-2.88.546v-2.9a5.051 5.051 0 0 0 1.756-.306 4.5 4.5 0 0 0 1.446-.851 4.24 4.24 0 0 0 .971-1.245 3.277 3.277 0 0 0 .359-1.517 3.722 3.722 0 0 0-.307-1.514 4.085 4.085 0 0 0-2.1-2.1 3.732 3.732 0 0 0-1.516-.306 8.538 8.538 0 0 1-3.442-.7A9.04 9.04 0 0 1 136.5 34a8.517 8.517 0 0 1-.7-3.442 8.865 8.865 0 0 1 2.607-6.3 9.226 9.226 0 0 1 2.811-1.89 8.509 8.509 0 0 1 3.442-.7m0 2.932a5.9 5.9 0 0 0-2.317.459 5.7 5.7 0 0 0-1.89 1.278 6.281 6.281 0 0 0-1.279 1.909 5.862 5.862 0 0 0 0 4.632 6.019 6.019 0 0 0 3.169 3.169 5.687 5.687 0 0 0 2.317.478 5.769 5.769 0 0 0 2.351-.478 6.118 6.118 0 0 0 1.892-1.278 6.023 6.023 0 0 0 1.259-6.523 6.071 6.071 0 0 0-1.259-1.909 5.74 5.74 0 0 0-1.892-1.278 5.986 5.986 0 0 0-2.351-.459" transform="translate(-87.961 -14.032)" style="fill:#26969a"/>
        <path data-name="패스 65993" d="M202.506 21.377a8.8 8.8 0 0 1 3.477.7 8.91 8.91 0 0 1 4.753 4.737 8.676 8.676 0 0 1 .7 3.459v8.52h-2.963V36.88a9.031 9.031 0 0 1-2.71 1.652 8.787 8.787 0 0 1-3.254.6 8.539 8.539 0 0 1-3.442-.7 9.237 9.237 0 0 1-2.811-1.891 8.836 8.836 0 0 1-1.909-2.812 8.932 8.932 0 0 1 0-6.917 9.017 9.017 0 0 1 4.72-4.737 8.55 8.55 0 0 1 3.442-.7m0 2.93a5.911 5.911 0 0 0-2.318.459 5.768 5.768 0 0 0-1.891 1.278 6.309 6.309 0 0 0-1.277 1.909 5.871 5.871 0 0 0 0 4.633 6.005 6.005 0 0 0 3.168 3.171 5.767 5.767 0 0 0 2.318.478 5.832 5.832 0 0 0 2.35-.478 6.067 6.067 0 0 0 1.891-1.279 5.844 5.844 0 0 0 1.261-1.892 6.049 6.049 0 0 0 0-4.633 6.083 6.083 0 0 0-1.261-1.909 5.746 5.746 0 0 0-1.891-1.278 5.98 5.98 0 0 0-2.35-.459" transform="translate(-125.432 -13.847)" style="fill:#26969a"/>
    </g>
</svg>
