<svg xmlns="http://www.w3.org/2000/svg" width="36" height="36" viewBox="0 0 36 36">
    <defs>
        <clipPath id="c7537g48wa">
            <path data-name="사각형 1662" transform="translate(-7 -3)" style="fill:red;opacity:.24" d="M0 0h36v36H0z"/>
        </clipPath>
    </defs>
    <g style="clip-path:url(#c7537g48wa)" transform="translate(7 3)">
        <path data-name="선 699" transform="translate(5 28.541)" style="stroke-linejoin:round;stroke:#111;stroke-linecap:round;stroke-width:1.2px;fill:none" d="M0 0h12.5"/>
        <path data-name="패스 66448" d="M2.5 0h16a2.5 2.5 0 0 1 0 5h-16a2.5 2.5 0 0 1 0-5z" transform="translate(.569 14)" style="fill:#34c8cf"/>
        <path data-name="패스 66449" d="M4.289 0h16.972a2.23 2.23 0 0 1 2.289 2.165 2.23 2.23 0 0 1-2.289 2.165H4.289A2.23 2.23 0 0 1 2 2.165 2.23 2.23 0 0 1 4.289 0z" transform="rotate(180 12.012 9.309)" style="stroke:#111;stroke-linecap:round;stroke-width:1.2px;fill:none"/>
        <path data-name="패스 66694" d="M4.376 0h18.248A2.376 2.376 0 0 1 25 2.376v24.86a2.376 2.376 0 0 1-2.376 2.376H4.376A2.376 2.376 0 0 1 2 27.236V2.376A2.376 2.376 0 0 1 4.376 0z" transform="rotate(-90 11.71 15.29)" style="stroke:#111;stroke-linecap:round;stroke-width:1.2px;fill:none"/>
        <path data-name="패스 66699" d="M13.372 1.125A.375.375 0 1 1 13 .75a.375.375 0 0 1 .372.375z" transform="translate(-11.622 6.053)" style="fill:#111;stroke-linejoin:round;stroke:#111;stroke-linecap:round;stroke-width:1.2px"/>
        <path data-name="패스 66700" d="M13.372 1.125A.375.375 0 1 1 13 .75a.375.375 0 0 1 .372.375z" transform="translate(-7.622 6.053)" style="fill:#111;stroke-linejoin:round;stroke:#111;stroke-linecap:round;stroke-width:1.2px"/>
        <path data-name="패스 66701" d="M13.372 1.125A.375.375 0 1 1 13 .75a.375.375 0 0 1 .372.375z" transform="translate(-3.622 6.053)" style="fill:#111;stroke-linejoin:round;stroke:#111;stroke-linecap:round;stroke-width:1.2px"/>
    </g>
</svg>
