<svg xmlns="http://www.w3.org/2000/svg" width="36" height="36" viewBox="0 0 36 36">
    <path data-name="사각형 3145" style="fill:transparent" d="M0 0h36v36H0z"/>
    <g data-name="그룹 3191">
        <g data-name="그룹 3200">
            <path data-name="패스 66205" d="M18.3 15.166a4.774 4.774 0 1 1 3.376-1.4 4.742 4.742 0 0 1-3.376 1.4z" transform="translate(-2.191 -.618)" style="stroke-linecap:round;stroke-width:1.2px;stroke:#111;stroke-miterlimit:10;fill:#f5f5f5"/>
            <path data-name="패스 66206" d="m.732 48.156 1.8-7.3A5.334 5.334 0 0 1 7.824 37h8.922a5.334 5.334 0 0 1 5.291 3.848l1.8 7.3" transform="translate(4.268 -19.709)" style="fill:none;stroke:#21120e;stroke-linejoin:bevel;stroke-linecap:round;stroke-width:1.2px"/>
        </g>
        <g data-name="그룹 3204">
            <path data-name="패스 66207" d="M20.32 19.2a6.791 6.791 0 1 1 4.8-1.989 6.751 6.751 0 0 1-4.8 1.989z" transform="translate(3.051 12.321)" style="fill:#34c8cf;stroke-linecap:round;stroke-width:1.2px;stroke:#111;stroke-miterlimit:10"/>
            <g data-name="그룹 3203" transform="translate(22.919 21.108)">
                <path data-name="패스 66203" d="M51.249 9.146a.679.679 0 1 1-.679-.679.679.679 0 0 1 .679.679" transform="translate(-49.891 -8.467)" style="fill:#111"/>
                <rect data-name="사각형 3163" width="1.358" height="4.527" rx=".679" transform="translate(0 2.397)" style="fill:#111"/>
            </g>
        </g>
    </g>
</svg>
