<svg width="36" height="36" viewBox="0 0 36 36" fill="none" xmlns="http://www.w3.org/2000/svg">
<rect x="10.1351" y="9.08176" width="17.5473" height="3.63047" rx="1.81523" fill="#222222"/>
<path d="M4.60348 2.72729H32.2749C33.1023 2.72729 33.8958 3.05599 34.4809 3.64106C35.066 4.22613 35.3947 5.01966 35.3947 5.84708V22.8346C35.3947 23.6617 35.0661 24.455 34.4813 25.0398C33.8964 25.6246 33.1032 25.9532 32.2761 25.9532H4.60227C3.77518 25.9532 2.98196 25.6246 2.39711 25.0398C1.81227 24.455 1.4837 23.6617 1.4837 22.8346L1.4837 5.84708C1.4837 5.01966 1.81239 4.22613 2.39747 3.64106C2.98254 3.05599 3.77607 2.72729 4.60348 2.72729Z" fill="white"/>
<rect x="8.37399" y="8.49923" width="21.1602" height="5.11644" rx="2.24989" fill="#38B8BE" stroke="#222222" stroke-width="0.899957"/>
<path d="M4.60386 2.12299H32.2753C33.2628 2.12411 34.2096 2.51691 34.9079 3.21521C35.6062 3.91351 35.999 4.8603 36.0001 5.84785V22.8354C35.999 23.8226 35.6063 24.7691 34.9083 25.4672C34.2102 26.1653 33.2637 26.5579 32.2765 26.5591H4.60265C3.61542 26.5579 2.66894 26.1653 1.97087 25.4672C1.27279 24.7691 0.880119 23.8226 0.878998 22.8354V5.84785C0.880119 4.8603 1.27292 3.91351 1.97122 3.21521C2.66953 2.51691 3.61631 2.12411 4.60386 2.12299ZM32.2765 25.3495C32.9429 25.3487 33.5817 25.0836 34.0529 24.6124C34.5241 24.1412 34.7892 23.5024 34.79 22.836V5.84785C34.7892 5.18115 34.524 4.54199 34.0526 4.07057C33.5811 3.59914 32.942 3.33394 32.2753 3.33314H4.60386C3.93716 3.33394 3.298 3.59914 2.82658 4.07057C2.35515 4.54199 2.08995 5.18115 2.08915 5.84785V22.8354C2.08995 23.5018 2.35502 24.1406 2.82622 24.6118C3.29742 25.083 3.93627 25.3481 4.60265 25.3489L32.2765 25.3495Z" fill="#222222"/>
<path d="M22.1242 26.1463L23.6818 31.7948H13.2004L14.758 26.1463H22.1242Z" fill="white" stroke="#222222" stroke-width="1.43993"/>
<path d="M23.9989 10.7993C24.5558 10.7993 25.09 10.9889 25.4838 11.3265C25.8776 11.664 26.0988 12.1219 26.0988 12.5992V12.685C26.0988 12.8854 26.0988 12.9856 26.0449 13.0588C26.017 13.0969 26.0204 13.1068 25.935 13.153C25.8496 13.1992 25.7737 13.1769 25.5399 13.1769H23.74H21.94M23.9989 10.7993C23.442 10.7993 22.9079 10.9889 22.5141 11.3265C22.1203 11.664 21.899 12.1219 21.899 12.5992L21.94 13.1769M23.9989 10.7993H16.2993C14.9791 10.7993 14.3198 10.7993 13.9096 11.1509C13.4994 11.5025 13.4994 12.0677 13.4994 13.1992V17.399V21.5988L15.5993 20.9988L17.6992 21.5988L19.7991 20.9988L21.899 21.5988L21.94 13.1769" fill="#FEAE6D"/>
<path d="M23.9989 10.7993C24.5558 10.7993 25.09 10.9889 25.4838 11.3265C25.8776 11.664 26.0988 12.1219 26.0988 12.5992V12.685C26.0988 12.8854 26.0988 12.9856 26.0449 13.0588C26.017 13.0969 26.0204 13.1068 25.935 13.153C25.8496 13.1992 25.7737 13.1769 25.5399 13.1769H23.74H21.94M23.9989 10.7993C23.442 10.7993 22.9079 10.9889 22.5141 11.3265C22.1203 11.664 21.899 12.1219 21.899 12.5992L21.94 13.1769M23.9989 10.7993H16.2993C14.9791 10.7993 14.3198 10.7993 13.9096 11.1509C13.4994 11.5025 13.4994 12.0677 13.4994 13.1992V17.399V21.5988L15.5993 20.9988L17.6992 21.5988L19.7991 20.9988L21.899 21.5988L21.94 13.1769" stroke="#222222" stroke-width="0.899957"/>
<path d="M16.1852 13.109H19.5055M17.6903 15.5293H16.1852M16.1852 17.9496H18.9004" stroke="#222222" stroke-width="0.899957" stroke-linecap="round"/>
</svg>
