<svg xmlns="http://www.w3.org/2000/svg" width="375" height="96" viewBox="0 0 375 96">
    <defs>
        <linearGradient id="kfr08izucb" x1="-1.47" y1="1.439" x2="-1.466" y2="1.439" gradientUnits="objectBoundingBox">
            <stop offset="0" stop-color="#e0e7f0"/>
            <stop offset="1" stop-color="#f5f6f8"/>
        </linearGradient>
        <clipPath id="5i4cothufa">
            <path data-name="패스 65928" d="m328.776 215.5 24.688-14.254V196.4l-24.688 14.254z" transform="translate(-328.776 -196.401)" style="fill:none"/>
        </clipPath>
    </defs>
    <path data-name="사각형 3049" style="fill:#e3edf6;opacity:.9" d="M0 0h375v96H0z"/>
    <text data-name="전형 유형에 따른 대학별 전형 평가기준을 확인하세요." transform="translate(20 44)" style="font-size:18px;font-family:NotoSansCJKkr-Medium,Noto Sans CJK KR;font-weight:500;letter-spacing:-.025em;fill:#324a5e"><tspan x="0" y="0">전형 유형에 따른 대학별 </tspan><tspan x="0" y="25">전형 평가기준을 확인하세요.</tspan></text>
    <g data-name="그룹 3016">
        <path data-name="패스 65908" d="m32.971 139.379 33.947 21.55 25.911-15.491-35.121-19.8z" transform="translate(237.426 -76.644)" style="fill:#b7c3de"/>
        <path data-name="패스 65909" d="m361.747 272.567 24.688-14.254v-4.843l-24.688 14.254z" transform="translate(-58.057 -190.365)" style="fill:#ededed"/>
        <path data-name="패스 65910" d="m361.747 268.351 24.688-14.251v-.627l-24.688 14.254z" transform="translate(-58.057 -190.366)" style="fill:#b7c3de"/>
        <path data-name="패스 65911" d="m361.747 275.66 24.688-14.254v-.034l-24.688 14.254z" transform="translate(-58.057 -197.395)" style="fill:#ddd"/>
        <path data-name="패스 65912" d="m361.747 278.2 24.688-14.254v-.034l-24.688 14.254z" transform="translate(-58.057 -199.657)" style="fill:#ddd"/>
        <path data-name="패스 65913" d="m361.747 280.744 24.688-14.254v-.034l-24.688 14.254z" transform="translate(-58.057 -201.918)" style="fill:#ddd"/>
        <path data-name="패스 65914" d="m361.747 283.286 24.688-14.254V269l-24.688 14.254z" transform="translate(-58.057 -204.18)" style="fill:#ddd"/>
        <path data-name="패스 65915" d="m361.747 285.828 24.688-14.254v-.034l-24.688 14.254z" transform="translate(-58.057 -206.441)" style="fill:#ddd"/>
        <path data-name="패스 65916" d="m361.747 288.37 24.688-14.254v-.034l-24.688 14.254z" transform="translate(-58.057 -208.703)" style="fill:#ddd"/>
        <path data-name="패스 65917" d="m361.747 290.912 24.688-14.254v-.034l-24.688 14.254z" transform="translate(-58.057 -210.964)" style="fill:#ddd"/>
        <path data-name="패스 65918" d="m361.747 293.454 24.688-14.254v-.034l-24.688 14.254z" transform="translate(-58.057 -213.226)" style="fill:#ddd"/>
        <path data-name="패스 65919" d="m361.747 296 24.688-14.254v-.034l-24.688 14.254z" transform="translate(-58.057 -215.487)" style="fill:#ddd"/>
        <path data-name="패스 65920" d="m361.747 298.538 24.688-14.254v-.034l-24.688 14.25z" transform="translate(-58.057 -217.748)" style="fill:#ddd"/>
        <path data-name="패스 65921" d="m361.747 301.081 24.688-14.254v-.034l-24.688 14.254z" transform="translate(-58.057 -220.01)" style="fill:#ddd"/>
        <path data-name="패스 65922" d="m361.747 303.623 24.688-14.254v-.034l-24.688 14.254z" transform="translate(-58.057 -222.271)" style="fill:#ddd"/>
        <path data-name="패스 65923" d="m361.747 306.165 24.688-14.254v-.034l-24.688 14.254z" transform="translate(-58.057 -224.533)" style="fill:#ddd"/>
        <path data-name="패스 65924" d="m361.747 308.707 24.688-14.254v-.034l-24.688 14.254z" transform="translate(-58.057 -226.794)" style="fill:#ddd"/>
        <path data-name="패스 65925" d="m66.885 92.649 24.712-15L57.685 57.07l-24.712 15z" transform="translate(237.424 -15.645)" style="fill:#806ca3"/>
        <path data-name="패스 65926" d="M356.555 263.574v-4.843l24.688-14.254.644-.372v-.744l-25.977 15v6.33l25.977-15v-.744l-.644.372z" transform="translate(-52.865 -181.373)" style="fill:#60517e"/>
        <path data-name="패스 65927" d="m32.971 199.18 35.649 20.581v-6.321l-35.649-20.582z" transform="translate(237.426 -136.444)" style="fill:#6b5e8e"/>
        <g data-name="그룹 3015">
            <g data-name="그룹 3014" style="clip-path:url(#5i4cothufa)" transform="translate(300.05 56.805)">
                <path data-name="사각형 2844" style="fill:url(#kfr08izucb)" d="M0 0h24.688v19.096H0z"/>
            </g>
        </g>
        <path data-name="패스 65929" d="m328.776 211.281 24.688-14.254v-.627l-24.688 14.254z" transform="translate(-28.726 -139.595)" style="fill:#aeb3c3"/>
        <path data-name="패스 65930" d="m328.776 218.59 24.688-14.254v-.036l-24.688 14.254z" transform="translate(-28.726 -146.625)" style="fill:#ddd"/>
        <path data-name="패스 65931" d="m328.776 221.132 24.688-14.254v-.034L328.776 221.1z" transform="translate(-28.726 -148.887)" style="fill:#ddd"/>
        <path data-name="패스 65932" d="m328.776 223.674 24.688-14.254v-.034l-24.688 14.254z" transform="translate(-28.726 -151.148)" style="fill:#ddd"/>
        <path data-name="패스 65933" d="m328.776 226.216 24.688-14.254v-.034l-24.688 14.254z" transform="translate(-28.726 -153.409)" style="fill:#ddd"/>
        <path data-name="패스 65934" d="m328.776 228.758 24.688-14.258v-.034l-24.688 14.254z" transform="translate(-28.726 -155.671)" style="fill:#ddd"/>
        <path data-name="패스 65935" d="m328.776 231.3 24.688-14.254v-.034l-24.688 14.254z" transform="translate(-28.726 -157.932)" style="fill:#ddd"/>
        <path data-name="패스 65936" d="m328.776 233.842 24.688-14.254v-.034l-24.688 14.254z" transform="translate(-28.726 -160.194)" style="fill:#ddd"/>
        <path data-name="패스 65937" d="m328.776 236.384 24.688-14.254v-.03l-24.688 14.254z" transform="translate(-28.726 -162.455)" style="fill:#ddd"/>
        <path data-name="패스 65938" d="m328.776 238.926 24.688-14.254v-.034l-24.688 14.254z" transform="translate(-28.726 -164.717)" style="fill:#ddd"/>
        <path data-name="패스 65939" d="m328.776 241.468 24.688-14.254v-.034l-24.688 14.254z" transform="translate(-28.726 -166.978)" style="fill:#ddd"/>
        <path data-name="패스 65940" d="m328.776 244.01 24.688-14.254v-.034l-24.688 14.254z" transform="translate(-28.726 -169.24)" style="fill:#ddd"/>
        <path data-name="패스 65941" d="m328.776 246.552 24.688-14.252v-.034l-24.688 14.254z" transform="translate(-28.726 -171.501)" style="fill:#ddd"/>
        <path data-name="패스 65942" d="m328.776 249.095 24.688-14.254v-.034l-24.688 14.254z" transform="translate(-28.726 -173.763)" style="fill:#ddd"/>
        <path data-name="패스 65943" d="m328.776 251.637 24.688-14.254v-.034L328.776 251.6z" transform="translate(-28.726 -176.024)" style="fill:#ddd"/>
        <path data-name="패스 65944" d="M24.713 0 0 15l33.914 20.579 24.712-15z" transform="translate(266.756 35.125)" style="fill:#89addc"/>
        <path data-name="패스 65945" d="M323.584 206.5v-4.843l24.688-14.254.644-.372v-.744l-25.977 15v6.33l25.977-15v-.744l-.644.372z" transform="translate(-23.534 -130.603)" style="fill:#6a97cb"/>
        <path data-name="패스 65946" d="m0 142.11 35.649 20.582v-6.322L0 135.789z" transform="translate(266.757 -85.674)" style="fill:#6a97cb"/>
        <path data-name="패스 65947" d="m225.223 40.893.992-.561-35.88-20.715-.992.561z" transform="translate(95.315 17.673)" style="fill:#32244a"/>
        <path data-name="패스 65948" d="M514.375 207.835v.73l.992-.583v-.708z" transform="translate(-193.837 -149.269)" style="fill:#32244a"/>
    </g>
    <g data-name="그룹 3067">
        <path data-name="패스 65803" d="M30.884 50.494V68.6a24.956 24.956 0 0 1 17.645 7.309l1.371 1.368V50.494z" transform="translate(247.354 -14.985)" style="fill:#3a5466"/>
        <path data-name="패스 65804" d="M58.564 50.494v26.783l1.368-1.368A24.956 24.956 0 0 1 77.577 68.6V50.494z" transform="translate(237.422 -14.985)" style="fill:#243342"/>
        <path data-name="패스 65805" d="M72.253 37.363 43.084 50.48 13.915 37.363l29.169-13.118z" transform="translate(253.442 -6.766)" style="fill:#324a5e"/>
        <path data-name="패스 65806" d="M60.188 42.622c0 .873-1.337 1.581-2.986 1.581s-2.985-.708-2.985-1.581 1.337-1.581 2.985-1.581 2.986.708 2.986 1.581" transform="translate(239.395 -12.025)" style="fill:#fc6f58"/>
        <path data-name="패스 65807" d="M13.915 43.342 43.084 56.46l29.169-13.118v2.769L43.084 59.229 13.915 46.111z" transform="translate(253.442 -12.746)" style="fill:#2b3b4e"/>
        <path data-name="패스 65808" d="M58.564 43.342h30.669v24.983" transform="translate(236.462 -12.746)" style="stroke:#fc6f58;stroke-linecap:round;stroke-linejoin:round;stroke-width:2px;fill:none"/>
        <path data-name="패스 65809" d="M103.827 80.478a2.774 2.774 0 1 0-3.756 0 2.753 2.753 0 0 0-.9 2.029v8.081h5.546v-8.081a2.757 2.757 0 0 0-.894-2.029" transform="translate(223.747 -22.87)" style="fill:#fc6f58"/>
        <path data-name="패스 65810" d="M104.78 80.476a2.748 2.748 0 0 1 .893 2.033v8.078h-1.367V82.51a2.748 2.748 0 0 0-.893-2.033 2.762 2.762 0 0 0-1.2-4.712 2.5 2.5 0 0 1 .68-.089 2.776 2.776 0 0 1 2.775 2.775 2.744 2.744 0 0 1-.893 2.026" transform="translate(222.794 -22.869)" style="fill:#f75848"/>
        <path data-name="패스 65811" d="M102.461 80.517a2.748 2.748 0 0 1 .893 2.033v8.078h-4.176V82.55a2.748 2.748 0 0 1 .893-2.033 2.744 2.744 0 0 1-.893-2.026 2.772 2.772 0 0 1 2.088-2.686 2.762 2.762 0 0 1 1.2 4.712" transform="translate(223.746 -22.91)" style="fill:#fc6f58"/>
    </g>
    <path data-name="사각형 2963" transform="translate(263 16.001)" style="opacity:.2;fill:none" d="M0 0h70v70H0z"/>
</svg>
