<svg xmlns="http://www.w3.org/2000/svg" width="36" height="36" viewBox="0 0 36 36">
    <path data-name="패스 66668" d="M1.376 3h17.248A2.376 2.376 0 0 1 21 5.376v21.248A2.376 2.376 0 0 1 18.624 29H1.376A2.376 2.376 0 0 1-1 26.624V5.376A2.376 2.376 0 0 1 1.376 3z" transform="translate(7.5 2.629)" style="stroke:#111;stroke-linecap:round;stroke-width:1.2px;fill:none"/>
    <path data-name="선 743" transform="translate(11.671 12.33)" style="stroke-linejoin:round;stroke:#111;stroke-linecap:round;stroke-width:1.2px;fill:none" d="M0 0h2.414"/>
    <path data-name="선 744" transform="translate(11.671 17.926)" style="stroke-linejoin:round;stroke:#111;stroke-linecap:round;stroke-width:1.2px;fill:none" d="M0 0h5.829"/>
    <path data-name="선 745" transform="translate(11.671 21.926)" style="stroke-linejoin:round;stroke:#111;stroke-linecap:round;stroke-width:1.2px;fill:none" d="M0 0h3.414"/>
    <path data-name="패스 66669" d="M-3347.127-17425.475s.462 5.418-2.734 5.418h19.2a5.024 5.024 0 0 0 2.964-1.852 7.613 7.613 0 0 0 .461-3.889z" transform="translate(3359.169 17451.563)" style="fill:#fff"/>
    <path data-name="패스 66670" d="M8.889 29.461v1.622a3.634 3.634 0 0 1-3.663 3.372c.083.006.163.021.248.021H24.7a3.678 3.678 0 0 0 3.909-3.393v-1.622z" transform="translate(3.202 -2.848)" style="stroke-linejoin:round;stroke:#111;stroke-linecap:round;stroke-width:1.2px;fill:none"/>
    <path data-name="패스 66671" d="M24.542 11.457h-8.8V6.172h8.8l-2.174 2.642z" transform="rotate(90 20.375 10.33)" style="fill:#34c8cf"/>
    <path data-name="패스 66672" d="M24.542 11.457h-8.8V6.172h8.8l-2.174 2.642z" transform="rotate(90 20.375 10.33)" style="stroke-linejoin:round;stroke:#111;stroke-linecap:round;stroke-width:1.2px;fill:none"/>
    <path data-name="사각형 3280" transform="rotate(90 11.017 15.017)" style="fill:none" d="M0 0h12v8.033H0z"/>
    <path data-name="사각형 3281" style="opacity:.24;fill:none" d="M0 0h36v36H0z"/>
</svg>
