<svg xmlns="http://www.w3.org/2000/svg" width="36" height="36" viewBox="0 0 36 36">
    <path data-name="사각형 3144" style="fill:transparent" d="M0 0h36v36H0z"/>
    <g data-name="그룹 3189">
        <path data-name="패스 66190" d="M20.817 47.393H13.75V34.371a1.829 1.829 0 0 1 1.829-1.829h3.41a1.829 1.829 0 0 1 1.829 1.829z" transform="translate(-6.645 -16.06)" style="stroke-width:1.2px;fill:none;stroke:#111;stroke-linecap:round;stroke-linejoin:round"/>
        <path data-name="패스 66191" d="M38.817 28.084H31.75V2.579A1.829 1.829 0 0 1 33.579.75h3.41a1.829 1.829 0 0 1 1.829 1.829z" transform="translate(-17.578 3.25)" style="fill:#34c8cf;stroke:#707070;stroke-width:1.2px"/>
        <path data-name="패스 66192" d="M38.817 28.084H31.75V2.579A1.829 1.829 0 0 1 33.579.75h3.41a1.829 1.829 0 0 1 1.829 1.829z" transform="translate(-17.578 3.25)" style="stroke-width:1.2px;fill:none;stroke:#111;stroke-linecap:round;stroke-linejoin:round"/>
        <path data-name="패스 66193" d="M56.817 38.5H49.75V19.732a1.829 1.829 0 0 1 1.829-1.832h3.41a1.829 1.829 0 0 1 1.829 1.829z" transform="translate(-28.51 -7.168)" style="stroke-width:1.2px;fill:none;stroke:#111;stroke-linecap:round;stroke-linejoin:round"/>
        <path data-name="선 602" transform="translate(2 31.333)" style="stroke-width:1.2px;fill:none;stroke:#111;stroke-linecap:round;stroke-linejoin:round" d="M0 0h31.411"/>
    </g>
</svg>
