<svg xmlns="http://www.w3.org/2000/svg" width="36" height="36" viewBox="0 0 36 36">
    <g data-name="ico_gnb_자주하는 질문">
        <path data-name="패스 66665" d="M1.376 0h17.248A2.376 2.376 0 0 1 21 2.376v21.248A2.376 2.376 0 0 1 18.624 26H1.376A2.376 2.376 0 0 1-1 23.624V2.376A2.376 2.376 0 0 1 1.376 0z" transform="translate(7.5 4.629)" style="stroke-width:1.2px;stroke:#111;stroke-linecap:round;fill:none"/>
        <path data-name="선 740" transform="translate(11 12)" style="stroke-linejoin:round;stroke-width:1.2px;stroke:#111;stroke-linecap:round;fill:none" d="M0 0h5"/>
        <path data-name="선 741" transform="translate(11 16)" style="stroke-linejoin:round;stroke-width:1.2px;stroke:#111;stroke-linecap:round;fill:none" d="M0 0h5"/>
        <path data-name="패스 66666" d="M10.445 14.7H2.02a1.271 1.271 0 0 0-1.27 1.27v5.8a1.27 1.27 0 0 0 1.27 1.27h2.374l1.839 3.185 1.84-3.185h2.372a1.269 1.269 0 0 0 1.27-1.27v-5.8a1.27 1.27 0 0 0-1.27-1.27" transform="translate(20.941 -2.832)" style="fill:#34c8cf;stroke:#707070;stroke-width:1.2px"/>
        <path data-name="패스 66667" d="M10.445 14.7H2.02a1.271 1.271 0 0 0-1.27 1.27v5.8a1.27 1.27 0 0 0 1.27 1.27h2.374l1.839 3.185 1.84-3.185h2.372a1.269 1.269 0 0 0 1.27-1.27v-5.8a1.27 1.27 0 0 0-1.27-1.27z" transform="translate(20.941 -2.832)" style="stroke-linejoin:round;stroke-width:1.2px;stroke:#111;stroke-linecap:round;fill:none"/>
        <path data-name="선 742" transform="translate(24.848 16.047)" style="stroke-linejoin:round;stroke-width:1.2px;stroke:#111;stroke-linecap:round;fill:none" d="M0 0h4.652"/>
        <path data-name="사각형 3279" style="opacity:.24;fill:none" d="M0 0h36v36H0z"/>
    </g>
</svg>
