<svg xmlns="http://www.w3.org/2000/svg" width="36" height="36" viewBox="0 0 36 36">
    <path data-name="사각형 3278" style="opacity:.24;fill:none" d="M0 0h36v36H0z"/>
    <path data-name="패스 66662" d="M3.031 7h20.724a3.076 3.076 0 0 1 3.031 3.12v10.5a3.076 3.076 0 0 1-3.031 3.12H3.031A3.076 3.076 0 0 1 0 20.619V10.12A3.076 3.076 0 0 1 3.031 7z" transform="rotate(-90 20.823 11.576)" style="stroke-width:1.2px;stroke:#111;stroke-linecap:round;fill:#34c8cf"/>
    <path data-name="선 737" transform="rotate(-90 21.619 -4.298)" style="stroke-linejoin:round;stroke-width:1.2px;stroke:#111;stroke-linecap:round;fill:none" d="M0 0v2"/>
    <path data-name="선 738" transform="rotate(-90 18.535 -7.382)" style="stroke-linejoin:round;stroke-width:1.2px;stroke:#111;stroke-linecap:round;fill:none" d="M0 0v2"/>
    <path data-name="선 739" transform="translate(22.5 14.237)" style="stroke-linejoin:round;stroke-width:1.2px;stroke:#111;stroke-linecap:round;fill:none" d="M5.416 0H0"/>
    <path data-name="패스 66663" d="M22.878 21.3a1.728 1.728 0 0 1-.533.913l-1.834 1.542c-6.182 4.3-12.853-3.515-12.915-3.594l-3.477-4.16c-.066-.079-6.6-8.019-1.295-13.324l1.87-1.566a1.724 1.724 0 0 1 .993-.36 1.562 1.562 0 0 1 .205 0A.878.878 0 0 1 6.484 1L9.69 5.439a1.1 1.1 0 0 1-.137 1.551L8.134 8.177a3.65 3.65 0 0 0-.78.939 4.7 4.7 0 0 0 .784 5.036l2 2.39a4.7 4.7 0 0 0 4.832 1.636 3.7 3.7 0 0 0 1.047-.605l1.4-1.177a1.114 1.114 0 0 1 1.567.16l3.766 3.9a1.012 1.012 0 0 1 .119.848" transform="translate(3.148 7.397)" style="fill:#fff;stroke:#707070;stroke-width:1.2px"/>
    <path data-name="패스 66664" d="M22.878 21.3a1.728 1.728 0 0 1-.533.913l-1.834 1.542c-6.182 4.3-12.853-3.515-12.915-3.594l-3.477-4.16c-.066-.079-6.6-8.019-1.295-13.324l1.87-1.566a1.724 1.724 0 0 1 .993-.36 1.562 1.562 0 0 1 .205 0A.878.878 0 0 1 6.484 1L9.69 5.439a1.1 1.1 0 0 1-.137 1.551L8.134 8.177a3.65 3.65 0 0 0-.78.939 4.7 4.7 0 0 0 .784 5.036l2 2.39a4.7 4.7 0 0 0 4.832 1.636 3.7 3.7 0 0 0 1.047-.605l1.4-1.177a1.114 1.114 0 0 1 1.567.16h0l3.766 3.9a1.012 1.012 0 0 1 .128.844z" transform="translate(3.148 7.397)" style="stroke-linejoin:round;stroke-width:1.2px;stroke:#111;stroke-linecap:round;fill:none"/>
</svg>
