<svg xmlns="http://www.w3.org/2000/svg" width="36" height="36" viewBox="0 0 36 36">
    <path data-name="사각형 3177" style="fill:transparent" d="M0 0h36v36H0z"/>
    <g data-name="그룹 3233">
        <path data-name="패스 66228" d="M27.9 11.775v-1.338a9.688 9.688 0 0 0-19.375 0v1.338" transform="translate(-.21 3.25)" style="stroke-width:1.2px;fill:none;stroke:#111;stroke-linecap:round;stroke-linejoin:round"/>
        <path data-name="패스 66229" d="M7.062 23.588H4.827A4.077 4.077 0 0 1 .75 19.511v-2.087a4.077 4.077 0 0 1 4.077-4.077h2.235z" transform="translate(1.249 .884)" style="stroke:#707070;fill:#34c8cf;stroke-width:1.2px"/>
        <path data-name="패스 66230" d="M7.062 23.588H4.827A4.077 4.077 0 0 1 .75 19.511v-2.087a4.077 4.077 0 0 1 4.077-4.077h2.235z" transform="translate(1.249 .884)" style="stroke-width:1.2px;fill:none;stroke:#111;stroke-linecap:round;stroke-linejoin:round"/>
        <path data-name="패스 66231" d="M32.377 13.347h2.235a4.077 4.077 0 0 1 4.077 4.077v2.087a4.077 4.077 0 0 1-4.077 4.077h-2.235z" transform="translate(-4.69 .884)" style="stroke:#707070;fill:#34c8cf;stroke-width:1.2px"/>
        <path data-name="패스 66232" d="M32.377 13.347h2.235a4.077 4.077 0 0 1 4.077 4.077v2.087a4.077 4.077 0 0 1-4.077 4.077h-2.235z" transform="translate(-4.69 .884)" style="stroke-width:1.2px;fill:none;stroke:#111;stroke-linecap:round;stroke-linejoin:round"/>
        <path data-name="패스 66233" d="M30.884 25.956v.449a5.373 5.373 0 0 1-5.373 5.373h-1.083" transform="translate(-3.198 -1.484)" style="stroke-width:1.2px;fill:none;stroke:#111;stroke-linecap:round;stroke-linejoin:round"/>
        <path data-name="패스 66234" d="M23.432 32.626a2.154 2.154 0 1 1-2.153-2.153 2.153 2.153 0 0 1 2.153 2.153" transform="translate(-2.202 -2.332)" style="fill:#fff;stroke:#707070;stroke-width:1.2px"/>
        <path data-name="패스 66235" d="M23.432 32.626a2.154 2.154 0 1 1-2.153-2.153 2.153 2.153 0 0 1 2.153 2.153z" transform="translate(-2.202 -2.332)" style="stroke-width:1.2px;fill:none;stroke:#111;stroke-linecap:round;stroke-linejoin:round"/>
        <path data-name="선 612" transform="translate(15.067 14.231)" style="fill:#fff;stroke:#707070;stroke-width:1.2px" d="M0 0v1.355"/>
        <path data-name="선 613" transform="translate(15.067 14.231)" style="stroke-width:1.2px;fill:none;stroke:#111;stroke-linecap:round;stroke-linejoin:round" d="M0 0v1.355"/>
        <path data-name="선 614" transform="translate(20.931 14.231)" style="fill:#fff;stroke:#707070;stroke-width:1.2px" d="M0 0v1.355"/>
        <path data-name="선 615" transform="translate(20.931 14.231)" style="stroke-width:1.2px;fill:none;stroke:#111;stroke-linecap:round;stroke-linejoin:round" d="M0 0v1.355"/>
        <path data-name="패스 66236" d="M22.7 20.364h0a1.9 1.9 0 0 1-1.895 1.895h-2.07a1.894 1.894 0 0 1-1.895-1.895" transform="translate(-1.773 -.433)" style="stroke-width:1.2px;fill:none;stroke:#111;stroke-linecap:round;stroke-linejoin:round"/>
    </g>
</svg>
