<svg xmlns="http://www.w3.org/2000/svg" width="36" height="36" viewBox="0 0 36 36">
    <defs>
        <clipPath id="a7qd2t77ha">
            <path data-name="사각형 3235" transform="translate(-4 -4)" style="fill:red;opacity:.24" d="M0 0h36v36H0z"/>
        </clipPath>
        <clipPath id="8emf1138zb">
            <path data-name="사각형 3285" style="stroke-width:1.2px;stroke:#707070;fill:none" d="M0 0h25.223v36H0z"/>
        </clipPath>
    </defs>
    <g data-name="그룹 4950">
        <g data-name="마스크 그룹 3199" transform="translate(4 4)" style="clip-path:url(#a7qd2t77ha)">
            <g data-name="마스크 그룹 4910" transform="translate(1.389 -4)" style="clip-path:url(#8emf1138zb)">
                <path data-name="패스 66681" d="M18.579 46.18H14.7l-.745-2.785h5.371z" transform="translate(-4.028 -12.038)" style="stroke:#111;stroke-linecap:round;stroke-linejoin:round;stroke-width:1.2px;fill:none"/>
                <path data-name="패스 66682" d="M7.2 12c.169-5.324 2.218-9.8 4.86-10.62a3.1 3.1 0 0 1 .635-.127 12.136 12.136 0 0 0-1.569.127A11.642 11.642 0 0 0 1.274 12a11.416 11.416 0 0 0 4.508 9.867 11.685 11.685 0 0 1 3.974 5.764h1.63a15.3 15.3 0 0 0-1.96-5.764A17.812 17.812 0 0 1 7.2 12" transform="translate(-.361 .608)" style="fill:#fff;stroke-width:1.2px;stroke:#707070"/>
                <path data-name="패스 66683" d="M7.2 12c.169-5.324 2.218-9.8 4.86-10.62a3.1 3.1 0 0 1 .635-.127 12.136 12.136 0 0 0-1.569.127A11.642 11.642 0 0 0 1.274 12a11.416 11.416 0 0 0 4.508 9.867 11.685 11.685 0 0 1 3.974 5.764h1.63a15.3 15.3 0 0 0-1.96-5.764A17.812 17.812 0 0 1 7.2 12z" transform="translate(-.361 .608)" style="stroke:#111;stroke-linecap:round;stroke-linejoin:round;stroke-width:1.2px;fill:none"/>
                <path data-name="패스 66684" d="M29.44 12.275A11.629 11.629 0 0 0 17.729 1.258c3.079 0 5.641 4.822 5.776 11.017a17.813 17.813 0 0 1-2.172 9.5 15.8 15.8 0 0 0-2.018 5.855h1.63a12.163 12.163 0 0 1 4.092-5.855 11.418 11.418 0 0 0 4.4-9.5" transform="translate(-5.118 .607)" style="fill:#34c8cf;stroke-width:1.2px;stroke:#707070"/>
                <path data-name="패스 66685" d="M29.44 12.275A11.629 11.629 0 0 0 17.729 1.258c3.079 0 5.641 4.822 5.776 11.017a17.813 17.813 0 0 1-2.172 9.5 15.8 15.8 0 0 0-2.018 5.855h1.63a12.163 12.163 0 0 1 4.092-5.855 11.418 11.418 0 0 0 4.403-9.5z" transform="translate(-5.118 .607)" style="stroke:#111;stroke-linecap:round;stroke-linejoin:round;stroke-width:1.2px;fill:none"/>
                <path data-name="패스 66687" d="M17.729 1.258z" transform="translate(-5.118 .607)" style="stroke:#111;stroke-linecap:round;stroke-linejoin:round;stroke-width:1.2px;fill:none"/>
                <path data-name="패스 66688" d="M17.618 1.256c-.092 0-.182-.011-.275 0h.275" transform="translate(-5.006 .609)" style="fill:#fff;stroke-width:1.2px;stroke:#707070"/>
                <path data-name="패스 66689" d="M17.618 1.256c-.092 0-.182-.011-.275 0 .092-.005.183 0 .275 0z" transform="translate(-5.006 .609)" style="stroke:#111;stroke-linecap:round;stroke-linejoin:round;stroke-width:1.2px;fill:none"/>
                <path data-name="패스 66690" d="M15.108 1.255a3.091 3.091 0 0 0-.635.127C11.831 2.2 9.783 6.678 9.614 12a17.819 17.819 0 0 0 2.223 9.867 15.3 15.3 0 0 1 1.96 5.764h1.586V1.257h-.275" transform="translate(-2.772 .608)" style="fill:#34c8cf;stroke-width:1.2px;stroke:#707070"/>
                <path data-name="패스 66691" d="M15.108 1.255a3.091 3.091 0 0 0-.635.127C11.831 2.2 9.783 6.678 9.614 12a17.819 17.819 0 0 0 2.223 9.867 15.3 15.3 0 0 1 1.96 5.764h1.586V1.257c-.092 0-.183-.004-.275-.002z" transform="translate(-2.772 .608)" style="stroke:#111;stroke-linecap:round;stroke-linejoin:round;stroke-width:1.2px;fill:none"/>
                <path data-name="패스 66692" d="M21.333 21.779a17.813 17.813 0 0 0 2.172-9.5c-.135-6.2-2.7-11.02-5.777-11.017v26.373h1.586a15.8 15.8 0 0 1 2.019-5.855" transform="translate(-5.117 .607)" style="fill:#fff;stroke-width:1.2px;stroke:#707070"/>
                <path data-name="패스 66693" d="M21.333 21.779a17.813 17.813 0 0 0 2.172-9.5c-.135-6.2-2.7-11.02-5.777-11.017v26.373h1.586a15.8 15.8 0 0 1 2.019-5.856z" transform="translate(-5.117 .607)" style="stroke:#111;stroke-linecap:round;stroke-linejoin:round;stroke-width:1.2px;fill:none"/>
            </g>
        </g>
    </g>
</svg>
