<svg xmlns="http://www.w3.org/2000/svg" width="36" height="36" viewBox="0 0 36 36">
    <path data-name="패스 66676" d="M2.376 0h17.248A2.376 2.376 0 0 1 22 2.376v21.86a2.376 2.376 0 0 1-2.376 2.376H2.376A2.376 2.376 0 0 1 0 24.236V2.376A2.376 2.376 0 0 1 2.376 0z" transform="rotate(-90 15.347 10.653)" style="stroke:#111;stroke-linecap:round;stroke-width:1.2px;fill:none"/>
    <path data-name="선 757" transform="rotate(-90 23.64 5.274)" style="stroke-linejoin:round;stroke:#111;stroke-linecap:round;stroke-width:1.2px;fill:none" d="M0 0h2.414"/>
    <path data-name="선 758" transform="translate(10.366 10.799)" style="stroke-linejoin:round;stroke:#111;stroke-linecap:round;stroke-width:1.2px;fill:none" d="M0 0h5.829"/>
    <path data-name="선 759" transform="translate(10.366 14.797)" style="stroke-linejoin:round;stroke:#111;stroke-linecap:round;stroke-width:1.2px;fill:none" d="M0 0h3.414"/>
    <path data-name="패스 66677" d="M16.622 2.75a2 2 0 1 1-2-2 2 2 0 0 1 2 2z" transform="translate(3.744 28.164)" style="stroke-linejoin:round;stroke:#111;stroke-linecap:round;stroke-width:1.2px;fill:none"/>
    <path data-name="패스 66678" d="M2.5 0h13a2.5 2.5 0 0 1 0 5h-13a2.5 2.5 0 0 1 0-5z" transform="translate(15 17)" style="fill:#34c8cf"/>
    <path data-name="패스 66679" d="M7.289 0h13.972a2.23 2.23 0 0 1 2.289 2.165 2.23 2.23 0 0 1-2.289 2.165H7.289A2.23 2.23 0 0 1 5 2.165 2.23 2.23 0 0 1 7.289 0z" transform="rotate(180 19.228 10.809)" style="stroke:#111;stroke-linecap:round;stroke-width:1.2px;fill:none"/>
    <path data-name="사각형 3284" style="opacity:.24;fill:none" d="M0 0h36v36H0z"/>
</svg>
