<svg xmlns="http://www.w3.org/2000/svg" width="36" height="36" viewBox="0 0 36 36">
    <defs>
        <clipPath id="674zne6kia">
            <path data-name="사각형 3235" transform="translate(-4 -4)" style="fill:red;opacity:.24" d="M0 0h36v36H0z"/>
        </clipPath>
    </defs>
    <g data-name="그룹 4951" transform="translate(7 3)">
        <g data-name="마스크 그룹 3199" transform="translate(-3 1)" style="clip-path:url(#674zne6kia)">
            <g data-name="그룹 3303">
                <path data-name="패스 66438" d="M4.376 0h18.248A2.376 2.376 0 0 1 25 2.376v24.86a2.376 2.376 0 0 1-2.376 2.376H4.376A2.376 2.376 0 0 1 2 27.236V2.376A2.376 2.376 0 0 1 4.376 0z" transform="rotate(-90 12.71 13.29)" style="fill:none;stroke:#111;stroke-linecap:round;stroke-width:1.2px"/>
            </g>
        </g>
        <circle data-name="타원 378" cx="1.504" cy="1.504" transform="translate(.68 9.906)" style="fill:#34c8cf" r="1.504"/>
        <path data-name="패스 66695" d="M16.318 2.6A1.848 1.848 0 1 1 14.471.75a1.848 1.848 0 0 1 1.847 1.85z" transform="translate(-12.318 8.779)" style="stroke-linejoin:round;fill:none;stroke:#111;stroke-linecap:round;stroke-width:1.2px"/>
        <path data-name="패스 66696" d="m-10751.312-21360.086 7.38 4 10.2-7.354" transform="translate(10755 21373)" style="stroke-linejoin:bevel;fill:none;stroke:#111;stroke-linecap:round;stroke-width:1.2px"/>
        <circle data-name="타원 379" cx="1.504" cy="1.504" transform="translate(19.528 8.09)" style="fill:#34c8cf" r="1.504"/>
        <path data-name="패스 66697" d="M16.318 2.6A1.848 1.848 0 1 1 14.471.75a1.848 1.848 0 0 1 1.847 1.85z" transform="translate(6.53 6.963)" style="stroke-linejoin:round;fill:none;stroke:#111;stroke-linecap:round;stroke-width:1.2px"/>
        <circle data-name="타원 380" cx="1.504" cy="1.504" transform="translate(9.528 15.439)" style="fill:#34c8cf" r="1.504"/>
        <path data-name="패스 66698" d="M16.318 2.6A1.848 1.848 0 1 1 14.471.75a1.848 1.848 0 0 1 1.847 1.85z" transform="translate(-3.47 14.313)" style="stroke-linejoin:round;fill:none;stroke:#111;stroke-linecap:round;stroke-width:1.2px"/>
        <path data-name="선 760" transform="translate(5 28.541)" style="stroke-linejoin:round;fill:none;stroke:#111;stroke-linecap:round;stroke-width:1.2px" d="M0 0h12.5"/>
    </g>
</svg>
