<svg xmlns="http://www.w3.org/2000/svg" width="36" height="36" viewBox="0 0 36 36">
    <defs>
        <clipPath id="f93fnr64ha">
            <path data-name="사각형 1662" transform="translate(-7 -3)" style="opacity:.24;fill:none" d="M0 0h36v36H0z"/>
        </clipPath>
    </defs>
    <g style="clip-path:url(#f93fnr64ha)" transform="translate(7 3)">
        <path data-name="패스 66401" d="m18.5 26.162-11 4.893-11-4.894V3.056h22v23.106z" transform="rotate(180 9.246 16.027)" style="stroke-width:1.2px;stroke-linejoin:round;stroke:#111;stroke-linecap:round;fill:none"/>
        <path data-name="패스 66402" d="M14.122 1.5a.75.75 0 1 1-.75-.75.75.75 0 0 1 .75.75z" transform="translate(-2.38 7.898)" style="stroke-width:1.2px;stroke-linejoin:round;stroke:#111;stroke-linecap:round;fill:none"/>
        <path data-name="패스 66405" d="M0 2.045v5" transform="rotate(90 .772 14.773)" style="stroke-width:1.2px;stroke:#111;stroke-linecap:round;fill:none"/>
        <path data-name="패스 66592" d="M-1.6 0h5" transform="translate(10.101 18)" style="stroke-width:1.2px;stroke:#111;stroke-linecap:round;fill:none"/>
        <path data-name="사각형 3241" transform="rotate(90 -4.685 17.758)" style="fill:#34c8cf;stroke:#707070;stroke-width:1.2px" d="M0 0h6.057v4.149H0z"/>
        <path data-name="패스 66456" d="M1 0h6.057v5.149H1z" transform="rotate(90 -3.935 17.508)" style="stroke-width:1.2px;stroke-linejoin:round;stroke:#111;stroke-linecap:round;fill:none"/>
    </g>
</svg>
