<svg xmlns="http://www.w3.org/2000/svg" width="36" height="36" viewBox="0 0 36 36">
    <g data-name="그룹 3185" transform="translate(3.711 .711)">
        <rect data-name="사각형 3159" width="28" height="33.25" rx="4" transform="translate(.289 .289)" style="stroke-linecap:round;stroke-linejoin:round;stroke:#111;stroke-width:1.2px;fill:none"/>
        <path data-name="패스 66189" d="M31.083 39.715H20.952a.723.723 0 0 1-.632-.788v-2.011a.876.876 0 0 1 .233-.612 8.026 8.026 0 0 1 10.928 0 .878.878 0 0 1 .233.612v2.011a.723.723 0 0 1-.631.788" transform="translate(-11.729 -19.695)" style="fill:#34c8cf;stroke:#111;stroke-width:1.2px"/>
        <circle data-name="타원 184" cx="3.45" cy="3.45" r="3.45" transform="translate(10.839 7.562)" style="fill:#34c8cf;stroke-linecap:round;stroke-linejoin:round;stroke:#111;stroke-width:1.2px"/>
        <path data-name="선 601" transform="translate(8.592 25.454)" style="stroke-linecap:round;stroke-linejoin:round;stroke:#111;stroke-width:1.2px;fill:none" d="M0 0h11.394"/>
    </g>
    <path data-name="사각형 3143" style="fill:transparent" d="M0 0h36v36H0z"/>
</svg>
