<svg xmlns="http://www.w3.org/2000/svg" width="36" height="36" viewBox="0 0 36 36">
    <path data-name="사각형 1662" style="fill:transparent" d="M0 0h36v36H0z"/>
    <g data-name="그룹 3167" transform="translate(2 4)">
        <path data-name="패스 66180" d="M22.775 28.711a7.061 7.061 0 1 1 1.87-13.863v-6.7H18.8v1.3a1.452 1.452 0 0 1-1.45 1.452h-9.3a1.452 1.452 0 0 1-1.456-1.449v-1.3H.75v24.986h23.895v-4.684a7.048 7.048 0 0 1-1.87.258z" transform="translate(-.75 -5.466)" style="stroke-width:1.2px;fill:none;stroke:#111;stroke-linecap:round;stroke-linejoin:round"/>
        <rect data-name="사각형 3148" width="12.207" height="5.436" rx="2.718" transform="translate(5.844)" style="stroke-width:1.2px;fill:none;stroke:#111;stroke-linecap:round;stroke-linejoin:round"/>
        <path data-name="패스 66181" d="M56.107 32.954a7.061 7.061 0 1 1-7.06-7.06 7.06 7.06 0 0 1 7.06 7.06" transform="translate(-27.022 -16.77)" style="fill:#34c8cf;stroke:#707070;stroke-width:1.2px"/>
        <path data-name="패스 66182" d="M56.107 32.954a7.061 7.061 0 1 1-7.06-7.06 7.06 7.06 0 0 1 7.06 7.06z" transform="translate(-27.022 -16.77)" style="stroke-width:1.2px;fill:none;stroke:#111;stroke-linecap:round;stroke-linejoin:round"/>
        <path data-name="선 585" transform="translate(27.009 21.185)" style="stroke-width:1.2px;fill:none;stroke:#111;stroke-linecap:round;stroke-linejoin:round" d="m0 0 5.515 5.515"/>
    </g>
</svg>
