<svg xmlns="http://www.w3.org/2000/svg" width="335" height="140" viewBox="0 0 335 140">
  <g id="그룹_3083" data-name="그룹 3083" transform="translate(-453 -526)">
    <rect id="사각형_3078" data-name="사각형 3078" width="335" height="140" rx="16" transform="translate(453 526)" fill="#f4f5f6"/>
    <g id="no_img" transform="translate(546 565)">
      <path id="패스_2477" data-name="패스 2477" d="M15.451,87.04a15.31,15.31,0,0,1,6.062,1.216A15.532,15.532,0,0,1,29.8,96.52a15.04,15.04,0,0,1,1.218,6.032v14.86h-5.17v-3.33a15.712,15.712,0,0,1-4.726,2.881A15.344,15.344,0,0,1,15.45,118a14.888,14.888,0,0,1-6-1.218,16.1,16.1,0,0,1-4.9-3.3,15.342,15.342,0,0,1-3.324-4.9,15.537,15.537,0,0,1,0-12.063,15.689,15.689,0,0,1,8.227-8.264A14.911,14.911,0,0,1,15.451,87.04Zm0,5.11a10.3,10.3,0,0,0-4.041.8,10.065,10.065,0,0,0-3.3,2.229,11.075,11.075,0,0,0-2.227,3.329,10.2,10.2,0,0,0,0,8.081,10.475,10.475,0,0,0,5.525,5.531,10.043,10.043,0,0,0,4.041.833,10.194,10.194,0,0,0,4.1-.833,10.649,10.649,0,0,0,3.3-2.23,10.522,10.522,0,0,0,2.2-11.381,10.691,10.691,0,0,0-2.2-3.329,10.055,10.055,0,0,0-3.3-2.229A10.468,10.468,0,0,0,15.451,92.15Z" transform="translate(0 -73.905)" fill="#cfd0d1"/>
      <path id="패스_2478" data-name="패스 2478" d="M260.413,13.135a14.933,14.933,0,0,1,5.673,1.07,16.337,16.337,0,0,1,4.726,2.909V0h5.052V28.645a15.074,15.074,0,0,1-1.219,6.033,15.389,15.389,0,0,1-8.2,8.2,15.074,15.074,0,0,1-6.03,1.218,14.883,14.883,0,0,1-6-1.218,16.068,16.068,0,0,1-4.9-3.3,15.306,15.306,0,0,1-3.329-4.9,15.568,15.568,0,0,1,0-12.065,15.718,15.718,0,0,1,8.232-8.264A14.911,14.911,0,0,1,260.413,13.135Zm0,5.11a10.3,10.3,0,0,0-4.043.8,10.087,10.087,0,0,0-3.3,2.229,11.019,11.019,0,0,0-2.227,3.329,10.2,10.2,0,0,0,0,8.081,10.471,10.471,0,0,0,5.526,5.531,10.223,10.223,0,0,0,8.084,0,11.037,11.037,0,0,0,3.329-2.23,9.935,9.935,0,0,0,2.224-3.3,10.462,10.462,0,0,0-2.224-11.41,10.363,10.363,0,0,0-7.37-3.029Z" transform="translate(-207.994)" fill="#cfd0d1"/>
      <path id="패스_2479" data-name="패스 2479" d="M486.36.38h5.113V7.275H486.36Zm0,13.788h5.113V43.885H486.36Z" transform="translate(-412.966 -0.323)" fill="#cfd0d1"/>
      <path id="패스_2480" data-name="패스 2480" d="M568.364,88.2a15.026,15.026,0,0,1,6.032,1.221,16.024,16.024,0,0,1,4.935,3.3,15.443,15.443,0,0,1,4.545,11,15.146,15.146,0,0,1-7.607,13.31,13.907,13.907,0,0,1,2.851,4.011A11.285,11.285,0,0,1,580.248,126a10.723,10.723,0,0,1-1.01,4.6,11.621,11.621,0,0,1-2.792,3.777,13.993,13.993,0,0,1-4.129,2.558,13.28,13.28,0,0,1-5.024.952v-5.055a8.811,8.811,0,0,0,3.063-.534,7.854,7.854,0,0,0,2.523-1.485,7.41,7.41,0,0,0,1.695-2.172A5.714,5.714,0,0,0,575.2,126a6.466,6.466,0,0,0-.536-2.641,7.127,7.127,0,0,0-3.655-3.658,6.514,6.514,0,0,0-2.645-.533,14.906,14.906,0,0,1-6-1.221,15.767,15.767,0,0,1-8.23-8.227,14.859,14.859,0,0,1-1.219-6,15.462,15.462,0,0,1,4.548-11,16.1,16.1,0,0,1,4.9-3.3A14.855,14.855,0,0,1,568.364,88.2Zm0,5.114a10.294,10.294,0,0,0-4.041.8,9.942,9.942,0,0,0-3.3,2.229,10.952,10.952,0,0,0-2.23,3.33,10.232,10.232,0,0,0,0,8.081,10.488,10.488,0,0,0,5.528,5.528,9.913,9.913,0,0,0,4.041.835,10.047,10.047,0,0,0,4.1-.835,10.689,10.689,0,0,0,3.3-2.229,10.51,10.51,0,0,0,2.2-11.38,10.616,10.616,0,0,0-2.2-3.33,10,10,0,0,0-3.3-2.229A10.439,10.439,0,0,0,568.364,93.314Z" transform="translate(-469.473 -74.89)" fill="#cfd0d1"/>
      <path id="패스_2481" data-name="패스 2481" d="M803.884,87.04a15.349,15.349,0,0,1,6.063,1.216,15.536,15.536,0,0,1,8.289,8.264,15.142,15.142,0,0,1,1.215,6.032v14.86h-5.167v-3.33a15.73,15.73,0,0,1-4.726,2.881A15.339,15.339,0,0,1,803.883,118a14.88,14.88,0,0,1-6-1.218,16.1,16.1,0,0,1-4.9-3.3,15.407,15.407,0,0,1-3.33-4.9,15.567,15.567,0,0,1,0-12.065,15.727,15.727,0,0,1,8.233-8.264A14.941,14.941,0,0,1,803.884,87.04Zm0,5.11a10.312,10.312,0,0,0-4.043.8,10.088,10.088,0,0,0-3.3,2.229,11.047,11.047,0,0,0-2.227,3.329,10.25,10.25,0,0,0,0,8.081,10.471,10.471,0,0,0,5.526,5.531,10.056,10.056,0,0,0,4.043.833,10.169,10.169,0,0,0,4.1-.833,10.606,10.606,0,0,0,3.3-2.23,10.2,10.2,0,0,0,2.2-3.3,10.551,10.551,0,0,0,0-8.081,10.613,10.613,0,0,0-2.2-3.329,10.016,10.016,0,0,0-3.3-2.229A10.442,10.442,0,0,0,803.884,92.15Z" transform="translate(-669.452 -73.905)" fill="#cfd0d1"/>
    </g>
  </g>
</svg>
