<svg xmlns="http://www.w3.org/2000/svg" width="229" height="96" viewBox="0 0 229 96">
  <g id="그룹_3082" data-name="그룹 3082" transform="translate(-453 -698)">
    <rect id="그룹_3110" data-name="그룹 3110" width="229" height="96" transform="translate(453 698)" fill="#f4f5f6"/>
    <g id="no_img" transform="translate(525 728)">
      <path id="패스_2477" data-name="패스 2477" d="M8.829,87.04a8.749,8.749,0,0,1,3.464.7,8.876,8.876,0,0,1,4.738,4.722,8.594,8.594,0,0,1,.7,3.447V104.4H14.773v-1.9a8.978,8.978,0,0,1-2.7,1.646,8.768,8.768,0,0,1-3.243.6,8.508,8.508,0,0,1-3.431-.7,9.2,9.2,0,0,1-2.8-1.885,8.767,8.767,0,0,1-1.9-2.8,8.879,8.879,0,0,1,0-6.894,8.965,8.965,0,0,1,4.7-4.722A8.521,8.521,0,0,1,8.829,87.04Zm0,2.92a5.886,5.886,0,0,0-2.309.457,5.752,5.752,0,0,0-1.884,1.274,6.328,6.328,0,0,0-1.273,1.9,5.828,5.828,0,0,0,0,4.618,5.986,5.986,0,0,0,3.157,3.16,5.739,5.739,0,0,0,2.309.476,5.825,5.825,0,0,0,2.344-.476,6.085,6.085,0,0,0,1.886-1.275,6.013,6.013,0,0,0,1.257-6.5,6.109,6.109,0,0,0-1.257-1.9,5.746,5.746,0,0,0-1.886-1.274A5.982,5.982,0,0,0,8.829,89.96Z" transform="translate(0 -79.534)" fill="#cfd0d1"/>
      <path id="패스_2478" data-name="패스 2478" d="M253.79,7.506a8.533,8.533,0,0,1,3.242.611,9.335,9.335,0,0,1,2.7,1.663V0h2.887V16.369a8.614,8.614,0,0,1-.7,3.448,8.794,8.794,0,0,1-4.687,4.688,8.614,8.614,0,0,1-3.446.7,8.5,8.5,0,0,1-3.431-.7,9.182,9.182,0,0,1-2.8-1.885,8.747,8.747,0,0,1-1.9-2.8,8.9,8.9,0,0,1,0-6.894,8.982,8.982,0,0,1,4.7-4.722A8.521,8.521,0,0,1,253.79,7.506Zm0,2.92a5.887,5.887,0,0,0-2.31.457,5.764,5.764,0,0,0-1.885,1.274,6.3,6.3,0,0,0-1.273,1.9,5.828,5.828,0,0,0,0,4.618,5.984,5.984,0,0,0,3.158,3.16,5.842,5.842,0,0,0,4.62,0,6.307,6.307,0,0,0,1.9-1.275,5.677,5.677,0,0,0,1.271-1.886A5.978,5.978,0,0,0,258,12.156a5.922,5.922,0,0,0-4.212-1.731Z" transform="translate(-223.836)" fill="#cfd0d1"/>
      <path id="패스_2479" data-name="패스 2479" d="M486.36.38h2.922V4.32H486.36Zm0,7.879h2.922V25.24H486.36Z" transform="translate(-444.419 -0.347)" fill="#cfd0d1"/>
      <path id="패스_2480" data-name="패스 2480" d="M561.741,88.2a8.586,8.586,0,0,1,3.447.7,9.158,9.158,0,0,1,2.82,1.883,8.825,8.825,0,0,1,2.6,6.284,8.655,8.655,0,0,1-4.347,7.606,7.947,7.947,0,0,1,1.629,2.292,6.449,6.449,0,0,1,.645,2.836,6.128,6.128,0,0,1-.577,2.631,6.641,6.641,0,0,1-1.6,2.158A8,8,0,0,1,564,116.05a7.589,7.589,0,0,1-2.871.544v-2.889a5.035,5.035,0,0,0,1.751-.305,4.488,4.488,0,0,0,1.442-.849,4.235,4.235,0,0,0,.968-1.241,3.265,3.265,0,0,0,.357-1.512,3.694,3.694,0,0,0-.306-1.509,4.072,4.072,0,0,0-2.089-2.09,3.723,3.723,0,0,0-1.512-.3,8.518,8.518,0,0,1-3.431-.7,9.01,9.01,0,0,1-4.7-4.7,8.491,8.491,0,0,1-.7-3.431,8.836,8.836,0,0,1,2.6-6.284,9.2,9.2,0,0,1,2.8-1.883A8.489,8.489,0,0,1,561.741,88.2Zm0,2.922a5.882,5.882,0,0,0-2.309.457,5.681,5.681,0,0,0-1.884,1.274,6.26,6.26,0,0,0-1.275,1.9,5.847,5.847,0,0,0,0,4.618,5.994,5.994,0,0,0,3.159,3.159,5.665,5.665,0,0,0,2.309.477,5.741,5.741,0,0,0,2.343-.477,6.107,6.107,0,0,0,1.886-1.274,6.006,6.006,0,0,0,1.255-6.5,6.067,6.067,0,0,0-1.255-1.9,5.715,5.715,0,0,0-1.886-1.274A5.966,5.966,0,0,0,561.741,91.122Z" transform="translate(-505.23 -80.594)" fill="#cfd0d1"/>
      <path id="패스_2481" data-name="패스 2481" d="M797.261,87.04a8.771,8.771,0,0,1,3.465.7,8.878,8.878,0,0,1,4.737,4.722,8.652,8.652,0,0,1,.694,3.447V104.4H803.2v-1.9a8.989,8.989,0,0,1-2.7,1.646,8.765,8.765,0,0,1-3.243.6,8.5,8.5,0,0,1-3.43-.7,9.2,9.2,0,0,1-2.8-1.885,8.8,8.8,0,0,1-1.9-2.8,8.9,8.9,0,0,1,0-6.894,8.987,8.987,0,0,1,4.7-4.722A8.538,8.538,0,0,1,797.261,87.04Zm0,2.92a5.893,5.893,0,0,0-2.31.457,5.765,5.765,0,0,0-1.885,1.274,6.313,6.313,0,0,0-1.273,1.9,5.857,5.857,0,0,0,0,4.618,5.984,5.984,0,0,0,3.158,3.16,5.746,5.746,0,0,0,2.31.476,5.811,5.811,0,0,0,2.342-.476,6.06,6.06,0,0,0,1.885-1.275,5.829,5.829,0,0,0,1.257-1.886,6.03,6.03,0,0,0,0-4.618,6.064,6.064,0,0,0-1.257-1.9,5.723,5.723,0,0,0-1.885-1.274A5.968,5.968,0,0,0,797.261,89.96Z" transform="translate(-720.441 -79.534)" fill="#cfd0d1"/>
    </g>
  </g>
</svg>
