<?xml version="1.0" encoding="UTF-8"?>
<svg id="_레이어_1" data-name="레이어_1" xmlns="http://www.w3.org/2000/svg" viewBox="0 0 150 150">
  <defs>
    <style>
      .cls-1 {
        fill: #ff3a4a;
      }

      .cls-2 {
        fill: #fff;
      }
    </style>
  </defs>
  <rect class="cls-1" width="150" height="150" rx="45" ry="45"/>
  <g>
    <path class="cls-2" d="M33.79,52.86c-8.03,0-11.29.06-11.29.06v41.58h6.47v-12.7h5.81c4.91.06,8.94-3.87,9-8.78,0-.07,0-.15,0-.22v-10.91s.96-9.03-9.99-9.03h0ZM37.56,71.38c.19,1.85-1.17,3.51-3.02,3.69-.22.02-.45.02-.67,0h-4.9v-15.85s1.25.06,4.92.06c1.99-.04,3.63,1.53,3.67,3.52,0,.05,0,.1,0,.15v8.43Z"/>
    <path class="cls-2" d="M64.5,52.86h-9.89l-7.3,41.63h6.97l1.33-7.38h7.91l1.33,7.38h6.97l-7.31-41.63ZM56.25,80.88l3.29-19.42,3.29,19.42h-6.58Z"/>
    <path class="cls-2" d="M92.1,65.28h6.83c-.38-2.76,1.94-11.91-9.96-12.78-13.99-.29-14.62,13.41-8.55,19.59,2.82,3.24,11.45,6.72,11.53,11.63.58,2.19-.73,4.43-2.91,5.01s-4.43-.73-5.01-2.91c-.08-.29-.12-.59-.13-.9v-2.78h-6.97c-.29,2.43.02,4.89.89,7.18,1.46,3.15,4.53,5.23,7.99,5.43,7.72.98,13.5-3.34,13.12-10.53-.29-2.94,1.12-3.83-4.73-9.72-4.81-4.23-10.37-6.47-10.37-11.28-.25-2.27,1.38-4.31,3.65-4.56,2.27-.25,4.31,1.38,4.56,3.65h0l.06,3v-.02Z"/>
    <path class="cls-2" d="M120.65,65.28h6.83c-.38-2.76,1.94-11.91-9.96-12.78-13.99-.29-14.62,13.41-8.55,19.59,2.82,3.24,11.45,6.72,11.53,11.63.58,2.19-.73,4.43-2.91,5.01s-4.43-.73-5.01-2.91c-.08-.29-.12-.59-.13-.9v-2.78h-6.97c-.29,2.43.02,4.89.89,7.18,1.46,3.15,4.53,5.23,7.99,5.43,7.72.98,13.5-3.34,13.12-10.53-.29-2.94,1.12-3.83-4.73-9.72-4.81-4.23-10.37-6.47-10.37-11.28-.25-2.27,1.38-4.31,3.65-4.56,2.27-.25,4.31,1.38,4.56,3.65l.06,3v-.02Z"/>
  </g>
</svg>