<svg width="20" height="20" viewBox="0 0 20 20" fill="none" xmlns="http://www.w3.org/2000/svg">
<circle cx="10" cy="10" r="10" fill="#CCCCCC"/>
<path fill-rule="evenodd" clip-rule="evenodd" d="M14.8527 6.31443C15.0515 6.50748 15.1632 6.76918 15.1632 7.04204C15.1632 7.31489 15.0515 7.57659 14.8527 7.76965L8.48334 13.9475C8.28429 14.1403 8.01448 14.2486 7.73317 14.2486C7.45185 14.2486 7.18204 14.1403 6.98299 13.9475L4.85986 11.8882C4.67235 11.693 4.57026 11.4349 4.57512 11.1681C4.57997 10.9014 4.69138 10.6469 4.88588 10.4582C5.08037 10.2696 5.34277 10.1615 5.61779 10.1568C5.89281 10.1521 6.15897 10.2511 6.36021 10.433L7.73317 11.7646L13.3524 6.31443C13.5514 6.12161 13.8212 6.01331 14.1026 6.01331C14.3839 6.01331 14.6537 6.12161 14.8527 6.31443Z" fill="white"/>
</svg>
