<svg width="21" height="20" viewBox="0 0 21 20" fill="none" xmlns="http://www.w3.org/2000/svg">
<path d="M14.5615 2.5C14.6593 2.5 14.7477 2.53662 14.8076 2.59277C14.8662 2.64776 14.8925 2.71537 14.8926 2.77832C14.8926 2.84142 14.8664 2.90973 14.8076 2.96484C14.7477 3.021 14.6593 3.05762 14.5615 3.05762H5.43848C4.21303 3.05762 3.16133 3.99582 3.16113 5.22168V13.7773C3.16166 14.3622 3.41073 14.9155 3.84082 15.3184C4.26987 15.7203 4.84496 15.9414 5.43848 15.9414H14.5615C15.7889 15.9414 16.8389 15.0022 16.8389 13.7754V10.4336C16.8389 10.3706 16.8652 10.3031 16.9238 10.248C16.9836 10.192 17.0714 10.1554 17.1689 10.1553C17.2667 10.1553 17.3551 10.1919 17.415 10.248C17.4736 10.3031 17.4999 10.3706 17.5 10.4336V13.7783C17.5 14.1311 17.4262 14.4817 17.2812 14.8096C17.1363 15.1376 16.9228 15.4381 16.6514 15.6924C16.3799 15.9468 16.0551 16.1498 15.6963 16.2891C15.3377 16.4282 14.9523 16.5001 14.5625 16.5H5.43848C4.64942 16.5 3.89848 16.2057 3.34961 15.6914C2.87024 15.2422 2.57898 14.6585 2.51367 14.043L2.5 13.7773V5.22363L2.51367 4.95801C2.57904 4.34259 2.87031 3.75874 3.34961 3.30957C3.89847 2.79531 4.64948 2.50098 5.43848 2.50098L14.5615 2.5Z" fill="#888888" stroke="#888888"/>
<line x1="7.75" y1="7.25" x2="11.25" y2="7.25" stroke="#888888" stroke-width="1.5" stroke-linecap="round"/>
<line x1="7.75" y1="11.25" x2="11.25" y2="11.25" stroke="#888888" stroke-width="1.5" stroke-linecap="round"/>
<path d="M18.136 5.78339C18.1665 5.67154 18.1514 5.55215 18.094 5.45143C18.0365 5.35072 17.9415 5.27692 17.8297 5.24624L15.5792 4.62982C15.5237 4.61465 15.4659 4.61055 15.4089 4.61774C15.3518 4.62494 15.2968 4.64329 15.2469 4.67176C15.1969 4.70023 15.1531 4.73825 15.1179 4.78366C15.0826 4.82907 15.0567 4.88097 15.0415 4.9364C15.0264 4.99183 15.0223 5.04971 15.0294 5.10673C15.0366 5.16375 15.055 5.21879 15.0835 5.26872C15.1119 5.31865 15.15 5.36247 15.1954 5.39771C15.2408 5.43294 15.2927 5.45888 15.3481 5.47405L16.5798 5.81119L13.6572 7.47771C13.5564 7.53519 13.4826 7.63035 13.4519 7.74227C13.4213 7.85418 13.4364 7.97368 13.4939 8.07448C13.5513 8.17528 13.6465 8.24911 13.7584 8.27974C13.8703 8.31038 13.9898 8.2953 14.0906 8.23782L17.0133 6.5713L16.6761 7.80303C16.6455 7.91496 16.6606 8.03447 16.7181 8.13526C16.7756 8.23605 16.8708 8.30987 16.9828 8.34048C17.0947 8.37109 17.2142 8.35598 17.315 8.29848C17.4158 8.24097 17.4896 8.14578 17.5202 8.03385L18.136 5.78339Z" fill="#888888"/>
</svg>
