<svg width="20" height="20" viewBox="0 0 20 20" fill="none" xmlns="http://www.w3.org/2000/svg">
<circle cx="10" cy="10" r="10" fill="#0D8199"/>
<path fill-rule="evenodd" clip-rule="evenodd" d="M14.8525 6.31445C15.0513 6.50751 15.1629 6.76921 15.1629 7.04206C15.1629 7.31492 15.0513 7.57661 14.8525 7.76967L8.48309 13.9475C8.28405 14.1403 8.01424 14.2486 7.73292 14.2486C7.45161 14.2486 7.18179 14.1403 6.98275 13.9475L4.85962 11.8882C4.6721 11.693 4.57002 11.4349 4.57487 11.1681C4.57972 10.9014 4.69114 10.6469 4.88563 10.4582C5.08013 10.2696 5.34253 10.1615 5.61754 10.1568C5.89256 10.1521 6.15873 10.2511 6.35996 10.433L7.73292 11.7647L13.3521 6.31445C13.5512 6.12163 13.821 6.01333 14.1023 6.01333C14.3836 6.01333 14.6534 6.12163 14.8525 6.31445Z" fill="white"/>
</svg>
