<svg width="20" height="20" viewBox="0 0 20 20" fill="none" xmlns="http://www.w3.org/2000/svg">
<path fill-rule="evenodd" clip-rule="evenodd" d="M0.833496 10C0.833496 4.9375 4.93766 0.833336 10.0002 0.833336C15.0627 0.833336 19.1668 4.9375 19.1668 10C19.1668 15.0625 15.0627 19.1667 10.0002 19.1667C4.93766 19.1667 0.833496 15.0625 0.833496 10ZM10.0002 17.5C9.01525 17.5 8.03998 17.306 7.13004 16.9291C6.2201 16.5522 5.3933 15.9997 4.69686 15.3033C4.00042 14.6069 3.44798 13.7801 3.07107 12.8701C2.69416 11.9602 2.50016 10.9849 2.50016 10C2.50016 9.01509 2.69416 8.03982 3.07107 7.12988C3.44798 6.21994 4.00042 5.39314 4.69686 4.6967C5.3933 4.00026 6.2201 3.44782 7.13004 3.07091C8.03998 2.694 9.01525 2.5 10.0002 2.5C11.9893 2.5 13.8969 3.29018 15.3035 4.6967C16.71 6.10322 17.5002 8.01088 17.5002 10C17.5002 11.9891 16.71 13.8968 15.3035 15.3033C13.8969 16.7098 11.9893 17.5 10.0002 17.5Z" fill="#0D8199"/>
<circle cx="6" cy="9.77979" r="1" fill="#0D8199"/>
<circle cx="10" cy="9.77979" r="1" fill="#0D8199"/>
<circle cx="14" cy="9.77979" r="1" fill="#0D8199"/>
</svg>
