<svg width="20" height="20" viewBox="0 0 20 20" fill="none" xmlns="http://www.w3.org/2000/svg">
<path d="M13.6168 7.76834C13.6968 7.6937 13.7614 7.60403 13.8068 7.50444C13.8522 7.40486 13.8775 7.2973 13.8814 7.18792C13.8852 7.07854 13.8675 6.96948 13.8291 6.86696C13.7908 6.76444 13.7327 6.67047 13.658 6.59042C13.5834 6.51037 13.4937 6.4458 13.3942 6.4004C13.2946 6.35501 13.187 6.32967 13.0776 6.32584C12.9683 6.32201 12.8592 6.33976 12.7567 6.37808C12.6541 6.4164 12.5602 6.47454 12.4801 6.54917L10.0418 8.8225L7.76846 6.38334C7.61635 6.22754 7.40931 6.13747 7.19163 6.13239C6.97395 6.12731 6.76293 6.20764 6.60372 6.35617C6.44451 6.50471 6.34976 6.70966 6.33975 6.92717C6.32973 7.14468 6.40525 7.35747 6.55013 7.52L8.82346 9.95834L6.3843 12.2317C6.30142 12.3055 6.23414 12.3952 6.18641 12.4955C6.13868 12.5957 6.11146 12.7045 6.10635 12.8154C6.10124 12.9263 6.11835 13.0371 6.15667 13.1413C6.19499 13.2455 6.25374 13.341 6.32948 13.4222C6.40522 13.5034 6.49642 13.5686 6.59772 13.6141C6.69902 13.6595 6.80838 13.6843 6.91937 13.6868C7.03037 13.6894 7.14076 13.6698 7.24407 13.6291C7.34738 13.5885 7.44152 13.5276 7.52096 13.45L9.9593 11.1775L12.2326 13.6158C12.306 13.7002 12.3957 13.769 12.4962 13.818C12.5968 13.8671 12.7062 13.8953 12.8179 13.9012C12.9296 13.907 13.0413 13.8904 13.1464 13.8521C13.2516 13.8138 13.3479 13.7548 13.4297 13.6785C13.5115 13.6023 13.5772 13.5103 13.6227 13.4081C13.6682 13.3059 13.6927 13.1956 13.6947 13.0838C13.6966 12.9719 13.6761 12.8608 13.6342 12.7571C13.5924 12.6534 13.53 12.5591 13.451 12.48L11.1785 10.0417L13.6168 7.76834Z" fill="#333333"/>
<path fill-rule="evenodd" clip-rule="evenodd" d="M0.833496 10C0.833496 4.9375 4.93766 0.833336 10.0002 0.833336C15.0627 0.833336 19.1668 4.9375 19.1668 10C19.1668 15.0625 15.0627 19.1667 10.0002 19.1667C4.93766 19.1667 0.833496 15.0625 0.833496 10ZM10.0002 17.5C9.01525 17.5 8.03998 17.306 7.13004 16.9291C6.2201 16.5522 5.3933 15.9997 4.69686 15.3033C4.00042 14.6069 3.44798 13.7801 3.07107 12.8701C2.69416 11.9602 2.50016 10.9849 2.50016 10C2.50016 9.01509 2.69416 8.03982 3.07107 7.12988C3.44798 6.21994 4.00042 5.39314 4.69686 4.6967C5.3933 4.00026 6.2201 3.44782 7.13004 3.07091C8.03998 2.694 9.01525 2.5 10.0002 2.5C11.9893 2.5 13.8969 3.29018 15.3035 4.6967C16.71 6.10322 17.5002 8.01088 17.5002 10C17.5002 11.9891 16.71 13.8968 15.3035 15.3033C13.8969 16.7098 11.9893 17.5 10.0002 17.5Z" fill="#333333"/>
</svg>
