<svg width="20" height="20" viewBox="0 0 20 20" fill="none" xmlns="http://www.w3.org/2000/svg">
<path d="M10.9883 17.3838V17.5H9.01172V17.3838H10.9883ZM3.86719 16.8389C4.23038 17.0631 4.67735 17.1971 5.25293 17.2744C5.96091 17.3693 6.85404 17.3803 8.01172 17.3818V17.498C6.85465 17.4967 5.95213 17.487 5.2373 17.3906C4.63937 17.31 4.168 17.1688 3.78223 16.9238L3.86719 16.8389ZM16.2168 16.9238C15.8305 17.1684 15.359 17.3101 14.7617 17.3906C14.0463 17.4869 13.1448 17.4967 11.9883 17.498V17.3818C13.1459 17.3803 14.0394 17.3693 14.7461 17.2744C15.3224 17.1971 15.7696 17.0636 16.1328 16.8398L16.2168 16.9238ZM2.61719 11.9883C2.61848 12.981 2.62706 13.7796 2.68945 14.4326L2.72461 14.7471C2.80189 15.3226 2.93588 15.7689 3.15918 16.1318L3.07715 16.2158L3.0752 16.2168C2.83079 15.8306 2.68987 15.3588 2.60938 14.7617C2.51308 14.0463 2.50234 13.1449 2.50098 11.9883H2.61719ZM17.499 11.9883C17.4977 13.145 17.4869 14.047 17.3906 14.7617C17.31 15.3596 17.1686 15.831 16.9238 16.2168L16.8389 16.1318C17.0629 15.7687 17.1971 15.3224 17.2744 14.7471C17.3694 14.0397 17.3813 13.1461 17.3828 11.9883H17.499ZM2.61621 9.01172V10.9883H2.5V9.01172H2.61621ZM17.3916 9.08008C17.48 9.48594 17.4952 9.97238 17.498 10.6631H17.3818C17.3789 9.98429 17.3632 9.51526 17.2822 9.12891L17.3867 9.08203L17.3916 9.08008ZM15.8799 7.0293C16.3914 7.4932 16.743 7.82906 16.9854 8.16602L16.9805 8.16895L16.875 8.21484C16.642 7.89683 16.3032 7.57244 15.8018 7.11719L15.8418 7.07227L15.8799 7.0293ZM3.16016 3.86719C2.93601 4.23032 2.8019 4.67751 2.72461 5.25293C2.6297 5.96089 2.61869 6.85409 2.61719 8.01172H2.50098C2.50234 6.85467 2.51303 5.95213 2.60938 5.2373C2.69 4.63956 2.83035 4.16793 3.0752 3.78223L3.16016 3.86719ZM15.1377 6.3584L15.0596 6.44629L12.8574 4.46484L12.8955 4.4209L12.9355 4.37695L15.1377 6.3584ZM11.2188 2.93164C11.5002 3.10996 11.7968 3.35846 12.1904 3.70898L12.1123 3.7959C11.7278 3.45348 11.4426 3.21345 11.1768 3.04199L11.2188 2.93164ZM8.03418 2.61719C7.03475 2.61846 6.2313 2.62702 5.57422 2.68945L5.25879 2.72461C4.67937 2.80191 4.23123 2.93619 3.86719 3.16016L3.78223 3.0752C4.16911 2.83067 4.64281 2.68998 5.24316 2.60938C5.96202 2.51291 6.86926 2.50233 8.03418 2.50098V2.61719ZM9.03418 2.50098C9.56558 2.50362 9.95502 2.51737 10.2852 2.57324L10.2422 2.68359C9.92847 2.63309 9.55317 2.61995 9.03418 2.61719V2.50098Z" fill="#888888" fill-opacity="0.533333" stroke="#888888"/>
<path d="M10.7441 2.93033V4.79076C10.7441 6.54478 10.7441 7.42216 11.2889 7.9669C11.8336 8.51163 12.711 8.51163 14.465 8.51163H17.4417" stroke="#888888" stroke-width="1.5"/>
<path d="M6 13L7.66625 15L11 11" stroke="#888888" stroke-width="1.5" stroke-linecap="round" stroke-linejoin="round"/>
</svg>
