<svg width="20" height="20" viewBox="0 0 20 20" fill="none" xmlns="http://www.w3.org/2000/svg">
<path d="M10 0.5C15.2467 0.5 19.5 4.75329 19.5 10C19.5 15.2467 15.2467 19.5 10 19.5C4.75329 19.5 0.5 15.2467 0.5 10C0.5 4.75329 4.75329 0.5 10 0.5ZM13.8975 6.21289C13.6302 6.21289 13.3737 6.31585 13.1846 6.49902L7.84668 11.6768L6.54199 10.4111C6.35085 10.2385 6.09808 10.1449 5.83691 10.1494C5.57565 10.1539 5.32637 10.2563 5.1416 10.4355C4.95698 10.6147 4.85138 10.8561 4.84668 11.1094C4.84207 11.3628 4.93905 11.6085 5.11719 11.7939L7.13379 13.75C7.32288 13.9332 7.57943 14.0361 7.84668 14.0361C8.11386 14.0361 8.37052 13.9331 8.55957 13.75L14.6104 7.88086C14.7989 7.6976 14.9051 7.44933 14.9053 7.19043C14.9053 6.93135 14.799 6.6824 14.6104 6.49902C14.4213 6.31586 14.1647 6.2129 13.8975 6.21289Z" fill="#CCCCCC"/>
</svg>
