<svg width="20" height="20" viewBox="0 0 20 20" fill="none" xmlns="http://www.w3.org/2000/svg">
<path fill-rule="evenodd" clip-rule="evenodd" d="M0.833252 9.99998C0.833252 4.93748 4.93742 0.833313 9.99992 0.833313C15.0624 0.833313 19.1666 4.93748 19.1666 9.99998C19.1666 15.0625 15.0624 19.1666 9.99992 19.1666C4.93742 19.1666 0.833252 15.0625 0.833252 9.99998ZM9.99992 17.5C9.01501 17.5 8.03974 17.306 7.12979 16.9291C6.21985 16.5522 5.39306 15.9997 4.69662 15.3033C4.00018 14.6068 3.44773 13.78 3.07082 12.8701C2.69391 11.9602 2.49992 10.9849 2.49992 9.99998C2.49992 9.01507 2.69391 8.0398 3.07082 7.12985C3.44773 6.21991 4.00018 5.39312 4.69662 4.69668C5.39306 4.00024 6.21985 3.44779 7.12979 3.07088C8.03974 2.69397 9.01501 2.49998 9.99992 2.49998C11.989 2.49998 13.8967 3.29016 15.3032 4.69668C16.7097 6.1032 17.4999 8.01086 17.4999 9.99998C17.4999 11.9891 16.7097 13.8968 15.3032 15.3033C13.8967 16.7098 11.989 17.5 9.99992 17.5Z" fill="#CCCCCC"/>
<circle cx="6" cy="9.77979" r="1" fill="#CCCCCC"/>
<circle cx="10" cy="9.77979" r="1" fill="#CCCCCC"/>
<circle cx="14" cy="9.77979" r="1" fill="#CCCCCC"/>
</svg>
