<svg width="20" height="20" viewBox="0 0 20 20" fill="none" xmlns="http://www.w3.org/2000/svg">
<path d="M1.6665 8.75C1.6665 8.10833 1.67734 7.48083 1.69984 6.875C1.769 4.8975 1.804 3.90833 2.60817 3.0975C3.41234 2.2875 4.42984 2.24417 6.46317 2.15667C7.64141 2.1072 8.82056 2.08275 9.99984 2.08333C11.2332 2.08333 12.4207 2.10833 13.5365 2.15667C15.5698 2.24417 16.5865 2.2875 17.3915 3.09833C18.1957 3.90833 18.2307 4.8975 18.2998 6.875C18.3438 8.12461 18.3438 9.37539 18.2998 10.625C18.2307 12.6025 18.1957 13.5917 17.3915 14.4025C16.5873 15.2125 15.5698 15.2558 13.5365 15.3433C12.9243 15.3694 12.2923 15.3889 11.6407 15.4017C11.024 15.4133 10.7148 15.4183 10.4432 15.5225C10.1715 15.6267 9.94317 15.8208 9.4865 16.2125L7.67067 17.7708C7.5823 17.8466 7.47405 17.8954 7.35878 17.9114C7.24351 17.9275 7.12606 17.9101 7.02035 17.8614C6.91464 17.8128 6.82511 17.7348 6.76239 17.6367C6.69968 17.5387 6.6664 17.4247 6.6665 17.3083V15.3517L6.46317 15.3433C4.42984 15.2558 3.41317 15.2125 2.60817 14.4017C1.804 13.5917 1.769 12.6025 1.69984 10.625C1.67774 10.0002 1.66663 9.37515 1.6665 8.75Z" stroke="#888888" stroke-width="1.5" stroke-linecap="round" stroke-linejoin="round"/>
<path d="M12.5 8.33334C12.5 8.33334 10.6583 5.83334 10 5.83334C9.34167 5.83334 7.5 8.33334 7.5 8.33334M10 6.25V11.6667" stroke="#888888" stroke-width="1.5" stroke-linecap="round" stroke-linejoin="round"/>
</svg>
